<svg xmlns="http://www.w3.org/2000/svg" viewBox="0 0 87.33 55.33"><defs><style>.cls-1{fill:#fff;}</style></defs><g id="Layer_2" data-name="Layer 2"><g id="Layer_1-2" data-name="Layer 1"><path class="cls-1" d="M44,34.46c-12.16,0-24.32,0-36.48,0C3.65,34.51,0,33.94,0,29.22S3.74,24,7.6,24q36.15.06,72.3,0c3.93,0,7.31.79,7.43,5.5.12,5.26-3.85,5-7.49,5Z"/><path class="cls-1" d="M44,10.5c-12.16,0-24.32,0-36.48,0C3.65,10.55,0,10,0,5.26S3.74,0,7.6,0Q43.75.06,79.9,0c3.93,0,7.31.79,7.43,5.5.12,5.26-3.85,5-7.49,5Z"/><path class="cls-1" d="M29.05,44.92c7.08,0,14.15,0,21.22,0,3.41,0,6.37.49,6.45,4.75.08,4-2.73,5.54-6.06,5.57q-22.54.22-45.09,0c-3.23,0-5.62-2-5.57-5.4s2.49-4.91,5.84-4.9Z"/></g></g></svg>