<svg xmlns="http://www.w3.org/2000/svg" xmlns:xlink="http://www.w3.org/1999/xlink" width="76.496" height="46.954" viewBox="0 0 76.496 46.954">
  <defs>
    <clipPath id="clip-path">
      <rect id="Rectangle_315" data-name="Rectangle 315" width="76.496" height="46.954" transform="translate(4247 5875)" fill="#fff" stroke="#707070" stroke-width="1"/>
    </clipPath>
  </defs>
  <g id="Mask_Group_2" data-name="Mask Group 2" transform="translate(-4247 -5875)" clip-path="url(#clip-path)">
    <g id="deliverytruck2" transform="translate(4251.384 5875)">
      <g id="Group_1686" data-name="Group 1686" transform="translate(42.614 29.88)">
        <g id="Group_1685" data-name="Group 1685">
          <path fill="#5698d3" id="Path_1276" data-name="Path 1276" d="M363.4,335.312a8.537,8.537,0,1,0,8.537,8.537A8.547,8.547,0,0,0,363.4,335.312Zm0,12.806a4.269,4.269,0,1,1,4.269-4.269A4.273,4.273,0,0,1,363.4,348.117Z" transform="translate(-354.862 -335.312)"/>
        </g>
      </g>
      <g id="Group_1688" data-name="Group 1688" transform="translate(13.446 29.88)">
        <g id="Group_1687" data-name="Group 1687">
          <path fill="#5698d3" id="Path_1277" data-name="Path 1277" d="M120.505,335.312a8.537,8.537,0,1,0,8.537,8.537A8.547,8.547,0,0,0,120.505,335.312Zm0,12.806a4.269,4.269,0,1,1,4.269-4.269A4.273,4.273,0,0,1,120.505,348.117Z" transform="translate(-111.968 -335.312)"/>
        </g>
      </g>
      <g id="Group_1690" data-name="Group 1690" transform="translate(43.753 4.269)">
        <g id="Group_1689" data-name="Group 1689">
          <path fill="#5698d3" id="Path_1278" data-name="Path 1278" d="M377.488,123.215a2.135,2.135,0,0,0-1.907-1.175H364.341v4.269h9.924l5.812,11.559,3.815-1.918Z" transform="translate(-364.341 -122.039)"/>
        </g>
      </g>
      <g id="Group_1692" data-name="Group 1692" transform="translate(28.599 36.354)">
        <g id="Group_1691" data-name="Group 1691">
          <rect fill="#5698d3" id="Rectangle_314" data-name="Rectangle 314" width="16.149" height="4.269"/>
        </g>
      </g>
      <g id="Group_1694" data-name="Group 1694" transform="translate(6.047 36.354)">
        <g id="Group_1693" data-name="Group 1693">
          <path fill="#5698d3" id="Path_1279" data-name="Path 1279" d="M59.89,389.223h-7.4a2.134,2.134,0,1,0,0,4.268h7.4a2.134,2.134,0,1,0,0-4.268Z" transform="translate(-50.357 -389.223)"/>
        </g>
      </g>
      <g id="Group_1696" data-name="Group 1696" transform="translate(6.047 0)">
        <g id="Group_1695" data-name="Group 1695">
          <path fill="#5698d3" id="Path_1280" data-name="Path 1280" d="M111.589,109.8l-4.2-5.407a2.131,2.131,0,0,0-1.685-.825H90.2V88.628a2.134,2.134,0,0,0-2.134-2.134H52.491a2.134,2.134,0,0,0,0,4.268H85.928V105.7a2.134,2.134,0,0,0,2.134,2.134h16.6l3.108,4v11.007h-5.9a2.134,2.134,0,0,0,0,4.268H109.9a2.134,2.134,0,0,0,2.134-2.134V111.109A2.137,2.137,0,0,0,111.589,109.8Z" transform="translate(-50.357 -86.494)"/>
        </g>
      </g>
      <line id="Line_27" data-name="Line 27" y2="35" transform="translate(8.116 2.454)" fill="none" stroke="#5698d3" stroke-linecap="round" stroke-width="5"/>
    </g>
  </g>
</svg>
