<?xml version="1.0" encoding="utf-8"?>
<!-- Generator: Adobe Illustrator 24.3.0, SVG Export Plug-In . SVG Version: 6.00 Build 0)  -->
<svg version="1.1" xmlns="http://www.w3.org/2000/svg" xmlns:xlink="http://www.w3.org/1999/xlink" x="0px" y="0px"
	 viewBox="0 0 500 500" style="enable-background:new 0 0 500 500;" xml:space="preserve">
<g id="Background_Complete">
	<g>
		<g>
			<path style="fill:#EBEBEB;" d="M465.35,427.15c0,0.14-94.7,0.26-211.5,0.26c-116.84,0-211.52-0.12-211.52-0.26
				c0-0.14,94.68-0.26,211.52-0.26C370.64,426.89,465.35,427.01,465.35,427.15z"/>
		</g>
	</g>
	<g>
		<path style="fill:#F9F3DC;stroke:#263238;stroke-width:2;stroke-miterlimit:10;" d="M414.12,449.63
			c-7.91-3.58-17.62-2.86-24.91,1.86c-1.96-13.61-10.32-26.16-22.12-33.21c-11.8-7.05-26.81-8.47-39.73-3.75
			c-2.29-15.57-12.52-29.76-26.56-36.85c-14.05-7.09-31.53-6.9-45.42,0.49c-9.25-7.31-21.96-10.05-33.4-7.2
			c-11.44,2.85-21.38,11.23-26.12,22.03c-12.33-10.77-30.71-14.07-46.02-8.26c-15.3,5.81-26.87,20.48-28.94,36.72
			c-11.57-3.89-24.9-2.16-35.09,4.56c-10.19,6.72-20.79,27.39-21.77,39.56l363.73,1.83C426.51,458.83,422.03,453.21,414.12,449.63z"
			/>
	</g>
</g>
<g id="Background_Simple" style="display:none;">
	<g style="display:inline;">
		<path style="fill:#EBEBEB;" d="M418.46,171.85l-2.07-3.4c-17.41-28.69-48.89-45.98-82.07-43.89c-4.27,0.27-8.51,0.85-12.7,1.74
			c-30.17,6.46-56.43,29.28-67.31,58.5c-6.4,17.19-8.19,36.97-20.33,50.62c-15.81,17.75-42.64,18.31-66.24,17.58
			c-23.59-0.74-50.45-0.11-66.18,17.72c-9.85,11.16-12.98,27.04-12.19,41.99c2.1,39.58,29.68,74.97,64.76,92.56
			s76.37,19.17,114.76,11.43c53.78-10.84,104.92-40.61,135.66-86.59C435.28,284.12,443.06,221.48,418.46,171.85z"/>
	</g>
	<circle style="display:inline;fill:#EBEBEB;" cx="179.71" cy="113.53" r="41.92"/>
</g>
<g id="Character">
	<g>
		<g>
			<g>
				<path style="fill:#FF725E;" d="M34.66,457.36c65.32,2.86,131.41-15.56,185.83-51.8s85.76-96.09,108.31-157.46l45.63,15.66
					c0,0-28.93,138.65-107.99,202.7H34.66V457.36z"/>
			</g>
			<g style="opacity:0.6;">
				<g>
					<path style="fill:#FFFFFF;" d="M34.66,457.36c65.32,2.86,131.41-15.56,185.83-51.8s85.76-96.09,108.31-157.46l45.63,15.66
						c0,0-28.93,144.97-107.99,202.7H34.66V457.36z"/>
				</g>
			</g>
		</g>
		<g>
			<g>
				<path style="fill:#FF725E;" d="M323.64,264.35c0.34,0.12,0.2,1.45-0.38,3.88c-0.29,1.21-0.69,2.7-1.19,4.45
					c-0.26,0.87-0.54,1.81-0.83,2.82c-0.32,1-0.71,2.04-1.1,3.15c-0.8,2.22-1.71,4.69-2.72,7.38c-1.07,2.67-2.34,5.53-3.67,8.61
					c-1.28,3.11-2.96,6.29-4.62,9.73c-1.62,3.46-3.64,6.95-5.67,10.68c-0.51,0.93-1.03,1.87-1.55,2.82
					c-0.56,0.93-1.13,1.87-1.7,2.82c-1.15,1.9-2.33,3.84-3.54,5.81c-0.3,0.49-0.61,0.99-0.91,1.49c-0.32,0.49-0.65,0.98-0.98,1.47
					c-0.66,0.98-1.32,1.97-1.99,2.98c-1.35,1.99-2.67,4.07-4.13,6.09c-2.97,4.01-5.91,8.27-9.31,12.37c-1.68,2.07-3.31,4.23-5.1,6.3
					c-1.8,2.07-3.62,4.16-5.46,6.29l-1.39,1.59l-1.46,1.55c-0.98,1.04-1.96,2.08-2.95,3.12c-0.99,1.05-1.99,2.1-2.99,3.16
					c-1,1.06-2.08,2.05-3.12,3.09c-2.12,2.05-4.22,4.16-6.42,6.21c-2.24,2.01-4.5,4.03-6.78,6.08c-9.27,8.01-19.37,15.74-30.23,22.9
					c-21.77,14.17-44.21,24.95-65.39,32.44c-2.66,0.92-5.28,1.82-7.87,2.71c-2.62,0.79-5.2,1.58-7.75,2.35
					c-1.27,0.38-2.54,0.76-3.79,1.14c-1.27,0.33-2.53,0.65-3.78,0.98c-2.5,0.64-4.96,1.27-7.38,1.89c-2.43,0.55-4.84,1.04-7.2,1.55
					c-2.36,0.48-4.66,1.03-6.95,1.37c-2.29,0.38-4.52,0.75-6.72,1.11c-1.1,0.17-2.17,0.38-3.25,0.51c-1.08,0.13-2.14,0.26-3.2,0.39
					c-4.21,0.49-8.21,1.04-12.03,1.23c-3.81,0.24-7.39,0.6-10.76,0.59c-3.37,0.05-6.49,0.14-9.37,0.1c-2.88-0.1-5.51-0.22-7.87-0.34
					c-1.18-0.07-2.29-0.11-3.34-0.2c-1.04-0.12-2.02-0.23-2.92-0.34c-1.81-0.22-3.33-0.44-4.56-0.65c-2.46-0.42-3.73-0.81-3.71-1.17
					c0.02-0.36,1.33-0.67,3.8-0.93c1.23-0.13,2.75-0.25,4.55-0.35c0.9-0.05,1.86-0.1,2.89-0.15c1.03-0.09,2.13-0.18,3.29-0.27
					c2.32-0.19,4.9-0.38,7.71-0.57c2.81-0.25,5.86-0.63,9.13-0.95c3.28-0.26,6.75-0.88,10.44-1.36c3.7-0.44,7.56-1.22,11.63-1.93
					c1.02-0.18,2.04-0.36,3.09-0.54c1.04-0.19,2.08-0.44,3.14-0.67c2.11-0.46,4.27-0.92,6.47-1.4c2.21-0.43,4.42-1.07,6.7-1.63
					c2.27-0.58,4.57-1.18,6.92-1.78c2.33-0.69,4.69-1.38,7.1-2.09c1.2-0.35,2.41-0.71,3.63-1.07c1.21-0.4,2.42-0.81,3.65-1.22
					c2.45-0.82,4.93-1.65,7.45-2.49c2.49-0.93,5.01-1.87,7.56-2.83c20.37-7.74,41.95-18.44,63.01-32.15
					c10.47-6.9,20.24-14.29,29.28-21.92c2.23-1.95,4.44-3.87,6.62-5.78c2.15-1.95,4.21-3.95,6.3-5.9c1.03-0.99,2.09-1.92,3.07-2.93
					c0.99-1,1.97-2,2.95-3c0.98-0.99,1.95-1.98,2.92-2.96l1.45-1.47l1.38-1.51c1.84-2.01,3.65-3.99,5.44-5.95
					c1.79-1.96,3.43-4,5.11-5.96c3.41-3.88,6.4-7.91,9.43-11.69c1.49-1.91,2.85-3.87,4.25-5.75c0.69-0.94,1.38-1.88,2.06-2.81
					c0.34-0.46,0.68-0.92,1.01-1.38c0.32-0.47,0.64-0.94,0.95-1.41c1.26-1.87,2.5-3.69,3.71-5.48c0.61-0.9,1.21-1.78,1.8-2.66
					c0.56-0.9,1.11-1.78,1.66-2.66c2.18-3.51,4.36-6.8,6.17-10.06c1.84-3.24,3.72-6.23,5.22-9.16c1.57-2.9,3.02-5.6,4.37-8.09
					c1.26-2.53,2.43-4.83,3.5-6.9c0.54-1.03,1.05-2.01,1.52-2.93c0.45-0.93,0.88-1.8,1.27-2.6c0.8-1.61,1.5-2.97,2.11-4.05
					C322.5,265.31,323.3,264.23,323.64,264.35z"/>
			</g>
		</g>
		<g>
			<path style="fill:#FF725E;" d="M326.16,285.68c-4.68,5.25-8.28,11.46-10.56,18.12c-1.49,4.35,3.48,8.07,7.27,5.45l0.1-0.07
				c-3.26,7.99-6,16.2-8.18,24.55c-1.4,5.33,4.6,9.51,9.1,6.33c17.64-12.48,30.68-31.48,35.58-52.55L326.16,285.68z"/>
		</g>
		<g style="opacity:0.3;">
			<g>
				<path d="M327.75,294.26c-0.79,0.91-1.6,1.84-1.98,2.98c-0.38,1.14-0.22,2.55,0.69,3.32c1.37,1.16,3.72,0.46,5.03,1.69
					c1.39,1.31,0.56,3.61-0.34,5.29c-0.96,1.78-1.92,3.55-2.88,5.33c-0.71,1.31-1.39,2.99-0.48,4.17c1,1.3,3.06,0.84,4.53,0.09
					c6.79-3.44,11.66-10.42,12.53-17.98L327.75,294.26z"/>
			</g>
		</g>
		<g>
			<g>
				<g>
					<path style="fill:#FF725E;" d="M407.05,222.75c0.04,0.06,0.13,0.19,0.27,0.4c15.54,23.2,19.67,52.21,11.3,78.85l-5.25,16.71
						l-25.94-33.48L407.05,222.75z"/>
				</g>
				<g>
					<g>
						<path style="fill:#263238;" d="M407.05,222.75c0,0.01-0.03,0.11-0.09,0.32c-0.07,0.22-0.16,0.52-0.27,0.9
							c-0.25,0.81-0.61,1.97-1.07,3.46c-0.94,3.03-2.29,7.42-4,12.95c-3.43,11.04-8.28,26.64-13.96,44.92l-0.04-0.22
							c7.29,9.39,15.29,19.7,23.66,30.5c0.79,1.01,1.57,2.02,2.3,2.96l-0.45,0.08c1.05-3.33,2.08-6.61,3.1-9.85
							c1-3.24,2.08-6.41,2.93-9.57c1.77-6.3,2.81-12.54,3.24-18.52c0.46-5.98,0.22-11.7-0.38-16.98c-0.24-2.65-0.76-5.17-1.16-7.61
							c-0.56-2.4-1.01-4.73-1.69-6.89c-2.45-8.71-5.65-15.34-8.1-19.73c-1.16-2.24-2.28-3.85-2.95-5
							C407.49,223.47,407.2,223,407.05,222.75c0,0,0.1,0.12,0.31,0.41c0.2,0.3,0.47,0.72,0.83,1.26c0.7,1.13,1.85,2.73,3.03,4.96
							c2.51,4.37,5.77,11,8.28,19.73c0.69,2.16,1.15,4.5,1.73,6.91c0.42,2.44,0.95,4.97,1.2,7.64c0.63,5.31,0.89,11.05,0.44,17.06
							c-0.42,6.01-1.45,12.29-3.22,18.63c-0.85,3.18-1.93,6.34-2.92,9.58c-1.02,3.24-2.05,6.52-3.09,9.85l-0.15,0.47l-0.3-0.39
							c-0.73-0.94-1.51-1.95-2.3-2.96c-8.37-10.81-16.36-21.13-23.63-30.53l-0.08-0.1l0.04-0.12c5.82-18.33,10.78-33.97,14.29-45.04
							c1.75-5.48,3.14-9.83,4.09-12.83c0.47-1.47,0.83-2.6,1.09-3.39c0.12-0.37,0.21-0.65,0.28-0.86
							C407.01,222.83,407.05,222.74,407.05,222.75z"/>
					</g>
				</g>
			</g>
			<g>
				<g>
					<path style="fill:#FF725E;" d="M312.28,192.98c-0.07,0.02-0.21,0.08-0.44,0.17c-25.66,10.01-45.36,31.16-53.61,57.44
						l-5.18,16.48l39.87-12.46L312.28,192.98z"/>
				</g>
				<g>
					<g>
						<path style="fill:#263238;" d="M312.28,192.98c0,0-0.02,0.09-0.08,0.28c-0.06,0.21-0.15,0.49-0.26,0.86
							c-0.24,0.78-0.59,1.91-1.03,3.36c-0.92,2.97-2.25,7.27-3.92,12.69c-3.4,10.94-8.2,26.4-13.83,44.52l-0.04,0.12l-0.12,0.04
							c-11.19,3.5-23.47,7.35-36.34,11.38c-1.21,0.38-2.41,0.75-3.53,1.1l-0.48,0.15l0.15-0.47c1.03-3.28,2.05-6.52,3.05-9.72
							c1.03-3.19,1.94-6.35,3.04-9.4c2.13-6.13,4.85-11.79,7.9-16.89c3.03-5.12,6.47-9.62,9.98-13.56c1.7-2.02,3.56-3.76,5.28-5.5
							c1.83-1.63,3.51-3.26,5.29-4.62c6.95-5.65,13.33-9.17,17.83-11.3c2.22-1.14,4.05-1.78,5.25-2.3c0.59-0.24,1.05-0.42,1.38-0.56
							C312.13,193.02,312.28,192.98,312.28,192.98c-0.27,0.12-0.77,0.34-1.82,0.81c-1.19,0.55-3,1.22-5.2,2.38
							c-4.46,2.18-10.79,5.73-17.68,11.4c-1.77,1.36-3.44,3-5.25,4.63c-1.7,1.74-3.54,3.49-5.23,5.5
							c-3.47,3.93-6.89,8.42-9.89,13.53c-3.02,5.08-5.71,10.72-7.82,16.82c-1.09,3.03-2.01,6.21-3.03,9.39
							c-1,3.19-2.02,6.43-3.05,9.72l-0.33-0.33c1.12-0.35,2.32-0.72,3.53-1.1c12.87-4.01,25.16-7.85,36.35-11.34l-0.16,0.16
							c5.71-18,10.59-33.35,14.04-44.23c1.73-5.44,3.11-9.75,4.06-12.73c0.47-1.47,0.84-2.61,1.09-3.41
							c0.12-0.38,0.22-0.67,0.29-0.88C312.23,193.09,312.27,192.99,312.28,192.98z"/>
					</g>
				</g>
			</g>
			<g>
				<g>
					<path style="fill:#F5F5F5;" d="M411.04,44.25c-7.5-2.36-27.38,12.71-50.37,41.08c-22.63,27.93-32.05,55.59-32.05,55.59
						l-43.79,139.43l36.74,11.54l21.29,6.69l36.74,11.54l39.74-126.53c3.88-12.36,6.63-25.06,8.09-37.94
						c1.26-11.07,2.15-24.77,1.45-38.9C427.07,70.43,418.55,46.61,411.04,44.25"/>
				</g>
				<g>
					<g>
						<path style="fill:none;stroke:#263238;stroke-miterlimit:10;" d="M411.04,44.25c0,0,0.11,0.04,0.33,0.12
							c0.11,0.04,0.24,0.1,0.4,0.16c0.15,0.09,0.33,0.18,0.53,0.3c0.79,0.47,1.85,1.38,2.95,2.8c2.21,2.85,4.58,7.68,6.65,14.22
							c2.09,6.54,3.92,14.78,5.25,24.49c0.67,4.86,1.21,10.08,1.59,15.64c0.4,5.56,0.61,11.47,0.53,17.68
							c-0.07,6.21-0.4,12.73-1,19.51c-0.6,6.78-1.48,13.83-2.86,21.06c-1.38,7.23-3.18,14.65-5.5,22.18
							c-2.35,7.51-4.78,15.25-7.27,23.21c-9.98,31.82-21.05,67.09-32.81,104.57l-0.08,0.25l-0.25-0.08
							c-15.21-4.78-31.15-9.78-47.38-14.88c-16.23-5.1-32.18-10.11-47.39-14.89l-0.25-0.08l0.08-0.25
							c11.78-37.48,22.87-72.75,32.87-104.58c2.5-7.95,4.94-15.69,7.3-23.2c1.18-3.75,2.34-7.45,3.49-11.08
							c1.23-3.62,2.7-7.07,4.2-10.43c6.05-13.43,13.09-25.2,20.22-35.36c7.25-10.09,14.56-18.6,21.24-25.77
							c6.7-7.16,12.88-12.89,18.28-17.12c5.39-4.24,10.04-6.94,13.47-8.07c1.71-0.56,3.1-0.71,4.01-0.66
							c0.23,0.02,0.43,0.04,0.6,0.06c0.17,0.04,0.31,0.07,0.42,0.1C410.93,44.22,411.04,44.25,411.04,44.25s-0.12-0.02-0.34-0.07
							c-0.12-0.02-0.26-0.05-0.42-0.09c-0.17-0.01-0.37-0.03-0.6-0.04c-0.91-0.04-2.28,0.12-3.98,0.7
							c-3.4,1.15-8.02,3.87-13.38,8.13c-5.37,4.25-11.53,10-18.2,17.16c-6.65,7.18-13.94,15.69-21.16,25.78
							c-7.11,10.16-14.11,21.92-20.13,35.33c-1.49,3.35-2.96,6.81-4.17,10.4c-1.14,3.63-2.3,7.33-3.47,11.08
							c-2.35,7.51-4.78,15.25-7.28,23.2c-9.99,31.83-21.05,67.1-32.82,104.59l-0.17-0.32c15.21,4.78,31.16,9.78,47.39,14.88
							c16.23,5.1,32.17,10.11,47.38,14.88l-0.32,0.17c11.78-37.47,22.87-72.74,32.87-104.55c2.5-7.95,4.93-15.69,7.29-23.2
							c2.32-7.51,4.13-14.91,5.51-22.13c1.39-7.22,2.27-14.25,2.88-21.02c0.61-6.77,0.95-13.27,1.03-19.48
							c0.08-6.2-0.11-12.1-0.5-17.66c-0.37-5.56-0.9-10.78-1.55-15.63c-1.3-9.7-3.11-17.94-5.16-24.47
							c-2.03-6.54-4.37-11.37-6.55-14.22c-1.08-1.43-2.13-2.33-2.9-2.82c-0.2-0.12-0.37-0.22-0.52-0.3
							c-0.16-0.07-0.29-0.12-0.4-0.17C411.15,44.31,411.04,44.25,411.04,44.25z"/>
					</g>
				</g>
			</g>
			<g>
				<g>
					<g>
						
							<ellipse transform="matrix(0.8804 -0.4741 0.4741 0.8804 -21.2466 197.5235)" style="fill:#FFFFFF;" cx="381.06" cy="140.89" rx="43.07" ry="43.07"/>
					</g>
					<g>
						<g>
							<g>
								<g>
									<path style="fill:#263238;" d="M414.81,120.49c-0.96,0.2-1.86-0.73-1.96-1.7c-0.1-0.97,0.38-1.91,0.94-2.71
										c0.56-0.8,1.22-1.55,1.57-2.46c0.63-1.66,0.01-3.71-1.44-4.73c1.98-0.76,2.95-3.4,1.94-5.26c-0.47-0.87-1.27-1.51-1.9-2.27
										c-0.36-0.44-0.66-0.91-0.93-1.41c0.67,0.38,1.37,0.67,2.13,0.74c1.22,0.11,2.5-0.43,3.23-1.42
										c0.73-0.99,0.85-2.41,0.25-3.48c-0.59-1.08-1.9-1.73-3.11-1.51c-1.19,0.22-2.1,1.15-2.92,2.04
										c-0.26,0.27-0.51,0.55-0.77,0.82c-0.84-2.36-1.57-4.75-3.58-6.12c-1.82-1.24-4.2-1.24-6.24-2.05
										c-1.49-0.59-2.78-1.6-4.25-2.25c-1.47-0.64-3.3-0.86-4.59,0.09c-0.76,0.56-1.22,1.45-1.98,2.01
										c-1.57,1.15-4.01,0.6-5.42,1.94c-1.15,1.08-1.1,2.92-1.88,4.3c-0.85,1.5-2.54,2.25-4.01,3.14s-2.94,2.29-2.81,4
										c0.11,1.51,1.45,2.72,1.54,4.23c0.06,1.1-0.55,2.11-0.9,3.16s-0.32,2.43,0.63,2.99l10.7,6.75c3.5,2.9,7.13,5.86,11.47,7.21
										c4.34,1.36,9.62,0.73,12.59-2.72c-0.62-0.22-1.15-0.69-1.44-1.28C412.94,122.38,414.14,121.6,414.81,120.49z"/>
								</g>
							</g>
							<g>
								<g>
									<g>
										<g>
											<g>
												<g>
													<g>
														<g>
															<g>
																<path style="fill:#263238;" d="M404.1,121.14c1.89-2.66,3.78-5.34,5.18-8.28c1.41-2.94,2.32-6.18,2.15-9.44
																	c-0.03-0.49-0.5-3.9-0.98-4c-0.35-0.07-0.35,2.97-0.61,3.2c-2.49,2.27-3.98,5.48-4.73,8.77
																	C404.36,114.68,404.12,117.77,404.1,121.14"/>
															</g>
														</g>
													</g>
												</g>
											</g>
											<g>
												<g>
													<g>
														<g>
															<g>
																<g>
																	<path style="fill:#A97663;" d="M385.37,144.68c8.68,2.96,13.94-8.32,13.94-8.32l8.82-26.99
																		c2.7-7.72,0.46-15.73-7.33-18.22l-0.73-0.19c-7.38-1.89-14.98,2.2-17.46,9.41c-2.31,6.71-4.77,14.14-5.66,17.83
																		c-1.85,7.63,5.45,10.76,5.45,10.76c0.02,0.01-0.5,1.75-1.17,3.95c-1.5,4.95-0.32,10.78,1.67,11.22L385.37,144.68z"
																		/>
																</g>
															</g>
														</g>
													</g>
												</g>
											</g>
											<g>
												<g>
													<g>
														<g>
															<g>
																<g>
																	<g>
																		<path style="fill:#896357;" d="M382.39,128.96c0,0,4.72,1.51,10.65-0.39c0,0-3.83,4.91-11.24,2.28L382.39,128.96z
																			"/>
																	</g>
																</g>
															</g>
														</g>
													</g>
												</g>
											</g>
											<g>
												<g>
													<g>
														<g>
															<g>
																<g>
																	<g>
																		<g>
																			<g>
																				<g>
																					<g>
																						<g>
																							<g>
																								<path style="fill:#263238;" d="M383.99,106.95c-0.17,0.57,0.18,1.18,0.77,1.36
																									c0.59,0.18,1.2-0.12,1.37-0.69c0.17-0.57-0.18-1.18-0.76-1.36C384.77,106.07,384.16,106.38,383.99,106.95z"
																									/>
																							</g>
																						</g>
																					</g>
																				</g>
																			</g>
																		</g>
																	</g>
																</g>
															</g>
														</g>
													</g>
												</g>
											</g>
											<g>
												<g>
													<g>
														<g>
															<g>
																<g>
																	<g>
																		<g>
																			<g>
																				<g>
																					<g>
																						<g>
																							<g>
																								<g>
																									<path style="fill:#263238;" d="M383.42,103.94c0.1,0.18,1.08-0.22,2.24,0.08c1.17,0.29,1.87,1.11,2.04,1
																										c0.08-0.05,0.01-0.34-0.3-0.71c-0.3-0.36-0.86-0.79-1.59-0.97c-0.73-0.18-1.41-0.07-1.83,0.11
																										C383.56,103.64,383.37,103.86,383.42,103.94z"/>
																								</g>
																							</g>
																						</g>
																					</g>
																				</g>
																			</g>
																		</g>
																	</g>
																</g>
															</g>
														</g>
													</g>
												</g>
											</g>
											<g>
												<g>
													<g>
														<g>
															<g>
																<g>
																	<g>
																		<g>
																			<g>
																				<g>
																					<g>
																						<g>
																							<g>
																								<path style="fill:#263238;" d="M394.45,110.15c-0.17,0.57,0.18,1.18,0.77,1.36
																									c0.59,0.19,1.2-0.12,1.37-0.69c0.17-0.57-0.18-1.18-0.77-1.36C395.24,109.27,394.62,109.58,394.45,110.15z"
																									/>
																							</g>
																						</g>
																					</g>
																				</g>
																			</g>
																		</g>
																	</g>
																</g>
															</g>
														</g>
													</g>
												</g>
											</g>
											<g>
												<g>
													<g>
														<g>
															<g>
																<g>
																	<g>
																		<g>
																			<g>
																				<g>
																					<g>
																						<g>
																							<g>
																								<g>
																									<path style="fill:#263238;" d="M394.75,107.35c0.1,0.18,1.08-0.22,2.25,0.08c1.17,0.29,1.87,1.11,2.04,1
																										c0.08-0.05,0.01-0.34-0.3-0.71c-0.3-0.37-0.86-0.79-1.59-0.97c-0.73-0.18-1.41-0.07-1.83,0.11
																										C394.89,107.04,394.7,107.27,394.75,107.35z"/>
																								</g>
																							</g>
																						</g>
																					</g>
																				</g>
																			</g>
																		</g>
																	</g>
																</g>
															</g>
														</g>
													</g>
												</g>
											</g>
											<g>
												<g>
													<g>
														<g>
															<g>
																<g>
																	<g>
																		<g>
																			<g>
																				<g>
																					<g>
																						<g>
																							<g>
																								<path style="fill:#263238;" d="M388.26,115.25c0.02-0.07-0.67-0.38-1.81-0.83
																									c-0.29-0.11-0.56-0.24-0.56-0.46c-0.02-0.23,0.19-0.52,0.43-0.83c0.47-0.65,0.95-1.33,1.46-2.05
																									c2.05-2.92,3.62-5.35,3.5-5.44c-0.12-0.08-1.88,2.22-3.93,5.14c-0.5,0.72-0.98,1.41-1.43,2.07
																									c-0.2,0.31-0.49,0.65-0.45,1.13c0.02,0.24,0.2,0.46,0.38,0.56c0.18,0.11,0.34,0.15,0.49,0.2
																									C387.5,115.12,388.24,115.32,388.26,115.25z"/>
																							</g>
																						</g>
																					</g>
																				</g>
																			</g>
																		</g>
																	</g>
																</g>
															</g>
														</g>
													</g>
												</g>
											</g>
											<g>
												<g>
													<g>
														<g>
															<g>
																<g>
																	<g>
																		<g>
																			<g>
																				<g>
																					<g>
																						<g>
																							<g>
																								<path style="fill:#263238;" d="M391.49,116.94c-0.19-0.06-0.51,1.21-1.83,1.83
																									c-1.31,0.63-2.63,0.14-2.69,0.31c-0.04,0.07,0.24,0.32,0.8,0.49c0.55,0.16,1.42,0.19,2.22-0.19
																									c0.8-0.38,1.28-1.05,1.45-1.56C391.64,117.31,391.58,116.96,391.49,116.94z"/>
																							</g>
																						</g>
																					</g>
																				</g>
																			</g>
																		</g>
																	</g>
																</g>
															</g>
														</g>
													</g>
												</g>
											</g>
											<g>
												<g>
													<g>
														<g>
															<g>
																<g>
																	<g>
																		<g>
																			<g>
																				<path style="fill:#263238;" d="M396.03,102.62c0.03,0.35,1.24,0.5,2.57,1.01c1.34,0.49,2.34,1.17,2.6,0.94
																					c0.12-0.12,0-0.46-0.37-0.89c-0.36-0.42-1-0.89-1.8-1.2c-0.8-0.3-1.59-0.36-2.14-0.29
																					C396.33,102.27,396.02,102.46,396.03,102.62z"/>
																			</g>
																		</g>
																	</g>
																</g>
															</g>
														</g>
													</g>
												</g>
											</g>
											<g>
												<g>
													<g>
														<g>
															<g>
																<g>
																	<g>
																		<g>
																			<g>
																				<path style="fill:#263238;" d="M384.9,100.18c0.14,0.32,1.01,0.25,1.98,0.48c0.98,0.2,1.74,0.64,2,0.41
																					c0.12-0.11,0.06-0.41-0.24-0.76c-0.29-0.34-0.83-0.7-1.5-0.85c-0.67-0.15-1.31-0.06-1.71,0.13
																					C385.03,99.78,384.84,100.03,384.9,100.18z"/>
																			</g>
																		</g>
																	</g>
																</g>
															</g>
														</g>
													</g>
												</g>
											</g>
											<g>
												<g>
													<g>
														<g>
															<g>
																<path style="fill:#A97663;" d="M406.07,114.84c0.14-0.02,5.62-0.21,4.12,4.95c-1.5,5.16-6.37,2.59-6.33,2.44
																	C403.89,122.08,406.07,114.84,406.07,114.84z"/>
															</g>
														</g>
													</g>
												</g>
											</g>
											<g>
												<g>
													<g>
														<g>
															<g>
																<g>
																	<path style="fill:#896357;" d="M406,120.73c0.03-0.01,0.07,0.09,0.2,0.2c0.13,0.11,0.37,0.23,0.67,0.21
																		c0.6-0.04,1.31-0.77,1.61-1.7c0.15-0.47,0.18-0.94,0.12-1.36c-0.05-0.42-0.22-0.76-0.48-0.89
																		c-0.25-0.14-0.5-0.03-0.6,0.09c-0.11,0.12-0.11,0.24-0.14,0.24c-0.02,0.01-0.09-0.12,0.02-0.32
																		c0.05-0.1,0.15-0.2,0.3-0.26c0.15-0.06,0.35-0.06,0.53,0.01c0.39,0.14,0.64,0.61,0.71,1.07
																		c0.09,0.47,0.06,1-0.11,1.53c-0.33,1.03-1.15,1.85-1.96,1.85c-0.39-0.01-0.66-0.21-0.78-0.38
																		C405.97,120.86,405.98,120.73,406,120.73z"/>
																</g>
															</g>
														</g>
													</g>
												</g>
											</g>
											<g>
												<g>
													<g>
														<g>
															<g>
																<path style="fill:#263238;" d="M388.49,92.85c-0.69-0.71,2.61-2.65,4.94-2.97c3.51-0.48,8.49,0.08,11.1,1.74
																	c3.14,2,5.48,4.57,6.26,8.21c0.79,3.64,0.34,7.47-0.83,11.01c-0.36,1.08-0.81,2.18-1.67,2.92
																	c-1.06,0.92-2.65,1.22-3.06,2.81c-0.15,0.58-0.49,1.11-1.01,1.41c-1.24,0.72-2.11-0.57-2.36-1.67
																	c-0.53-2.35,0.07-4.8,0.66-7.13c0.42-1.66,0.86-3.36,1.79-4.79c0.51-0.78,1.16-1.47,1.62-2.28
																	c0.46-0.81,0.73-1.8,0.41-2.68c-0.05-0.14-0.16-0.33-0.29-0.55c-1.07-1.71-3-2.71-5.02-2.61
																	c-3.2,0.16-8.61,0.2-9.6-1.17c-1.43-1.97-1.6-3.03-1.6-3.03L388.49,92.85z"/>
															</g>
														</g>
													</g>
												</g>
											</g>
										</g>
									</g>
									<g>
										<g>
											<g>
												<g>
													<g>
														<path style="fill:#263238;" d="M404.47,90.84c-2.54-1.79-5.77-2.71-8.83-2.13c-1.62,0.31-3.24,1.09-4.12,2.48
															c-0.89,1.39-0.8,3.46,0.49,4.5l0.08,0.09c1.97,1.4,3.49,1.53,5.9,1.43c2.03-0.08,4.01-0.73,6.04-0.8
															c2.16-0.08,4.34,0.51,6.17,1.66C408.9,95.24,407.01,92.64,404.47,90.84z"/>
													</g>
												</g>
											</g>
										</g>
									</g>
								</g>
							</g>
							<g>
								<g>
									<g>
										<path style="fill:#455A64;" d="M412.62,98.97c-0.06,0.03-0.31-0.59-0.97-1.43c-0.33-0.41-0.75-0.89-1.29-1.32
											c-0.54-0.43-1.21-0.83-1.97-1c-1.57-0.33-3.06-0.02-4.03,0.35c-0.99,0.38-1.52,0.79-1.56,0.74
											c-0.01-0.02,0.1-0.14,0.35-0.32c0.24-0.19,0.62-0.42,1.12-0.65c0.99-0.45,2.54-0.82,4.21-0.47
											c0.84,0.19,1.55,0.63,2.1,1.1c0.56,0.47,0.98,0.98,1.29,1.43C412.47,98.29,412.65,98.95,412.62,98.97z"/>
									</g>
								</g>
							</g>
							<g>
								<g>
									<g>
										<path style="fill:#455A64;" d="M412.56,100.94c0.03,0.02-0.23,0.57-0.85,1.34c-0.61,0.77-1.6,1.73-2.9,2.51
											c-1.3,0.77-2.61,1.2-3.58,1.38c-0.97,0.18-1.58,0.16-1.58,0.12c-0.03-0.12,2.45-0.26,4.97-1.81
											C411.17,102.98,412.47,100.86,412.56,100.94z"/>
									</g>
								</g>
							</g>
							<g>
								<g>
									<g>
										<path style="fill:#455A64;" d="M414.38,102.42c0.02,0.01-0.03,0.22-0.16,0.59c-0.13,0.37-0.36,0.89-0.72,1.5
											c-0.7,1.22-1.97,2.78-3.83,3.91c-1.85,1.14-3.82,1.57-5.22,1.63c-0.7,0.04-1.28,0.01-1.67-0.04
											c-0.39-0.05-0.6-0.1-0.6-0.12c0.01-0.06,0.87,0.05,2.24-0.09c1.37-0.13,3.26-0.59,5.06-1.69c1.79-1.1,3.06-2.58,3.8-3.74
											C414.03,103.22,414.32,102.4,414.38,102.42z"/>
									</g>
								</g>
							</g>
							<g>
								<g>
									<g>
										<path style="fill:#455A64;" d="M398.75,88.53c-0.01,0.06-0.59,0.02-1.52,0.09c-0.93,0.07-2.2,0.29-3.52,0.82
											c-1.31,0.53-2.39,1.26-3.1,1.86c-0.72,0.6-1.1,1.03-1.15,0.99c-0.03-0.02,0.29-0.52,0.98-1.18c0.69-0.66,1.77-1.45,3.13-2
											c1.36-0.55,2.69-0.74,3.64-0.74C398.17,88.36,398.75,88.5,398.75,88.53z"/>
									</g>
								</g>
							</g>
							<g>
								<g>
									<g>
										<path style="fill:#455A64;" d="M418.35,95.4c0.09,0.02-0.61,1.44-2.19,2.44c-1.58,1.02-3.15,1.05-3.14,0.96
											c-0.02-0.11,1.45-0.3,2.95-1.26C417.47,96.59,418.26,95.33,418.35,95.4z"/>
									</g>
								</g>
							</g>
						</g>
						<g>
							<path style="fill:#455A64;" d="M418.21,148.03c-2.15-4.58-17.98-11.87-17.98-11.87s-2.17,3.99-6.05,6.4
								c-4.02,2.49-8.73,1.6-12.3-1.09c-3.37-2.54-2.21-7.53-2.21-7.53s-17.43-0.88-22.45,1.86c-5.02,2.74-7.82,10.78-7.82,10.78
								l-6.26,14.22l6.58,9.64l2.89,2.8c0,0,7.64,7.77,21.71,10.2c13.14,2.27,24.54-3.33,24.54-3.33
								c6.97-2.35,13.11-8.01,18.74-15.78C417.59,164.33,420.71,153.36,418.21,148.03z"/>
						</g>
						<g>
							<g>
								<g>
									<g>
										<g>
											<g>
												<g>
													<path style="fill:#A97663;" d="M349.45,138.25c0,0,4.1-5.15,4.42-7.2l1.62-11.02c0,0-0.6-1.24-2.16,0.17
														c-1.54,1.39-1.18,4.12-1.18,4.12l-1.31,2.32l-0.75-2.25l0.58-7.5c0,0,0.54-5.39-0.41-5.08
														c-0.95,0.31-1.61,1.73-1.84,4.06c-0.23,2.33-0.53,5.27-0.53,5.27s-0.15,0.9-0.55-0.8c-0.4-1.7,0.47-8.14,0.39-9.07
														c-0.08-0.92,0.43-3.16-0.86-3.41c-1.29-0.24-1.37,2.78-1.37,2.78l-1.41,9.48c0,0-0.13-4.01-0.18-4.7
														c-0.05-0.69,0.18-2.8,0.07-4.01c-0.11-1.21-0.59-1.97-1.17-2.06c-1.04-0.17-1.29,0.76-1.29,0.76l-0.37,8.35
														c0,0,0.02,3.86-0.12,4.07c-0.14,0.21-0.96-1.88-0.96-1.88l-0.28-2.82c0,0,0.2-3.83-0.74-4.21
														c-0.94-0.38-1.18,0.34-1.18,0.34l-0.3,7.02l0.78,8.27l1.87,8.32l3.06,0.59L349.45,138.25z"/>
												</g>
											</g>
										</g>
									</g>
								</g>
							</g>
							<g>
								<g>
									<g>
										<path style="fill:#896357;" d="M342.01,132c0.07,0.05,0.54-0.59,1.36-1.54c0.82-0.91,2.14-2.2,4.01-2.39
											c0.82-0.09,1.62,0.07,2.22,0.46l0.22,0.14l0.14-0.25c0.6-1.1,1.28-2.07,1.66-2.76c0.41-0.69,0.6-1.14,0.54-1.17
											c-0.04-0.02-0.31,0.36-0.79,1.01c-0.47,0.67-1.15,1.52-1.86,2.74l0.36-0.11c-0.69-0.47-1.62-0.67-2.54-0.57
											c-1.02,0.1-1.93,0.53-2.63,1.06c-0.7,0.52-1.21,1.11-1.61,1.62C342.31,131.25,341.96,131.96,342.01,132z"/>
									</g>
								</g>
							</g>
						</g>
					</g>
					<g>
						<path style="fill:#455A64;" d="M379.34,133.92l2.52-3.95l6.55,8.6l-0.73,3.87l1.57-3.72l11.84-6.9l-0.5,4.94l-5.35,6.94
							l-7.08,2.94l-5.22-1.94c0,0-4.07-1.49-4.04-1.82C378.91,142.54,379.34,133.92,379.34,133.92z"/>
					</g>
					<g>
						<polygon style="fill:#FF725E;" points="385.08,142.64 385.68,145.93 388.1,146.56 390.29,144.13 389.74,141.26 386.87,140.46 
													"/>
					</g>
					<g>
						<g>
							<path style="fill:#263238;" d="M388.41,138.57c0.05,0.04-0.34,0.6-1.03,1.51c-0.69,0.91-1.68,2.18-2.84,3.62l-0.25,0.31
								l-0.17-0.36c-0.3-0.64-0.62-1.32-0.96-2.02c-1.02-2.16-1.91-4.13-2.53-5.57c-0.62-1.44-0.98-2.34-0.91-2.37
								c0.07-0.03,0.54,0.82,1.24,2.22c0.71,1.4,1.65,3.34,2.67,5.51c0.33,0.7,0.64,1.38,0.94,2.02l-0.42-0.05
								c1.18-1.42,2.23-2.65,2.98-3.5C387.89,139.02,388.37,138.53,388.41,138.57z"/>
						</g>
					</g>
					<g>
						<g>
							<path style="fill:#263238;" d="M400.86,135.88c0.05,0.05-0.76,0.83-2.1,2.04c-1.34,1.21-3.22,2.86-5.31,4.65
								c-1.01,0.86-1.98,1.67-2.87,2.44l-0.32,0.27l-0.07-0.41c-0.32-1.8-0.58-3.33-0.75-4.41c-0.16-1.09-0.24-1.73-0.18-1.74
								c0.05-0.01,0.22,0.61,0.47,1.68c0.25,1.07,0.57,2.59,0.93,4.38l-0.39-0.14c0.89-0.77,1.85-1.6,2.85-2.46
								c2.09-1.79,4.01-3.39,5.41-4.53C399.92,136.5,400.82,135.83,400.86,135.88z"/>
						</g>
					</g>
					<g>
						<path style="fill:#FF725E;" d="M426.29,166.25l1.28-7.05c-1.64-2.59-3.17-4.35-5.37-6.49c-2.2-2.14-5.01-3.8-8.07-4.04
							c-4-0.31-7.78,1.78-11.07,4.07c-3.3,2.29-6.53,4.9-10.43,5.86c-1.48,0.37-3.12,0.46-4.48-0.24c-2.07-1.06-2.9-3.72-2.55-6.02
							c0.35-2.3,1.64-4.34,2.89-6.3l-2.62-0.81c-1.32,1.99-3.32,4.87-4.18,7.1c-0.86,2.22-1.23,4.71-0.58,7
							c0.98,3.44,4.21,5.96,7.71,6.67c3.5,0.71,7.19-0.18,10.34-1.87c2.86-1.53,5.43-3.72,8.58-4.47c4.3-1.03,9.08,1.07,11.48,4.78
							L426.29,166.25z"/>
					</g>
					<g>
						<g>
							<path style="fill:#263238;" d="M351.88,173.04c-0.14-0.03,0.97-6.08,2.48-13.52c1.51-7.44,2.85-13.45,3-13.42
								c0.14,0.03-0.97,6.08-2.49,13.52C353.36,167.06,352.02,173.07,351.88,173.04z"/>
						</g>
					</g>
					<g>
						<path style="fill:#455A64;" d="M338.13,137.34l13.48,0.97l-0.61,31.14l-0.16,2.14c0,0-11.11-12.17-11.98-22.04
							c-0.18-2.09-0.64-3.76-0.75-5.22C337.73,138.89,338.13,137.34,338.13,137.34z"/>
					</g>
					<g>
						<g>
							<path style="fill:#263238;" d="M350.79,168.98c-0.04,0-0.04-0.43-0.02-1.21c0.02-0.88,0.05-1.98,0.08-3.29
								c0.07-2.77,0.09-6.61,0.13-10.84c0.03-4.24,0.12-8.08,0.26-10.85c0.07-1.39,0.15-2.51,0.22-3.28c0.07-0.77,0.13-1.2,0.17-1.2
								c0.04,0,0.05,0.43,0.04,1.21c-0.02,0.88-0.04,1.98-0.06,3.29c-0.03,2.89-0.07,6.67-0.11,10.85
								c-0.03,4.24-0.12,8.08-0.28,10.85c-0.08,1.39-0.16,2.51-0.24,3.28C350.88,168.56,350.82,168.99,350.79,168.98z"/>
						</g>
					</g>
					<g>
						<g>
							<path style="fill:#263238;" d="M338.72,132.99c0.01,0,0,0.11-0.02,0.31c-0.02,0.23-0.06,0.53-0.1,0.9
								c-0.08,0.79-0.26,1.95-0.39,3.46c-0.17,3.01-0.17,7.43,1.04,12.69c0.56,2.64,1.55,5.43,2.83,8.33
								c1.35,2.87,3.08,5.79,5.26,8.61c2.23,2.77,4.88,5.44,7.96,7.8c3.1,2.32,6.65,4.27,10.47,5.75c3.82,1.51,7.79,2.35,11.64,2.68
								c3.85,0.33,7.63,0.19,11.12-0.48c3.5-0.64,6.77-1.6,9.66-2.91c1.48-0.57,2.8-1.36,4.11-2.03c1.27-0.73,2.46-1.51,3.58-2.26
								c1.06-0.83,2.13-1.55,3.04-2.36c0.89-0.82,1.79-1.54,2.53-2.31c0.74-0.77,1.43-1.5,2.06-2.16c0.58-0.71,1.11-1.36,1.58-1.95
								c0.24-0.29,0.46-0.57,0.67-0.83c0.19-0.27,0.37-0.53,0.53-0.77c0.33-0.47,0.6-0.87,0.84-1.21c0.22-0.31,0.39-0.55,0.52-0.74
								c0.12-0.17,0.19-0.25,0.19-0.24c0.01,0-0.04,0.1-0.15,0.27c-0.12,0.2-0.28,0.45-0.48,0.77c-0.22,0.35-0.49,0.76-0.8,1.24
								c-0.16,0.25-0.33,0.51-0.51,0.79c-0.21,0.27-0.43,0.55-0.66,0.85c-0.47,0.6-0.99,1.27-1.56,1.99
								c-0.63,0.68-1.31,1.42-2.05,2.2c-0.74,0.79-1.63,1.52-2.53,2.36c-0.91,0.82-1.98,1.56-3.04,2.4
								c-1.12,0.76-2.31,1.55-3.59,2.3c-1.32,0.69-2.64,1.49-4.14,2.07c-2.91,1.34-6.21,2.33-9.75,2.99
								c-3.53,0.69-7.35,0.85-11.25,0.52c-3.9-0.32-7.92-1.17-11.79-2.7c-3.87-1.5-7.46-3.47-10.59-5.83
								c-3.11-2.39-5.78-5.09-8.03-7.91c-2.19-2.86-3.92-5.83-5.27-8.73c-1.27-2.93-2.25-5.76-2.79-8.43
								c-1.18-5.32-1.12-9.77-0.89-12.79c0.16-1.51,0.38-2.67,0.49-3.46c0.06-0.37,0.11-0.67,0.15-0.9
								C338.69,133.09,338.71,132.99,338.72,132.99z"/>
						</g>
					</g>
					<g>
						<g>
							<path style="fill:#263238;" d="M422.63,152.15c-0.03-0.01,0.06-0.56,0.26-1.54c0.22-0.97,0.46-2.4,0.68-4.17
								c0.43-3.53,0.55-8.51-0.52-13.85c-0.54-2.66-1.3-5.14-2.13-7.35c-0.88-2.18-1.77-4.11-2.67-5.66
								c-0.41-0.79-0.85-1.47-1.22-2.07c-0.36-0.61-0.7-1.12-0.99-1.53c-0.56-0.83-0.86-1.3-0.83-1.32c0.03-0.02,0.38,0.41,0.99,1.2
								c0.31,0.39,0.68,0.89,1.06,1.49c0.39,0.6,0.86,1.26,1.3,2.05c0.94,1.53,1.88,3.47,2.79,5.67c0.86,2.22,1.65,4.73,2.19,7.42
								c1.08,5.41,0.9,10.45,0.37,14c-0.27,1.78-0.56,3.2-0.85,4.17C422.83,151.63,422.66,152.16,422.63,152.15z"/>
						</g>
					</g>
					<g>
						<g>
							<path style="fill:#263238;" d="M380.23,97.82c0,0.04-0.52,0.09-1.45,0.17c-0.47,0.03-1.04,0.07-1.7,0.17
								c-0.66,0.09-1.42,0.15-2.24,0.31c-1.65,0.26-3.61,0.68-5.73,1.3c-2.11,0.65-4.4,1.49-6.7,2.59
								c-2.29,1.12-4.37,2.39-6.19,3.65c-1.8,1.28-3.35,2.54-4.57,3.69c-0.64,0.55-1.15,1.1-1.63,1.57
								c-0.48,0.46-0.87,0.88-1.19,1.23c-0.64,0.69-1.01,1.06-1.03,1.03s0.29-0.44,0.88-1.17c0.29-0.37,0.66-0.81,1.13-1.3
								c0.46-0.49,0.96-1.06,1.59-1.63c1.2-1.19,2.74-2.49,4.55-3.81c1.82-1.29,3.92-2.59,6.24-3.73c2.33-1.12,4.65-1.96,6.79-2.59
								c2.15-0.6,4.13-0.99,5.81-1.21c0.83-0.14,1.6-0.17,2.27-0.23c0.67-0.07,1.24-0.08,1.72-0.08
								C379.71,97.78,380.23,97.79,380.23,97.82z"/>
						</g>
					</g>
					<g>
						<g>
							<path style="fill:#263238;" d="M375.11,183.85c-0.14-0.04,1.32-5.07,3.25-11.23c1.93-6.16,3.61-11.12,3.75-11.08
								c0.14,0.04-1.32,5.07-3.25,11.23C376.92,178.93,375.24,183.89,375.11,183.85z"/>
						</g>
					</g>
				</g>
				<g>
					<g>
						<path style="fill:#263238;" d="M418.56,88.24c0.02,0,0.01,0.1-0.03,0.3c-0.05,0.19-0.14,0.47-0.36,0.78
							c-0.4,0.6-1.35,1.42-2.77,1.35c-0.71-0.03-1.4-0.44-2.01-0.89c-0.62-0.45-1.27-0.91-2.06-0.92c-0.79-0.03-1.63,0.28-2.34,0.81
							c-0.73,0.53-1.35,1.25-2.01,1.99c-1.33,1.49-2.79,2.77-4.31,3.64c-1.51,0.88-3.07,1.32-4.39,1.42
							c-1.32,0.11-2.4-0.09-3.09-0.33c-0.7-0.23-1.04-0.46-1.03-0.48c0.02-0.11,1.52,0.74,4.09,0.44c1.26-0.14,2.74-0.6,4.18-1.47
							c1.45-0.86,2.86-2.1,4.16-3.57c0.66-0.73,1.31-1.49,2.1-2.05c0.79-0.57,1.73-0.92,2.67-0.87c0.96,0.03,1.71,0.61,2.3,1.05
							c0.6,0.46,1.18,0.82,1.79,0.87c1.23,0.11,2.16-0.58,2.58-1.11C418.46,88.64,418.51,88.22,418.56,88.24z"/>
					</g>
				</g>
				<g>
					<g>
						<path style="fill:#263238;" d="M418.46,95.55c0.01-0.03,0.24,0,0.64,0.12c0.4,0.12,0.99,0.29,1.64,0.73
							c0.62,0.42,1.36,1.22,1.32,2.35c-0.07,1.12-0.87,2.07-1.81,2.76c-0.97,0.69-2.1,1.01-3.12,1.02
							c-1.03,0.01-1.93-0.29-2.59-0.66c-0.67-0.37-1.12-0.8-1.4-1.12c-0.27-0.33-0.37-0.54-0.35-0.56c0.07-0.07,0.61,0.73,1.91,1.35
							c0.64,0.3,1.48,0.54,2.42,0.5c0.93-0.04,1.95-0.34,2.83-0.97c0.86-0.62,1.56-1.49,1.63-2.36c0.07-0.88-0.52-1.61-1.05-2.03
							c-0.56-0.43-1.12-0.66-1.49-0.83C418.66,95.69,418.45,95.58,418.46,95.55z"/>
					</g>
				</g>
			</g>
		</g>
		<g>
			<g>
				<line style="fill:#F5F5F5;" x1="291.77" y1="258.25" x2="385.76" y2="287.17"/>
			</g>
			<g>
				<g>
					<path style="fill:#263238;" d="M385.76,287.17c-0.04,0.14-21.12-6.22-47.07-14.21c-25.96-7.99-46.96-14.57-46.92-14.71
						c0.04-0.14,21.11,6.22,47.07,14.21C364.8,280.45,385.8,287.03,385.76,287.17z"/>
				</g>
			</g>
		</g>
		<g>
			<g>
				<line style="fill:#F5F5F5;" x1="290.03" y1="262.35" x2="384.02" y2="291.26"/>
			</g>
			<g>
				<g>
					<path style="fill:#263238;" d="M384.02,291.26c-0.04,0.14-21.12-6.22-47.07-14.21c-25.96-7.99-46.96-14.57-46.92-14.71
						c0.04-0.14,21.11,6.22,47.07,14.21C363.05,284.54,384.06,291.13,384.02,291.26z"/>
				</g>
			</g>
		</g>
		<g>
			<g>
				<line style="fill:#F5F5F5;" x1="288.7" y1="266.83" x2="382.69" y2="295.75"/>
			</g>
			<g>
				<g>
					<path style="fill:#263238;" d="M382.69,295.75c-0.04,0.14-21.12-6.22-47.07-14.21c-25.96-7.99-46.96-14.57-46.92-14.71
						c0.04-0.14,21.11,6.22,47.07,14.21C361.72,289.02,382.73,295.61,382.69,295.75z"/>
				</g>
			</g>
		</g>
		<g>
			<g>
				<line style="fill:#F5F5F5;" x1="287.37" y1="271.31" x2="381.36" y2="300.23"/>
			</g>
			<g>
				<g>
					<path style="fill:#263238;" d="M381.36,300.23c-0.04,0.14-21.12-6.22-47.07-14.21c-25.96-7.99-46.96-14.57-46.92-14.71
						c0.04-0.14,21.11,6.22,47.07,14.21C360.4,293.51,381.4,300.09,381.36,300.23z"/>
				</g>
			</g>
		</g>
		<g>
			<g>
				<line style="fill:#F5F5F5;" x1="286.05" y1="275.8" x2="380.04" y2="304.71"/>
			</g>
			<g>
				<g>
					<path style="fill:#263238;" d="M380.04,304.71c-0.04,0.14-21.12-6.22-47.07-14.21c-25.96-7.99-46.96-14.57-46.92-14.71
						c0.04-0.14,21.11,6.22,47.07,14.21C359.07,297.99,380.08,304.57,380.04,304.71z"/>
				</g>
			</g>
		</g>
		<g>
			<g>
				<path style="fill:#E0E0E0;" d="M359.81,208.03c0.02,0-0.02,0.23-0.1,0.68c-0.07,0.46-0.27,1.09-0.48,1.93
					c-0.45,1.66-1.16,4.05-2.06,6.99c-1.8,5.88-4.37,13.98-7.27,22.9c-2.9,8.93-5.57,16.99-7.53,22.82
					c-0.98,2.87-1.78,5.21-2.35,6.89c-0.27,0.77-0.5,1.39-0.67,1.87c-0.16,0.42-0.25,0.64-0.27,0.64c-0.02-0.01,0.04-0.24,0.17-0.67
					c0.15-0.48,0.34-1.11,0.57-1.9c0.54-1.7,1.28-4.06,2.19-6.94c1.91-5.9,4.51-13.96,7.39-22.86c2.89-8.9,5.5-16.95,7.41-22.85
					c0.92-2.88,1.67-5.24,2.21-6.93c0.24-0.82,0.48-1.46,0.57-1.89C359.73,208.26,359.8,208.03,359.81,208.03z"/>
			</g>
		</g>
		<g>
			<g>
				<path style="fill:#263238;" d="M388.41,146.28c-0.03,0.14-0.68,0.11-1.46-0.07c-0.77-0.18-1.37-0.44-1.34-0.58
					c0.03-0.14,0.68-0.11,1.46,0.07C387.85,145.88,388.44,146.14,388.41,146.28z"/>
			</g>
		</g>
		<g>
			<g>
				<path style="fill:#EBEBEB;" d="M407.05,222.75c-0.04,0.14-21.12-6.34-47.07-14.47c-25.96-8.13-46.96-14.83-46.92-14.97
					c0.04-0.14,21.12,6.34,47.07,14.47C386.08,215.91,407.09,222.61,407.05,222.75z"/>
			</g>
		</g>
		<g>
			<g>
				<path style="fill:#E0E0E0;" d="M352.97,256.39c-0.01-0.02,0.22-0.17,0.71-0.23c0.48-0.06,1.22,0,1.99,0.47
					c0.75,0.43,1.52,1.4,1.48,2.63c-0.02,1.18-0.74,2.52-2.08,3.05c-1.35,0.49-2.78-0.05-3.57-0.93c-0.85-0.9-0.9-2.14-0.62-2.95
					c0.27-0.85,0.79-1.39,1.19-1.66c0.41-0.27,0.68-0.32,0.69-0.29c0.02,0.04-0.22,0.15-0.56,0.45c-0.34,0.29-0.76,0.83-0.96,1.6
					c-0.21,0.75-0.12,1.79,0.61,2.53c0.69,0.74,1.93,1.17,3.03,0.77c1.09-0.42,1.74-1.57,1.78-2.57c0.06-1.04-0.55-1.87-1.2-2.31
					c-0.66-0.45-1.33-0.57-1.78-0.57C353.23,256.36,352.98,256.44,352.97,256.39z"/>
			</g>
		</g>
		<g>
			<g>
				<path style="fill:#E0E0E0;" d="M361.93,229.6c-0.01-0.02,0.22-0.17,0.71-0.23c0.48-0.06,1.22,0,1.99,0.47
					c0.75,0.43,1.52,1.4,1.48,2.63c-0.02,1.18-0.74,2.52-2.08,3.05c-1.35,0.49-2.78-0.05-3.57-0.93c-0.85-0.9-0.9-2.14-0.62-2.95
					c0.27-0.85,0.79-1.39,1.19-1.66c0.41-0.27,0.68-0.32,0.69-0.29c0.02,0.04-0.22,0.15-0.56,0.45c-0.34,0.29-0.76,0.83-0.96,1.6
					c-0.21,0.75-0.12,1.79,0.61,2.53c0.69,0.74,1.93,1.17,3.03,0.77c1.09-0.42,1.74-1.57,1.78-2.57c0.06-1.04-0.55-1.87-1.2-2.31
					c-0.66-0.45-1.33-0.57-1.78-0.57C362.2,229.57,361.94,229.65,361.93,229.6z"/>
			</g>
		</g>
		<g>
			<g>
				<path style="fill:#E0E0E0;" d="M347.69,186.33c-0.01-0.02,0.22-0.17,0.71-0.23c0.48-0.06,1.22,0,1.99,0.47
					c0.75,0.43,1.52,1.4,1.48,2.63c-0.02,1.18-0.74,2.52-2.08,3.04c-1.35,0.49-2.78-0.05-3.57-0.93c-0.85-0.9-0.9-2.14-0.62-2.95
					c0.27-0.85,0.79-1.39,1.19-1.66c0.41-0.27,0.68-0.32,0.69-0.29c0.02,0.04-0.22,0.15-0.56,0.45c-0.34,0.29-0.76,0.83-0.96,1.6
					c-0.21,0.75-0.12,1.79,0.61,2.53c0.69,0.74,1.93,1.17,3.03,0.77c1.09-0.42,1.74-1.57,1.78-2.57c0.06-1.04-0.55-1.87-1.2-2.31
					c-0.66-0.45-1.33-0.57-1.78-0.57C347.95,186.3,347.7,186.38,347.69,186.33z"/>
			</g>
		</g>
		<g>
			<g>
				<path style="fill:#EBEBEB;" d="M346.13,166.26c0.14,0.04-2.18,7.69-5.18,17.08c-3,9.39-5.54,16.97-5.68,16.93
					s2.18-7.69,5.18-17.08C343.45,173.79,345.99,166.22,346.13,166.26z"/>
			</g>
		</g>
		<g style="opacity:0.3;">
			<g>
				<path d="M293.43,253c0,0,13.64-40.17,18.85-60.02c-6.88,8.24-14.66,17.7-18.71,27.63C289.48,230.66,289.45,242.92,293.43,253z"
					/>
			</g>
		</g>
		<g>
			<path style="fill:#FF725E;" d="M308.35,359.75c-2.59,0.56-4.45,3.4-3.94,6c0.51,2.6,3.32,4.52,5.92,4.05
				c2.61-0.47,4.58-3.23,4.16-5.85c-0.42-2.62-3.15-4.63-5.77-4.27"/>
		</g>
	</g>
</g>
<g id="Graphics">
</g>
<g id="Text">
</g>
</svg>
