<svg xmlns="http://www.w3.org/2000/svg" viewBox="0 0 38 28" width="38" height="28">
	<style>
		tspan { white-space:pre }
		.shp0 { fill: #ffffff } 
	</style>
	<path id="Shape 26" class="shp0" d="M4.85 6.32C6.57 6.32 7.96 4.95 7.96 3.26C7.96 1.57 6.57 0.2 4.85 0.2C3.14 0.2 1.75 1.57 1.75 3.26C1.75 4.95 3.14 6.32 4.85 6.32ZM8.9 9.6L8.74 9.02C8.64 8.64 8.12 6.93 4.96 6.93C2.16 6.93 1.28 8.64 1.18 9.02L1.02 9.6C0.91 9.87 0.84 10.15 0.79 10.43L0 13.32L9.92 13.32L9.13 10.43C9.08 10.15 9 9.87 8.9 9.6ZM22.21 6.32C23.93 6.32 25.31 4.95 25.31 3.26C25.31 1.57 23.93 0.2 22.21 0.2C20.5 0.2 19.11 1.57 19.11 3.26C19.11 4.95 20.5 6.32 22.21 6.32ZM26.26 9.6L26.1 9.02C26 8.64 25.48 6.93 22.32 6.93C19.52 6.93 18.64 8.64 18.54 9.02L18.38 9.6C18.27 9.87 18.2 10.15 18.15 10.43L17.36 13.32L27.28 13.32L26.49 10.43C26.44 10.15 26.36 9.87 26.26 9.6ZM33.06 6.32C34.78 6.32 36.16 4.95 36.16 3.26C36.16 1.57 34.78 0.2 33.06 0.2C31.35 0.2 29.96 1.57 29.96 3.26C29.96 4.95 31.35 6.32 33.06 6.32ZM37.34 10.43C37.29 10.15 37.21 9.87 37.1 9.6L36.95 9.02C36.84 8.64 36.33 6.93 33.17 6.93C30.36 6.93 29.49 8.64 29.38 9.02L29.23 9.6C29.12 9.87 29.05 10.15 29 10.43L28.21 13.32L38.12 13.32L37.34 10.43ZM25.31 17.95C25.31 16.26 23.93 14.89 22.21 14.89C20.5 14.89 19.11 16.26 19.11 17.95C19.11 19.64 20.5 21.01 22.21 21.01C23.93 21.01 25.31 19.64 25.31 17.95ZM26.26 24.29L26.1 23.71C26 23.33 25.48 21.62 22.32 21.62C19.52 21.62 18.64 23.33 18.54 23.71L18.38 24.29C18.27 24.56 18.2 24.84 18.15 25.13L17.36 28.02L27.28 28.02L26.49 25.13C26.44 24.84 26.36 24.56 26.26 24.29ZM29.96 17.95C29.96 19.64 31.35 21.01 33.06 21.01C34.78 21.01 36.16 19.64 36.16 17.95C36.16 16.26 34.78 14.89 33.06 14.89C31.35 14.89 29.96 16.26 29.96 17.95ZM37.1 24.29L36.95 23.71C36.84 23.33 36.33 21.62 33.17 21.62C30.36 21.62 29.49 23.33 29.38 23.71L29.23 24.29C29.12 24.56 29.05 24.84 29 25.13L28.21 28.02L38.12 28.02L37.34 25.13C37.29 24.84 37.21 24.56 37.1 24.29ZM10.69 8.46L12.24 8.46L12.24 24.68L12.71 24.68L12.71 24.68L16.58 24.68L16.58 23.31L13.95 23.31L13.95 8.46L16.58 8.46L16.58 7.08L10.69 7.08L10.69 8.46Z" />
</svg>