<svg xmlns="http://www.w3.org/2000/svg" viewBox="0 0 48 48" width="48" height="48">
	<style>
		tspan { white-space:pre }
		.shp0 { fill: #ffffff } 
	</style>
	<path id="Shape 27" class="shp0" d="M27.53 39.55L30.26 47.15C28.26 47.69 26.17 48 24 48C11.32 48 0.95 38.22 0 25.82L8.11 25.82C9.02 33.77 15.78 39.96 24 39.96C25.21 39.96 26.39 39.81 27.53 39.55ZM13.55 11.93L9.05 5.11C3.94 9.15 0.53 15.21 0 22.09L8.13 22.09C8.61 18.04 10.61 14.47 13.55 11.93ZM39.87 22.09L48 22.09C47.09 10.26 37.62 0.85 25.77 0L25.77 8.14C33.14 8.95 39 14.75 39.87 22.09ZM22.23 8.14L22.23 0C18.54 0.26 15.07 1.36 12.03 3.1L16.51 9.9C18.25 8.98 20.19 8.37 22.23 8.14ZM30.88 38.39L33.62 46C41.6 42.52 47.3 34.87 48 25.82L39.89 25.82C39.25 31.39 35.74 36.07 30.88 38.39ZM19.85 20.3L15.58 20.3L15.58 33.27L19.85 33.27L19.85 20.3ZM26.25 26.07L21.98 26.07L21.98 33.27L26.25 33.27L26.25 26.07ZM28.38 15.98L28.38 33.27L32.64 33.27L32.64 15.98L28.38 15.98Z" />
</svg>