<svg xmlns="http://www.w3.org/2000/svg" viewBox="0 0 48 32" width="48" height="32">
	<style>
		tspan { white-space:pre }
		.shp0 { fill: #ffffff } 
	</style>
	<path id="Shape 24" class="shp0" d="M38.95 17.03C38.95 17.03 37.02 16.84 37.12 19.42L40.78 19.42C40.87 16.84 38.95 17.03 38.95 17.03ZM39.93 15.82C39.93 15.38 39.49 15.02 38.95 15.02C38.41 15.02 37.97 15.38 37.97 15.82C37.97 16.26 38.41 16.62 38.95 16.62C39.49 16.62 39.93 16.26 39.93 15.82ZM38.95 9.02C38.95 9.02 37.02 8.83 37.12 11.41L40.78 11.41C40.87 8.83 38.95 9.02 38.95 9.02ZM39.93 7.81C39.93 7.37 39.49 7.01 38.95 7.01C38.41 7.01 37.97 7.37 37.97 7.81C37.97 8.26 38.41 8.62 38.95 8.62C39.49 8.62 39.93 8.26 39.93 7.81ZM47.79 2.56L16.71 2.56L16.71 23.41L48.09 23.41L48.09 2.56L47.79 2.56ZM47.46 7.89C47.46 10.39 47.46 13.52 47.46 16.26L47.46 19.32C47.46 19.77 47.46 20.19 47.46 20.57C47.46 21.81 47.46 22.63 47.46 22.76C46.83 22.76 17.99 22.76 17.36 22.76C17.36 22.13 17.36 3.84 17.36 3.22C17.99 3.22 46.83 3.22 47.46 3.22C47.46 3.41 47.46 5.33 47.46 7.89ZM43.84 12.8L34.28 12.8L34.28 19.21L43.93 19.21L43.93 12.8L43.84 12.8ZM43.74 14.44C43.74 15.21 43.74 16.17 43.74 17.01L43.74 17.95C43.74 18.09 43.74 18.22 43.74 18.34C43.74 18.72 43.74 18.97 43.74 19.01C43.54 19.01 34.68 19.01 34.49 19.01C34.49 18.82 34.49 13.19 34.49 13C34.68 13 43.54 13 43.74 13C43.74 13.06 43.74 13.65 43.74 14.44ZM43.84 5L34.28 5L34.28 11.41L43.93 11.41L43.93 5L43.84 5ZM43.74 6.64C43.74 7.41 43.74 8.37 43.74 9.21L43.74 10.15C43.74 10.29 43.74 10.42 43.74 10.54C43.74 10.92 43.74 11.17 43.74 11.21C43.54 11.21 34.68 11.21 34.49 11.21C34.49 11.02 34.49 5.39 34.49 5.2C34.68 5.2 43.54 5.2 43.74 5.2C43.74 5.26 43.74 5.85 43.74 6.64ZM20.75 16.64L30.22 16.64C30.56 16.64 30.85 16.36 30.85 16.01C30.85 15.66 30.56 15.37 30.22 15.37L20.75 15.37C20.4 15.37 20.12 15.66 20.12 16.01C20.12 16.36 20.4 16.64 20.75 16.64ZM20.75 14.11L26.43 14.11C26.78 14.11 27.06 13.82 27.06 13.48C27.06 13.13 26.78 12.84 26.43 12.84L20.75 12.84C20.4 12.84 20.12 13.13 20.12 13.48C20.12 13.82 20.4 14.11 20.75 14.11ZM30.22 17.9L20.75 17.9C20.4 17.9 20.12 18.19 20.12 18.54C20.12 18.89 20.4 19.17 20.75 19.17L30.22 19.17C30.56 19.17 30.85 18.89 30.85 18.54C30.85 18.19 30.56 17.9 30.22 17.9ZM16.71 6.53C16.71 2.97 13.82 0.08 10.27 0.08C6.71 0.08 3.83 2.97 3.83 6.53C3.83 10.1 6.71 12.99 10.27 12.99C13.82 12.99 16.71 10.1 16.71 6.53ZM13.35 13.98L6.94 13.98L10.14 24.43L13.35 13.98ZM31.84 15.12C30.58 14.11 28.75 14.31 27.74 15.58L23.39 21.03L19.94 16.61C19.1 15.05 17.48 13.98 15.59 13.98L13.73 13.98L16.27 16.09L14.17 17.46L15.16 19.82L10.24 24.75L10.33 25.03L10.14 24.84L9.96 25.03L10.05 24.75L5.13 19.82L6.12 17.46L4.01 16.09L6.56 13.98L4.94 13.98C2.21 13.98 -0.01 16.2 -0.01 18.95L-0.01 31.61L20.55 31.61L20.55 26.87L20.96 27.4C21.72 28.37 22.96 28.72 24.07 28.39C24.73 28.27 25.35 27.93 25.8 27.36L32.29 19.22C33.3 17.96 33.09 16.13 31.84 15.12Z" />
</svg>