<svg xmlns="http://www.w3.org/2000/svg" viewBox="0 0 61 40" width="61" height="40">
	<style>
		tspan { white-space:pre }
		.shp0 { fill: #ffffff } 
	</style>
	<path id="Shape 4" class="shp0" d="M49.38 21.46C49.38 21.46 46.94 21.21 47.06 24.48L51.7 24.48C51.82 21.21 49.38 21.46 49.38 21.46ZM50.62 19.92C50.62 19.36 50.07 18.9 49.38 18.9C48.69 18.9 48.13 19.36 48.13 19.92C48.13 20.49 48.69 20.94 49.38 20.94C50.07 20.94 50.62 20.49 50.62 19.92ZM49.38 11.3C49.38 11.3 46.94 11.06 47.06 14.33L51.7 14.33C51.82 11.06 49.38 11.3 49.38 11.3ZM50.62 9.77C50.62 9.21 50.07 8.75 49.38 8.75C48.69 8.75 48.13 9.21 48.13 9.77C48.13 10.33 48.69 10.79 49.38 10.79C50.07 10.79 50.62 10.33 50.62 9.77ZM60.58 3.11L21.18 3.11L21.18 29.55L60.97 29.55L60.97 3.11L60.58 3.11ZM60.17 9.86C60.17 13.04 60.17 17.01 60.17 20.48L60.17 24.36C60.17 24.93 60.17 25.46 60.17 25.94C60.17 27.51 60.17 28.56 60.17 28.72C59.38 28.72 22.81 28.72 22.01 28.72C22.01 27.93 22.01 4.73 22.01 3.95C22.81 3.95 59.38 3.95 60.17 3.95C60.17 4.19 60.17 6.62 60.17 9.86ZM55.58 16.1L43.47 16.1L43.47 24.22L55.7 24.22L55.7 16.1L55.58 16.1ZM55.45 18.17C55.45 19.15 55.45 20.37 55.45 21.43L55.45 22.63C55.45 22.8 55.45 22.96 55.45 23.11C55.45 23.6 55.45 23.92 55.45 23.97C55.21 23.97 43.97 23.97 43.72 23.97C43.72 23.72 43.72 16.59 43.72 16.35C43.97 16.35 55.21 16.35 55.45 16.35C55.45 16.43 55.45 17.17 55.45 18.17ZM55.58 6.21L43.47 6.21L43.47 14.33L55.7 14.33L55.7 6.21L55.58 6.21ZM55.45 8.28C55.45 9.26 55.45 10.48 55.45 11.54L55.45 12.74C55.45 12.91 55.45 13.07 55.45 13.22C55.45 13.71 55.45 14.03 55.45 14.08C55.21 14.08 43.97 14.08 43.72 14.08C43.72 13.83 43.72 6.7 43.72 6.46C43.97 6.46 55.21 6.46 55.45 6.46C55.45 6.54 55.45 7.28 55.45 8.28ZM26.31 20.96L38.31 20.96C38.75 20.96 39.11 20.6 39.11 20.16C39.11 19.72 38.75 19.36 38.31 19.36L26.31 19.36C25.86 19.36 25.51 19.72 25.51 20.16C25.51 20.6 25.86 20.96 26.31 20.96ZM26.31 17.75L33.51 17.75C33.95 17.75 34.31 17.39 34.31 16.95C34.31 16.51 33.95 16.15 33.51 16.15L26.31 16.15C25.86 16.15 25.51 16.51 25.51 16.95C25.51 17.39 25.86 17.75 26.31 17.75ZM38.31 22.56L26.31 22.56C25.86 22.56 25.51 22.92 25.51 23.37C25.51 23.81 25.86 24.17 26.31 24.17L38.31 24.17C38.75 24.17 39.11 23.81 39.11 23.37C39.11 22.92 38.75 22.56 38.31 22.56ZM21.18 8.14C21.18 3.63 17.53 -0.04 13.02 -0.04C8.51 -0.04 4.85 3.63 4.85 8.14C4.85 12.67 8.51 16.33 13.02 16.33C17.53 16.33 21.18 12.67 21.18 8.14ZM16.92 17.59L8.8 17.59L12.86 30.83L16.92 17.59ZM40.36 19.03C38.77 17.76 36.45 18.02 35.17 19.61L29.66 26.53L25.28 20.92C24.21 18.94 22.16 17.59 19.77 17.59L17.4 17.59L20.63 20.27L17.97 22L19.22 24.99L12.98 31.24L13.1 31.6L12.86 31.36L12.63 31.6L12.74 31.24L6.5 24.99L7.76 22L5.09 20.27L8.32 17.59L6.27 17.59C2.8 17.59 -0.01 20.41 -0.01 23.89L-0.01 39.95L26.05 39.95L26.05 33.93L26.58 34.6C27.53 35.84 29.11 36.28 30.52 35.87C31.35 35.7 32.13 35.28 32.71 34.56L40.94 24.23C42.21 22.64 41.96 20.31 40.36 19.03Z" />
</svg>