<svg xmlns="http://www.w3.org/2000/svg" viewBox="0 0 37 36" width="37" height="36">
	<style>
		tspan { white-space:pre }
		.shp0 { fill: #ffffff } 
	</style>
	<path id="Shape 25" class="shp0" d="M10.63 35.48L0.74 35.48C0.48 26.96 5.69 27.6 5.69 27.6C5.69 27.6 10.9 26.96 10.63 35.48ZM8.35 23.61C8.35 22.14 7.16 20.95 5.69 20.95C4.22 20.95 3.03 22.14 3.03 23.61C3.03 25.07 4.22 26.26 5.69 26.26C7.16 26.26 8.35 25.07 8.35 23.61ZM17.97 27.6C17.97 27.6 12.76 26.96 13.02 35.48L22.91 35.48C23.18 26.96 17.97 27.6 17.97 27.6ZM20.62 23.61C20.62 22.14 19.44 20.95 17.97 20.95C16.5 20.95 15.31 22.14 15.31 23.61C15.31 25.07 16.5 26.26 17.97 26.26C19.44 26.26 20.62 25.07 20.62 23.61ZM30.24 27.6C30.24 27.6 25.04 26.96 25.3 35.48L35.19 35.48C35.45 26.96 30.24 27.6 30.24 27.6ZM32.9 23.61C32.9 22.14 31.71 20.95 30.24 20.95C28.78 20.95 27.59 22.14 27.59 23.61C27.59 25.07 28.78 26.26 30.24 26.26C31.71 26.26 32.9 25.07 32.9 23.61ZM6.76 15.29C7.09 15.39 7.45 15.21 7.56 14.88L10.17 6.77L13.57 12.27L17.29 6.44L21.24 12.5L23.69 5.49C23.81 5.16 23.63 4.8 23.3 4.68C22.98 4.56 22.62 4.74 22.51 5.07L20.9 9.67L17.28 4.11L13.59 9.9L9.81 3.78L6.36 14.5C6.25 14.83 6.43 15.18 6.76 15.29ZM35.93 0.51L0.69 0.51L0.69 16.07L36.28 16.07L36.28 0.51L35.93 0.51ZM35.56 2.53C35.56 5.36 35.56 8.89 35.56 11.99L35.56 15.45C35.56 15.96 35.56 12.43 35.56 12.86C35.56 14.26 35.56 15.19 35.56 15.33C34.85 15.33 2.15 15.33 1.44 15.33C1.44 14.63 1.44 1.95 1.44 1.25C2.15 1.25 34.85 1.25 35.56 1.25C35.56 1.47 35.56 -0.36 35.56 2.53Z" />
</svg>