<svg xmlns="http://www.w3.org/2000/svg" viewBox="0 0 33 33" width="33" height="33">
	<style>
		tspan { white-space:pre }
		.shp0 { fill: #ffffff } 
	</style>
	<path id="Shape 23" class="shp0" d="M7.66 33.08L0.28 33.08C0.08 26.69 3.97 27.17 3.97 27.17C3.97 27.17 7.86 26.69 7.66 33.08ZM5.96 24.18C5.96 23.08 5.07 22.19 3.97 22.19C2.88 22.19 1.99 23.08 1.99 24.18C1.99 25.28 2.88 26.17 3.97 26.17C5.07 26.17 5.96 25.28 5.96 24.18ZM13.14 27.17C13.14 27.17 9.25 26.69 9.45 33.08L16.83 33.08C17.03 26.69 13.14 27.17 13.14 27.17ZM15.12 24.18C15.12 23.08 14.23 22.19 13.14 22.19C12.04 22.19 11.15 23.08 11.15 24.18C11.15 25.28 12.04 26.17 13.14 26.17C14.23 26.17 15.12 25.28 15.12 24.18ZM22.3 27.17C22.3 27.17 18.42 26.69 18.61 33.08L26 33.08C26.19 26.69 22.3 27.17 22.3 27.17ZM24.29 24.18C24.29 23.08 23.4 22.19 22.3 22.19C21.21 22.19 20.32 23.08 20.32 24.18C20.32 25.28 21.21 26.17 22.3 26.17C23.4 26.17 24.29 25.28 24.29 24.18ZM27.25 7.98C28.28 7.98 29.12 7.13 29.12 6.1C29.12 5.06 28.28 4.22 27.25 4.22C26.21 4.22 25.37 5.06 25.37 6.1C25.37 7.13 26.21 7.98 27.25 7.98ZM29.86 15.16L29.86 13.15L25.7 13.15L25.73 17.95L31.03 18L31 20.6L23.94 20.6L23.94 15.48C23.94 15.48 23.01 16.64 21.24 15.65C21.1 15.57 20.94 15.49 20.78 15.39L20.78 18.52L0.24 18.52L0.24 0.86L20.51 0.86L20.78 0.86L20.78 12.73L22.24 13.42C22.59 12.83 22.88 12.36 23.29 11.65C24.88 8.71 27.11 8.9 27.11 8.9C27.11 8.9 29.83 8.54 31.29 11.43C31.74 12.32 31.99 12.93 32.28 14.09C32.98 16.93 31.7 17.52 30.91 17.59C30.91 17.59 26.56 17.51 26.17 17.51C26.16 17.21 26.14 16.29 26.14 16.03C26.46 15.96 29.86 15.16 29.86 15.16ZM20.23 1.41C19.7 1.41 1.33 1.41 0.8 1.41C0.8 1.94 0.8 17.44 0.8 17.97C1.33 17.97 19.7 17.97 20.23 17.97C20.23 17.83 20.23 16.69 20.23 15.06C18.79 14.18 17.22 13.1 17.22 13.1L17.52 12.55L11.16 9.02L11.48 8.44L17.83 11.96L18.1 11.46L20.23 12.47C20.23 7.77 20.23 1.74 20.23 1.41ZM4.1 11.9C4.34 11.98 4.61 11.85 4.69 11.6L6.64 5.51L9.18 9.64L11.96 5.27L14.91 9.81L16.74 4.55C16.82 4.31 16.69 4.04 16.45 3.95C16.2 3.86 15.93 3.99 15.85 4.24L14.65 7.69L11.95 3.52L9.19 7.86L6.37 3.28L3.8 11.31C3.72 11.56 3.85 11.82 4.1 11.9Z" />
</svg>