<svg xmlns="http://www.w3.org/2000/svg" viewBox="0 0 50 49" width="50" height="49">
	<style>
		tspan { white-space:pre }
		.shp0 { fill: #ffffff } 
	</style>
	<path id="Shape 5" class="shp0" d="M43.52 20.77L29.33 20.77C27.91 20.77 26.75 21.92 26.75 23.33L26.75 46.43C26.75 47.85 27.91 49 29.33 49L47.39 49C48.82 49 49.97 47.85 49.97 46.43L49.97 27.82L43.52 20.77ZM48.68 46.43C48.68 47.14 48.1 47.71 47.39 47.71L29.33 47.71C28.62 47.71 28.04 47.14 28.04 46.43L28.04 23.33C28.04 22.62 28.62 22.05 29.33 22.05L40.94 22.05L40.94 28.47C40.94 29.17 41.52 29.75 42.23 29.75L48.68 29.75L48.68 46.43ZM42.23 28.47L42.23 22.05L42.88 22.05L48.68 28.47L42.23 28.47ZM45.45 35.61L31.23 35.61L31.23 33.19L45.45 33.19L45.45 35.61ZM45.45 39.45L31.23 39.45L31.23 37.04L45.45 37.04L45.45 39.45ZM40.94 43.3L31.23 43.3L31.23 40.89L40.94 40.89L40.94 43.3ZM21.8 19.52C27 19.52 31.22 15.15 31.22 9.76C31.22 4.37 27 0 21.8 0C16.6 0 12.39 4.37 12.39 9.76C12.39 15.15 16.6 19.52 21.8 19.52ZM22.48 25.2L26.37 21.88L17.24 21.88L20.91 25.2L18.63 32L21.63 39.13L24.98 31.89L22.48 25.2ZM27.98 29.44L21.8 42.59L12.54 22.34C5.49 23.72 3.09 28.15 2.71 28.9C2.68 28.94 2.64 28.98 2.61 29.02C0.86 31.77 0.3 35.18 0.11 38.41C0 40.23 -0.02 42.08 0.05 43.9C0.11 45.29 0.18 46.66 0.26 48.04L7.46 48.04C7.51 46.21 7.55 45.03 7.55 44.98C7.57 44.17 7.61 43.36 7.62 42.55C7.63 42.05 7.61 41.53 7.72 41.04C7.83 40.51 8.23 40.06 8.7 40.49C8.94 40.71 8.97 41.71 8.97 42.17C9.01 44.06 9.02 45.81 9.03 47.41C9.04 47.63 9.04 47.82 9.04 48.04L27.98 47.96L27.98 29.44Z" />
</svg>