<svg xmlns="http://www.w3.org/2000/svg" viewBox="0 0 56 48" width="56" height="48">
	<style>
		tspan { white-space:pre }
		.shp0 { fill: #ffffff } 
	</style>
	<path id="Shape 6" class="shp0" d="M45.46 35.01C46.99 35.01 48.24 33.73 48.24 32.14C48.24 30.56 46.99 29.28 45.46 29.28C43.92 29.28 42.67 30.56 42.67 32.14C42.67 33.73 43.92 35.01 45.46 35.01ZM45.66 36.67L46.81 35.7L44.11 35.7L45.19 36.67L44.52 38.67L45.41 40.76L46.4 38.64L45.66 36.67ZM51.87 40.55C51.81 39.6 51.65 38.6 51.13 37.8C50.59 36.95 49.15 36.19 48.22 35.94L45.46 41.77L42.72 35.84C40.63 36.24 39.92 37.54 39.81 37.76C39.8 37.77 39.79 37.78 39.78 37.8C39.26 38.6 39.1 39.6 39.04 40.55C39.01 41.08 39.01 41.63 39.03 42.16C39.04 42.57 39.06 42.97 39.09 43.37L41.22 43.37C41.23 42.84 41.24 42.49 41.24 42.48C41.25 42.24 41.26 42 41.26 41.76C41.27 41.62 41.26 41.46 41.29 41.32C41.33 41.16 41.44 41.03 41.58 41.16C41.65 41.22 41.66 41.52 41.66 41.65C41.67 42.21 41.68 42.72 41.68 43.19C41.68 43.25 41.68 43.31 41.68 43.37L49.23 43.37C49.23 43.31 49.23 43.25 49.23 43.19C49.24 42.72 49.24 42.21 49.25 41.65C49.25 41.52 49.26 41.22 49.33 41.16C49.47 41.03 49.59 41.16 49.62 41.32C49.65 41.46 49.65 41.62 49.65 41.76C49.66 42 49.67 42.24 49.67 42.48C49.67 42.49 49.68 42.84 49.7 43.37L51.83 43.37C51.85 42.97 51.87 42.57 51.89 42.16C51.91 41.63 51.9 41.08 51.87 40.55ZM52.9 17.79L38.02 17.79C36.33 17.79 34.97 19.14 34.97 20.8L34.97 44.98C34.97 46.64 36.33 47.99 38.02 47.99L52.9 47.99C54.58 47.99 55.94 46.64 55.95 44.98L55.95 44.76L53.72 42.56C53.7 42.99 53.33 43.34 52.9 43.34L38.02 43.34C37.57 43.34 37.19 42.96 37.18 42.52L37.18 21.07C37.19 20.63 37.57 20.25 38.02 20.25L52.9 20.25C53.35 20.25 53.73 20.63 53.73 21.07L53.73 42.75L55.95 44.94L55.95 20.8C55.94 19.14 54.58 17.79 52.9 17.79ZM45.46 44.68C45.98 44.68 46.41 45.1 46.41 45.62C46.41 46.14 45.98 46.56 45.46 46.56C44.93 46.56 44.5 46.14 44.5 45.62C44.5 45.1 44.93 44.68 45.46 44.68ZM46.89 19.25L44.03 19.25C43.85 19.25 43.7 19.11 43.7 18.93C43.7 18.75 43.85 18.61 44.03 18.61L46.89 18.61C47.07 18.61 47.21 18.75 47.21 18.93C47.21 19.11 47.07 19.25 46.89 19.25ZM34.25 -0.02L3.01 -0.02C1.33 -0.02 -0.04 1.33 -0.04 2.98L-0.04 44.75C-0.04 46.41 1.33 47.76 3.01 47.76L34.25 47.76C35.92 47.76 37.29 46.41 37.29 44.75L37.29 2.98C37.29 1.33 35.92 -0.02 34.25 -0.02ZM18.56 0.96C19 0.96 19.36 1.32 19.36 1.76C19.36 2.2 19 2.55 18.56 2.55C18.11 2.55 17.75 2.2 17.75 1.76C17.75 1.32 18.11 0.96 18.56 0.96ZM20.98 45.15C20.98 45.39 20.78 45.59 20.53 45.59L17 45.59C16.75 45.59 16.56 45.39 16.56 45.15L16.56 44.93C16.56 44.69 16.75 44.5 17 44.5L20.53 44.5C20.78 44.5 20.98 44.69 20.98 44.93L20.98 45.15ZM34.18 41.68L3.07 41.68L3.07 6.06L34.18 6.06L34.18 41.68ZM18.3 24.76C21.44 24.76 24 22.13 24 18.89C24 15.66 21.44 13.03 18.3 13.03C15.15 13.03 12.6 15.66 12.6 18.89C12.6 22.13 15.15 24.76 18.3 24.76ZM18.71 28.17L21.06 26.17L15.54 26.17L17.76 28.17L16.38 32.25L18.19 36.54L20.22 32.18L18.71 28.17ZM31.54 36.1C31.43 34.16 31.09 32.11 30.03 30.46C30.01 30.44 29.99 30.41 29.97 30.39C29.74 29.94 28.29 27.28 24.02 26.45L22.04 30.74L22.04 30.71L18.36 38.49L14.67 30.71L14.67 30.74L12.7 26.45C8.43 27.28 6.97 29.94 6.74 30.39C6.72 30.41 6.7 30.44 6.68 30.46C5.62 32.11 5.29 34.16 5.17 36.1C5.1 37.19 5.09 38.3 5.14 39.4C5.17 40.23 5.21 41.06 5.26 41.88L9.62 41.88C9.65 40.79 9.67 40.07 9.67 40.04C9.68 39.56 9.71 39.07 9.71 38.59C9.72 38.29 9.71 37.97 9.77 37.68C9.85 37.36 10.08 37.09 10.37 37.35C10.51 37.48 10.53 38.08 10.53 38.36C10.55 39.49 10.56 40.54 10.57 41.5C10.57 41.63 10.57 41.75 10.58 41.88L18.36 41.85L26.14 41.88C26.14 41.75 26.14 41.63 26.14 41.5C26.15 40.54 26.16 39.49 26.18 38.36C26.18 38.08 26.2 37.48 26.35 37.35C26.63 37.09 26.87 37.36 26.94 37.68C27.01 37.97 26.99 38.29 27 38.59C27.01 39.07 27.03 39.56 27.04 40.04C27.04 40.07 27.06 40.79 27.09 41.88L31.45 41.88C31.5 41.06 31.55 40.23 31.58 39.4C31.62 38.3 31.61 37.19 31.54 36.1Z" />
</svg>