<svg xmlns="http://www.w3.org/2000/svg" viewBox="0 0 47.48 49.27">
	<g id="Layer_2" data-name="Layer 2">
		<g id="Layer_1-2" data-name="Layer 1">
			<path   fill="#49a9b7" d="M13.11,28.28c-.1.73-.12,1.23-.95,1.23s-.74-.58-.76-1.24c-.64.54-1.09,1.17-1.75.29-.32-.42-.35-.69.06-1,1.71-1.09,2-2.74,1.73-4.56-.14-1.11.35-1.63,1.36-2,3.12-1.16,6.21-2.4,9.31-3.64a2.1,2.1,0,0,1,1.7,0c3.18,1.24,6.36,2.46,9.55,3.69.52.2,1.11.36,1.07,1.08s-.6.77-1.08,1c-1,.38-2,.81-3,1.13a1,1,0,0,0-.82,1.22c.05.91,0,1.83,0,2.74s.21,1.68-.75,2.21c-.27.16-.15.6-.14.91a6,6,0,0,1-2,4.89c-.86.8-.64,1.54.48,1.85s2.31.59,3.46.91a5.85,5.85,0,0,1,4.65,6.1c0,2.34,0,2.34,2.38,2.34h4.06c2.68,0,2.48.1,2.49-2.43q0-13.71.08-27.43c0-.4-.32-1,.46-1.14s1.17-.11,1.17.9c0,9.74,0,19.49,0,29.23a2.51,2.51,0,0,1-2.65,2.73H3.45C.8,49.27,0,48.46,0,45.77V9.86C0,7.59.9,6.67,3.17,6.67H23.45c.61,0,1.16-.1,1.14.87s-.58.76-1.11.76H3.32c-1.55,0-1.65.08-1.62,1.61,0,1-.44,2.35.17,3s2,.24,3.08.24c6.16,0,12.33,0,18.49,0,.43,0,1.08-.33,1.17.56s-.24,1-1.06,1c-6.72,0-13.44,0-20.16,0a5.77,5.77,0,0,1-.72,0c-.78-.11-1.09.2-1,1a7.51,7.51,0,0,1,0,.95v29c0,1.52.09,1.61,1.63,1.61,2,0,4.06,0,6.08,0,.94,0,1.16-.29,1.12-1.15a8.69,8.69,0,0,1,.18-3,5.75,5.75,0,0,1,4-4.18c1.33-.41,2.67-.75,4-1.12.9-.25,1.2-1,.52-1.6a5.76,5.76,0,0,1-2.13-5.18c0-.19.05-.49-.05-.57-1.63-1.36-.68-3.19-.81-4.78-.08-1-.29-1.48-1.21-1.68-.12,0-.22-.09-.34-.11-.61-.07-1.47-1-1.69-.37a2.33,2.33,0,0,0,.42,2.76,8,8,0,0,1,.92.92c.31.37,1,.58.33,1.31S13.7,28.9,13.11,28.28Zm9.77,19.17h4.05c2.36,0,2.36,0,2.46-2.37a.24.24,0,0,0,0-.12c-.07-.65.29-.79.86-.81s.82.27.78.86,0,1.19,0,1.79c0,.42.11.61.59.66,1.74.2,1.88.09,1.88-1.66v-.72c0-2.42-1.12-3.57-3.34-4.46-2.52-1-4.54-.77-6.26,1.39a1.13,1.13,0,0,1-2,0c-1.76-2.23-3.89-2.53-6.35-1.32-.17.09-.39.09-.57.17a3.88,3.88,0,0,0-2.67,3.59c0,.67,0,1.35,0,2-.08.82.3.93,1,1,1.21.12,1.67-.29,1.46-1.49,0-.31,0-.64,0-1-.07-.62.17-.83.8-.83s.86.23.82.84,0,1,0,1.43c-.1.81.27,1,1,1C19.23,47.42,21.05,47.45,22.88,47.45Zm8.37-25.37-7.8-3a1.17,1.17,0,0,0-.92,0l-7.9,3c2.84,1.1,5.41,2.1,8,3.08a1.09,1.09,0,0,0,.69,0ZM27.9,25.21c-1.33.5-2.53.9-3.68,1.41a3,3,0,0,1-2.52,0c-1.15-.49-2.33-.9-3.63-1.4,0,1.15,0,2.15,0,3.13a.84.84,0,0,0,.61.9,9.64,9.64,0,0,0,7.06.56c2.15-.73,2.17-.67,2.17-2.86ZM22.86,36A4.07,4.07,0,0,0,27,32c0-.59-.06-.92-.79-.66a9.66,9.66,0,0,1-6.62,0c-.58-.21-.73-.05-.75.56A4.09,4.09,0,0,0,22.86,36Zm1.77,2.43c-.32-.2.37-1-.42-.91a6.78,6.78,0,0,1-2.46,0c-.16,0-.4,0-.39.14,0,.6-.49,1.28.09,1.77s1,1.39,1.67,1S24.87,39.7,24.63,38.41Z" />
			<path   fill="#49a9b7" d="M36.89,0h7.5c2.12,0,3.07,1,3.08,3q0,4.47,0,8.93a2.58,2.58,0,0,1-2.85,2.9c-2.7,0-5.4,0-8.1,0a1.66,1.66,0,0,0-1.52.71c-.71.95-1.49,1.85-2.24,2.77-.25.31-.5.68-1,.53a1,1,0,0,1-.7-1.12c0-.76,0-1.51,0-2.27,0-.57-.2-.81-.77-.75-.11,0-.24,0-.35,0C26.88,15,26,13.88,26.16,11c.1-2.69,0-5.39,0-8.1A2.52,2.52,0,0,1,29,0C31.64,0,34.27,0,36.89,0ZM32.7,15.6a9.86,9.86,0,0,0,1-1.09,2.91,2.91,0,0,1,3-1.46c2.62.11,5.25,0,7.87,0,.9,0,1.3-.32,1.3-1.25,0-2.94,0-5.88,0-8.82,0-.92-.35-1.29-1.26-1.28-2,0-4,0-6,0H29.16c-.69,0-1.31.06-1.31,1v9.42c0,.72.38,1,1.06,1s1.59,0,2.38,0c1-.05,1.52.33,1.41,1.39C32.67,14.73,32.7,15,32.7,15.6Z" />
			<path   fill="#49a9b7" d="M13.09,10.73c.12.73-.35.71-.86.74s-.78-.23-.8-.82.36-.72.88-.74S13.21,10.1,13.09,10.73Z" />
			<path   fill="#49a9b7" d="M5.71,11.45c-.59.11-.74-.19-.73-.73s0-.81.68-.81.81.21.8.82S6.29,11.54,5.71,11.45Z" />
			<path   fill="#49a9b7" d="M9.12,9.94c.73-.11.69.33.73.8.05.71-.38.7-.89.73-.67,0-.64-.37-.67-.83C8.24,9.93,8.63,9.85,9.12,9.94Z" />
			<path   fill="#49a9b7" d="M36.88,3.3c1.62,0,3.24,0,4.87,0,.65,0,.79.26.79.84s-.16.83-.8.83c-3.29,0-6.57,0-9.86,0-.64,0-.82-.22-.81-.82s.17-.87.82-.85C33.55,3.32,35.21,3.3,36.88,3.3Z" />
			<path   fill="#49a9b7" d="M36.85,6.62c1.63,0,3.26,0,4.88,0,.64,0,.81.22.81.83s-.2.83-.82.83c-3.26,0-6.51,0-9.77,0-.7,0-.87-.27-.88-.91s.37-.75.9-.74C33.6,6.63,35.23,6.62,36.85,6.62Z" />
			<path   fill="#49a9b7" d="M36.86,9.93c1.62,0,3.25,0,4.87,0,.62,0,.82.19.81.81s-.24.73-.78.73c-3.29,0-6.57,0-9.86,0-.61,0-.83-.19-.83-.82s.27-.73.8-.72C33.53,9.94,35.2,9.93,36.86,9.93Z" />
		</g>
	</g>
</svg>
