<svg xmlns="http://www.w3.org/2000/svg" viewBox="0 0 52.99 53.07">
	<g id="Layer_2" data-name="Layer 2">
		<g id="Layer_1-2" data-name="Layer 1">
			<path  fill="#49a9b7" d="M26.57,23.16a4.72,4.72,0,1,0,4.72,4.71A4.71,4.71,0,0,0,26.57,23.16Zm0,7.88a3.17,3.17,0,1,1,3.17-3.17A3.22,3.22,0,0,1,26.57,31ZM7.07,35.6H12.6A1.63,1.63,0,0,0,14.22,34V28.44a1.63,1.63,0,0,0-1.62-1.62H7.07a1.63,1.63,0,0,0-1.63,1.62V34A1.71,1.71,0,0,0,7.07,35.6Zm3.58-7.24h2a.08.08,0,0,1,.08.08V34a.08.08,0,0,1-.08.08h-2Zm-3.58.08h0l2-.08V34h-2A.08.08,0,0,1,7,33.89V28.44Zm40.55,0A1.63,1.63,0,0,0,46,26.82H40.47a1.63,1.63,0,0,0-1.62,1.62V34a1.63,1.63,0,0,0,1.62,1.63h5.61A1.63,1.63,0,0,0,47.7,34V28.44ZM42.5,34.05h-2a.08.08,0,0,1-.08-.08V28.44a.08.08,0,0,1,.08-.08h2ZM46.08,34h0l-2,.08V28.44h2a.08.08,0,0,1,.08.08V34ZM5.53,45.27a1.63,1.63,0,0,0,1.62,1.62h5.53a1.63,1.63,0,0,0,1.62-1.62V39.74a1.63,1.63,0,0,0-1.62-1.63H7.07a1.64,1.64,0,0,0-1.63,1.63v5.53Zm5.12-5.53h2a.08.08,0,0,1,.08.08v5.53a.08.08,0,0,1-.08.08h-2Zm-3.58,0h0l2-.08v5.61h-2A.08.08,0,0,1,7,45.18V39.74Zm39-1.54H40.55a1.63,1.63,0,0,0-1.62,1.62v5.53A1.63,1.63,0,0,0,40.55,47h5.53a1.63,1.63,0,0,0,1.62-1.62V39.82A1.62,1.62,0,0,0,46.08,38.2ZM42.5,45.35h-2a.08.08,0,0,1-.08-.08V39.74a.08.08,0,0,1,.08-.08h2Zm3.58-.08h0l-2,.08V39.74h2a.08.08,0,0,1,.08.08v5.45Zm5.44,3.17h-.81V25.76a.81.81,0,0,0-1.62,0V48.44H37.38V23.65H51.44A1.61,1.61,0,0,0,53,22.1V20.56A1.6,1.6,0,0,0,51.44,19H49.82l-4.15-6.1a2.21,2.21,0,0,0-1.79-1H32.83L28,8.05a2,2,0,0,0-.57-.33V6.26l5.36-2a1.14,1.14,0,0,0,.73-1,.94.94,0,0,0-.73-1L26.9.08c-.08,0-.08,0-.16-.08h-.25c-.16,0-.24.08-.4.16h0l-.17.17h0c0,.08-.08.16-.08.24v5h0v2a1.39,1.39,0,0,0-.57.32L20.4,11.87H9.18a2,2,0,0,0-1.78,1l-4.15,6.1H1.63A1.6,1.6,0,0,0,.08,20.48V22a1.6,1.6,0,0,0,1.55,1.55H15.68V48.44H4V25.76A.81.81,0,0,0,3.17,25a.76.76,0,0,0-.81.81V48.44H1.54A1.6,1.6,0,0,0,0,50v1.54a1.6,1.6,0,0,0,1.54,1.55h49.9A1.61,1.61,0,0,0,53,51.52V50A1.48,1.48,0,0,0,51.52,48.44ZM27.39,1.87,31,3.25l-3.65,1.3ZM51.52,20.56V22H37.38V20.56Zm-7.55-7a.7.7,0,0,1,.56.25L48,19H41.61L34.7,13.57ZM26.17,9.26a.61.61,0,0,1,.32-.16h.17a.61.61,0,0,1,.32.16L39.09,19h-25ZM31,36.16H22.1a2.19,2.19,0,0,0-2.19,2.2V48.44H17.23V20.56H35.84V48.44H33.16V38.36A2.18,2.18,0,0,0,31,36.16Zm.57,2.2V48.44H27.39V37.71H31A.58.58,0,0,1,31.61,38.36Zm-5.85-.65V48.44H21.45V38.36a.64.64,0,0,1,.65-.65ZM8.7,13.82a.61.61,0,0,1,.56-.25h9.19L11.62,19.1H5.2ZM1.63,22.1V20.64H15.68V22.1ZM51.52,51.52H1.63V50.06H51.44v1.46Z" />
		</g>
	</g>
</svg>
