<svg xmlns="http://www.w3.org/2000/svg" viewBox="0 0 58.22 41.65">

	<g id="Layer_2" data-name="Layer 2">
		<g id="Layer_1-2" data-name="Layer 1">
			<path  fill="#49a9b7" d="M14,18.23a9.12,9.12,0,1,1,9.11-9.12A9.13,9.13,0,0,1,14,18.23ZM14,2a7.12,7.12,0,1,0,7.11,7.11A7.12,7.12,0,0,0,14,2Z" />
			<path  fill="#49a9b7" d="M27.91,41.65H0V24.72a7.25,7.25,0,0,1,7.24-7.24H20.67A7.23,7.23,0,0,1,27,21.23l3.53,4.51,4.69-5.88a4.67,4.67,0,0,1,6.56-.73h0a4.68,4.68,0,0,1,.73,6.56L34.31,35.93a4.59,4.59,0,0,1-2.76,1.66,4.52,4.52,0,0,1-3.64-.5ZM2,39.65H25.91V31.8l2.31,2.93a2.63,2.63,0,0,0,2.85.91,2.71,2.71,0,0,0,1.68-1l8.18-10.24a2.67,2.67,0,0,0-.41-3.75,2.67,2.67,0,0,0-3.75.42L30.49,29l-5.23-6.7a5.26,5.26,0,0,0-4.14-2.76l2.1,1.73-3.1,2,1.19,2.81-6.25,6.24,1.11,3.59-2-2L13.8,35l-.34-1.11-2,2,1.1-3.62L6.3,26.05l1.18-2.81-3.09-2,2-1.68A5.24,5.24,0,0,0,2,24.72ZM17.65,22.51l-1.94,6.31,3.23-3.24Zm-9,3.07,3.23,3.24L10,22.51Zm2.45-6.1,2.69,8.73,2.69-8.73Zm7.34.41-.78,2.55L19.84,21ZM7.76,21l2.17,1.4-.78-2.55Z" />
			<polygon  fill="#49a9b7" points="58.22 29.22 39.41 29.22 39.41 27.22 56.22 27.22 56.22 3 17.67 3 17.67 1 58.22 1 58.22 29.22" />
		</g>
	</g>
</svg>
