<svg xmlns="http://www.w3.org/2000/svg" viewBox="0 0 44 44">
	
	<g id="Layer_2" data-name="Layer 2">
		<g id="Layer_1-2" data-name="Layer 1">
			<path  fill="#49a9b7" d="M22,27.57l-9.27-9.28a1,1,0,0,0-1.42,1.42l10,10A1,1,0,0,0,22,30a1,1,0,0,0,.72-.31h0L39.42,12.2h0l1.42-1.49h0l2.87-3h0A1,1,0,0,0,43,6a1,1,0,0,0-.72.31h0L39.71,9h0l-1.39,1.47h0Zm20.25-14a1,1,0,0,0-1.63,1h0a20,20,0,1,1-4.19-6.49l0,0a1,1,0,0,0,1.38,0,1,1,0,0,0,0-1.42l-.12-.08A22,22,0,1,0,42.47,14a.86.86,0,0,0-.24-.42" />
		</g>
	</g>
</svg>
