<svg version="1.2" xmlns="http://www.w3.org/2000/svg" viewBox="0 0 64 62" width="64" height="62"><style>.a{fill:#fff}</style><path fill-rule="evenodd" class="a" d="m11.7 4.4c0.1-0.1 0.1-0.2 0.1-0.3 0.1-0.3 0-0.6 0.2-0.8 0.2-0.4 0.2-0.9 0.3-1.3 0.3-0.6 0.4-1.2 0.5-1.9q1 0.3 1.9 0.5c-0.1 0.1 0 0.2 0.1 0.3 1.2 1.2 2.5 2.4 3.6 3.7 0.2 0.3 0.5 0.5 0.6 0.8 0 0.2-0.1 0.4 0 0.6 0.2 0.3 0.5 0.3 0.7 0.7q0.4 0.3 0.9 0.5c0.5 0.2 0.9 0.4 1.4 0.7q0 0 0.1 0 0.3 0.1 0.3 0.3 0.1 0 0.1 0 0 0 0.1 0.1 0 0 0 0.1 0.1 0.1 0.2 0.2c0 0.2 0.1 0.4 0.2 0.5q0 0.2 0.1 0.3 0.1 0.2 0.2 0.4 0 0 0 0c0.1 0.1 0.1 0.3 0.2 0.5 0 0.2 0.1 0.4 0.3 0.6 0.3 0.3 0.7 0.5 0.9 0.9 0.5 0.4 0.8 0.9 1.2 1.3q0.1 0.2 0.2 0.3c0 0.2 0.1 0.4-0.1 0.5-0.2 0.2-0.3 0.2-0.5 0.1q-0.3-0.2-0.6-0.4c-0.4-0.4-0.9-0.8-1.3-1.3-0.3-0.1-0.4-0.5-0.8-0.6q0 0.1-0.1 0.2c0 0.2-0.2 0.3-0.4 0.4-0.3 0-0.5 0.1-0.7 0.3-0.1 0.2-0.3 0.3-0.6 0.3-0.1 0-0.3 0.1-0.4 0.2-0.5 0.4-0.7 0.5-1.1 0-0.3-0.4-0.7-0.7-0.9-1.2-0.7-0.5-1.1-1.2-1.4-2-0.1-0.2-0.1-0.3-0.2-0.5-0.1-0.1-0.1-0.3-0.1-0.4-0.3-0.1-0.4-0.4-0.6-0.6-0.3 0.2-0.7 0.3-0.9 0-0.4-0.5-0.9-0.8-1.3-1.2-0.8-0.8-1.6-1.6-2.4-2.4 0-0.2-0.1-0.3 0-0.4zm11.6 6q0 0 0 0 0 0 0 0zm0 0q-0.1-0.2-0.1-0.4 0 0.2 0.1 0.4zm0-0.6q0 0 0 0-0.1 0.1-0.1 0.2 0-0.1 0.1-0.2zm29.7-6q0 1 0 1.9c-0.3 0.2-0.4 0.5-0.7 0.7q-1.5 1.6-3.1 3.1c-0.1 0-0.2 0.1-0.3 0.3q-0.1 0.1-0.2 0.2c-0.3 0.2-0.5 0.3-0.8 0.1q-0.2 0.3-0.5 0.5-0.5 0.5-0.8 1.1c-0.4 0.7-1 1.3-1.5 1.8-0.5 0.4-1 0.7-1.6 0.6q0 0-0.1 0c-0.1-0.2-0.2-0.4-0.5-0.5q-0.5-0.1-0.7-0.6c-0.1-0.3-0.5-0.4-0.7-0.7-0.1 0-0.1-0.1-0.1-0.2-0.1-0.1-0.2 0-0.4 0q-0.8 0.6-1.7 1.2-0.1 0.1-0.2 0.1c-0.2 0.2-0.6 0.5-0.8 0.4-0.2-0.2-0.3-0.4-0.2-0.6 0-0.2 0.2-0.4 0.3-0.5q0.6-0.4 1.2-0.9 0.2-0.1 0.4-0.3c0.1-0.1 0.2-0.1 0.2-0.2 0.3 0 0.4-0.2 0.7-0.3q0 0.2 0 0.4 0-0.2 0-0.4c0.1-0.2 0.3-0.3 0.3-0.6-0.2-0.1-0.2-0.3-0.1-0.4 0.3-0.4 0.7-0.8 1.1-1.1 0.2-0.2 0.5-0.2 0.8-0.2q0.4 0 0.7-0.1 0.1-0.1 0.2-0.1c0.4 0 0.7-0.1 1-0.1 0.1 0 0.2-0.1 0.3-0.1q0.2-0.1 0.3-0.1c0.1-0.2 0.2-0.2 0.4-0.3-0.1-0.3-0.2-0.5 0-0.8q0.8-1.3 1.8-2.5c0.2-0.3 0.5-0.6 0.6-1q2.3 0 4.5 0c0.2 0 0.2 0.1 0.2 0.2zm6.2 18.1c0.8-0.3 1.6-0.6 2.5-0.8q0.7 2.3 1.4 4.6-0.6 0.2-1.2 0.4-0.1 0-0.1 0-0.3 0.1-0.7 0.3 0 0-0.1 0-0.1 0-0.2 0 0 0 0 0-0.1 0.1-0.1 0.1-0.1 0-0.1 0-0.2 0-0.4 0.1c-0.3 0.2-0.7 0.2-1-0.2q0 0.1-0.1 0.1c-0.6 0.2-1 0.6-1.4 1.1-0.4 0.4-0.9 0.6-1.4 0.9-0.6 0.2-1.2 0.4-1.7 0.7-0.6 0.4-1.1 0.1-1.3-0.6-0.2-0.1-0.2-0.2-0.4-0.3-0.1 0-0.2-0.1-0.2-0.2 0.1-0.4-0.3-0.6-0.5-0.9-0.1-0.1-0.1-0.3-0.2-0.5q0-0.1-0.1-0.1-1.3 0.5-2.6 0.9-0.4 0.1-0.8 0.2-0.3-0.1-0.3-0.4c0-0.2 0-0.4 0.2-0.5q0.2-0.1 0.4-0.2 0.2-0.1 0.5-0.3c0.5-0.2 1.1-0.3 1.6-0.6 0.2-0.1 0.6-0.1 0.8-0.3 0.4-0.5 1-0.9 1.5-1.3q0-0.1 0.1-0.1 0-0.1 0.1-0.1 0.4-0.1 0.7-0.3 0.1 0 0.2 0 0.1-0.1 0.2-0.1 0.1 0 0.3 0 0.4-0.1 0.9-0.1 0 0 0.1 0c0.5 0.1 1 0 1.5-0.1q0-0.1 0.1-0.1 0.1-0.1 0.2-0.1c0.1-0.2 0.2-0.1 0.4-0.2 0.2-0.6 0.7-0.8 1.2-1zm-47 5.9q-0.2 0.2-0.2 0.5 0 0.3-0.3 0.5c-0.3 0.1-0.4 0.4-0.5 0.6-0.2 0.3-0.4 0.3-0.6 0.2-1.5-0.5-2.8-1.1-3.9-2.3q-0.3-0.3-0.7-0.5-0.2-0.2-0.5-0.3c-0.2 0.3-0.5 0.4-0.9 0.3-1.2-0.4-2.3-1-3.5-1.4-0.2 0-0.3-0.2-0.4-0.3q0-0.1 0-0.2 0.8-2.1 1.6-4.2c0.1-0.2 0.2 0 0.3 0h0.1q0.1 0 0.2 0.1c0.5 0.3 1.1 0.5 1.6 0.7q0.1 0 0.2 0.1c0.2 0 0.3 0.2 0.4 0.2 0.3 0.1 0.6 0.3 0.9 0.4q0.4 0.2 0.8 0.4 0 0.2 0.1 0.3c-0.1 0.1 0 0.2 0 0.3q0.1 0 0.2 0 1 0.6 2.2 0.5c0.2 0 0.5 0 0.7 0 0.4 0.2 0.8 0.2 1.2 0.4q0.3 0.1 0.6 0.4c0.6 0.8 1.4 1.4 2.4 1.8q1.1 0.4 2.1 1c0.1 0.1 0.3 0.3 0.2 0.5-0.1 0.4-0.3 0.5-0.6 0.4-1-0.4-2.1-0.7-3-1.2q-0.1 0.1-0.2 0.2c0 0.3-0.2 0.5-0.5 0.6zm6 18.2q0.1-0.1 0.1-0.2c0.4-0.2 0.4-0.6 0.6-0.9q0.5-0.4 0.8-1 0.1 0 0.1 0 0-0.1 0-0.1c0.3 0 0.4-0.2 0.6-0.4 0.3-0.2 0.5-0.6 0.8-0.9 0.2-0.2 0-0.5-0.3-0.6q-0.4 0-0.6 0.3c-0.2 0.1-0.2 0.4-0.4 0.6-0.1-0.2-0.1-0.3 0-0.5 0-0.1 0.1-0.2 0-0.3q0-0.1 0-0.2 0.2-0.2 0.4-0.5 0-0.1 0-0.2-0.1-0.1-0.1 0c-0.3 0.1-0.6 0.2-0.6 0.5q0 0.1 0 0.1c-0.3 0.2-0.5 0.4-0.3 0.7q0 0.1-0.1 0.1c-0.1 0.1 0 0.3-0.2 0.4-0.1-0.1-0.1-0.2-0.1-0.3 0-0.1 0.1-0.2-0.1-0.3-0.1 0-0.3 0-0.4 0.1q0 0.1-0.1 0.2c-0.1 0-0.3 0.1-0.4 0q-0.1 0-0.1-0.1 0.1-0.1 0.2-0.3 0.2 0.1 0.2-0.1 0-0.2-0.2-0.1-0.1 0-0.2-0.1-0.1-0.1-0.1-0.1c-0.2-0.2-0.1-0.4 0.1-0.6 0.5-0.3 0.6-1 0.9-1.5 0-0.1 0.1-0.2 0-0.3-0.1 0-0.2 0-0.2 0.1-0.2 0.4-0.6 0.6-0.9 0.9q0 0-0.1 0c-0.2 0-0.3 0.1-0.5 0.1q0 0-0.1 0.1c0-0.1-0.1-0.2-0.2-0.2-0.4-0.1-0.4-0.1-0.1-0.4q0.1 0 0.2-0.1c0.5 0 0.8-0.4 0.7-0.8-0.1-0.1 0-0.2 0-0.3 0-0.2 0.2-0.4 0-0.5-0.2-0.2-0.4 0.1-0.5 0.2q-0.1 0-0.1 0.1c-0.1 0-0.3 0.1-0.4 0.1-0.2-0.2 0.1-0.2 0.1-0.3 0.3-0.1 0.4-0.4 0.5-0.6 0.3-0.9 0.1-1.7-0.1-2.5-0.3-1.1-0.4-2.3-0.2-3.4q0-0.8 0.2-1.5 0.3-0.9 0.8-1.7c0.2-0.2 0.4-0.4 0.6-0.6 0-0.1 0.1-0.2 0-0.3 0 0-0.1 0-0.2 0-0.4 0.1-0.9-0.1-1.3 0-0.1-0.2-0.2-0.3 0-0.4 0.4 0.1 0.7 0.2 1-0.1q0.1 0 0.2-0.1c0.2 0.1 0.3 0 0.4 0 0.5-0.2 1-0.5 1.3-1q0 0 0 0c0.5-0.2 0.9-0.7 1.5-0.6-0.3 0.2-0.6 0.4-0.8 0.6q-0.1 0.1-0.1 0.1c-0.4 0.1-0.8 0.5-1.1 0.7-0.1 0.1-0.1 0.2-0.1 0.2 0.1 0.1 0.2 0 0.3 0 0.6-0.4 1.3-0.6 2.1-0.8 0.6-0.2 1.3-0.1 2-0.1q0.9 0 1.6 0.4c0.2 0.1 0.4 0.1 0.7 0.2 0 0 0.1 0 0.1-0.1q0-0.1-0.1-0.2c-0.4-0.1-0.8-0.5-1.3-0.6-0.8-0.2-1.5-0.2-2.3-0.1-0.1 0-0.3 0-0.3-0.1 0-0.2 0.2-0.2 0.3-0.2q1 0 1.9 0c0.5 0 0.9 0.1 1.3 0.4q0.2 0.1 0.5 0.2c-0.2-0.4-0.5-0.7-1-0.9 0.3-0.1 0.5 0 0.7 0.2q0.4 0.3 0.7 0.7c0 0.1 0 0.1 0.1 0.1q0.1-0.1 0.1-0.2c-0.3-0.6-0.8-0.9-1.3-1.3-0.1-0.1-0.2-0.2-0.3-0.4q0-0.5 0-1 0.2-0.5 0.7-0.8c0.6-0.1 0.8-0.1 1 0.8 0 0.1 0 0.3 0.1 0.3q0 0.2 0 0.4c0 0.1 0.1 0.2 0.1 0.3 0 0.3 0.1 0.5 0.2 0.8q0 0.2-0.2 0.2c0-0.2-0.1-0.4-0.2-0.6q0.1-0.2-0.1-0.3 0-0.1-0.1-0.2 0-0.5-0.4-0.9c-0.2-0.2-0.5-0.1-0.6 0.1-0.2 0.3-0.1 0.7 0.2 0.8 0.1 0.1 0.2 0.2 0.2 0.4 0 0.1 0.1 0.3 0.3 0.3q0 0.1 0.1 0.2c0.2 0.3 0.4 0.6 0.5 1q0.3 0.4 0.5 0.8c0 0.1 0.1 0.1 0.2 0.1 0.1 0 0.1-0.1 0.1-0.2q0-0.1 0-0.2c-0.2-0.8-0.2-1.7-0.5-2.4q0-0.1 0.1-0.1 0.3 0.1 0.4 0.4c0 0.2 0 0.4 0.2 0.5 0.1 0.1 0.1 0.2 0 0.3q-0.1 0.2 0 0.5 0 0.1 0.1 0.2 0 0 0.1-0.1c0-0.5 0.3-0.9 0.5-1.3 0.1-0.4 0.4-0.7 0.3-1.1q0 0-0.1-0.1-0.1 0-0.1 0.1c-0.1 0.2-0.3 0.4-0.3 0.6q-0.1 0.1-0.1 0.2c-0.1 0.1-0.1 0.2-0.2 0.2-0.1 0-0.1-0.1-0.1-0.2 0.1-0.4 0-0.9 0.1-1.3 0.3-0.4 0.7-0.4 1.2 0q0.1 0.1 0.2 0.2c0 0.4-0.1 0.7-0.3 1q-0.5 0.9-0.9 1.8 0 0 0 0.1-0.1 0.1 0 0.1 0 0 0.1 0c0.1-0.1 0.2-0.3 0.3-0.4 0.2-0.6 0.6-1.1 0.9-1.7 0.2-0.3 0.5-0.6 0.6-1q0.5-0.3 0.7-0.8 0 0 0.1 0c0.3-0.2 0.6-0.5 0.8-0.8q0.1 0 0.1 0 0.2 0 0.2-0.2 0.7-0.5 1.5-0.8c0.2 0 0.3-0.1 0.4-0.2q0.1 0 0.2 0c0.1 0.1 0.2 0 0.2-0.1q0.2 0 0.3 0 0 0 0 0 0 0 0 0 0 0 0 0c0.3 0 0.6 0 0.9-0.2q0.1 0 0.2 0c0.3 0.1 0.6 0 0.9 0q0.9-0.2 1.7 0 0.7 0.1 1.4 0.2 0.1 0 0.2 0c0.4 0.2 0.9 0.5 1.4 0.6q0.1 0 0.1 0.1 0 0.1 0.2 0c0.5 0.3 0.9 0.7 1.4 1q0.5 0.5 1.1 0.7c0.2 0 0.4 0.1 0.4 0.3 0.1 0.1 0.2 0.2 0.3 0.3q0.3 0.3 0.6 0.7 0.8 1.1 1.6 2.2c0.1 0.1 0.1 0.2 0.2 0.2 0.1-0.1 0.1-0.2 0-0.3-0.3-0.6-0.7-1.1-1.1-1.6-0.2-0.3-0.4-0.5-0.6-0.8-0.1-0.1-0.2-0.2-0.1-0.3 0-0.1 0.1 0.1 0.2 0.1 0.1 0.1 0.2 0.1 0.3 0.1q0 0.1 0.1 0.2 0.5 0.6 1 1.2 0.1 0.2 0.2 0.4c0.1 0.4 0.3 0.8 0.6 1.2q0 0.1 0 0.1c-0.1 0.1 0 0.2-0.2 0.2 0 0-0.1-0.2-0.2 0 0 0 0 0.2 0.1 0.3 0.1 0.3 0.1 0.5 0.2 0.8 0.1 0.3 0.2 0.5 0.4 0.8 0.8 0.8 1.4 1.7 1.7 2.9 0.2 0.8 0.2 1.7 0 2.6 0 0.2 0 0.4 0 0.6q0 0 0 0.1 0 0.1 0 0.1-0.1 0-0.1 0.1c0 0-0.1 0 0 0.1q0 0.1-0.1 0.1c-0.2 0.3-0.3 0.7-0.5 1-0.2 0.3-0.4 0.3-0.8 0.3-0.3 0-0.3-0.2-0.4-0.4-0.2-0.4-0.6-0.5-0.9-0.2-0.3 0.5-0.6 0.9-0.9 1.4q-0.2 0.2-0.3 0.3-0.2 0.2-0.4 0.4 0 0-0.1 0.1-0.3 0.1-0.6 0.3c-0.1 0.1-0.2 0.3-0.4 0.3-0.3 0-0.4 0.2-0.7 0.3-0.1 0-0.2 0.1-0.3 0.1-0.1-0.1 0-0.3 0-0.4 0-0.2 0.2-0.5-0.1-0.7q-0.1-0.2-0.3-0.4-0.3-0.4-0.7-0.1c-0.5 0.2-0.9 0.7-1.3 1.1-0.2 0-0.3 0.1-0.3 0.2q-0.4 0.3-0.8 0.7c-0.9 0.9-1.9 1.6-2.6 2.6-0.5 0.8-0.9 1.6-0.8 2.5q0 0.5 0.1 1 0 0.3-0.3 0.5c-0.1 0.1-0.3 0.1-0.2 0.3-0.1 0.1-0.3 0.1-0.3 0.2-0.4 0.1-0.8 0.3-1.2 0.3-0.3-0.1-0.6-0.2-0.8-0.2-0.1 0-0.2 0-0.2-0.1-0.1-0.1-0.2-0.2-0.3-0.2q-0.6-0.4-1-1c0-0.3-0.2-0.5-0.4-0.7q-0.2-0.4-0.4-0.7c0.1-0.1 0-0.2 0-0.3q-0.4-0.6-0.6-1.3-0.2-0.6-0.4-1.3c-0.1-0.1-0.1-0.3-0.3-0.2-0.1 0 0 0.2 0 0.3q0.2 0.9 0.5 1.8c0.1 0.3 0.2 0.7 0.5 1q0.1 0.2 0.1 0.4 0 0.1 0.1 0.1 0.1 0.2 0.2 0.4 0 0.1 0.1 0.2 0.1 0 0.1 0.1c0 0.3 0.1 0.5 0.3 0.6q0.1 0 0.1 0 0 0.2 0.1 0.2c0.3 0.4 0.7 0.7 1.1 0.9 0.1 0.2 0.4 0.3 0.6 0.4 0.1 0 0.3 0.1 0.3 0.3q0.2 0.6 0.4 1.3c0.1 0.3 0.1 0.7 0.4 0.9q0 0.1 0 0.1c-0.1 0.2 0 0.2 0.1 0.3q0.1 0.3 0.1 0.5c0.1 0.3 0.1 0.6 0.4 0.8q0 0.1 0 0.1c0 0.2 1.1 9 1.2 9.2 0.2 0.3 0.3 0.6 0.2 1q-0.5 0-1.1 0 0-0.2 0-0.3c-0.2-0.8-1.5-10.4-1.7-11.2-0.3-0.6-0.5-1.2-0.8-1.8-0.1 0-0.1-0.2-0.3-0.1-0.1 0.1 0 0.2 0.1 0.3 0.3 0.9 0.8 1.9 1 2.9 0.1 0.5 1.4 9.7 1.3 10.2q-0.7 0-1.4 0c0.1-0.4-0.2-0.6-0.3-0.9-0.2-1-1.8-10.7-2.1-11.6-0.4-0.8-0.8-1.7-1.3-2.4q-0.7-0.9-1.4-1.8c-0.6-0.7-1.3-1.4-2.2-1.8-0.7-0.3-1.5-0.5-2.4-0.4-0.1 0-0.2 0-0.2 0.1 0 0.1 0.1 0.2 0.2 0.2 0.5 0.1 1.1 0.2 1.6 0.3 0.8 0.2 1.5 0.4 2.1 0.9 0.5 0.4 0.8 0.9 1.2 1.4q0.7 0.9 1.2 2c0.7 1.4 2.4 11.5 2.9 12.9 0.1 0.4 0.4 0.7 0.4 1.1q-5.2 0-10.4 0c-0.2-0.2-0.4-0.3-0.6-0.4-0.1-0.1-0.1-0.1-0.2 0 0 0.1 0 0.1 0.1 0.1 0.1 0.1 0.1 0.2 0.2 0.3q-2.6 0-5.1 0 0-0.1 0-0.2 0-0.1 0-0.2c0.1-0.7-1.7-6.1-1.7-7.2 0-2.2 1.6-6.8 1.6-7.1q0.2-0.1 0.2-0.3 0 0 0-0.1 0.4-0.4 0.3-0.9zm8.4-8.9c0.3-0.1 0.5-0.3 0.6-0.6 0.2-0.4 0.5-0.8 0.4-1.3q0-0.1 0.1-0.1c0-0.1 0.1-0.1 0.1-0.2 0.2-0.9 0.2-1.7 0.1-2.6q0-0.1-0.1-0.2 0-0.1 0-0.2c0-0.2 0.1-0.4-0.1-0.5q0-0.4 0-0.8c0.1-0.7-0.1-1.4-0.1-2.1 0 0 0-0.1-0.1-0.1-0.5-0.3-0.8 0-1.2 0.3-0.3 0.3-0.6 0.5-0.7 1-0.3 0.4-0.3 1-0.4 1.5 0 0.4 0 0.8 0.2 1.2q0.1 0.1 0.1 0.1c-0.1 0.2-0.1 0.4 0 0.6q0.1 0.6 0.3 1.3c0.2 1 0.2 2 0 3-0.1 0.2-0.3 0.6-0.1 0.7 0.3 0.1 0.5-0.3 0.6-0.5 0.1-0.1 0.2-0.2 0.3-0.4q0.1 0 0-0.1zm7.6 2.7q0.3-0.2 0.2-0.4 0-0.1 0-0.2 0.5-0.6 1.1-1.3 0.9-1 2.1-1.5c0.4-0.1 0.9-0.2 1.2-0.4q0-0.1-0.1-0.1c-0.2-0.1-0.3 0.1-0.5 0.1-1 0.2-1.9 0.5-2.8 1-0.2 0.1-0.5 0.2-0.5 0.5-0.5 0.6-0.7 1.2-0.9 1.9-0.1 0.1-0.2 0.2-0.1 0.4q0 0 0 0.1-0.1 0 0 0.1 0 0.2-0.1 0.4c-0.1 0.1-0.1 0.2-0.1 0.4q-0.1 1.4-0.1 2.7c0 0.2-0.1 0.4 0.1 0.5 0.2 0 0.2-0.3 0.2-0.5-0.1-1 0.1-2 0.3-3.1 0-0.1 0.1-0.3 0-0.5q0 0 0-0.1zm11.1-3.6c-0.2 0.1-0.4 0-0.6 0.3q-0.9 0.2-1.8 0.5-0.5-0.2-1 0.2-0.2 0-0.3 0c-0.8-0.1-1.6-0.1-2.4-0.1-0.1 0-0.2 0-0.3 0.1 0 0.2 0.2 0.1 0.3 0.1 1.8 0.3 3.7 0.3 5.5-0.2q1.1-0.4 2.1-1.2c1-0.9 1.4-2.1 1.9-3.2 0.1-0.1 0.1-0.3 0-0.4-0.5 0.9-0.9 1.8-1.6 2.5-0.3 0.2-0.6 0.4-0.8 0.8q0 0 0 0.1c-0.4 0-0.6 0.2-0.9 0.5q0 0-0.1 0zm-12.4 1.8c0 0.2-0.1 0.4 0.1 0.4 0.2 0.1 0.1-0.1 0.2-0.3 0.4-0.7 0.7-1.4 1.4-1.8 1.4-1 3-1.4 4.7-1.7 1-0.2 1.4-0.9 1.8-1.7q0.1-0.1 0-0.2-0.1 0-0.1 0.1-0.1 0.1-0.2 0.2c-0.3 0.2-0.5 0.7-0.9 0.8-1.1 0.3-2.1 0.6-3.2 1-1 0.4-2 0.8-2.9 1.5-0.5 0.5-0.8 1.1-0.9 1.7zm-13.5-5.5q0 0.2 0 0.4c0 0.1-0.1 0.3 0.1 0.3 0.2 0 0.1-0.2 0.1-0.3 0.1-1 0.3-1.8 0.8-2.6 0.1-0.3 0.2-0.6 0.4-0.9 0 0 0-0.1 0-0.1-0.1-0.1-0.2 0-0.2 0q-0.2 0.3-0.3 0.5c-0.3 0.4-0.6 0.7-0.7 1.1-0.1 0.5-0.2 1.1-0.2 1.6zm19.4 3.6c1.1 0.4 2.7-0.5 3.9-2 0.8-1 1.6-3.1 1.2-3.7-0.9 2.6-2.3 4.8-5.1 5.7zm-12.7-9.8q0 0 0 0 0 0 0 0 0 0 0 0 0 0 0 0zm21.7 12.9q-0.1 0.1-0.1 0.3-0.2 0.1-0.3 0.3 0 0.2-0.1 0.3c-0.3 0.3-0.5 0.6-0.8 1q-0.6 0.8-1.3 1.5-0.4 0.2-0.6 0.5-0.2 0.2-0.4 0.3c-0.2 0.1-0.4 0.2-0.6 0.4-0.5 0.4-0.9 1.1-1.3 1.6-0.3 0.2-0.5 0.5-0.6 0.8q0 0.1-0.1 0.1c-0.1 0.1-0.2 0.2-0.2 0.3-0.2 0.4-0.2 0.9-0.1 1.3 0.1 0.9 0 1.7 0 2.6 0 0.7 1 10.1 1.1 10.8q-0.1 0.4-0.1 0.7-2.4 0-4.9 0c0-0.4 0.1-0.8 0.2-1.2 0.1-0.9-0.8-10.5-0.6-11.4 0.1-0.7 0.2-1.3 0-1.9q0-0.1 0-0.1c0.1-0.5-0.1-1-0.1-1.5-0.2-1.1-0.2-2.2 0.5-3.1 0.3-0.3 0.4-0.7 0.7-1 0.3-0.3 0.6-0.7 0.9-1 0.4-0.5 0.9-0.8 1.4-1.1q0.9-0.6 1.7-1.3c0.2-0.1 0.4-0.3 0.7-0.2 0.1 0.4 0 0.8-0.2 1.2-0.1 0.3-0.3 0.6-0.5 0.8q-0.3 0.2-0.5 0.4-0.1 0-0.2 0.1-0.1 0.1-0.1 0.2c-0.5 0.3-0.8 0.8-1.2 1.2 0 0 0 0.1 0 0.1 0.1 0 0.1 0 0.2 0q0.5-0.5 1-1 0.1 0 0.1 0 0.1 0 0.1-0.1 0.2-0.2 0.5-0.4c0.8-0.3 1.6-0.7 2.2-1.3 0.2-0.2 0.5-0.3 0.8-0.4 0.3 0 0.3-0.3 0.5-0.5 0.2 0 0.3-0.2 0.4-0.3q0-0.1 0.1-0.1 0.1 0.1 0.1-0.1 0.1 0 0.1 0c0.2 0 0.2-0.1 0.3-0.3 0.1-0.3 0.2-0.8 0.6-1.1 0.1-0.1 0.2-0.2 0.4-0.1q0 0.1 0 0.1c0.1 0.7-0.2 1.4-0.4 2q0 0.1 0 0.2c0 0.1 0 0.2 0 0.2 0.1 0 0.1-0.1 0.2-0.1 0.1-0.3 0.2-0.5 0.3-0.8q0.1-0.4 0.4-0.7c0.1-0.2 0.6-0.3 0.7-0.2 0.2 0.2 0 0.4-0.1 0.5q-0.4 0.6-0.8 1.3-0.1 0.1 0 0.2zm-1.1 0.5c-0.3 0-0.4 0.3-0.7 0.5-0.5 0.5-1.1 0.8-1.6 1.2-0.1 0.1-0.3 0.1-0.2 0.3 0 0.2 0.2 0 0.3 0 0.4-0.2 0.8-0.5 1.2-0.8q0.7-0.5 1-1.2zm3.6-8.9q0 0 0 0.1 0 0.1 0.1 0.2c0.2 0.5 0.4 1.1 0.5 1.6q0.1 0.9 0 1.7c-0.1 0.4-0.3 0.7-0.3 1.1q-0.3 0.5-0.5 1.1c-0.3 0.2-0.3 0.5-0.6 0.7-0.1-0.3 0.2-0.4 0.1-0.7q0.1-0.1 0.2-0.3 0.4-0.5 0.4-1.2 0-0.1 0-0.1c0.2-0.2 0.1-0.5 0.1-0.7 0.1-0.6 0.1-1.1 0-1.7q0-0.1 0-0.1 0.1-0.1 0-0.2 0 0-0.1-0.1c0.1-0.7-0.2-1.3-0.5-1.8 0-0.2-0.2-0.4-0.2-0.6 0.1 0 0.2 0.1 0.3 0.2 0.2 0.3 0.3 0.6 0.5 0.8zm-33.2-2c0.2 0 0.2 0.1 0.1 0.2-0.4 0.7-0.6 1.4-0.7 2.2-0.1 0.6 0 1.3 0 1.9q0 1.3 0.3 2.5c0.1 0.3 0.1 0.6-0.1 0.9-0.1-0.8-0.3-1.6-0.4-2.3 0-0.2 0-0.3-0.1-0.4q0-0.2-0.1-0.4c0.1-0.1 0.1-0.2 0.1-0.3q0-1.2-0.1-2.4 0.1 0 0.1-0.1c0.2-0.2 0.2-0.6 0.3-0.9q0-0.1 0-0.2c0.3-0.1 0.4-0.4 0.5-0.7q0 0 0.1 0zm5-4.1c0.3 0.2 0.6 0.4 1 0.4q0.6 0 1.2 0c0 0 0.1 0 0.2 0.1-0.8 0-1.5 0.1-2.3 0q-0.1 0-0.1 0-0.4-0.3-0.7-0.6-0.1 0-0.1 0c0-0.1-0.1-0.2-0.2-0.3 0-0.1 0-0.2 0.1-0.2 0-0.1 0.1 0 0.1 0 0.2 0.2 0.3 0.4 0.5 0.4q0 0 0 0c0.1 0.1 0.1 0.2 0.3 0.2q0 0 0 0z"/></svg>