<?xml version="1.0" standalone="no"?>
<!DOCTYPE svg PUBLIC "-//W3C//DTD SVG 1.1//EN" "http://www.w3.org/Graphics/SVG/1.1/DTD/svg11.dtd" >
<svg>
<metadata>
Created by FontForge 20090622 at Mon Mar  9 07:18:30 2020
 By deploy user
Copyright (c) 2015 Indian Type Foundry (info@indiantypefoundry.com)
</metadata>
<defs>
<font id="HindGuntur-Regular" horiz-adv-x="0" >
  <font-face 
    font-family="Hind Guntur"
    font-weight="400"
    font-stretch="normal"
    units-per-em="1000"
    panose-1="2 0 0 0 0 0 0 0 0 0"
    ascent="800"
    descent="-200"
    x-height="507"
    cap-height="674"
    bbox="-592 -682 1879 1045"
    underline-thickness="50"
    underline-position="-100"
    unicode-range="U+0020-U+FB02"
  />
<missing-glyph horiz-adv-x="751" 
d="M575 0h-399v701h399v-701zM235 646v-591h281v591h-281z" />
    <glyph glyph-name=".notdef" horiz-adv-x="751" 
d="M575 0h-399v701h399v-701zM235 646v-591h281v591h-281z" />
    <glyph glyph-name=".null" 
 />
    <glyph glyph-name="nonmarkingreturn" horiz-adv-x="333" 
 />
    <glyph glyph-name="space" unicode=" " horiz-adv-x="244" 
 />
    <glyph glyph-name="exclam" unicode="!" horiz-adv-x="251" 
d="M164 204h-77v470h77v-470zM184 51q0 -25 -17 -42t-43 -17t-42.5 17t-16.5 42q0 24 17 41.5t42 17.5t42.5 -17.5t17.5 -41.5z" />
    <glyph glyph-name="quotedbl" unicode="&#x22;" horiz-adv-x="295" 
d="M251 444h-70v237h70v-237zM115 444h-71v237h71v-237z" />
    <glyph glyph-name="numbersign" unicode="#" horiz-adv-x="710" 
d="M449 0h-73l36 170h-179l-36 -170h-71l36 170h-109v63h122l43 206h-111v64h125l36 171h72l-36 -171h179l36 171h71l-36 -171h103v-64h-116l-43 -206h107v-63h-120zM425 233l44 206h-179l-44 -206h179z" />
    <glyph glyph-name="dollar" unicode="$" horiz-adv-x="505" 
d="M264 -109h-69v104q-82 8 -139 41v87q73 -55 178 -55q63 0 99.5 28.5t36.5 80.5q0 24 -9.5 42.5t-35 35.5t-40 24.5t-55.5 24.5q-12 5 -18 8q-36 16 -59.5 29.5t-49 35.5t-38 52t-12.5 68q0 80 54.5 128t138.5 54v104h69v-106q59 -7 102 -28v-85q-61 40 -145 40
q-61 0 -97 -28.5t-36 -74.5q0 -25 9.5 -43.5t35 -35.5t40 -24.5t53.5 -24.5q7 -3 11 -5q38 -17 62 -30.5t51 -35.5t40 -53t13 -70q0 -82 -52.5 -130t-137.5 -55v-103z" />
    <glyph glyph-name="percent" unicode="%" horiz-adv-x="847" 
d="M281 -1h-75l357 666h77zM366 515q0 -66 -47 -112.5t-112 -46.5t-111.5 46.5t-46.5 112.5q0 65 46.5 111.5t111.5 46.5t112 -46.5t47 -111.5zM118 515q0 -37 26 -63.5t63 -26.5t63.5 26.5t26.5 63.5t-26.5 63t-63.5 26t-63 -26t-26 -63zM798 151q0 -65 -46.5 -111.5
t-111.5 -46.5q-66 0 -112 46.5t-46 111.5q0 66 46 112.5t112 46.5q65 0 111.5 -47t46.5 -112zM550 151q0 -37 26.5 -63t63.5 -26t63.5 26t26.5 63t-26 63.5t-64 26.5q-37 0 -63.5 -26.5t-26.5 -63.5z" />
    <glyph glyph-name="ampersand" unicode="&#x26;" horiz-adv-x="703" 
d="M214 522q0 -32 18.5 -63.5t66.5 -80.5q67 31 97.5 63.5t30.5 74.5q0 43 -28 72.5t-81 29.5q-45 0 -74.5 -25.5t-29.5 -70.5zM701 0h-107l-68 63q-81 -71 -209 -71q-113 0 -182.5 51.5t-69.5 132.5q0 113 158 173q-47 51 -69 90.5t-22 83.5q0 75 51 121t136 46t137 -49.5
t52 -123.5q0 -118 -159 -189l169 -157q23 40 28 97h76q-6 -86 -48 -149zM315 65q93 0 156 49l-198 185q-64 -24 -95 -53t-31 -69q0 -51 47 -81.5t121 -30.5z" />
    <glyph glyph-name="quotesingle" unicode="'" horiz-adv-x="159" 
d="M115 444h-71v237h71v-237z" />
    <glyph glyph-name="parenleft" unicode="(" horiz-adv-x="310" 
d="M320 -196h-88q-160 204 -160 457q0 122 41 238t112 208h87q-157 -212 -157 -450q0 -240 165 -453z" />
    <glyph glyph-name="parenright" unicode=")" horiz-adv-x="310" 
d="M78 -196h-88q165 213 165 453t-157 450h88q71 -92 112 -208t41 -238q0 -252 -161 -457z" />
    <glyph glyph-name="asterisk" unicode="*" horiz-adv-x="408" 
d="M331 380l-51 -38l-57 78q-14 20 -19 39q-5 -20 -19 -40l-57 -77l-52 37l57 79q16 21 31 29h-8q-19 0 -36 6l-91 30l19 62l93 -30q19 -6 40 -23q-10 18 -10 46v96h64v-96q0 -26 -8 -44q15 15 39 22l92 29l20 -61l-92 -30q-16 -6 -36 -6h-7q19 -10 32 -30z" />
    <glyph glyph-name="plus" unicode="+" horiz-adv-x="553" 
d="M497 304h-187v-189h-74v189h-179v72h179v189h74v-189h187v-72z" />
    <glyph glyph-name="comma" unicode="," horiz-adv-x="225" 
d="M61 -123h-69l93 224h105z" />
    <glyph glyph-name="hyphen" unicode="-" horiz-adv-x="348" 
d="M291 234h-234v69h234v-69z" />
    <glyph glyph-name="period" unicode="." horiz-adv-x="166" 
d="M142 51q0 -25 -17 -42t-42 -17t-42 17t-17 42t17 42t42 17t42 -17t17 -42z" />
    <glyph glyph-name="slash" unicode="/" horiz-adv-x="403" 
d="M71 -102h-80l364 809h81z" />
    <glyph glyph-name="zero" unicode="0" horiz-adv-x="544" 
d="M501 329q0 -153 -60 -245t-171 -92q-103 0 -165 92t-62 245q0 154 62.5 243.5t164.5 89.5q106 0 168.5 -89.5t62.5 -243.5zM124 329q0 -123 42 -192.5t104 -69.5q69 0 109.5 68t40.5 194q0 125 -42.5 191.5t-107.5 66.5q-60 0 -103 -67.5t-43 -190.5z" />
    <glyph glyph-name="one" unicode="1" horiz-adv-x="323" 
d="M247 0h-78v568l-151 -93v85l155 94h74v-654z" />
    <glyph glyph-name="two" unicode="2" horiz-adv-x="494" 
d="M451 0h-413v67q310 234 310 390q0 62 -36 95.5t-97 33.5q-79 0 -156 -59v79q71 55 163 55q88 0 148 -51t60 -145q0 -177 -283 -396h304v-69z" />
    <glyph glyph-name="three" unicode="3" horiz-adv-x="466" 
d="M415 180q0 -80 -56 -133t-158 -53q-94 0 -163 33v79q74 -39 161 -39q64 0 99.5 33t35.5 86t-39.5 81.5t-113.5 28.5h-42v69h42q56 0 94.5 31.5t38.5 84.5t-33 80t-91 27q-69 0 -132 -41v77q58 37 134 37q97 0 150.5 -49.5t53.5 -122.5q0 -53 -26.5 -95t-78.5 -63
q57 -13 90.5 -52.5t33.5 -98.5z" />
    <glyph glyph-name="four" unicode="4" horiz-adv-x="540" 
d="M122 228h219v379zM419 0h-78v159h-299v69l249 426h128v-426h97v-69h-97v-159z" />
    <glyph glyph-name="five" unicode="5" horiz-adv-x="509" 
d="M464 204q0 -97 -63.5 -154.5t-173.5 -57.5q-99 0 -168 34v78q64 -38 155 -38q168 0 168 141q0 57 -39 88.5t-101 31.5q-73 0 -151 -35v362h328v-69h-250v-196q45 10 78 10q100 0 158.5 -53t58.5 -142z" />
    <glyph glyph-name="six" unicode="6" horiz-adv-x="526" 
d="M490 213q0 -100 -56.5 -162t-149.5 -62q-112 0 -172 85t-60 222q0 163 80 270t220 107q45 0 92 -15v-77q-43 19 -91 19q-94 0 -150 -70.5t-69 -177.5q66 69 163 69q90 0 141.5 -57t51.5 -151zM284 62q57 0 90.5 42t33.5 110q0 62 -33.5 99t-87.5 37q-90 0 -156 -73
q4 -106 46 -160.5t107 -54.5z" />
    <glyph glyph-name="seven" unicode="7" horiz-adv-x="451" 
d="M168 0h-84l271 585h-343v69h427v-69z" />
    <glyph glyph-name="eight" unicode="8" horiz-adv-x="536" 
d="M485 170q0 -81 -63 -129.5t-158 -48.5q-91 0 -152 47t-61 126q0 59 31.5 100.5t86.5 60.5q-107 41 -107 151q0 87 60 135.5t142 48.5q85 0 145 -47.5t60 -137.5q0 -51 -28 -89.5t-77 -58.5q121 -37 121 -158zM131 169q0 -46 35 -76.5t99 -30.5q67 0 103 33t36 82
q0 48 -35 81t-104 32q-67 -1 -100.5 -35.5t-33.5 -85.5zM142 478q0 -57 35.5 -86t90.5 -29q53 0 87 30.5t34 85.5q0 48 -32 80t-93 32q-56 0 -89 -33t-33 -80z" />
    <glyph glyph-name="nine" unicode="9" horiz-adv-x="504" 
d="M252 304q82 0 132 64v5q0 95 -33.5 155.5t-107.5 60.5q-57 0 -91 -38t-34 -104q0 -69 36 -106t98 -37zM462 373q0 -178 -71.5 -279.5t-213.5 -101.5q-58 0 -113 19v78q52 -23 110 -23q181 0 206 227q-50 -59 -148 -59q-80 0 -138 58.5t-58 154.5q0 93 55 154t150 61
q110 0 165.5 -82t55.5 -207z" />
    <glyph glyph-name="colon" unicode=":" horiz-adv-x="235" 
d="M176 380q0 -25 -17 -41.5t-42 -16.5t-41.5 16.5t-16.5 41.5q0 24 16.5 41t41.5 17t42 -17t17 -41zM176 57q0 -25 -17 -41.5t-42 -16.5t-41.5 16.5t-16.5 41.5t16.5 42t41.5 17t42 -17t17 -42z" />
    <glyph glyph-name="semicolon" unicode=";" horiz-adv-x="225" 
d="M61 -123h-69l93 224h105zM187 379q0 -25 -17 -41.5t-42 -16.5t-41.5 16.5t-16.5 41.5q0 24 16.5 41t41.5 17t42 -17t17 -41z" />
    <glyph glyph-name="less" unicode="&#x3c;" horiz-adv-x="527" 
d="M478 196v-82l-421 189v76l421 188v-81l-338 -144z" />
    <glyph glyph-name="equal" unicode="=" horiz-adv-x="553" 
d="M497 407h-440v68h440v-68zM497 205h-440v69h440v-69z" />
    <glyph glyph-name="greater" unicode="&#x3e;" horiz-adv-x="527" 
d="M470 303l-421 -189v82l337 146l-337 144v81l421 -188v-76z" />
    <glyph glyph-name="question" unicode="?" horiz-adv-x="452" 
d="M217 204h-76l-1 166q92 0 142 31.5t50 94.5q0 51 -33 83t-98 32q-77 0 -156 -50v80q65 41 160 41t152 -48.5t57 -134.5q0 -85 -59 -132t-137 -54zM238 51q0 -25 -17.5 -42t-43.5 -17q-25 0 -41.5 17t-16.5 42q0 24 17 41.5t41 17.5q25 0 43 -17.5t18 -41.5z" />
    <glyph glyph-name="at" unicode="@" horiz-adv-x="905" 
d="M590 -134q-67 -34 -176 -34q-163 0 -258.5 102.5t-95.5 261.5q0 179 126 298t305 119q154 0 260.5 -96t106.5 -253q0 -115 -54 -179t-123 -64q-92 0 -117 86q-53 -89 -148 -89q-74 0 -116.5 52.5t-42.5 131.5q0 90 55.5 151.5t137.5 61.5q80 0 118 -64q0 8 1.5 27.5
l2.5 31.5h66l-15 -138q-4 -53 -4 -86q0 -101 66 -101q44 0 73.5 48.5t29.5 125.5q0 136 -84.5 211.5t-214.5 75.5q-144 0 -248.5 -100.5t-104.5 -249.5q0 -142 81.5 -219t198.5 -77q100 0 178 43zM429 83q40 0 75.5 28t51.5 78q2 36 4 55q-16 105 -108 105q-52 0 -86 -44
t-34 -107q0 -52 27 -83.5t70 -31.5z" />
    <glyph glyph-name="A" unicode="A" horiz-adv-x="648" 
d="M218 284l-13 -38h239l-13 39l-105 324q-12 -43 -108 -325zM122 0h-87l235 674h112l231 -674h-87l-59 177h-285z" />
    <glyph glyph-name="B" unicode="B" horiz-adv-x="571" 
d="M323 0h-246v674h203q104 0 166.5 -48t62.5 -129q0 -58 -32.5 -100.5t-83.5 -53.5q56 -9 95.5 -50.5t39.5 -112.5q0 -81 -53.5 -130.5t-151.5 -49.5zM280 605h-122v-230h108q81 0 120 34t39 88q0 47 -36.5 77.5t-108.5 30.5zM296 306h-138v-237h153q64 0 98.5 29.5
t34.5 86.5t-38.5 89t-109.5 32z" />
    <glyph glyph-name="C" unicode="C" horiz-adv-x="602" 
d="M560 34q-62 -42 -170 -42q-152 0 -247 93.5t-95 254.5q0 152 96.5 247.5t242.5 95.5q105 0 171 -36v-83q-44 23 -79 33t-92 10q-109 0 -181.5 -74t-72.5 -193q0 -124 72 -198t191 -74q96 0 164 51v-85z" />
    <glyph glyph-name="D" unicode="D" horiz-adv-x="661" 
d="M281 0h-204v674h200q149 0 244.5 -92.5t95.5 -239.5q0 -146 -88.5 -244t-247.5 -98zM276 602h-117v-531h121q125 0 189 77.5t64 193.5q0 110 -71.5 185t-185.5 75z" />
    <glyph glyph-name="E" unicode="E" horiz-adv-x="501" 
d="M453 0h-376v674h371v-71h-290v-231h256v-71h-256v-230h295v-71z" />
    <glyph glyph-name="F" unicode="F" horiz-adv-x="489" 
d="M412 293h-254v-293h-81v674h370v-71h-289v-239h254v-71z" />
    <glyph glyph-name="G" unicode="G" horiz-adv-x="670" 
d="M603 53q-81 -61 -209 -61q-156 0 -251 92.5t-95 253.5q0 153 94.5 250.5t238.5 97.5q119 0 197 -46v-87q-82 54 -190 54q-113 0 -184 -73.5t-71 -195.5q0 -125 70 -196.5t193 -71.5q68 0 126 27v210h-148v71h229v-322h-1z" />
    <glyph glyph-name="H" unicode="H" horiz-adv-x="643" 
d="M566 0h-81v305h-327v-305h-81v674h81v-296h327v296h81v-674z" />
    <glyph glyph-name="I" unicode="I" horiz-adv-x="247" 
d="M164 0h-81v674h81v-674z" />
    <glyph glyph-name="J" unicode="J" horiz-adv-x="358" 
d="M282 173q0 -173 -157 -173q-56 0 -95 22v78q40 -26 84 -26q87 0 87 92v508h81v-501z" />
    <glyph glyph-name="K" unicode="K" horiz-adv-x="573" 
d="M545 0h-105l-266 333l257 341h100l-257 -341zM158 0h-81v674h81v-674z" />
    <glyph glyph-name="L" unicode="L" horiz-adv-x="477" 
d="M445 0h-368v674h81v-601h287v-73z" />
    <glyph glyph-name="M" unicode="M" horiz-adv-x="857" 
d="M151 0h-81l49 674h103l89 -246l108 -314l114 314l93 246h103l59 -674h-81l-23 266l-24 299l-109 -299l-94 -251h-77l-89 251l-102 293q0 -39 -19 -293z" />
    <glyph glyph-name="N" unicode="N" horiz-adv-x="673" 
d="M158 0h-81v674h102l169 -284l171 -292q-4 97 -4 291v285h81v-674h-102l-169 282l-94 158.5l-61 105.5l-17 31q5 -104 5 -293v-284z" />
    <glyph glyph-name="O" unicode="O" horiz-adv-x="700" 
d="M653 340q0 -159 -81.5 -253.5t-220.5 -94.5q-137 0 -220 95t-83 253q0 159 81.5 253t220.5 94q142 0 222.5 -93.5t80.5 -253.5zM133 340q0 -125 59.5 -198t158.5 -73q103 0 159.5 72t56.5 199t-57 199t-160 72q-102 0 -159.5 -72.5t-57.5 -198.5z" />
    <glyph glyph-name="P" unicode="P" horiz-adv-x="545" 
d="M262 248h-104v-248h-81v674h177q117 0 184.5 -60.5t67.5 -156.5q0 -90 -67 -149.5t-177 -59.5zM255 605h-97v-288h104q76 0 119 39.5t43 100.5q0 68 -44 108t-125 40z" />
    <glyph glyph-name="Q" unicode="Q" horiz-adv-x="709" 
d="M653 340q0 -116 -44.5 -199.5t-125.5 -121.5l200 -124l-88 -37l-200 137q-21 -3 -44 -3q-137 0 -220 95t-83 253q0 159 81.5 253t220.5 94q142 0 222.5 -93.5t80.5 -253.5zM133 340q0 -125 59.5 -198t158.5 -73q103 0 159.5 72t56.5 199t-57 199t-160 72
q-102 0 -159.5 -72.5t-57.5 -198.5z" />
    <glyph glyph-name="R" unicode="R" horiz-adv-x="548" 
d="M251 604h-93v-269h102q69 0 105.5 37.5t36.5 96.5q0 135 -151 135zM255 266h-97v-266h-81v674h169q117 0 177.5 -55t60.5 -152q-2 -70 -37 -119t-99 -69l177 -279h-97l-165 266h-8z" />
    <glyph glyph-name="S" unicode="S" horiz-adv-x="524" 
d="M467 179q0 -89 -61 -137.5t-157 -48.5q-106 0 -180 43v87q73 -55 178 -55q63 0 99 28t36 81q0 22 -8.5 39.5t-28 32t-37 24t-47.5 23.5q-6 3 -18 8q-43 19 -65.5 31t-53 35.5t-44.5 54.5t-14 72q0 86 61.5 134.5t154.5 48.5q87 0 148 -31v-85q-61 40 -146 40
q-61 0 -97 -28.5t-36 -74.5q0 -24 9.5 -43t33.5 -35.5t41 -25t53 -24.5l52 -23.5t46.5 -27t43 -36t26 -46t11.5 -61.5z" />
    <glyph glyph-name="T" unicode="T" horiz-adv-x="482" 
d="M463 603h-182v-603h-81v603h-182v71h445v-71z" />
    <glyph glyph-name="U" unicode="U" horiz-adv-x="645" 
d="M569 256q0 -130 -65.5 -197t-182.5 -67q-115 0 -180 65.5t-65 190.5v426h81v-425q0 -93 44.5 -137t119.5 -44q167 0 167 186v420h81v-418z" />
    <glyph glyph-name="V" unicode="V" horiz-adv-x="637" 
d="M366 0h-102l-228 674h87l88 -267l105 -334l108 334l90 267h87z" />
    <glyph glyph-name="W" unicode="W" horiz-adv-x="938" 
d="M315 0h-103l-176 674h85l63 -250l83 -339l95 339l70 240h81l74 -240l102 -342q46 221 74 341l57 251h82l-158 -674h-104l-65 213l-101 337q-31 -118 -96 -337z" />
    <glyph glyph-name="X" unicode="X" horiz-adv-x="613" 
d="M135 0h-96l217 340l-205 334h95l155 -261l155 261h96l-204 -334l226 -340h-95l-176 271z" />
    <glyph glyph-name="Y" unicode="Y" horiz-adv-x="593" 
d="M336 0h-81v250l-229 424h94l51 -99l83 -163t36 -76l5 -12q9 25 127 251l51 99h94l-231 -423v-251z" />
    <glyph glyph-name="Z" unicode="Z" horiz-adv-x="569" 
d="M517 0h-465v67l356 538h-351v69h445v-66l-356 -539h371v-69z" />
    <glyph glyph-name="bracketleft" unicode="[" horiz-adv-x="310" 
d="M307 -183h-230v890h230v-70h-152v-748h152v-72z" />
    <glyph glyph-name="backslash" unicode="\" horiz-adv-x="402" 
d="M412 -103h-80l-365 810h81z" />
    <glyph glyph-name="bracketright" unicode="]" horiz-adv-x="310" 
d="M233 -183h-230v72h152v748h-152v70h230v-890z" />
    <glyph glyph-name="asciicircum" unicode="^" horiz-adv-x="461" 
d="M124 332h-79l142 262h91l138 -262h-79l-105 208z" />
    <glyph glyph-name="underscore" unicode="_" horiz-adv-x="561" 
d="M533 -100h-505v69h505v-69z" />
    <glyph glyph-name="grave" unicode="`" horiz-adv-x="421" 
d="M308 642h-69l-124 156h95z" />
    <glyph glyph-name="a" unicode="a" horiz-adv-x="492" 
d="M228 61q54 0 86 30.5t32 77.5v65h-88q-64 0 -96 -25t-32 -63t25 -61.5t73 -23.5zM347 60q-39 -65 -142 -65q-71 0 -114.5 42t-43.5 106q0 73 55.5 113.5t151.5 40.5h92v26q0 60 -27 90.5t-91 30.5q-81 0 -144 -43v79q57 35 150 35q191 0 191 -194v-321h-78v60z" />
    <glyph glyph-name="b" unicode="b" horiz-adv-x="570" 
d="M155 0h-79v707h79v-276q55 84 154 84q96 0 157 -73.5t61 -192.5q0 -107 -57.5 -182t-158.5 -75q-102 0 -156 83v-75zM155 257q0 -101 43.5 -147t105.5 -46q61 0 101 51t40 133q0 94 -41.5 144.5t-104.5 50.5q-54 0 -99 -45t-45 -141z" />
    <glyph glyph-name="c" unicode="c" horiz-adv-x="471" 
d="M422 18q-48 -29 -118 -29q-120 0 -190.5 76.5t-70.5 186.5q0 108 70.5 186t192.5 78q65 0 116 -28v-75q-46 31 -108 31q-86 0 -137.5 -55.5t-51.5 -137.5q1 -82 50 -136.5t139 -54.5q58 0 108 33v-75z" />
    <glyph glyph-name="d" unicode="d" horiz-adv-x="567" 
d="M125 248q0 -82 40 -133t101 -51q62 0 105.5 46t43.5 147q0 96 -45 141t-99 45q-63 0 -104.5 -50.5t-41.5 -144.5zM494 0h-79v75q-54 -83 -156 -83q-101 0 -158.5 75t-57.5 182q0 119 61 192.5t157 73.5q99 0 154 -85v277h79v-707z" />
    <glyph glyph-name="e" unicode="e" horiz-adv-x="522" 
d="M443 26q-59 -31 -144 -31q-115 0 -185.5 70.5t-70.5 186.5q0 121 63 191t162 70q95 0 151 -61t56 -173q0 -32 -5 -59h-346q9 -75 57 -115t126 -40q85 0 136 35v-74zM268 444q-57 0 -97 -41t-47 -117h272v20q0 63 -34 100.5t-94 37.5z" />
    <glyph glyph-name="f" unicode="f" horiz-adv-x="329" 
d="M308 443h-112v-443h-79v443h-87v64h87v47q0 74 39.5 117t109.5 43q24 0 49 -7v-72q-24 8 -46 8q-32 0 -52.5 -22t-20.5 -68v-46h112v-64z" />
    <glyph glyph-name="g" unicode="g" horiz-adv-x="549" 
d="M482 41q0 -116 -64 -174.5t-165 -58.5q-92 0 -157 31v79q64 -37 150 -37q73 0 115 39t42 122v57q-50 -86 -149 -86q-87 0 -148.5 64t-61.5 178q0 113 57 186t149 73q104 0 153 -91v84h79v-466zM126 257q0 -85 42 -129.5t95 -44.5q55 0 97.5 42.5t42.5 126.5q0 97 -41 144
t-95 47q-65 0 -103 -51.5t-38 -134.5z" />
    <glyph glyph-name="h" unicode="h" horiz-adv-x="540" 
d="M473 0h-79v328q0 55 -28.5 85t-74.5 30q-56 0 -98 -43t-42 -123v-277h-78v707h78v-288q45 95 160 95q73 0 117.5 -45t44.5 -122v-347z" />
    <glyph glyph-name="i" unicode="i" horiz-adv-x="233" 
d="M156 0h-79v507h79v-507zM168 666q0 -22 -15 -36.5t-37 -14.5t-36.5 14.5t-14.5 36.5t14.5 37t36.5 15t37 -15t15 -37z" />
    <glyph glyph-name="j" unicode="j" horiz-adv-x="228" 
d="M156 -55q0 -66 -34.5 -103t-95.5 -37q-33 0 -72 15v70q38 -16 68 -16q56 0 56 73v560h78v-562zM168 666q0 -22 -15 -36.5t-37 -14.5t-36.5 14.5t-14.5 36.5t14.5 37t36.5 15t37 -15t15 -37z" />
    <glyph glyph-name="k" unicode="k" horiz-adv-x="480" 
d="M151 0h-78v703h78v-703zM254 266l206 -266h-95l-204 266l199 241h94z" />
    <glyph glyph-name="l" unicode="l" horiz-adv-x="233" 
d="M156 0h-79v707h79v-707z" />
    <glyph glyph-name="m" unicode="m" horiz-adv-x="818" 
d="M751 0h-79v328q0 115 -97 115q-48 0 -86 -43.5t-38 -122.5v-277h-79v328q0 115 -97 115q-48 0 -86 -43.5t-38 -122.5v-277h-78v507h78v-82q42 89 143 89q117 0 148 -99q22 48 61.5 73.5t88.5 25.5q79 0 119 -45t40 -121v-348z" />
    <glyph glyph-name="n" unicode="n" horiz-adv-x="540" 
d="M473 0h-79v328q0 56 -28.5 85.5t-74.5 29.5q-57 0 -98.5 -44t-41.5 -122v-277h-78v507h78v-88q45 95 160 95q74 0 118 -45t44 -120v-349z" />
    <glyph glyph-name="o" unicode="o" horiz-adv-x="562" 
d="M519 252q0 -113 -64 -187t-176 -74q-109 0 -172.5 73.5t-63.5 185.5q0 113 65.5 188.5t170.5 75.5q115 0 177.5 -74t62.5 -188zM125 251q0 -79 42 -134.5t112 -55.5q76 0 117 54.5t41 135.5q0 84 -39 138.5t-119 54.5q-72 0 -113 -56t-41 -137z" />
    <glyph glyph-name="p" unicode="p" horiz-adv-x="567" 
d="M151 -197h-78v704h78v-77q53 85 157 85q101 0 158.5 -73.5t57.5 -183.5q0 -117 -60.5 -191.5t-157.5 -74.5q-100 0 -155 85v-274zM151 253q0 -97 45 -143t100 -46q64 0 105 50.5t41 143.5q0 83 -40 134t-101 51t-105.5 -44.5t-44.5 -145.5z" />
    <glyph glyph-name="q" unicode="q" horiz-adv-x="567" 
d="M125 258q0 -93 41 -143.5t105 -50.5q55 0 99.5 45.5t44.5 143.5q0 101 -44 145.5t-105 44.5t-101 -51t-40 -134zM494 -197h-79v273q-55 -84 -154 -84q-97 0 -157.5 74.5t-60.5 191.5q0 110 58 183.5t159 73.5t155 -83v75h79v-704z" />
    <glyph glyph-name="r" unicode="r" horiz-adv-x="326" 
d="M151 0h-79l1 507h78v-89q40 94 138 94q18 0 28 -2v-78q-21 7 -43 7q-53 0 -88 -49t-35 -113v-277z" />
    <glyph glyph-name="s" unicode="s" horiz-adv-x="412" 
d="M378 135q0 -65 -45.5 -103t-124.5 -38q-92 0 -149 31v77q67 -40 144 -40q46 0 70 18t24 49q0 36 -26.5 56t-88.5 45q-57 22 -91.5 55t-34.5 89q0 63 47.5 100.5t118.5 37.5q79 0 127 -22v-75q-46 28 -126 28q-40 0 -63.5 -18.5t-23.5 -47.5q0 -18 7 -31.5t27.5 -26.5
t30 -17.5t41.5 -18.5q64 -26 100 -59t36 -89z" />
    <glyph glyph-name="t" unicode="t" horiz-adv-x="369" 
d="M327 13q-33 -18 -74 -18q-150 0 -150 153v295h-81v64h81v126h79v-126h140v-64h-140v-297q0 -81 76 -81q39 0 69 23v-75z" />
    <glyph glyph-name="u" unicode="u" horiz-adv-x="540" 
d="M467 0h-79v88q-40 -94 -159 -94q-75 0 -118.5 44.5t-43.5 119.5v349h79v-329q0 -55 28 -84t76 -29q63 0 100.5 44t37.5 119v279h79v-507z" />
    <glyph glyph-name="v" unicode="v" horiz-adv-x="505" 
d="M299 0h-97l-177 507h82l70 -214l74 -231q9 43 75 231l72 214h82z" />
    <glyph glyph-name="w" unicode="w" horiz-adv-x="792" 
d="M278 0h-97l-156 507h84l49 -168q26 -88 43.5 -153.5t22.5 -87.5l5 -21q15 64 73 263l48 167h84l49 -167l75 -264q14 59 77 264l51 167h81l-160 -507h-97l-48 166l-70 253q-15 -64 -68 -253z" />
    <glyph glyph-name="x" unicode="x" horiz-adv-x="478" 
d="M112 0h-87l170 260l-160 248h91l115 -190l116 190h90l-164 -249l170 -259h-91l-123 200z" />
    <glyph glyph-name="y" unicode="y" horiz-adv-x="493" 
d="M293 13q-39 -103 -92.5 -145t-122.5 -42q-26 0 -42 5v71q15 -4 34 -4q101 0 143 115l-205 494h89l66 -167l89 -230q8 26 80 230l59 167h85z" />
    <glyph glyph-name="z" unicode="z" horiz-adv-x="453" 
d="M409 0h-365v62l257 375h-247v70h341v-58l-260 -378h274v-71z" />
    <glyph glyph-name="braceleft" unicode="{" horiz-adv-x="334" 
d="M321 -181q-21 -8 -47 -8q-55 0 -92.5 40.5t-37.5 108.5q0 27 10.5 74t10.5 69q0 101 -88 119q-9 2 -29 2v77q18 0 29 2q43 6 65.5 38.5t22.5 78.5q0 22 -10.5 69t-10.5 74q0 68 38 109t92 41q21 0 47 -8v-78q-17 9 -33 9q-31 0 -47 -21t-16 -53q0 -26 10.5 -77t10.5 -80
q0 -56 -31.5 -95t-90.5 -48q59 -9 90.5 -48.5t31.5 -94.5q0 -30 -10.5 -81t-10.5 -77q0 -32 16 -53t47 -21q16 0 33 9v-77z" />
    <glyph glyph-name="bar" unicode="|" horiz-adv-x="228" 
d="M150 -194h-72v889h72v-889z" />
    <glyph glyph-name="braceright" unicode="}" horiz-adv-x="334" 
d="M190 -40q0 -68 -37.5 -108.5t-92.5 -40.5q-26 0 -47 8v77q17 -9 34 -9q30 0 46 21t16 53q0 26 -10 77t-10 81q0 55 31.5 94.5t89.5 48.5q-58 9 -89.5 48t-31.5 95q0 30 10 80.5t10 76.5q0 32 -16 53t-46 21q-17 0 -34 -9v78q26 8 47 8q54 0 92 -41t38 -109
q0 -27 -10.5 -74t-10.5 -69q0 -46 22.5 -78.5t65.5 -38.5q11 -2 29 -2v-77q-20 0 -29 -2q-45 -9 -66.5 -41t-21.5 -78q0 -22 10.5 -69t10.5 -74z" />
    <glyph glyph-name="asciitilde" unicode="~" horiz-adv-x="599" 
d="M204 268q-67 0 -115 -69l-53 46q68 95 156 95q54 0 121.5 -37t99.5 -37q56 0 91 60l59 -42q-58 -90 -143 -90q-47 0 -117.5 37t-98.5 37z" />
    <glyph glyph-name="exclamdown" unicode="&#xa1;" horiz-adv-x="251" 
d="M164 -165h-77v470h77v-470zM184 458q0 -24 -17.5 -41.5t-42.5 -17.5t-42 17.5t-17 41.5q0 26 16.5 42.5t42.5 16.5t43 -17t17 -42z" />
    <glyph glyph-name="cent" unicode="&#xa2;" horiz-adv-x="452" 
d="M412 14q-33 -16 -78 -21v-104h-69v106q-103 13 -161 85t-58 172q0 97 58.5 170.5t160.5 87.5v105h69v-103q42 -5 78 -22v-74q-47 25 -94 25q-87 0 -138.5 -54.5t-52.5 -135.5q1 -81 50.5 -134t140.5 -53q52 0 94 24v-74z" />
    <glyph glyph-name="sterling" unicode="&#xa3;" horiz-adv-x="522" 
d="M483 0h-422v66q57 27 78 67t21 116q0 13 -2 43h-92v63h85q-8 68 -8 94q0 101 53.5 155.5t150.5 54.5q58 0 108 -25v-78q-48 28 -100 28q-131 0 -131 -131q0 -30 8 -98h180v-63h-174q2 -28 2 -42q0 -77 -20.5 -117t-58.5 -64h322v-69z" />
    <glyph glyph-name="currency" unicode="&#xa4;" horiz-adv-x="543" 
d="M143 134l-58 -58l-51 49l59 58q-38 53 -38 126q0 72 40 128l-61 61l51 49l60 -61q57 41 130 41q70 0 126 -37l58 57l50 -49l-58 -58q38 -56 38 -125q0 -71 -42 -129l62 -61l-50 -49l-62 61q-56 -39 -128 -39q-73 0 -126 36zM123 313q0 -65 42 -107.5t107 -42.5
q64 0 106 42t42 107q0 64 -42 107t-106 43q-65 0 -107 -42.5t-42 -106.5z" />
    <glyph glyph-name="yen" unicode="&#xa5;" horiz-adv-x="585" 
d="M509 157h-178v-157h-82v157h-177v58h177v38l-27 50h-150v59h118l-157 292h92l165 -322l167 322h92l-159 -292h119v-59h-151l-27 -49v-39h178v-58z" />
    <glyph glyph-name="brokenbar" unicode="&#xa6;" horiz-adv-x="228" 
d="M150 367h-72v331h72v-331zM150 -178h-72v331h72v-331z" />
    <glyph glyph-name="section" unicode="&#xa7;" horiz-adv-x="512" 
d="M273 169q60 -27 81 -38q25 30 25 72q0 43 -31 68.5t-96 56.5q-13 6 -45.5 19.5t-48.5 21.5q-26 -29 -26 -69q0 -25 9.5 -44t33 -35.5t42 -26t56.5 -25.5zM458 203q0 -72 -43 -118q41 -44 41 -107q0 -87 -60.5 -134t-155.5 -47q-107 0 -181 44v87q74 -56 178 -56
q65 0 100.5 27t35.5 78q0 41 -30 66t-101 57l-47 21t-42 21.5t-42 28.5t-30 32.5t-23.5 43t-6.5 52.5q0 66 42 113q-38 38 -38 96q0 83 60.5 127.5t153.5 44.5q87 0 148 -31v-85q-61 40 -145 40q-63 0 -98 -24t-35 -69q0 -20 6.5 -34t23.5 -26t29.5 -18.5t43 -19l46.5 -19.5
q33 -15 51.5 -24.5t44.5 -27.5t39.5 -35.5t24 -44.5t10.5 -59z" />
    <glyph glyph-name="dieresis" unicode="&#xa8;" horiz-adv-x="421" 
d="M363 723q0 -22 -15 -37t-37 -15t-36.5 15t-14.5 37t14.5 36.5t36.5 14.5t37 -14.5t15 -36.5zM161 723q0 -22 -14.5 -37t-36.5 -15t-37 15t-15 37t15 36.5t37 14.5t36.5 -14.5t14.5 -36.5z" />
    <glyph glyph-name="copyright" unicode="&#xa9;" horiz-adv-x="776" 
d="M495 168q-32 -21 -84 -21q-86 0 -137 54.5t-51 133.5q1 77 51.5 133t137.5 56q47 0 83 -20v-65q-35 23 -78 23q-55 0 -89.5 -35.5t-34.5 -92.5q1 -54 35 -90t89 -36q46 0 78 25v-65zM733 336q0 -141 -101.5 -243t-243.5 -102t-243.5 102t-101.5 243q0 142 101.5 244
t243.5 102t243.5 -102t101.5 -244zM110 336q0 -116 82 -197.5t197 -81.5t197 81.5t82 197.5t-82 198t-197 82t-197 -82t-82 -198z" />
    <glyph glyph-name="ordfeminine" unicode="&#xaa;" horiz-adv-x="350" 
d="M154 445q43 0 71 25t28 59v59h-63q-119 0 -119 -74q0 -31 21.5 -50t61.5 -19zM255 446q-44 -58 -119 -58q-60 0 -97 33.5t-37 90.5q0 62 47 96.5t129 34.5h75v21q0 51 -22.5 77t-76.5 26q-66 0 -121 -37v65q53 31 126 31q84 0 122.5 -41.5t38.5 -122.5v-270h-65v54z" />
    <glyph glyph-name="guillemotleft" unicode="&#xab;" horiz-adv-x="480" 
d="M304 253l146 -162h-87l-150 162l150 162h87zM264 91h-87l-150 162l150 162h87l-146 -162z" />
    <glyph glyph-name="logicalnot" unicode="&#xac;" horiz-adv-x="549" 
d="M512 160h-73v182h-414v71h487v-253z" />
    <glyph glyph-name="uni00AD" unicode="&#xad;" horiz-adv-x="348" 
d="M291 234h-234v69h234v-69z" />
    <glyph glyph-name="registered" unicode="&#xae;" horiz-adv-x="449" 
d="M203 473h-44v214h61q82 0 82 -68q0 -43 -36 -60l54 -86h-52l-46 78h-19v-78zM225 651h-22v-64h25q29 0 29 32t-32 32zM439 573q0 -93 -60.5 -153t-153.5 -60q-94 0 -154.5 60t-60.5 153t60.5 154t154.5 61q93 0 153.5 -61t60.5 -154zM59 573q0 -75 45.5 -121t121.5 -46
q75 0 121 46.5t46 120.5q0 75 -46 121.5t-121 46.5q-76 0 -121.5 -46.5t-45.5 -121.5z" />
    <glyph glyph-name="macron" unicode="&#xaf;" horiz-adv-x="421" 
d="M351 693h-282v56h282v-56z" />
    <glyph glyph-name="degree" unicode="&#xb0;" horiz-adv-x="355" 
d="M325 533q0 -63 -43 -105t-106 -42q-64 0 -105 40t-41 104q0 63 42.5 104.5t106.5 41.5q63 0 104.5 -40t41.5 -103zM93 531q0 -36 25 -61t61 -25t59 25t23 61t-24.5 61.5t-60.5 25.5t-59.5 -25.5t-23.5 -61.5z" />
    <glyph glyph-name="plusminus" unicode="&#xb1;" horiz-adv-x="553" 
d="M497 331h-187v-169h-74v169h-179v69h179v169h74v-169h187v-69zM497 30h-440v70h440v-70z" />
    <glyph glyph-name="twosuperior" unicode="&#xb2;" horiz-adv-x="365" 
d="M326 392h-279v49q198 149 198 249q0 39 -21.5 58t-55.5 19q-54 0 -107 -43v69q54 33 109 33q59 0 100 -34.5t41 -96.5q0 -59 -48 -124t-127 -124h190v-55z" />
    <glyph glyph-name="threesuperior" unicode="&#xb3;" horiz-adv-x="325" 
d="M290 508q0 -53 -37 -86.5t-104 -33.5q-66 0 -114 25v60q50 -28 111 -28q37 0 58 18t21 48q0 33 -25.5 52t-72.5 19h-24v55h24q36 0 60.5 18t24.5 50q0 63 -73 63q-44 0 -92 -31v63q44 26 94 26q66 0 101.5 -33.5t35.5 -82.5q0 -39 -21 -65t-58 -34q37 -3 64 -32t27 -71z
" />
    <glyph glyph-name="acute" unicode="&#xb4;" horiz-adv-x="421" 
d="M184 642h-69l99 156h94z" />
    <glyph glyph-name="uni00B5" unicode="&#xb5;" horiz-adv-x="546" 
d="M151 -179h-78v686h78v-329q0 -53 36.5 -83t85.5 -30q56 0 88.5 43.5t32.5 119.5v279h79v-507h-79v77q-36 -83 -133 -83q-66 0 -110 38v-211z" />
    <glyph glyph-name="paragraph" unicode="&#xb6;" horiz-adv-x="545" 
d="M286 -148h-71v489q-90 0 -139.5 47t-49.5 117q0 68 50.5 118.5t142.5 50.5h67v-822zM472 -148h-71v822h71v-822z" />
    <glyph glyph-name="periodcentered" unicode="&#xb7;" horiz-adv-x="232" 
d="M175 319q0 -25 -17 -42t-42 -17t-42 17t-17 42t17 42t42 17t42 -17t17 -42z" />
    <glyph glyph-name="cedilla" unicode="&#xb8;" horiz-adv-x="421" 
d="M285 -122q0 -54 -38.5 -91t-111.5 -39v58q84 6 84 71q0 34 -23 72h71q18 -25 18 -71z" />
    <glyph glyph-name="onesuperior" unicode="&#xb9;" horiz-adv-x="250" 
d="M179 392h-62v357l-107 -59v65l117 67h52v-430z" />
    <glyph glyph-name="ordmasculine" unicode="&#xba;" horiz-adv-x="376" 
d="M381 607q0 -97 -51.5 -159t-143.5 -62q-89 0 -140.5 62t-51.5 157t53 159t139 64q94 0 144.5 -62.5t50.5 -158.5zM63 606q0 -68 33.5 -115t90.5 -47q61 0 93 46t32 116q0 71 -30 117t-96 46q-58 0 -90.5 -47.5t-32.5 -115.5z" />
    <glyph glyph-name="guillemotright" unicode="&#xbb;" horiz-adv-x="482" 
d="M453 253l-151 -162h-87l147 162l-147 162h87zM116 91h-87l147 162l-147 162h87l151 -162z" />
    <glyph glyph-name="onequarter" unicode="&#xbc;" horiz-adv-x="832" 
d="M215 0h-71l451 712h71zM235 281h-63v357l-107 -59v65l118 67h52v-430zM531 150h133v230zM725 0h-61v99h-197v51l164 279h94v-279h62v-51h-62v-99z" />
    <glyph glyph-name="onehalf" unicode="&#xbd;" horiz-adv-x="833" 
d="M215 0h-71l451 712h71zM235 281h-63v357l-107 -59v65l118 67h52v-430zM793 0h-279v49q85 63 141.5 129t56.5 120q0 39 -21.5 58t-55.5 19q-54 0 -107 -43v69q54 33 109 33q59 0 100.5 -34.5t41.5 -96.5q0 -59 -48 -124t-127 -124h189v-55z" />
    <glyph glyph-name="threequarters" unicode="&#xbe;" horiz-adv-x="866" 
d="M272 0h-72l451 712h71zM327 397q0 -53 -37 -86.5t-104 -33.5q-66 0 -114 25v60q50 -28 111 -28q37 0 58 18t21 48q0 33 -25.5 52t-72.5 19h-24v55h24q36 0 60.5 18t24.5 50q0 63 -73 63q-44 0 -92 -31v63q44 26 94 26q66 0 101.5 -33.5t35.5 -82.5q0 -39 -21 -65t-58 -34
q37 -3 64 -32t27 -71zM587 150h133v229zM781 0h-61v99h-197v51l164 279h94v-279h62v-51h-62v-99z" />
    <glyph glyph-name="questiondown" unicode="&#xbf;" horiz-adv-x="452" 
d="M414 -132q-65 -41 -160 -41t-152 48.5t-57 134.5q0 85 59 132t137 54l1 109h76l1 -166q-92 0 -142 -31.5t-50 -94.5q0 -51 33 -82.5t99 -31.5q78 0 155 49v-80zM340 459q0 -25 -16.5 -42.5t-41.5 -17.5t-43 17.5t-18 42.5t17.5 41.5t43.5 16.5q25 0 41.5 -16.5
t16.5 -41.5z" />
    <glyph glyph-name="Agrave" unicode="&#xc0;" horiz-adv-x="648" 
d="M218 284l-13 -38h239l-13 39l-105 324q-12 -43 -108 -325zM122 0h-87l235 674h112l231 -674h-87l-59 177h-285zM354 727h-69l-124 156h95z" />
    <glyph glyph-name="Aacute" unicode="&#xc1;" horiz-adv-x="648" 
d="M218 284l-13 -38h239l-13 39l-105 324q-12 -43 -108 -325zM122 0h-87l235 674h112l231 -674h-87l-59 177h-285zM368 727h-69l99 156h94z" />
    <glyph glyph-name="Acircumflex" unicode="&#xc2;" horiz-adv-x="648" 
d="M218 284l-13 -38h239l-13 39l-105 324q-12 -43 -108 -325zM122 0h-87l235 674h112l231 -674h-87l-59 177h-285zM242 727h-80l127 156h76l127 -156h-80l-85 105z" />
    <glyph glyph-name="Atilde" unicode="&#xc3;" horiz-adv-x="648" 
d="M218 284l-13 -38h239l-13 39l-105 324q-12 -43 -108 -325zM122 0h-87l235 674h112l231 -674h-87l-59 177h-285zM268 801q-41 0 -68 -48l-43 37q14 30 41.5 50.5t59.5 20.5q30 0 73 -22t61 -22q34 0 54 43l49 -34q-32 -69 -99 -69q-27 0 -69.5 22t-58.5 22z" />
    <glyph glyph-name="Adieresis" unicode="&#xc4;" horiz-adv-x="648" 
d="M218 284l-13 -38h239l-13 39l-105 324q-12 -43 -108 -325zM122 0h-87l235 674h112l231 -674h-87l-59 177h-285zM480 806q0 -22 -15 -37t-37 -15t-36.5 15t-14.5 37t14.5 36.5t36.5 14.5t37 -14.5t15 -36.5zM278 806q0 -22 -14.5 -37t-36.5 -15t-37 15t-15 37t15 36.5
t37 14.5t36.5 -14.5t14.5 -36.5z" />
    <glyph glyph-name="Aring" unicode="&#xc5;" horiz-adv-x="648" 
d="M218 284l-13 -38h239l-13 39l-105 324q-12 -43 -108 -325zM122 0h-87l235 674h112l231 -674h-87l-59 177h-285zM433 823q0 -44 -31 -75t-75 -31t-75 31t-31 75t31 75.5t75 31.5t75 -31.5t31 -75.5zM274 824q0 -22 15.5 -38t37.5 -16t38 16t16 38t-15.5 38t-38.5 16
q-22 0 -37.5 -15.5t-15.5 -38.5z" />
    <glyph glyph-name="AE" unicode="&#xc6;" horiz-adv-x="879" 
d="M110 0h-87l383 674h419v-71h-289v-231h256v-71h-256v-230h295v-71h-375v177h-244zM274 284l-22 -38h204v364q-54 -103 -182 -326z" />
    <glyph glyph-name="Ccedilla" unicode="&#xc7;" horiz-adv-x="602" 
d="M560 34q-62 -42 -170 -42q-152 0 -247 93.5t-95 254.5q0 152 96.5 247.5t242.5 95.5q105 0 171 -36v-83q-44 23 -79 33t-92 10q-109 0 -181.5 -74t-72.5 -193q0 -124 72 -198t191 -74q96 0 164 51v-85zM422 -122q0 -54 -38.5 -91t-111.5 -39v58q84 6 84 71q0 34 -23 72
h71q18 -25 18 -71z" />
    <glyph glyph-name="Egrave" unicode="&#xc8;" horiz-adv-x="501" 
d="M453 0h-376v674h371v-71h-290v-231h256v-71h-256v-230h295v-71zM320 726h-69l-124 156h95z" />
    <glyph glyph-name="Eacute" unicode="&#xc9;" horiz-adv-x="501" 
d="M453 0h-376v674h371v-71h-290v-231h256v-71h-256v-230h295v-71zM313 727h-69l99 156h94z" />
    <glyph glyph-name="Ecircumflex" unicode="&#xca;" horiz-adv-x="501" 
d="M453 0h-376v674h371v-71h-290v-231h256v-71h-256v-230h295v-71zM188 727h-80l127 156h76l127 -156h-80l-85 105z" />
    <glyph glyph-name="Edieresis" unicode="&#xcb;" horiz-adv-x="501" 
d="M453 0h-376v674h371v-71h-290v-231h256v-71h-256v-230h295v-71zM421 805q0 -22 -15 -37t-37 -15t-36.5 15t-14.5 37t14.5 36.5t36.5 14.5t37 -14.5t15 -36.5zM219 805q0 -22 -14.5 -37t-36.5 -15t-37 15t-15 37t15 36.5t37 14.5t36.5 -14.5t14.5 -36.5z" />
    <glyph glyph-name="Igrave" unicode="&#xcc;" horiz-adv-x="247" 
d="M164 0h-81v674h81v-674zM153 727h-69l-124 156h95z" />
    <glyph glyph-name="Iacute" unicode="&#xcd;" horiz-adv-x="247" 
d="M164 0h-81v674h81v-674zM162 727h-69l99 156h94z" />
    <glyph glyph-name="Icircumflex" unicode="&#xce;" horiz-adv-x="247" 
d="M164 0h-81v674h81v-674zM39 727h-80l127 156h76l127 -156h-80l-85 105z" />
    <glyph glyph-name="Idieresis" unicode="&#xcf;" horiz-adv-x="247" 
d="M164 0h-81v674h81v-674zM278 806q0 -22 -15 -37t-37 -15t-36.5 15t-14.5 37t14.5 36.5t36.5 14.5t37 -14.5t15 -36.5zM76 806q0 -22 -14.5 -37t-36.5 -15t-37 15t-15 37t15 36.5t37 14.5t36.5 -14.5t14.5 -36.5z" />
    <glyph glyph-name="Eth" unicode="&#xd0;" horiz-adv-x="730" 
d="M350 0h-204v304h-85v68h85v302h200q150 0 245 -92.5t95 -239.5q0 -146 -88.5 -244t-247.5 -98zM403 304h-175v-233h122q64 0 113.5 22t79 60.5t44.5 86t15 102.5q0 110 -71 185t-186 75h-117v-230h175v-68z" />
    <glyph glyph-name="Ntilde" unicode="&#xd1;" horiz-adv-x="673" 
d="M158 0h-81v674h102l169 -284l171 -292q-4 97 -4 291v285h81v-674h-102l-169 282l-94 158.5l-61 105.5l-17 31q5 -104 5 -293v-284zM287 801q-41 0 -68 -48l-43 37q14 30 41.5 50.5t59.5 20.5q30 0 73 -22t61 -22q34 0 54 43l49 -34q-32 -69 -99 -69q-27 0 -69.5 22
t-58.5 22z" />
    <glyph glyph-name="Ograve" unicode="&#xd2;" horiz-adv-x="700" 
d="M653 340q0 -159 -81.5 -253.5t-220.5 -94.5q-137 0 -220 95t-83 253q0 159 81.5 253t220.5 94q142 0 222.5 -93.5t80.5 -253.5zM133 340q0 -125 59.5 -198t158.5 -73q103 0 159.5 72t56.5 199t-57 199t-160 72q-102 0 -159.5 -72.5t-57.5 -198.5zM393 727h-69l-124 156
h95z" />
    <glyph glyph-name="Oacute" unicode="&#xd3;" horiz-adv-x="700" 
d="M653 340q0 -159 -81.5 -253.5t-220.5 -94.5q-137 0 -220 95t-83 253q0 159 81.5 253t220.5 94q142 0 222.5 -93.5t80.5 -253.5zM133 340q0 -125 59.5 -198t158.5 -73q103 0 159.5 72t56.5 199t-57 199t-160 72q-102 0 -159.5 -72.5t-57.5 -198.5zM393 727h-69l99 156h94z
" />
    <glyph glyph-name="Ocircumflex" unicode="&#xd4;" horiz-adv-x="700" 
d="M653 340q0 -159 -81.5 -253.5t-220.5 -94.5q-137 0 -220 95t-83 253q0 159 81.5 253t220.5 94q142 0 222.5 -93.5t80.5 -253.5zM133 340q0 -125 59.5 -198t158.5 -73q103 0 159.5 72t56.5 199t-57 199t-160 72q-102 0 -159.5 -72.5t-57.5 -198.5zM272 727h-80l127 156h76
l127 -156h-80l-85 105z" />
    <glyph glyph-name="Otilde" unicode="&#xd5;" horiz-adv-x="700" 
d="M653 340q0 -159 -81.5 -253.5t-220.5 -94.5q-137 0 -220 95t-83 253q0 159 81.5 253t220.5 94q142 0 222.5 -93.5t80.5 -253.5zM133 340q0 -125 59.5 -198t158.5 -73q103 0 159.5 72t56.5 199t-57 199t-160 72q-102 0 -159.5 -72.5t-57.5 -198.5zM294 802q-41 0 -68 -48
l-43 37q14 30 41.5 50.5t59.5 20.5q30 0 73 -22t61 -22q34 0 54 43l49 -34q-32 -69 -99 -69q-27 0 -69.5 22t-58.5 22z" />
    <glyph glyph-name="Odieresis" unicode="&#xd6;" horiz-adv-x="700" 
d="M653 340q0 -159 -81.5 -253.5t-220.5 -94.5q-137 0 -220 95t-83 253q0 159 81.5 253t220.5 94q142 0 222.5 -93.5t80.5 -253.5zM133 340q0 -125 59.5 -198t158.5 -73q103 0 159.5 72t56.5 199t-57 199t-160 72q-102 0 -159.5 -72.5t-57.5 -198.5zM507 806q0 -22 -15 -37
t-37 -15t-36.5 15t-14.5 37t14.5 36.5t36.5 14.5t37 -14.5t15 -36.5zM305 806q0 -22 -14.5 -37t-36.5 -15t-37 15t-15 37t15 36.5t37 14.5t36.5 -14.5t14.5 -36.5z" />
    <glyph glyph-name="multiply" unicode="&#xd7;" horiz-adv-x="491" 
d="M428 210l-51 -51l-132 131l-131 -131l-51 52l131 130l-135 134l51 50l135 -133l135 134l51 -51l-135 -134z" />
    <glyph glyph-name="Oslash" unicode="&#xd8;" horiz-adv-x="675" 
d="M646 340q0 -159 -81.5 -253.5t-219.5 -94.5q-101 0 -177 54l-41 -55h-86l77 103q-77 96 -77 246q0 159 81.5 253t220.5 94q105 0 177 -52l39 52h88l-75 -101q74 -93 74 -246zM125 340q0 -106 44 -177l304 408q-52 41 -130 41q-102 0 -160 -72.5t-58 -199.5zM345 67
q103 0 160 72.5t57 200.5q0 109 -42 178l-304 -408q54 -43 129 -43z" />
    <glyph glyph-name="Ugrave" unicode="&#xd9;" horiz-adv-x="645" 
d="M569 256q0 -130 -65.5 -197t-182.5 -67q-115 0 -180 65.5t-65 190.5v426h81v-425q0 -93 44.5 -137t119.5 -44q167 0 167 186v420h81v-418zM360 727h-69l-124 156h95z" />
    <glyph glyph-name="Uacute" unicode="&#xda;" horiz-adv-x="645" 
d="M569 256q0 -130 -65.5 -197t-182.5 -67q-115 0 -180 65.5t-65 190.5v426h81v-425q0 -93 44.5 -137t119.5 -44q167 0 167 186v420h81v-418zM369 727h-69l99 156h94z" />
    <glyph glyph-name="Ucircumflex" unicode="&#xdb;" horiz-adv-x="645" 
d="M569 256q0 -130 -65.5 -197t-182.5 -67q-115 0 -180 65.5t-65 190.5v426h81v-425q0 -93 44.5 -137t119.5 -44q167 0 167 186v420h81v-418zM239 727h-80l127 156h76l127 -156h-80l-85 105z" />
    <glyph glyph-name="Udieresis" unicode="&#xdc;" horiz-adv-x="645" 
d="M569 256q0 -130 -65.5 -197t-182.5 -67q-115 0 -180 65.5t-65 190.5v426h81v-425q0 -93 44.5 -137t119.5 -44q167 0 167 186v420h81v-418zM476 806q0 -22 -15 -37t-37 -15t-36.5 15t-14.5 37t14.5 36.5t36.5 14.5t37 -14.5t15 -36.5zM274 806q0 -22 -14.5 -37t-36.5 -15
t-37 15t-15 37t15 36.5t37 14.5t36.5 -14.5t14.5 -36.5z" />
    <glyph glyph-name="Yacute" unicode="&#xdd;" horiz-adv-x="593" 
d="M336 0h-81v250l-229 424h94l51 -99l83 -163t36 -76l5 -12q9 25 127 251l51 99h94l-231 -423v-251zM348 726h-69l99 156h94z" />
    <glyph glyph-name="Thorn" unicode="&#xde;" horiz-adv-x="536" 
d="M254 124h-96v-124h-81v674h81v-124h88q122 0 187 -59.5t65 -157.5q0 -92 -64.5 -150.5t-179.5 -58.5zM249 481h-91v-288h99q79 0 119 38.5t40 99.5q0 69 -41 109.5t-126 40.5z" />
    <glyph glyph-name="germandbls" unicode="&#xdf;" horiz-adv-x="541" 
d="M512 137q0 -63 -44.5 -103.5t-123.5 -40.5q-55 0 -86 13v76q39 -20 85 -20q42 0 66.5 19.5t24.5 51.5q0 25 -15.5 47t-37.5 39.5l-44 35.5t-37.5 42.5t-15.5 54.5q0 27 12.5 52t28 40.5t28 39.5t12.5 50q0 37 -27 60t-71 23q-112 0 -112 -119v-498h-79v496q0 96 52.5 145
t140.5 49q79 0 127.5 -45t48.5 -109q0 -44 -19.5 -77.5t-38.5 -57t-19 -43.5q0 -18 15 -35.5t36 -34t42 -36t36 -49.5t15 -66z" />
    <glyph glyph-name="agrave" unicode="&#xe0;" horiz-adv-x="492" 
d="M228 61q54 0 86 30.5t32 77.5v65h-88q-64 0 -96 -25t-32 -63t25 -61.5t73 -23.5zM347 60q-39 -65 -142 -65q-71 0 -114.5 42t-43.5 106q0 73 55.5 113.5t151.5 40.5h92v26q0 60 -27 90.5t-91 30.5q-81 0 -144 -43v79q57 35 150 35q191 0 191 -194v-321h-78v60zM291 560
h-69l-124 156h95z" />
    <glyph glyph-name="aacute" unicode="&#xe1;" horiz-adv-x="492" 
d="M228 61q54 0 86 30.5t32 77.5v65h-88q-64 0 -96 -25t-32 -63t25 -61.5t73 -23.5zM347 60q-39 -65 -142 -65q-71 0 -114.5 42t-43.5 106q0 73 55.5 113.5t151.5 40.5h92v26q0 60 -27 90.5t-91 30.5q-81 0 -144 -43v79q57 35 150 35q191 0 191 -194v-321h-78v60zM292 560
h-69l99 156h94z" />
    <glyph glyph-name="acircumflex" unicode="&#xe2;" horiz-adv-x="492" 
d="M228 61q54 0 86 30.5t32 77.5v65h-88q-64 0 -96 -25t-32 -63t25 -61.5t73 -23.5zM347 60q-39 -65 -142 -65q-71 0 -114.5 42t-43.5 106q0 73 55.5 113.5t151.5 40.5h92v26q0 60 -27 90.5t-91 30.5q-81 0 -144 -43v79q57 35 150 35q191 0 191 -194v-321h-78v60zM169 559
h-80l127 156h76l127 -156h-80l-85 105z" />
    <glyph glyph-name="atilde" unicode="&#xe3;" horiz-adv-x="492" 
d="M228 61q54 0 86 30.5t32 77.5v65h-88q-64 0 -96 -25t-32 -63t25 -61.5t73 -23.5zM347 60q-39 -65 -142 -65q-71 0 -114.5 42t-43.5 106q0 73 55.5 113.5t151.5 40.5h92v26q0 60 -27 90.5t-91 30.5q-81 0 -144 -43v79q57 35 150 35q191 0 191 -194v-321h-78v60zM192 634
q-41 0 -68 -48l-43 37q14 30 41.5 50.5t59.5 20.5q30 0 73 -22t61 -22q34 0 54 43l49 -34q-32 -69 -99 -69q-27 0 -69.5 22t-58.5 22z" />
    <glyph glyph-name="adieresis" unicode="&#xe4;" horiz-adv-x="492" 
d="M228 61q54 0 86 30.5t32 77.5v65h-88q-64 0 -96 -25t-32 -63t25 -61.5t73 -23.5zM347 60q-39 -65 -142 -65q-71 0 -114.5 42t-43.5 106q0 73 55.5 113.5t151.5 40.5h92v26q0 60 -27 90.5t-91 30.5q-81 0 -144 -43v79q57 35 150 35q191 0 191 -194v-321h-78v60zM405 636
q0 -22 -15 -37t-37 -15t-36.5 15t-14.5 37t14.5 36.5t36.5 14.5t37 -14.5t15 -36.5zM203 636q0 -22 -14.5 -37t-36.5 -15t-37 15t-15 37t15 36.5t37 14.5t36.5 -14.5t14.5 -36.5z" />
    <glyph glyph-name="aring" unicode="&#xe5;" horiz-adv-x="492" 
d="M228 61q54 0 86 30.5t32 77.5v65h-88q-64 0 -96 -25t-32 -63t25 -61.5t73 -23.5zM347 60q-39 -65 -142 -65q-71 0 -114.5 42t-43.5 106q0 73 55.5 113.5t151.5 40.5h92v26q0 60 -27 90.5t-91 30.5q-81 0 -144 -43v79q57 35 150 35q191 0 191 -194v-321h-78v60zM361 656
q0 -44 -31 -75t-75 -31t-75 31t-31 75t31 75.5t75 31.5t75 -31.5t31 -75.5zM202 657q0 -22 15.5 -38t37.5 -16t38 16t16 38q0 23 -15.5 38.5t-38.5 15.5q-22 0 -37.5 -15.5t-15.5 -38.5z" />
    <glyph glyph-name="ae" unicode="&#xe6;" horiz-adv-x="819" 
d="M396 99q-19 -46 -66 -75t-115 -29q-73 0 -118 39.5t-45 107.5q0 74 56 115t153 41h90v25q0 60 -27 90.5t-91 30.5q-80 0 -144 -42v77q58 36 147 36q129 0 165 -90q59 88 175 88q98 0 150.5 -61.5t52.5 -176.5q0 -28 -5 -55h-344q9 -75 58 -115t121 -40q83 0 134 35v-74
q-57 -31 -140 -31q-65 0 -121 28t-86 76zM134 145q0 -37 25.5 -59t73.5 -22q50 0 84 31t34 82v55h-75q-142 0 -142 -87zM575 444q-56 0 -96.5 -40t-49.5 -118h272v20q-1 66 -35.5 102t-90.5 36z" />
    <glyph glyph-name="ccedilla" unicode="&#xe7;" horiz-adv-x="471" 
d="M422 18q-48 -29 -118 -29q-120 0 -190.5 76.5t-70.5 186.5q0 108 70.5 186t192.5 78q65 0 116 -28v-75q-46 31 -108 31q-86 0 -137.5 -55.5t-51.5 -137.5q1 -82 50 -136.5t139 -54.5q58 0 108 33v-75zM339 -122q0 -54 -38.5 -91t-111.5 -39v58q84 6 84 71q0 34 -23 72h71
q18 -25 18 -71z" />
    <glyph glyph-name="egrave" unicode="&#xe8;" horiz-adv-x="522" 
d="M443 26q-59 -31 -144 -31q-115 0 -185.5 70.5t-70.5 186.5q0 121 63 191t162 70q95 0 151 -61t56 -173q0 -32 -5 -59h-346q9 -75 57 -115t126 -40q85 0 136 35v-74zM268 444q-57 0 -97 -41t-47 -117h272v20q0 63 -34 100.5t-94 37.5zM318 560h-69l-124 156h95z" />
    <glyph glyph-name="eacute" unicode="&#xe9;" horiz-adv-x="522" 
d="M443 26q-59 -31 -144 -31q-115 0 -185.5 70.5t-70.5 186.5q0 121 63 191t162 70q95 0 151 -61t56 -173q0 -32 -5 -59h-346q9 -75 57 -115t126 -40q85 0 136 35v-74zM268 444q-57 0 -97 -41t-47 -117h272v20q0 63 -34 100.5t-94 37.5zM320 560h-69l99 156h94z" />
    <glyph glyph-name="ecircumflex" unicode="&#xea;" horiz-adv-x="522" 
d="M443 26q-59 -31 -144 -31q-115 0 -185.5 70.5t-70.5 186.5q0 121 63 191t162 70q95 0 151 -61t56 -173q0 -32 -5 -59h-346q9 -75 57 -115t126 -40q85 0 136 35v-74zM268 444q-57 0 -97 -41t-47 -117h272v20q0 63 -34 100.5t-94 37.5zM196 560h-80l127 156h76l127 -156
h-80l-85 105z" />
    <glyph glyph-name="edieresis" unicode="&#xeb;" horiz-adv-x="522" 
d="M443 26q-59 -31 -144 -31q-115 0 -185.5 70.5t-70.5 186.5q0 121 63 191t162 70q95 0 151 -61t56 -173q0 -32 -5 -59h-346q9 -75 57 -115t126 -40q85 0 136 35v-74zM268 444q-57 0 -97 -41t-47 -117h272v20q0 63 -34 100.5t-94 37.5zM434 639q0 -22 -15 -37t-37 -15
t-36.5 15t-14.5 37t14.5 36.5t36.5 14.5t37 -14.5t15 -36.5zM232 639q0 -22 -14.5 -37t-36.5 -15t-37 15t-15 37t15 36.5t37 14.5t36.5 -14.5t14.5 -36.5z" />
    <glyph glyph-name="igrave" unicode="&#xec;" horiz-adv-x="233" 
d="M156 0h-79v507h79v-507zM145 559h-69l-124 156h95z" />
    <glyph glyph-name="iacute" unicode="&#xed;" horiz-adv-x="233" 
d="M156 0h-79v507h79v-507zM157 560h-69l99 156h94z" />
    <glyph glyph-name="icircumflex" unicode="&#xee;" horiz-adv-x="233" 
d="M156 0h-79v507h79v-507zM32 560h-80l127 156h76l127 -156h-80l-85 105z" />
    <glyph glyph-name="idieresis" unicode="&#xef;" horiz-adv-x="233" 
d="M156 0h-79v507h79v-507zM269 640q0 -22 -15 -37t-37 -15t-36.5 15t-14.5 37t14.5 36.5t36.5 14.5t37 -14.5t15 -36.5zM67 640q0 -22 -14.5 -37t-36.5 -15t-37 15t-15 37t15 36.5t37 14.5t36.5 -14.5t14.5 -36.5z" />
    <glyph glyph-name="eth" unicode="&#xf0;" horiz-adv-x="517" 
d="M471 269q0 -136 -59 -207t-161 -71q-95 0 -154 62t-59 149q0 96 59 151t142 55q92 0 151 -68q-18 106 -89 196l-140 -72v61l102 52q-59 59 -132 97h124q40 -26 75 -62l122 62v-61l-85 -44q104 -134 104 -300zM251 64q60 0 100.5 46.5t44.5 145.5q-60 79 -151 79
q-54 0 -89.5 -35.5t-35.5 -99.5q0 -62 37 -99t94 -37z" />
    <glyph glyph-name="ntilde" unicode="&#xf1;" horiz-adv-x="540" 
d="M473 0h-79v328q0 56 -28.5 85.5t-74.5 29.5q-57 0 -98.5 -44t-41.5 -122v-277h-78v507h78v-88q45 95 160 95q74 0 118 -45t44 -120v-349zM222 634q-41 0 -68 -48l-43 37q14 30 41.5 50.5t59.5 20.5q30 0 73 -22t61 -22q34 0 54 43l49 -34q-32 -69 -99 -69q-27 0 -69.5 22
t-58.5 22z" />
    <glyph glyph-name="ograve" unicode="&#xf2;" horiz-adv-x="562" 
d="M519 252q0 -113 -64 -187t-176 -74q-109 0 -172.5 73.5t-63.5 185.5q0 113 65.5 188.5t170.5 75.5q115 0 177.5 -74t62.5 -188zM125 251q0 -79 42 -134.5t112 -55.5q76 0 117 54.5t41 135.5q0 84 -39 138.5t-119 54.5q-72 0 -113 -56t-41 -137zM318 560h-69l-124 156h95z
" />
    <glyph glyph-name="oacute" unicode="&#xf3;" horiz-adv-x="562" 
d="M519 252q0 -113 -64 -187t-176 -74q-109 0 -172.5 73.5t-63.5 185.5q0 113 65.5 188.5t170.5 75.5q115 0 177.5 -74t62.5 -188zM125 251q0 -79 42 -134.5t112 -55.5q76 0 117 54.5t41 135.5q0 84 -39 138.5t-119 54.5q-72 0 -113 -56t-41 -137zM327 560h-69l99 156h94z
" />
    <glyph glyph-name="ocircumflex" unicode="&#xf4;" horiz-adv-x="562" 
d="M519 252q0 -113 -64 -187t-176 -74q-109 0 -172.5 73.5t-63.5 185.5q0 113 65.5 188.5t170.5 75.5q115 0 177.5 -74t62.5 -188zM125 251q0 -79 42 -134.5t112 -55.5q76 0 117 54.5t41 135.5q0 84 -39 138.5t-119 54.5q-72 0 -113 -56t-41 -137zM199 559h-80l127 156h76
l127 -156h-80l-85 105z" />
    <glyph glyph-name="otilde" unicode="&#xf5;" horiz-adv-x="562" 
d="M519 252q0 -113 -64 -187t-176 -74q-109 0 -172.5 73.5t-63.5 185.5q0 113 65.5 188.5t170.5 75.5q115 0 177.5 -74t62.5 -188zM125 251q0 -79 42 -134.5t112 -55.5q76 0 117 54.5t41 135.5q0 84 -39 138.5t-119 54.5q-72 0 -113 -56t-41 -137zM226 634q-41 0 -68 -48
l-43 37q14 30 41.5 50.5t59.5 20.5q30 0 73 -22t61 -22q34 0 54 43l49 -34q-32 -69 -99 -69q-27 0 -69.5 22t-58.5 22z" />
    <glyph glyph-name="odieresis" unicode="&#xf6;" horiz-adv-x="562" 
d="M519 252q0 -113 -64 -187t-176 -74q-109 0 -172.5 73.5t-63.5 185.5q0 113 65.5 188.5t170.5 75.5q115 0 177.5 -74t62.5 -188zM125 251q0 -79 42 -134.5t112 -55.5q76 0 117 54.5t41 135.5q0 84 -39 138.5t-119 54.5q-72 0 -113 -56t-41 -137zM442 637q0 -22 -15 -37
t-37 -15t-36.5 15t-14.5 37t14.5 36.5t36.5 14.5t37 -14.5t15 -36.5zM240 637q0 -22 -14.5 -37t-36.5 -15t-37 15t-15 37t15 36.5t37 14.5t36.5 -14.5t14.5 -36.5z" />
    <glyph glyph-name="divide" unicode="&#xf7;" horiz-adv-x="553" 
d="M497 304h-440v72h440v-72zM328 162q0 -22 -15.5 -37.5t-36.5 -15.5q-22 0 -37.5 15.5t-15.5 37.5q0 21 15.5 36.5t37.5 15.5q21 0 36.5 -15.5t15.5 -36.5zM328 518q0 -21 -15.5 -36.5t-36.5 -15.5q-22 0 -37.5 15.5t-15.5 36.5q0 22 15.5 37.5t37.5 15.5q21 0 36.5 -15.5
t15.5 -37.5z" />
    <glyph glyph-name="oslash" unicode="&#xf8;" horiz-adv-x="563" 
d="M533 252q0 -113 -64 -187t-176 -74q-72 0 -128 35l-27 -35h-82l59 79q-59 71 -59 180q0 112 66 188t171 76q75 0 131 -35l26 35h83l-59 -78q59 -73 59 -184zM133 251q0 -69 30 -118l220 292q-38 25 -91 25q-75 0 -117 -57.5t-42 -141.5zM293 55q79 0 121 56t42 140
q0 72 -28 124l-221 -293q38 -27 86 -27z" />
    <glyph glyph-name="ugrave" unicode="&#xf9;" horiz-adv-x="540" 
d="M467 0h-79v88q-40 -94 -159 -94q-75 0 -118.5 44.5t-43.5 119.5v349h79v-329q0 -55 28 -84t76 -29q63 0 100.5 44t37.5 119v279h79v-507zM304 559h-69l-124 156h95z" />
    <glyph glyph-name="uacute" unicode="&#xfa;" horiz-adv-x="540" 
d="M467 0h-79v88q-40 -94 -159 -94q-75 0 -118.5 44.5t-43.5 119.5v349h79v-329q0 -55 28 -84t76 -29q63 0 100.5 44t37.5 119v279h79v-507zM309 560h-69l99 156h94z" />
    <glyph glyph-name="ucircumflex" unicode="&#xfb;" horiz-adv-x="540" 
d="M467 0h-79v88q-40 -94 -159 -94q-75 0 -118.5 44.5t-43.5 119.5v349h79v-329q0 -55 28 -84t76 -29q63 0 100.5 44t37.5 119v279h79v-507zM184 560h-80l127 156h76l127 -156h-80l-85 105z" />
    <glyph glyph-name="udieresis" unicode="&#xfc;" horiz-adv-x="540" 
d="M467 0h-79v88q-40 -94 -159 -94q-75 0 -118.5 44.5t-43.5 119.5v349h79v-329q0 -55 28 -84t76 -29q63 0 100.5 44t37.5 119v279h79v-507zM423 637q0 -22 -15 -37t-37 -15t-36.5 15t-14.5 37t14.5 36.5t36.5 14.5t37 -14.5t15 -36.5zM221 637q0 -22 -14.5 -37t-36.5 -15
t-37 15t-15 37t15 36.5t37 14.5t36.5 -14.5t14.5 -36.5z" />
    <glyph glyph-name="yacute" unicode="&#xfd;" horiz-adv-x="493" 
d="M293 13q-39 -103 -92.5 -145t-122.5 -42q-26 0 -42 5v71q15 -4 34 -4q101 0 143 115l-205 494h89l66 -167l89 -230q8 26 80 230l59 167h85zM291 560h-69l99 156h94z" />
    <glyph glyph-name="thorn" unicode="&#xfe;" horiz-adv-x="567" 
d="M151 -197h-78v904h78v-277q53 85 157 85q101 0 158.5 -73.5t57.5 -183.5q0 -117 -60.5 -191.5t-157.5 -74.5q-100 0 -155 85v-274zM151 253q0 -97 45 -143t100 -46q64 0 105 50.5t41 143.5q0 83 -40 134t-101 51t-105.5 -44.5t-44.5 -145.5z" />
    <glyph glyph-name="ydieresis" unicode="&#xff;" horiz-adv-x="493" 
d="M293 13q-39 -103 -92.5 -145t-122.5 -42q-26 0 -42 5v71q15 -4 34 -4q101 0 143 115l-205 494h89l66 -167l89 -230q8 26 80 230l59 167h85zM408 637q0 -22 -15 -37t-37 -15t-36.5 15t-14.5 37t14.5 36.5t36.5 14.5t37 -14.5t15 -36.5zM206 637q0 -22 -14.5 -37t-36.5 -15
t-37 15t-15 37t15 36.5t37 14.5t36.5 -14.5t14.5 -36.5z" />
    <glyph glyph-name="Amacron" unicode="&#x100;" horiz-adv-x="648" 
d="M218 284l-13 -38h239l-13 39l-105 324q-12 -43 -108 -325zM122 0h-87l235 674h112l231 -674h-87l-59 177h-285zM468 777h-282v56h282v-56z" />
    <glyph glyph-name="amacron" unicode="&#x101;" horiz-adv-x="492" 
d="M228 61q54 0 86 30.5t32 77.5v65h-88q-64 0 -96 -25t-32 -63t25 -61.5t73 -23.5zM347 60q-39 -65 -142 -65q-71 0 -114.5 42t-43.5 106q0 73 55.5 113.5t151.5 40.5h92v26q0 60 -27 90.5t-91 30.5q-81 0 -144 -43v79q57 35 150 35q191 0 191 -194v-321h-78v60zM388 610
h-282v56h282v-56z" />
    <glyph glyph-name="Abreve" unicode="&#x102;" horiz-adv-x="648" 
d="M218 284l-13 -38h239l-13 39l-105 324q-12 -43 -108 -325zM122 0h-87l235 674h112l231 -674h-87l-59 177h-285zM490 882q0 -73 -41 -116t-123 -43t-123.5 43t-41.5 116h65q0 -46 24 -74t76 -28q51 0 75 28t24 74h65z" />
    <glyph glyph-name="abreve" unicode="&#x103;" horiz-adv-x="492" 
d="M228 61q54 0 86 30.5t32 77.5v65h-88q-64 0 -96 -25t-32 -63t25 -61.5t73 -23.5zM347 60q-39 -65 -142 -65q-71 0 -114.5 42t-43.5 106q0 73 55.5 113.5t151.5 40.5h92v26q0 60 -27 90.5t-91 30.5q-81 0 -144 -43v79q57 35 150 35q191 0 191 -194v-321h-78v60zM414 715
q0 -73 -41 -116t-123 -43t-123.5 43t-41.5 116h65q0 -46 24 -74t76 -28q51 0 75 28t24 74h65z" />
    <glyph glyph-name="Aogonek" unicode="&#x104;" horiz-adv-x="646" 
d="M217 284l-13 -38h239l-13 39l-105 324q-12 -43 -108 -325zM633 -222q-31 -20 -79 -20q-59 0 -91 31t-32 79q0 84 91 142l-56 167h-285l-60 -177h-87l235 674h112l231 -674q-112 -55 -112 -125q0 -29 17 -44t47 -15q38 0 69 22v-60z" />
    <glyph glyph-name="aogonek" unicode="&#x105;" horiz-adv-x="491" 
d="M228 64q51 0 84.5 29t33.5 69v70h-75q-142 0 -142 -87q0 -37 25.5 -59t73.5 -22zM446 -222q-31 -20 -79 -20q-59 0 -91 31t-32 79q0 45 29 83t74 65v47q-51 -68 -142 -68q-71 0 -114.5 40.5t-43.5 106.5q0 74 56 115t153 41h90v25q0 60 -27 90.5t-91 30.5q-80 0 -144 -42
v77q58 36 150 36q191 0 191 -194v-321q-112 -55 -112 -125q0 -29 17 -44t47 -15q38 0 69 22v-60z" />
    <glyph glyph-name="Cacute" unicode="&#x106;" horiz-adv-x="602" 
d="M560 34q-62 -42 -170 -42q-152 0 -247 93.5t-95 254.5q0 152 96.5 247.5t242.5 95.5q105 0 171 -36v-83q-44 23 -79 33t-92 10q-109 0 -181.5 -74t-72.5 -193q0 -124 72 -198t191 -74q96 0 164 51v-85zM399 727h-69l99 156h94z" />
    <glyph glyph-name="cacute" unicode="&#x107;" horiz-adv-x="471" 
d="M422 18q-48 -29 -118 -29q-120 0 -190.5 76.5t-70.5 186.5q0 108 70.5 186t192.5 78q65 0 116 -28v-75q-46 31 -108 31q-86 0 -137.5 -55.5t-51.5 -137.5q1 -82 50 -136.5t139 -54.5q58 0 108 33v-75zM328 559h-69l99 156h94z" />
    <glyph glyph-name="Ccaron" unicode="&#x10c;" horiz-adv-x="602" 
d="M560 34q-62 -42 -170 -42q-152 0 -247 93.5t-95 254.5q0 152 96.5 247.5t242.5 95.5q105 0 171 -36v-83q-44 23 -79 33t-92 10q-109 0 -181.5 -74t-72.5 -193q0 -124 72 -198t191 -74q96 0 164 51v-85zM416 727h-76l-127 156h80l86 -105l84 105h80z" />
    <glyph glyph-name="ccaron" unicode="&#x10d;" horiz-adv-x="471" 
d="M422 18q-48 -29 -118 -29q-120 0 -190.5 76.5t-70.5 186.5q0 108 70.5 186t192.5 78q65 0 116 -28v-75q-46 31 -108 31q-86 0 -137.5 -55.5t-51.5 -137.5q1 -82 50 -136.5t139 -54.5q58 0 108 33v-75zM313 560h-76l-127 156h80l86 -105l84 105h80z" />
    <glyph glyph-name="Dcaron" unicode="&#x10e;" horiz-adv-x="661" 
d="M281 0h-204v674h200q149 0 244.5 -92.5t95.5 -239.5q0 -146 -88.5 -244t-247.5 -98zM276 602h-117v-531h121q125 0 189 77.5t64 193.5q0 110 -71.5 185t-185.5 75zM344 726h-76l-127 156h80l86 -105l84 105h80z" />
    <glyph glyph-name="dcaron" unicode="&#x10f;" horiz-adv-x="660" 
d="M125 248q0 -82 40 -133t101 -51q62 0 105.5 46t43.5 147q0 96 -45 141t-99 45q-63 0 -104.5 -50.5t-41.5 -144.5zM494 0h-79v75q-54 -83 -156 -83q-101 0 -158.5 75t-57.5 182q0 119 61 192.5t157 73.5q99 0 154 -85v277h79v-707zM617 515h-65l84 192h92z" />
    <glyph glyph-name="Dcroat" unicode="&#x110;" horiz-adv-x="730" 
d="M350 0h-204v304h-85v68h85v302h200q150 0 245 -92.5t95 -239.5q0 -146 -88.5 -244t-247.5 -98zM403 304h-175v-233h122q64 0 113.5 22t79 60.5t44.5 86t15 102.5q0 110 -71 185t-186 75h-117v-230h175v-68z" />
    <glyph glyph-name="dcroat" unicode="&#x111;" horiz-adv-x="567" 
d="M125 248q0 -82 40 -133t101 -51q62 0 105.5 46t43.5 147q0 96 -45 141t-99 45q-63 0 -104.5 -50.5t-41.5 -144.5zM494 0h-79v75q-54 -83 -156 -83q-101 0 -158.5 75t-57.5 182q0 119 61 192.5t157 73.5q99 0 154 -85v157h-193v55h193v65h79v-65h71v-55h-71v-587z" />
    <glyph glyph-name="Emacron" unicode="&#x112;" horiz-adv-x="501" 
d="M453 0h-376v674h371v-71h-290v-231h256v-71h-256v-230h295v-71zM404 778h-282v56h282v-56z" />
    <glyph glyph-name="emacron" unicode="&#x113;" horiz-adv-x="522" 
d="M443 26q-59 -31 -144 -31q-115 0 -185.5 70.5t-70.5 186.5q0 121 63 191t162 70q95 0 151 -61t56 -173q0 -32 -5 -59h-346q9 -75 57 -115t126 -40q85 0 136 35v-74zM268 444q-57 0 -97 -41t-47 -117h272v20q0 63 -34 100.5t-94 37.5zM417 610h-282v56h282v-56z" />
    <glyph glyph-name="Edotaccent" unicode="&#x116;" horiz-adv-x="501" 
d="M453 0h-376v674h371v-71h-290v-231h256v-71h-256v-230h295v-71zM326 807q0 -22 -14.5 -37t-36.5 -15t-37 15t-15 37t15 36.5t37 14.5t36.5 -14.5t14.5 -36.5z" />
    <glyph glyph-name="edotaccent" unicode="&#x117;" horiz-adv-x="522" 
d="M443 26q-59 -31 -144 -31q-115 0 -185.5 70.5t-70.5 186.5q0 121 63 191t162 70q95 0 151 -61t56 -173q0 -32 -5 -59h-346q9 -75 57 -115t126 -40q85 0 136 35v-74zM268 444q-57 0 -97 -41t-47 -117h272v20q0 63 -34 100.5t-94 37.5zM333 639q0 -22 -14.5 -37t-36.5 -15
t-37 15t-15 37t15 36.5t37 14.5t36.5 -14.5t14.5 -36.5z" />
    <glyph glyph-name="Eogonek" unicode="&#x118;" horiz-adv-x="501" 
d="M384 -223q-32 -19 -79 -19q-58 0 -90 31t-32 79q0 74 78 132h-184v674h371v-71h-290v-231h256v-71h-256v-230h295v-71h-89q-113 -56 -113 -125q0 -29 17.5 -44t47.5 -15q39 0 68 22v-61z" />
    <glyph glyph-name="eogonek" unicode="&#x119;" horiz-adv-x="522" 
d="M268 444q-57 0 -97 -41t-47 -117h272v20q0 63 -34 100.5t-94 37.5zM386 -219q-32 -19 -79 -19q-58 0 -90 31t-32 79q0 69 70 126q-97 14 -154.5 82t-57.5 172q0 121 63 191t162 70q95 0 151 -61t56 -173q0 -32 -5 -59h-346q9 -75 57 -115t126 -40q85 0 136 35v-74
q-34 -18 -85 -26q-105 -55 -105 -121q0 -29 17.5 -44t47.5 -15q39 0 68 22v-61z" />
    <glyph glyph-name="Ecaron" unicode="&#x11a;" horiz-adv-x="501" 
d="M453 0h-376v674h371v-71h-290v-231h256v-71h-256v-230h295v-71zM309 726h-76l-127 156h80l86 -105l84 105h80z" />
    <glyph glyph-name="ecaron" unicode="&#x11b;" horiz-adv-x="522" 
d="M443 26q-59 -31 -144 -31q-115 0 -185.5 70.5t-70.5 186.5q0 121 63 191t162 70q95 0 151 -61t56 -173q0 -32 -5 -59h-346q9 -75 57 -115t126 -40q85 0 136 35v-74zM268 444q-57 0 -97 -41t-47 -117h272v20q0 63 -34 100.5t-94 37.5zM312 560h-76l-127 156h80l86 -105
l84 105h80z" />
    <glyph glyph-name="Gbreve" unicode="&#x11e;" horiz-adv-x="670" 
d="M603 53q-81 -61 -209 -61q-156 0 -251 92.5t-95 253.5q0 153 94.5 250.5t238.5 97.5q119 0 197 -46v-87q-82 54 -190 54q-113 0 -184 -73.5t-71 -195.5q0 -125 70 -196.5t193 -71.5q68 0 126 27v210h-148v71h229v-322h-1zM533 883q0 -73 -41 -116t-123 -43t-123.5 43
t-41.5 116h65q0 -46 24 -74t76 -28q51 0 75 28t24 74h65z" />
    <glyph glyph-name="gbreve" unicode="&#x11f;" horiz-adv-x="549" 
d="M482 41q0 -116 -64 -174.5t-165 -58.5q-92 0 -157 31v79q64 -37 150 -37q73 0 115 39t42 122v57q-50 -86 -149 -86q-87 0 -148.5 64t-61.5 178q0 113 57 186t149 73q104 0 153 -91v84h79v-466zM126 257q0 -85 42 -129.5t95 -44.5q55 0 97.5 42.5t42.5 126.5q0 97 -41 144
t-95 47q-65 0 -103 -51.5t-38 -134.5zM456 716q0 -73 -41 -116t-123 -43t-123.5 43t-41.5 116h65q0 -46 24 -74t76 -28q51 0 75 28t24 74h65z" />
    <glyph glyph-name="uni0122" unicode="&#x122;" horiz-adv-x="670" 
d="M603 53q-81 -61 -209 -61q-156 0 -251 92.5t-95 253.5q0 153 94.5 250.5t238.5 97.5q119 0 197 -46v-87q-82 54 -190 54q-113 0 -184 -73.5t-71 -195.5q0 -125 70 -196.5t193 -71.5q68 0 126 27v210h-148v71h229v-322h-1zM310 -243h-65l84 192h92z" />
    <glyph glyph-name="uni0123" unicode="&#x123;" horiz-adv-x="549" 
d="M482 41q0 -116 -64 -174.5t-165 -58.5q-92 0 -157 31v79q64 -37 150 -37q73 0 115 39t42 122v57q-50 -86 -149 -86q-87 0 -148.5 64t-61.5 178q0 113 57 186t149 73q104 0 153 -91v84h79v-466zM126 257q0 -85 42 -129.5t95 -44.5q55 0 97.5 42.5t42.5 126.5q0 97 -41 144
t-95 47q-65 0 -103 -51.5t-38 -134.5zM353 560h-91l111 192h65z" />
    <glyph glyph-name="Imacron" unicode="&#x12a;" horiz-adv-x="247" 
d="M164 0h-81v674h81v-674zM265 777h-282v56h282v-56z" />
    <glyph glyph-name="imacron" unicode="&#x12b;" horiz-adv-x="233" 
d="M156 0h-79v507h79v-507zM258 610h-282v56h282v-56z" />
    <glyph glyph-name="Iogonek" unicode="&#x12e;" horiz-adv-x="247" 
d="M185 -223q-32 -19 -79 -19q-58 0 -90 31t-32 79q0 86 99 146v660h81v-673l1 -1q-113 -56 -113 -125q0 -29 17.5 -44t47.5 -15q39 0 68 22v-61z" />
    <glyph glyph-name="iogonek" unicode="&#x12f;" horiz-adv-x="233" 
d="M168 666q0 -22 -15 -36.5t-37 -14.5t-36.5 14.5t-14.5 36.5t14.5 37t36.5 15t37 -15t15 -37zM176 -223q-32 -19 -79 -19q-58 0 -90 31t-32 79q0 45 28.5 83.5t73.5 64.5v491h79v-507q-113 -56 -113 -125q0 -29 17.5 -44t47.5 -15q39 0 68 22v-61z" />
    <glyph glyph-name="Idotaccent" unicode="&#x130;" horiz-adv-x="247" 
d="M164 0h-81v674h81v-674zM176 808q0 -22 -14.5 -37t-36.5 -15t-37 15t-15 37t15 36.5t37 14.5t36.5 -14.5t14.5 -36.5z" />
    <glyph glyph-name="dotlessi" unicode="&#x131;" horiz-adv-x="233" 
d="M156 0h-79v507h79v-507z" />
    <glyph glyph-name="uni0136" unicode="&#x136;" horiz-adv-x="573" 
d="M545 0h-105l-266 333l257 341h100l-257 -341zM230 -243h-65l85 192h91zM158 0h-81v674h81v-674z" />
    <glyph glyph-name="uni0137" unicode="&#x137;" horiz-adv-x="480" 
d="M151 0h-78v703h78v-703zM254 266l206 -266h-95l-204 266l199 241h94zM182 -243h-65l85 192h91z" />
    <glyph glyph-name="Lacute" unicode="&#x139;" horiz-adv-x="477" 
d="M445 0h-368v674h81v-601h287v-73zM324 727h-69l99 156h94z" />
    <glyph glyph-name="lacute" unicode="&#x13a;" horiz-adv-x="233" 
d="M156 0h-79v707h79v-707zM153 760h-69l99 156h94z" />
    <glyph glyph-name="uni013B" unicode="&#x13b;" horiz-adv-x="477" 
d="M204 -243h-65l84 192h92zM445 0h-368v674h81v-601h287v-73z" />
    <glyph glyph-name="uni013C" unicode="&#x13c;" horiz-adv-x="233" 
d="M156 0h-79v707h79v-707zM52 -243h-65l84 192h92z" />
    <glyph glyph-name="Lcaron" unicode="&#x13d;" horiz-adv-x="477" 
d="M445 0h-368v674h81v-601h287v-73zM313 509h-65l85 192h91z" />
    <glyph glyph-name="lcaron" unicode="&#x13e;" horiz-adv-x="259" 
d="M156 0h-79v707h79v-707zM288 515h-65l85 192h91z" />
    <glyph glyph-name="Lslash" unicode="&#x141;" horiz-adv-x="500" 
d="M328 404l-150 -103v-228h287v-73h-368v245l-68 -47v77l68 47v352h81v-296l150 104v-78z" />
    <glyph glyph-name="lslash" unicode="&#x142;" horiz-adv-x="291" 
d="M180 0h-79v304l-68 -48v77l68 48v326h79v-270l81 58v-78l-81 -57v-360z" />
    <glyph glyph-name="Nacute" unicode="&#x143;" horiz-adv-x="673" 
d="M158 0h-81v674h102l169 -284l171 -292q-4 97 -4 291v285h81v-674h-102l-169 282l-94 158.5l-61 105.5l-17 31q5 -104 5 -293v-284zM395 726h-69l99 156h94z" />
    <glyph glyph-name="nacute" unicode="&#x144;" horiz-adv-x="540" 
d="M473 0h-79v328q0 56 -28.5 85.5t-74.5 29.5q-57 0 -98.5 -44t-41.5 -122v-277h-78v507h78v-88q45 95 160 95q74 0 118 -45t44 -120v-349zM335 560h-69l99 156h94z" />
    <glyph glyph-name="uni0145" unicode="&#x145;" horiz-adv-x="673" 
d="M158 0h-81v674h102l169 -284l171 -292q-4 97 -4 291v285h81v-674h-102l-169 282l-94 158.5l-61 105.5l-17 31q5 -104 5 -293v-284zM283 -243h-65l84 192h92z" />
    <glyph glyph-name="uni0146" unicode="&#x146;" horiz-adv-x="540" 
d="M473 0h-79v328q0 56 -28.5 85.5t-74.5 29.5q-57 0 -98.5 -44t-41.5 -122v-277h-78v507h78v-88q45 95 160 95q74 0 118 -45t44 -120v-349zM214 -243h-65l84 192h92z" />
    <glyph glyph-name="Ncaron" unicode="&#x147;" horiz-adv-x="673" 
d="M158 0h-81v674h102l169 -284l171 -292q-4 97 -4 291v285h81v-674h-102l-169 282l-94 158.5l-61 105.5l-17 31q5 -104 5 -293v-284zM391 727h-76l-127 156h80l86 -105l84 105h80z" />
    <glyph glyph-name="ncaron" unicode="&#x148;" horiz-adv-x="540" 
d="M473 0h-79v328q0 56 -28.5 85.5t-74.5 29.5q-57 0 -98.5 -44t-41.5 -122v-277h-78v507h78v-88q45 95 160 95q74 0 118 -45t44 -120v-349zM325 560h-76l-127 156h80l86 -105l84 105h80z" />
    <glyph glyph-name="Omacron" unicode="&#x14c;" horiz-adv-x="700" 
d="M653 340q0 -159 -81.5 -253.5t-220.5 -94.5q-137 0 -220 95t-83 253q0 159 81.5 253t220.5 94q142 0 222.5 -93.5t80.5 -253.5zM133 340q0 -125 59.5 -198t158.5 -73q103 0 159.5 72t56.5 199t-57 199t-160 72q-102 0 -159.5 -72.5t-57.5 -198.5zM492 777h-282v56h282
v-56z" />
    <glyph glyph-name="omacron" unicode="&#x14d;" horiz-adv-x="562" 
d="M519 252q0 -113 -64 -187t-176 -74q-109 0 -172.5 73.5t-63.5 185.5q0 113 65.5 188.5t170.5 75.5q115 0 177.5 -74t62.5 -188zM125 251q0 -79 42 -134.5t112 -55.5q76 0 117 54.5t41 135.5q0 84 -39 138.5t-119 54.5q-72 0 -113 -56t-41 -137zM425 610h-282v56h282v-56z
" />
    <glyph glyph-name="Ohungarumlaut" unicode="&#x150;" horiz-adv-x="700" 
d="M653 340q0 -159 -81.5 -253.5t-220.5 -94.5q-137 0 -220 95t-83 253q0 159 81.5 253t220.5 94q142 0 222.5 -93.5t80.5 -253.5zM133 340q0 -125 59.5 -198t158.5 -73q103 0 159.5 72t56.5 199t-57 199t-160 72q-102 0 -159.5 -72.5t-57.5 -198.5zM474 727h-61l101 156h94
zM318 727h-61l96 156h92z" />
    <glyph glyph-name="ohungarumlaut" unicode="&#x151;" horiz-adv-x="562" 
d="M519 252q0 -113 -64 -187t-176 -74q-109 0 -172.5 73.5t-63.5 185.5q0 113 65.5 188.5t170.5 75.5q115 0 177.5 -74t62.5 -188zM125 251q0 -79 42 -134.5t112 -55.5q76 0 117 54.5t41 135.5q0 84 -39 138.5t-119 54.5q-72 0 -113 -56t-41 -137zM410 560h-61l101 156h94z
M254 560h-61l96 156h92z" />
    <glyph glyph-name="OE" unicode="&#x152;" horiz-adv-x="983" 
d="M133 340q0 -126 57.5 -198.5t155.5 -72.5q102 0 157.5 72t55.5 199t-55.5 199t-158.5 72q-101 0 -156.5 -72t-55.5 -199zM935 0h-376v88q-79 -96 -213 -96q-136 0 -217 94.5t-81 253.5t79.5 253t217.5 94q136 0 214 -95v82h371v-71h-292v-231h258v-71h-258v-230h297v-71z
" />
    <glyph glyph-name="oe" unicode="&#x153;" horiz-adv-x="892" 
d="M125 251q0 -80 38.5 -135t108.5 -55q74 0 110.5 53.5t36.5 136.5q0 193 -148 193q-72 0 -109 -55t-37 -138zM646 444q-56 0 -97 -40t-49 -118h271v22q-1 66 -35 101t-90 35zM814 26q-59 -31 -142 -31q-139 0 -210 104q-59 -108 -191 -108q-108 0 -168 73t-60 186
q0 114 62 189t166 75q130 0 189 -102q63 101 186 101q98 0 151 -61.5t53 -176.5q0 -28 -5 -55h-345q9 -75 58 -115t122 -40q83 0 134 35v-74z" />
    <glyph glyph-name="Racute" unicode="&#x154;" horiz-adv-x="548" 
d="M251 604h-93v-269h102q69 0 105.5 37.5t36.5 96.5q0 135 -151 135zM255 266h-97v-266h-81v674h169q117 0 177.5 -55t60.5 -152q-2 -70 -37 -119t-99 -69l177 -279h-97l-165 266h-8zM305 727h-69l99 156h94z" />
    <glyph glyph-name="racute" unicode="&#x155;" horiz-adv-x="326" 
d="M151 0h-79l1 507h78v-89q40 94 138 94q18 0 28 -2v-78q-21 7 -43 7q-53 0 -88 -49t-35 -113v-277zM237 560h-69l99 156h94z" />
    <glyph glyph-name="uni0156" unicode="&#x156;" horiz-adv-x="548" 
d="M251 604h-93v-269h102q69 0 105.5 37.5t36.5 96.5q0 135 -151 135zM255 266h-97v-266h-81v674h169q117 0 177.5 -55t60.5 -152q-2 -70 -37 -119t-99 -69l177 -279h-97l-165 266h-8zM222 -243h-65l85 192h91z" />
    <glyph glyph-name="uni0157" unicode="&#x157;" horiz-adv-x="326" 
d="M45 -243h-65l84 192h92zM151 0h-79l1 507h78v-89q40 94 138 94q18 0 28 -2v-78q-21 7 -43 7q-53 0 -88 -49t-35 -113v-277z" />
    <glyph glyph-name="Rcaron" unicode="&#x158;" horiz-adv-x="548" 
d="M251 604h-93v-269h102q69 0 105.5 37.5t36.5 96.5q0 135 -151 135zM255 266h-97v-266h-81v674h169q117 0 177.5 -55t60.5 -152q-2 -70 -37 -119t-99 -69l177 -279h-97l-165 266h-8zM316 726h-76l-127 156h80l86 -105l84 105h80z" />
    <glyph glyph-name="rcaron" unicode="&#x159;" horiz-adv-x="326" 
d="M151 0h-79l1 507h78v-89q40 94 138 94q18 0 28 -2v-78q-21 7 -43 7q-53 0 -88 -49t-35 -113v-277zM240 559h-76l-127 156h80l86 -105l84 105h80z" />
    <glyph glyph-name="Sacute" unicode="&#x15a;" horiz-adv-x="524" 
d="M467 179q0 -89 -61 -137.5t-157 -48.5q-106 0 -180 43v87q73 -55 178 -55q63 0 99 28t36 81q0 22 -8.5 39.5t-28 32t-37 24t-47.5 23.5q-6 3 -18 8q-43 19 -65.5 31t-53 35.5t-44.5 54.5t-14 72q0 86 61.5 134.5t154.5 48.5q87 0 148 -31v-85q-61 40 -146 40
q-61 0 -97 -28.5t-36 -74.5q0 -24 9.5 -43t33.5 -35.5t41 -25t53 -24.5l52 -23.5t46.5 -27t43 -36t26 -46t11.5 -61.5zM316 726h-69l99 156h94z" />
    <glyph glyph-name="sacute" unicode="&#x15b;" horiz-adv-x="412" 
d="M378 135q0 -65 -45.5 -103t-124.5 -38q-92 0 -149 31v77q67 -40 144 -40q46 0 70 18t24 49q0 36 -26.5 56t-88.5 45q-57 22 -91.5 55t-34.5 89q0 63 47.5 100.5t118.5 37.5q79 0 127 -22v-75q-46 28 -126 28q-40 0 -63.5 -18.5t-23.5 -47.5q0 -18 7 -31.5t27.5 -26.5
t30 -17.5t41.5 -18.5q64 -26 100 -59t36 -89zM257 560h-69l99 156h94z" />
    <glyph glyph-name="uni015E" unicode="&#x15e;" horiz-adv-x="524" 
d="M467 179q0 -89 -61 -137.5t-157 -48.5q-106 0 -180 43v87q73 -55 178 -55q63 0 99 28t36 81q0 22 -8.5 39.5t-28 32t-37 24t-47.5 23.5q-6 3 -18 8q-43 19 -65.5 31t-53 35.5t-44.5 54.5t-14 72q0 86 61.5 134.5t154.5 48.5q87 0 148 -31v-85q-61 40 -146 40
q-61 0 -97 -28.5t-36 -74.5q0 -24 9.5 -43t33.5 -35.5t41 -25t53 -24.5l52 -23.5t46.5 -27t43 -36t26 -46t11.5 -61.5zM313 -122q0 -54 -38.5 -91t-111.5 -39v58q84 6 84 71q0 34 -23 72h71q18 -25 18 -71z" />
    <glyph glyph-name="uni015F" unicode="&#x15f;" horiz-adv-x="412" 
d="M378 135q0 -65 -45.5 -103t-124.5 -38q-92 0 -149 31v77q67 -40 144 -40q46 0 70 18t24 49q0 36 -26.5 56t-88.5 45q-57 22 -91.5 55t-34.5 89q0 63 47.5 100.5t118.5 37.5q79 0 127 -22v-75q-46 28 -126 28q-40 0 -63.5 -18.5t-23.5 -47.5q0 -18 7 -31.5t27.5 -26.5
t30 -17.5t41.5 -18.5q64 -26 100 -59t36 -89zM277 -122q0 -54 -38.5 -91t-111.5 -39v58q84 6 84 71q0 34 -23 72h71q18 -25 18 -71z" />
    <glyph glyph-name="Scaron" unicode="&#x160;" horiz-adv-x="524" 
d="M467 179q0 -89 -61 -137.5t-157 -48.5q-106 0 -180 43v87q73 -55 178 -55q63 0 99 28t36 81q0 22 -8.5 39.5t-28 32t-37 24t-47.5 23.5q-6 3 -18 8q-43 19 -65.5 31t-53 35.5t-44.5 54.5t-14 72q0 86 61.5 134.5t154.5 48.5q87 0 148 -31v-85q-61 40 -146 40
q-61 0 -97 -28.5t-36 -74.5q0 -24 9.5 -43t33.5 -35.5t41 -25t53 -24.5l52 -23.5t46.5 -27t43 -36t26 -46t11.5 -61.5zM301 726h-76l-127 156h80l86 -105l84 105h80z" />
    <glyph glyph-name="scaron" unicode="&#x161;" horiz-adv-x="412" 
d="M378 135q0 -65 -45.5 -103t-124.5 -38q-92 0 -149 31v77q67 -40 144 -40q46 0 70 18t24 49q0 36 -26.5 56t-88.5 45q-57 22 -91.5 55t-34.5 89q0 63 47.5 100.5t118.5 37.5q79 0 127 -22v-75q-46 28 -126 28q-40 0 -63.5 -18.5t-23.5 -47.5q0 -18 7 -31.5t27.5 -26.5
t30 -17.5t41.5 -18.5q64 -26 100 -59t36 -89zM269 560h-76l-127 156h80l86 -105l84 105h80z" />
    <glyph glyph-name="uni0162" unicode="&#x162;" horiz-adv-x="482" 
d="M463 603h-182v-603h-81v603h-182v71h445v-71zM295 -122q0 -54 -38.5 -91t-111.5 -39v58q84 6 84 71q0 34 -23 72h71q18 -25 18 -71z" />
    <glyph glyph-name="uni0163" unicode="&#x163;" horiz-adv-x="369" 
d="M327 13q-33 -18 -74 -18q-150 0 -150 153v295h-81v64h81v126h79v-126h140v-64h-140v-297q0 -81 76 -81q39 0 69 23v-75zM251 -122q0 -54 -38.5 -91t-111.5 -39v58q84 6 84 71q0 34 -23 72h71q18 -25 18 -71z" />
    <glyph glyph-name="Tcaron" unicode="&#x164;" horiz-adv-x="482" 
d="M463 603h-182v-603h-81v603h-182v71h445v-71zM279 727h-76l-127 156h80l86 -105l84 105h80z" />
    <glyph glyph-name="tcaron" unicode="&#x165;" horiz-adv-x="369" 
d="M327 13q-33 -18 -74 -18q-150 0 -150 153v295h-81v64h81v126h79v-126h140v-64h-140v-297q0 -81 76 -81q39 0 69 23v-75zM306 567h-65l85 193h91z" />
    <glyph glyph-name="Umacron" unicode="&#x16a;" horiz-adv-x="645" 
d="M569 256q0 -130 -65.5 -197t-182.5 -67q-115 0 -180 65.5t-65 190.5v426h81v-425q0 -93 44.5 -137t119.5 -44q167 0 167 186v420h81v-418zM467 777h-282v56h282v-56z" />
    <glyph glyph-name="umacron" unicode="&#x16b;" horiz-adv-x="540" 
d="M467 0h-79v88q-40 -94 -159 -94q-75 0 -118.5 44.5t-43.5 119.5v349h79v-329q0 -55 28 -84t76 -29q63 0 100.5 44t37.5 119v279h79v-507zM408 610h-282v56h282v-56z" />
    <glyph glyph-name="Uring" unicode="&#x16e;" horiz-adv-x="645" 
d="M569 256q0 -130 -65.5 -197t-182.5 -67q-115 0 -180 65.5t-65 190.5v426h81v-425q0 -93 44.5 -137t119.5 -44q167 0 167 186v420h81v-418zM431 822q0 -44 -31 -75t-75 -31t-75 31t-31 75t31 75.5t75 31.5t75 -31.5t31 -75.5zM272 823q0 -22 15.5 -38t37.5 -16t38 16
t16 38q0 23 -15.5 38.5t-38.5 15.5q-22 0 -37.5 -15.5t-15.5 -38.5z" />
    <glyph glyph-name="uring" unicode="&#x16f;" horiz-adv-x="540" 
d="M467 0h-79v88q-40 -94 -159 -94q-75 0 -118.5 44.5t-43.5 119.5v349h79v-329q0 -55 28 -84t76 -29q63 0 100.5 44t37.5 119v279h79v-507zM381 656q0 -44 -31 -75t-75 -31t-75 31t-31 75t31 75.5t75 31.5t75 -31.5t31 -75.5zM222 657q0 -22 15.5 -38t37.5 -16t38 16t16 38
q0 23 -15.5 38.5t-38.5 15.5q-22 0 -37.5 -15.5t-15.5 -38.5z" />
    <glyph glyph-name="Uhungarumlaut" unicode="&#x170;" horiz-adv-x="645" 
d="M569 256q0 -130 -65.5 -197t-182.5 -67q-115 0 -180 65.5t-65 190.5v426h81v-425q0 -93 44.5 -137t119.5 -44q167 0 167 186v420h81v-418zM428 727h-61l101 156h94zM272 727h-61l96 156h92z" />
    <glyph glyph-name="uhungarumlaut" unicode="&#x171;" horiz-adv-x="540" 
d="M467 0h-79v88q-40 -94 -159 -94q-75 0 -118.5 44.5t-43.5 119.5v349h79v-329q0 -55 28 -84t76 -29q63 0 100.5 44t37.5 119v279h79v-507zM379 560h-61l101 156h94zM223 560h-61l96 156h92z" />
    <glyph glyph-name="Uogonek" unicode="&#x172;" horiz-adv-x="645" 
d="M569 256q0 -200 -150 -249q-112 -56 -112 -125q0 -29 17.5 -44t47.5 -15q39 0 68 22v-61q-32 -19 -79 -19q-58 0 -90 31t-32 79q0 63 60 118q-105 6 -164 71t-59 184v426h81v-425q0 -93 44.5 -137t119.5 -44q167 0 167 186v420h81v-418z" />
    <glyph glyph-name="uogonek" unicode="&#x173;" horiz-adv-x="540" 
d="M487 -223q-32 -19 -79 -19q-58 0 -90 31t-32 79q0 45 28.5 83.5t73.5 64.5v72q-40 -94 -159 -94q-75 0 -118.5 44.5t-43.5 119.5v349h79v-329q0 -55 28 -84t76 -29q63 0 100.5 44t37.5 119v279h79v-507q-113 -56 -113 -125q0 -29 17.5 -44t47.5 -15q39 0 68 22v-61z" />
    <glyph glyph-name="Ydieresis" unicode="&#x178;" horiz-adv-x="593" 
d="M336 0h-81v250l-229 424h94l51 -99l83 -163t36 -76l5 -12q9 25 127 251l51 99h94l-231 -423v-251zM450 805q0 -22 -15 -37t-37 -15t-36.5 15t-14.5 37t14.5 36.5t36.5 14.5t37 -14.5t15 -36.5zM248 805q0 -22 -14.5 -37t-36.5 -15t-37 15t-15 37t15 36.5t37 14.5
t36.5 -14.5t14.5 -36.5z" />
    <glyph glyph-name="Zacute" unicode="&#x179;" horiz-adv-x="569" 
d="M517 0h-465v67l356 538h-351v69h445v-66l-356 -539h371v-69zM332 727h-69l99 156h94z" />
    <glyph glyph-name="zacute" unicode="&#x17a;" horiz-adv-x="453" 
d="M409 0h-365v62l257 375h-247v70h341v-58l-260 -378h274v-71zM269 560h-69l99 156h94z" />
    <glyph glyph-name="Zdotaccent" unicode="&#x17b;" horiz-adv-x="569" 
d="M517 0h-465v67l356 538h-351v69h445v-66l-356 -539h371v-69zM343 808q0 -22 -14.5 -37t-36.5 -15t-37 15t-15 37t15 36.5t37 14.5t36.5 -14.5t14.5 -36.5z" />
    <glyph glyph-name="zdotaccent" unicode="&#x17c;" horiz-adv-x="453" 
d="M409 0h-365v62l257 375h-247v70h341v-58l-260 -378h274v-71zM294 638q0 -22 -14.5 -37t-36.5 -15t-37 15t-15 37t15 36.5t37 14.5t36.5 -14.5t14.5 -36.5z" />
    <glyph glyph-name="Zcaron" unicode="&#x17d;" horiz-adv-x="569" 
d="M517 0h-465v67l356 538h-351v69h445v-66l-356 -539h371v-69zM321 727h-76l-127 156h80l86 -105l84 105h80z" />
    <glyph glyph-name="zcaron" unicode="&#x17e;" horiz-adv-x="453" 
d="M409 0h-365v62l257 375h-247v70h341v-58l-260 -378h274v-71zM280 560h-76l-127 156h80l86 -105l84 105h80z" />
    <glyph glyph-name="florin" unicode="&#x192;" horiz-adv-x="392" 
d="M163 -80q-15 -87 -53 -132t-108 -45q-41 0 -68 10v72q27 -11 60 -11q71 0 92 114l65 379h-97v64h108l23 133q15 87 53.5 132t108.5 45q41 0 66 -9v-72q-27 10 -57 10q-73 0 -93 -114l-22 -125h99v-64h-110z" />
    <glyph glyph-name="uni0218" unicode="&#x218;" horiz-adv-x="524" 
d="M467 179q0 -89 -61 -137.5t-157 -48.5q-106 0 -180 43v87q73 -55 178 -55q63 0 99 28t36 81q0 22 -8.5 39.5t-28 32t-37 24t-47.5 23.5q-6 3 -18 8q-43 19 -65.5 31t-53 35.5t-44.5 54.5t-14 72q0 86 61.5 134.5t154.5 48.5q87 0 148 -31v-85q-61 40 -146 40
q-61 0 -97 -28.5t-36 -74.5q0 -24 9.5 -43t33.5 -35.5t41 -25t53 -24.5l52 -23.5t46.5 -27t43 -36t26 -46t11.5 -61.5zM201 -243h-65l84 192h92z" />
    <glyph glyph-name="uni0219" unicode="&#x219;" horiz-adv-x="412" 
d="M378 135q0 -65 -45.5 -103t-124.5 -38q-92 0 -149 31v77q67 -40 144 -40q46 0 70 18t24 49q0 36 -26.5 56t-88.5 45q-57 22 -91.5 55t-34.5 89q0 63 47.5 100.5t118.5 37.5q79 0 127 -22v-75q-46 28 -126 28q-40 0 -63.5 -18.5t-23.5 -47.5q0 -18 7 -31.5t27.5 -26.5
t30 -17.5t41.5 -18.5q64 -26 100 -59t36 -89zM152 -243h-65l84 192h92z" />
    <glyph glyph-name="uni021A" unicode="&#x21a;" horiz-adv-x="482" 
d="M173 -243h-65l84 192h92zM463 603h-182v-603h-81v603h-182v71h445v-71z" />
    <glyph glyph-name="uni021B" unicode="&#x21b;" horiz-adv-x="369" 
d="M327 13q-33 -18 -74 -18q-150 0 -150 153v295h-81v64h81v126h79v-126h140v-64h-140v-297q0 -81 76 -81q39 0 69 23v-75zM177 -243h-65l84 192h92z" />
    <glyph glyph-name="circumflex" unicode="&#x2c6;" horiz-adv-x="421" 
d="M125 642h-80l127 156h76l127 -156h-80l-85 105z" />
    <glyph glyph-name="caron" unicode="&#x2c7;" horiz-adv-x="421" 
d="M248 642h-76l-127 156h80l86 -105l84 105h80z" />
    <glyph glyph-name="uni02C9" unicode="&#x2c9;" horiz-adv-x="421" 
d="M351 693h-282v56h282v-56z" />
    <glyph glyph-name="breve" unicode="&#x2d8;" horiz-adv-x="421" 
d="M375 798q0 -73 -41 -116t-123 -43t-123.5 43t-41.5 116h65q0 -46 24 -74t76 -28q51 0 75 28t24 74h65z" />
    <glyph glyph-name="dotaccent" unicode="&#x2d9;" horiz-adv-x="421" 
d="M262 724q0 -22 -14.5 -37t-36.5 -15t-37 15t-15 37t15 36.5t37 14.5t36.5 -14.5t14.5 -36.5z" />
    <glyph glyph-name="ring" unicode="&#x2da;" horiz-adv-x="421" 
d="M316 720q0 -44 -31 -75t-75 -31t-75 31t-31 75t31 75.5t75 31.5t75 -31.5t31 -75.5zM157 721q0 -22 15.5 -38t37.5 -16t38 16t16 38q0 23 -16 38.5t-38 15.5t-37.5 -15.5t-15.5 -38.5z" />
    <glyph glyph-name="ogonek" unicode="&#x2db;" horiz-adv-x="421" 
d="M311 -212q-32 -19 -79 -19q-58 0 -90 31t-32 79q0 58 45.5 104t104.5 66l31 -38q-113 -56 -113 -125q0 -29 17.5 -44t47.5 -15q39 0 68 22v-61z" />
    <glyph glyph-name="tilde" unicode="&#x2dc;" horiz-adv-x="421" 
d="M161 702q-41 0 -68 -48l-43 37q14 30 41.5 50.5t59.5 20.5q30 0 73 -22t61 -22q34 0 54 43l49 -34q-32 -69 -99 -69q-27 0 -69.5 22t-58.5 22z" />
    <glyph glyph-name="hungarumlaut" unicode="&#x2dd;" horiz-adv-x="421" 
d="M252 642h-61l101 156h94zM96 642h-61l96 156h92z" />
    <glyph glyph-name="pi" unicode="&#x3c0;" horiz-adv-x="582" 
d="M564 443h-95v-443h-79v443h-191v-278q0 -91 -40.5 -128t-117.5 -37v69q44 0 61.5 19t17.5 74v281h-96v64h540v-64z" />
    <glyph glyph-name="tlArasunna" unicode="&#xc01;" horiz-adv-x="278" 
d="M260 56v-65q-95 0 -156.5 79t-61.5 206t61.5 206.5t156.5 79.5v-67q-60 0 -99.5 -58t-39.5 -161t39.5 -161.5t99.5 -58.5z" />
    <glyph glyph-name="tlAnusvara" unicode="&#xc02;" horiz-adv-x="577" 
d="M533 274q0 -129 -67 -206t-178 -77t-178.5 76.5t-67.5 204.5q0 125 67.5 202.5t178.5 77.5q112 0 178.5 -77t66.5 -201zM124 273q0 -98 45.5 -157.5t118.5 -59.5t118.5 59.5t45.5 156.5q0 96 -45.5 156.5t-118.5 60.5q-72 0 -118 -60.5t-46 -155.5z" />
    <glyph glyph-name="tlVisarga" unicode="&#xc03;" horiz-adv-x="351" 
d="M312 432q0 -58 -37.5 -93.5t-99.5 -35.5t-99 35.5t-37 93.5q0 55 38 92t98 37q62 0 99.5 -36.5t37.5 -92.5zM312 120q0 -57 -37.5 -93t-99.5 -36t-99 36t-37 93q0 55 38 92.5t98 37.5q62 0 99.5 -36.5t37.5 -93.5zM111 120q0 -31 17.5 -50t46.5 -19q31 0 47 18.5t16 50.5
t-16.5 51t-46.5 19q-29 0 -46.5 -19t-17.5 -51zM111 432q0 -32 17.5 -51t46.5 -19q31 0 47 19t16 51q0 31 -17 50.5t-46 19.5t-46.5 -19.5t-17.5 -50.5z" />
    <glyph glyph-name="tlA" unicode="&#xc05;" horiz-adv-x="814" 
d="M775 341q0 -159 -107.5 -254.5t-264.5 -95.5q-151 0 -257.5 92.5t-106.5 242.5q0 97 52 166.5t134 69.5q67 0 107 -42t40 -101q0 -62 -39 -103.5t-105 -41.5q-42 0 -74.5 22t-45.5 59q-1 -7 -1 -21q0 -125 87 -201.5t208 -76.5q133 0 213.5 80t80.5 212q0 67 -27.5 109.5
t-72.5 42.5q-35 0 -55 -23.5t-20 -60.5q0 -34 23.5 -63.5t64.5 -35.5v-66h-250v66h147q-57 35 -57 109q0 56 41 96t101 40q84 0 134 -63t50 -158zM139 416q0 -35 21.5 -57.5t57.5 -22.5t56.5 24t20.5 59q0 34 -21 56t-57 22q-34 0 -56 -25t-22 -56z" />
    <glyph glyph-name="tlAA" unicode="&#xc06;" horiz-adv-x="775" 
d="M531 432q0 -16 5 -30t19 -30.5t20 -22.5l27 -26q68 26 68 97q0 35 -20 57.5t-53 22.5q-30 0 -48 -19.5t-18 -48.5zM668 207q0 -94 -82.5 -155t-205.5 -61q-149 0 -246 93t-97 244q0 96 52 165t134 69q67 0 107 -42t40 -101q0 -62 -39 -103.5t-105 -41.5q-41 0 -73.5 21.5
t-45.5 57.5q-1 -8 -1 -22q0 -125 78.5 -200t197.5 -75q94 0 151 41.5t57 109.5q0 23 -13 43q-26 -2 -39 -2h-181v64h161q-59 59 -59 121q0 56 38.5 92.5t100.5 36.5q65 0 105 -40.5t40 -101.5q0 -48 -25 -87.5t-70 -61.5q20 -30 20 -64zM137 416q0 -35 21.5 -57.5
t58.5 -22.5q36 0 56 24t20 59q0 34 -20.5 56t-57.5 22q-34 0 -56 -25t-22 -56z" />
    <glyph glyph-name="tlI" unicode="&#xc07;" horiz-adv-x="627" 
d="M508 -53h-77q0 46 -8 89q-67 -45 -146 -45q-80 0 -130 34.5t-50 99.5q0 59 49.5 98.5t121.5 39.5q118 0 185 -104q59 89 59 193q0 63 -22.5 103.5t-67.5 40.5q-41 0 -62 -31t-21 -80v-34h-78v35q0 47 -23.5 78.5t-64.5 31.5q-40 0 -61 -28t-21 -70q0 -38 13 -73h-78
q-13 36 -13 78q0 67 42 113.5t111 46.5q57 0 92.5 -32t41.5 -82q5 50 39.5 82t88.5 32q78 0 119 -61t41 -152q0 -68 -27 -137.5t-75 -122.5q22 -68 22 -143zM277 55q70 0 126 48q-42 95 -135 95q-41 0 -66.5 -20.5t-25.5 -54.5q0 -32 26 -50t75 -18z" />
    <glyph glyph-name="tlII" unicode="&#xc08;" horiz-adv-x="946" 
d="M916 152q0 -57 -39.5 -94t-100.5 -37t-97.5 33t-36.5 88q0 52 44 101h-103q-8 -115 -74 -183.5t-170 -68.5t-170.5 68.5t-73.5 183.5h-67v61h67q7 88 50.5 150.5t114.5 85.5l-91 109h95l77 -97l163 214h89l-174 -226q71 -23 114 -85.5t50 -150.5h105q36 0 61 -4
q24 19 36.5 31t23.5 29t11 33q0 28 -20 44t-55 16q-38 0 -90 -25v70q49 21 107 21q62 0 98.5 -33.5t36.5 -84.5q0 -59 -73 -121q92 -38 92 -128zM777 86q30 0 48 18t18 45q0 66 -74 86q-54 -49 -54 -91q0 -27 17 -42.5t45 -15.5zM339 489q-66 0 -111 -51t-53 -134h326
q-8 83 -52 134t-110 51zM340 56q66 0 110 51t51 136h-326q7 -85 52.5 -136t112.5 -51z" />
    <glyph glyph-name="tlU" unicode="&#xc09;" horiz-adv-x="801" 
d="M406 104q-6 -50 -42.5 -81.5t-94.5 -31.5q-85 0 -135.5 58.5t-50.5 158.5q0 46 12 90h-80v60h102q36 76 104 127t158 63l-3 105h76l-3 -102q96 -4 198 -52v-77q-111 64 -217 64q-76 0 -133.5 -35t-91.5 -93h580v-60h-47q27 -41 27 -96q0 -91 -51 -151t-139 -60
q-66 0 -112.5 31.5t-56.5 81.5zM576 47q42 0 72.5 24t43.5 62q-29 -27 -71 -27q-52 0 -86 34t-34 85q0 41 21 73h-344q-15 -45 -15 -91q0 -71 30 -111t81 -40q43 0 67.5 32.5t24.5 85.5v43h78v-30q0 -61 36 -100.5t96 -39.5zM566 227q0 -28 17.5 -46.5t48.5 -18.5
q29 0 46.5 20t17.5 48t-17.5 48t-46.5 20q-31 0 -48.5 -21t-17.5 -50z" />
    <glyph glyph-name="tlUU" unicode="&#xc0a;" horiz-adv-x="1102" 
d="M1072 209q0 -58 -39.5 -95t-100.5 -37q-60 0 -96.5 33.5t-36.5 88.5q0 53 44 99h-105q27 -41 27 -96q0 -91 -51 -151t-139 -60q-66 0 -112.5 31.5t-56.5 81.5q-6 -50 -42.5 -81.5t-94.5 -31.5q-85 0 -135.5 58.5t-50.5 158.5q0 46 12 90h-80v60h102q63 132 200 176
l-3 119h76l-2 -104q28 2 42 2q18 0 26 -1l-3 103h77l-4 -112q59 -13 121 -42v-77q-111 64 -217 64q-76 0 -133.5 -35t-91.5 -93h639q38 0 66 -4q22 17 33.5 27.5t22 26t10.5 31.5q0 54 -69 54q-44 0 -96 -27v69q53 24 107 24q62 0 99 -30.5t37 -80.5q0 -57 -70 -114
q88 -38 88 -125zM933 142q30 0 48 18t18 45q0 65 -73 85q-55 -46 -55 -89q0 -27 17 -43t45 -16zM576 47q42 0 72.5 24t43.5 62q-29 -27 -71 -27q-52 0 -86 34t-34 85q0 41 21 73h-344q-15 -45 -15 -91q0 -71 30 -111t81 -40q43 0 67.5 32.5t24.5 85.5v43h78v-30
q0 -61 36 -100.5t96 -39.5zM566 227q0 -28 17.5 -46.5t48.5 -18.5q29 0 46.5 20t17.5 48t-17.5 48t-46.5 20q-31 0 -48.5 -21t-17.5 -50z" />
    <glyph glyph-name="tlvR" unicode="&#xc0b;" horiz-adv-x="1425" 
d="M359 102q-13 -54 -54.5 -82.5t-104.5 -28.5q-74 0 -120 40t-46 106q0 45 23.5 80.5t57 58.5l66.5 44t56.5 46.5t23.5 55.5q0 34 -17 54.5t-48 20.5q-32 0 -51 -20t-19 -57q0 -17 5 -40h-75q-6 22 -6 44q0 62 39 100.5t107 38.5q65 0 103.5 -40.5t38.5 -98.5
q0 -41 -23 -74.5t-56 -56.5l-66.5 -44.5t-56.5 -49.5t-23 -61q0 -38 25 -60t68 -22q52 0 83 33t31 85v44h79v-44q0 -53 27 -85.5t73 -32.5q57 0 85 56.5t28 143.5q0 105 -42.5 169t-121.5 64q-11 0 -33 -4v70q22 4 37 4q109 0 172 -82t66 -209q0 -98 36 -155t100 -57
q57 0 94 53.5t37 150.5t-53 161t-140 64v68q128 0 200 -83t72 -205v-4q0 -98 35.5 -151.5t99.5 -53.5q57 0 94 53.5t37 150.5t-53 161t-140 64v68q128 0 200 -83t72 -205q0 -133 -56 -203.5t-150 -70.5q-122 0 -169 114q-53 -114 -177 -114q-117 0 -166 114
q-47 -114 -161 -114q-59 0 -97 29.5t-46 81.5z" />
    <glyph glyph-name="tlvL" unicode="&#xc0c;" horiz-adv-x="970" 
d="M926 248q0 -167 -101 -269t-244 -102q-107 0 -175 49t-68 134q0 51 26 90t63.5 64l75 48t63.5 56t26 75q0 45 -27.5 74t-74.5 29q-53 0 -80 -36.5t-27 -87.5v-39h-78v39q0 53 -26.5 88.5t-80.5 35.5q-46 0 -72 -33.5t-26 -77.5q0 -45 23 -95h-78q-23 46 -23 102
q0 69 47 120t124 51q68 0 107.5 -35.5t44.5 -85.5q3 48 44 84.5t106 36.5q81 0 128 -49t47 -120q0 -47 -18.5 -84.5t-47 -60t-61 -44.5l-61 -40t-47 -45.5t-18.5 -61.5q0 -56 45.5 -86.5t120.5 -30.5q111 0 188 88t77 218q0 94 -35.5 162t-106.5 68v76q101 0 160.5 -83.5
t59.5 -221.5z" />
    <glyph glyph-name="tlE" unicode="&#xc0e;" horiz-adv-x="707" 
d="M464 -9q-93 0 -157 105q-11 -48 -47 -77t-89 -29q-68 0 -109.5 40t-41.5 104q0 63 43.5 105t106.5 42q45 0 82 -23t62 -56t46.5 -66.5t47.5 -56.5t54 -23q58 0 90 62t32 167q0 140 -67.5 228.5t-173.5 88.5q-36 0 -72 -8v68q37 10 78 10q150 0 232 -108t82 -277
q0 -140 -52.5 -218t-146.5 -78zM95 136q0 -36 21 -59.5t58 -23.5t58.5 23.5t21.5 59.5q0 35 -21.5 58.5t-59.5 23.5q-34 0 -56 -24t-22 -58z" />
    <glyph glyph-name="tlEE" unicode="&#xc0f;" horiz-adv-x="707" 
d="M464 -9q-93 0 -157 105q-11 -48 -47 -77t-89 -29q-68 0 -109.5 40t-41.5 104q0 63 43.5 105t106.5 42q45 0 82 -23t62 -56t46.5 -66.5t47.5 -56.5t54 -23q58 0 90 62t32 167q0 140 -67.5 228.5t-173.5 88.5q-36 0 -72 -8v68q37 10 78 10q150 0 232 -108t82 -277
q0 -140 -52.5 -218t-146.5 -78zM95 136q0 -36 21 -59.5t58 -23.5t58.5 23.5t21.5 59.5q0 35 -21.5 58.5t-59.5 23.5q-34 0 -56 -24t-22 -58zM278 541v-62q-65 0 -106.5 42t-41.5 107q0 69 41.5 112.5t106.5 42.5v-62q-33 -1 -53 -25.5t-20 -63.5q0 -40 19.5 -65t53.5 -26z
" />
    <glyph glyph-name="tlAI" unicode="&#xc10;" horiz-adv-x="701" 
d="M469 -9q-98 0 -157 102q-11 -47 -47.5 -75t-89.5 -28q-67 0 -108.5 40t-41.5 104q0 63 43.5 105t106.5 42q41 0 74 -16.5t53.5 -41.5t41 -54.5t36 -54.5t38.5 -41.5t50 -16.5q55 0 82.5 58t27.5 152q0 106 -30 168t-86 62q-44 0 -70.5 -32t-26.5 -85v-25h-79v26
q0 52 -26.5 84t-71.5 32q-39 0 -61 -27t-22 -64t11 -66h-78q-11 32 -11 69q0 65 43.5 110t112.5 45q57 0 97 -31.5t46 -80.5q8 49 44.5 80t92.5 31q93 0 143.5 -80t50.5 -216q0 -127 -48.5 -201t-139.5 -74zM100 136q0 -36 21 -59.5t58 -23.5t58 23.5t21 59.5
q0 35 -21.5 58.5t-58.5 23.5q-34 0 -56 -24t-22 -58z" />
    <glyph glyph-name="tlO" unicode="&#xc12;" horiz-adv-x="712" 
d="M359 102q-11 -53 -53.5 -82t-105.5 -29q-74 0 -120 40t-46 106q0 45 23.5 80.5t57 58.5l66.5 44t56.5 46.5t23.5 55.5q0 34 -17 54.5t-48 20.5q-32 0 -51 -20t-19 -57q0 -17 5 -40h-75q-6 22 -6 44q0 62 39 100.5t107 38.5q65 0 103.5 -40.5t38.5 -98.5q0 -41 -23 -74.5
t-56 -56.5l-66.5 -44.5t-56.5 -49.5t-23 -61q0 -38 25 -60t68 -22q52 0 83 33t31 85v44h79v-44q0 -53 27.5 -85.5t77.5 -32.5q47 0 73 34.5t26 83.5t-23.5 80t-68.5 31q-16 0 -29 -4v68q16 5 39 5q72 0 116 -48t44 -130q0 -79 -47.5 -132t-127.5 -53q-61 0 -100 29t-47 82z
" />
    <glyph glyph-name="tlOO" unicode="&#xc13;" horiz-adv-x="712" 
d="M359 102q-11 -53 -53.5 -82t-105.5 -29q-74 0 -120 40t-46 106q0 45 23.5 80.5t57 58.5l66.5 44t56.5 46.5t23.5 55.5q0 34 -17 54.5t-48 20.5q-32 0 -51 -20t-19 -57q0 -17 5 -40h-75q-6 22 -6 44q0 62 39 100.5t107 38.5q-47 36 -47 85q0 20 8 39h84q-9 -25 -9 -50
q0 -61 63 -109h-1q44 -41 44 -104q0 -41 -23 -74.5t-56 -56.5l-66.5 -44.5t-56.5 -49.5t-23 -61q0 -38 25 -60t68 -22q52 0 83 33t31 85v44h79v-44q0 -53 27.5 -85.5t77.5 -32.5q47 0 73 34.5t26 83.5t-23.5 80t-68.5 31q-16 0 -29 -4v68q16 5 39 5q72 0 116 -48t44 -130
q0 -79 -47.5 -132t-127.5 -53q-61 0 -100 29t-47 82z" />
    <glyph glyph-name="tlAU" unicode="&#xc14;" horiz-adv-x="757" 
d="M357 102q-11 -53 -53 -82t-105 -29q-74 0 -119.5 40t-45.5 106q0 45 23.5 80t57 57l67 42t57 45t23.5 55q0 29 -18 48.5t-49 19.5q-34 0 -51.5 -19.5t-17.5 -53.5q0 -18 4 -34h-72q-4 19 -4 40q0 45 23 76h-33v62h191q28 0 43 12.5t15 34.5q0 52 -67 52h-183v66h493
q89 0 133 -42.5t44 -108.5q0 -55 -37.5 -93t-97.5 -38q-62 0 -99.5 34.5t-37.5 88.5q0 60 37 93h-139q31 -23 31 -64q0 -65 -68 -88q34 -32 34 -84q0 -42 -23 -75t-55.5 -54.5l-65.5 -42t-56 -48t-23 -60.5q0 -38 24.5 -60t67.5 -22q50 0 81.5 33t31.5 85v44h78v-44
q0 -53 29.5 -85.5t81.5 -32.5q44 0 70 28t26 73q0 41 -22 64t-58 23q-22 0 -46 -8v69q27 8 55 8q68 0 109 -43.5t41 -111.5q0 -75 -48.5 -121t-125.5 -46q-65 0 -104 29t-47 82zM513 572q0 -31 16.5 -50.5t47.5 -19.5q28 0 45 19.5t17 48.5q0 32 -16 53.5t-46 21.5
q-31 0 -47.5 -21.5t-16.5 -51.5z" />
    <glyph glyph-name="tlKA" unicode="&#xc15;" horiz-adv-x="427" 
d="M378 155q0 -71 -53 -115t-135 -44q-91 0 -161 36v74q83 -45 157 -45q55 0 82.5 24.5t27.5 66.5q0 36 -27.5 59t-66.5 36t-78 28t-66.5 47.5t-27.5 82.5q0 42 24 76.5t68 53.5l-95 114h95l77 -97l163 214h89l-167 -218q30 -5 54 -14v-72q-53 25 -114 25q-53 0 -83.5 -22.5
t-30.5 -59.5q0 -31 27.5 -51.5t67 -33.5t79 -29.5t67 -50.5t27.5 -85z" />
    <glyph glyph-name="tlKHA" unicode="&#xc16;" horiz-adv-x="853" 
d="M524 330q0 -132 -80 -228q68 -42 123 -42q74 0 118.5 59t44.5 150q0 90 -40 149t-115 66v68q110 -3 172 -81.5t62 -198.5q0 -123 -66 -202t-174 -79q-83 0 -175 63q-82 -63 -188 -63q-86 0 -136 36t-50 98q0 53 39.5 89t98.5 36q30 0 57 -6.5t60 -25.5t45.5 -27.5
t51.5 -37.5q9 -7 14 -10q61 78 61 190q0 67 -30 115.5t-78 48.5q-33 0 -50 -17.5t-17 -44.5q0 -25 17 -40t47 -15q37 0 63 15v-60q-34 -17 -76 -17q-53 0 -89.5 31.5t-36.5 84.5q0 54 39.5 91t100.5 37q83 0 135 -67t52 -165zM208 55q72 0 129 41l-59 45.5t-49 27.5t-59 15
q-34 0 -53.5 -17.5t-19.5 -43.5q0 -32 30 -50t81 -18zM445 -180h-98v14l29 168h40l29 -168v-14z" />
    <glyph glyph-name="tlGA" unicode="&#xc17;" horiz-adv-x="529" 
d="M450 0h-83q32 98 32 224q0 113 -36 189t-105 76q-70 0 -106.5 -76t-36.5 -189q0 -126 32 -224h-84q-27 96 -27 218q0 115 36.5 201t107.5 117l-94 113h96l77 -97l162 214h89l-175 -229q71 -31 107 -117t36 -202q0 -118 -28 -218z" />
    <glyph glyph-name="tlGHA" unicode="&#xc18;" horiz-adv-x="1072" 
d="M380 -181h-97v14l28 167h40l29 -167v-14zM117 136q0 -37 20.5 -60t56.5 -23q38 0 59 23.5t21 59.5q0 35 -21.5 58.5t-59.5 23.5q-34 0 -55 -24t-21 -58zM211 487h-82l-131 162h95l76 -97l161 214h91zM1028 264q0 -131 -60.5 -202.5t-158.5 -71.5q-118 0 -160 106
q-50 -105 -164 -105q-100 0 -157 103q-12 -48 -48 -76t-89 -28q-67 0 -109 40t-42 104q0 63 44 105t107 42q47 0 83.5 -23t60 -56t44.5 -66.5t47.5 -56.5t57.5 -23q55 0 86 53.5t31 140.5q0 102 -54 169.5t-146 67.5q-39 0 -79 -10v68q43 10 81 10q132 0 204.5 -83.5
t72.5 -219.5q0 -91 32.5 -144t91.5 -53q62 0 103.5 53.5t41.5 150.5t-53 161.5t-140 64.5v67q128 0 200 -83t72 -205z" />
    <glyph glyph-name="tlNGA" unicode="&#xc19;" horiz-adv-x="722" 
d="M359 102q-11 -53 -53.5 -82t-105.5 -29q-74 0 -120 40t-46 106q0 45 23.5 80.5t57 58.5l66.5 44t56.5 46.5t23.5 55.5q0 34 -17 54.5t-48 20.5q-32 0 -51 -20t-19 -57q0 -17 5 -40h-75q-6 22 -6 44q0 62 39 100.5t107 38.5q50 0 85 -25t49 -66h113v93h77v-93h131v-64
h-314q-4 -37 -28.5 -67.5t-57 -52l-64 -43t-53 -48.5t-21.5 -59q0 -38 25 -60t68 -22q52 0 83 33t31 85v44h79v-44q0 -53 27.5 -85.5t75.5 -32.5q46 0 72 30.5t26 78.5q0 99 -98 99q-12 0 -26 -3v67q18 3 36 3q77 0 121.5 -46t44.5 -121q0 -72 -47.5 -122.5t-125.5 -50.5
q-61 0 -99.5 29.5t-46.5 81.5z" />
    <glyph glyph-name="tlCA" unicode="&#xc1a;" horiz-adv-x="722" 
d="M370 102q-8 -48 -47.5 -79.5t-98.5 -31.5q-74 0 -120.5 40t-46.5 107q0 83 67 124h-96v67h220v-67q-55 -1 -83.5 -33.5t-28.5 -79.5q0 -42 25 -67.5t69 -25.5q45 0 73 33t28 85v43h78v-43q0 -52 25 -85t70 -33q48 0 74.5 42.5t26.5 106.5q0 116 -77.5 199t-203.5 83h-6
l-132 162h96l76 -97l161 214h91l-179 -236q118 -28 185 -114.5t67 -202.5q0 -99 -48 -160.5t-125 -61.5q-62 0 -98.5 31t-41.5 80z" />
    <glyph glyph-name="tlCHA" unicode="&#xc1b;" horiz-adv-x="722" 
d="M370 102q-8 -48 -47.5 -79.5t-98.5 -31.5q-74 0 -120.5 40t-46.5 107q0 83 67 124h-96v67h220v-67q-55 -1 -83.5 -33.5t-28.5 -79.5q0 -42 25 -67.5t69 -25.5q45 0 73 33t28 85v43h78v-43q0 -52 25 -85t70 -33q48 0 74.5 42.5t26.5 106.5q0 116 -77.5 199t-203.5 83h-6
l-132 162h96l76 -97l161 214h91l-179 -236q118 -28 185 -114.5t67 -202.5q0 -99 -48 -160.5t-125 -61.5q-62 0 -98.5 31t-41.5 80zM418 -177h-98v14l28 167h41l29 -167v-14z" />
    <glyph glyph-name="tlJA" unicode="&#xc1c;" horiz-adv-x="701" 
d="M359 102q-12 -55 -55 -83t-106 -28q-74 0 -119 40t-45 106q0 44 23.5 80t57 59.5l66.5 45t56.5 47t23.5 54.5q0 34 -17 54t-47 20t-49 -20t-19 -56q0 -19 6 -39h-76q-6 23 -6 46q0 59 39 97t105 38q34 0 64.5 -15t54 -37l46.5 -44t51.5 -37t60.5 -15q38 0 58.5 21.5
t20.5 55.5q0 32 -12 60h73q16 -32 16 -73q0 -58 -41 -94.5t-107 -36.5q-87 0 -149 64q-3 -37 -27 -68.5t-55.5 -53.5l-62.5 -43.5t-52.5 -49.5t-21.5 -60q0 -37 24 -59t64 -22q52 0 85 32t33 86v39h79v-39q0 -51 27.5 -84.5t72.5 -33.5q42 0 64.5 28t22.5 72q0 47 -23 97h78
q21 -53 21 -102q0 -69 -42 -114.5t-115 -45.5q-59 0 -99 29.5t-47 81.5z" />
    <glyph glyph-name="tlJHA" unicode="&#xc1d;" horiz-adv-x="1268" 
d="M533 274v-6q0 -98 35.5 -155t99.5 -57q58 0 95 53.5t37 150.5t-53 161t-140 64v68q128 0 199.5 -83t71.5 -205v-4q0 -97 35.5 -151t100.5 -54q57 0 94 53.5t37 150.5t-53 161t-140 64v68q128 0 200 -83t72 -205q0 -133 -56.5 -203.5t-150.5 -70.5q-122 0 -168 115
q-52 -115 -177 -115q-126 0 -172 129q-30 -61 -85.5 -95t-126.5 -34q-111 0 -178.5 76.5t-67.5 204.5q0 100 44.5 171t121.5 97l-91 109h96l76 -97l163 214h89l-173 -226q77 -25 121 -95.5t44 -170.5zM124 273q0 -98 45.5 -157.5t118.5 -59.5t118.5 59.5t45.5 156.5
q0 96 -45.5 156.5t-118.5 60.5q-72 0 -118 -60.5t-46 -155.5zM899 -190h-101v14l33 178h35l33 -178v-14z" />
    <glyph glyph-name="tlNYA" unicode="&#xc1e;" horiz-adv-x="810" 
d="M508 -53h-77q0 46 -8 89q-67 -45 -146 -45q-80 0 -130 34.5t-50 99.5q0 59 49.5 98.5t121.5 39.5q118 0 185 -104q59 89 59 193q0 63 -22.5 103.5t-67.5 40.5q-41 0 -62 -31t-21 -80v-34h-78v35q0 47 -23.5 78.5t-64.5 31.5q-40 0 -61 -28t-21 -70q0 -38 13 -73h-78
q-13 36 -13 78q0 67 42 113.5t111 46.5q57 0 92.5 -32t41.5 -82q5 50 39.5 82t88.5 32q62 0 101 -39.5t52 -104.5h56v133h77v-133h80v-64h-206v-5q0 -68 -27 -137.5t-75 -122.5q22 -68 22 -143zM277 55q70 0 126 48q-42 95 -135 95q-41 0 -66.5 -20.5t-25.5 -54.5
q0 -32 26 -50t75 -18z" />
    <glyph glyph-name="tlTTA" unicode="&#xc1f;" horiz-adv-x="785" 
d="M394 107q-28 -116 -150 -116q-91 0 -146.5 75t-55.5 200q0 110 45 192t121 97l-3 96h76l-2 -98q47 -13 75.5 -50.5t28.5 -85.5q0 -61 -40.5 -103t-101.5 -42q-41 0 -73 20t-46 55q-7 -47 -7 -74q0 -99 34.5 -158t97.5 -59q52 0 80.5 33.5t28.5 86.5v33h78v-32
q0 -53 27.5 -87t78.5 -34q59 0 90.5 57t31.5 158q0 99 -43.5 159.5t-122.5 60.5q-20 0 -39 -4v68q19 6 49 6q107 0 171 -79.5t64 -209.5t-51 -205.5t-146 -75.5q-62 0 -102 32t-48 84zM153 412q0 -34 21.5 -56.5t58.5 -22.5q34 0 53.5 23.5t19.5 58.5t-20.5 57.5t-55.5 22.5
q-33 0 -55 -24.5t-22 -58.5z" />
    <glyph glyph-name="tlTTHA" unicode="&#xc20;" horiz-adv-x="543" 
d="M533 274q0 -129 -67 -206t-178 -77t-178.5 76.5t-67.5 204.5q0 99 44 170t121 97l-91 110h95l77 -97l163 214h89l-173 -226q77 -25 121.5 -95.5t44.5 -170.5zM124 273q0 -98 45.5 -157.5t118.5 -59.5t118.5 59.5t45.5 156.5q0 96 -45.5 156.5t-118.5 60.5
q-72 0 -118 -60.5t-46 -155.5zM345 273q0 -25 -16 -41t-40 -16q-25 0 -40.5 16t-15.5 41q0 24 15.5 40t40.5 16q24 0 40 -16t16 -40z" />
    <glyph glyph-name="tlDDA" unicode="&#xc21;" horiz-adv-x="752" 
d="M362 104q-6 -50 -43 -81.5t-95 -31.5q-84 0 -134.5 58.5t-50.5 158.5q0 115 69.5 209t184.5 123l-88 109h95l77 -97l160 214h91l-166 -221q65 -11 140 -46v-77q-111 64 -217 64q-82 0 -145 -44t-92.5 -106.5t-29.5 -128.5q0 -71 29.5 -111t80.5 -40q45 0 69 32.5t24 85.5
v43h79v-30q0 -61 35.5 -100.5t96.5 -39.5q41 0 72 24t43 61q-29 -26 -70 -26q-52 0 -86.5 34t-34.5 85q0 54 36 93t93 39q62 0 98.5 -45t36.5 -110q0 -91 -50.5 -151t-139.5 -60q-66 0 -112 31.5t-56 81.5zM521 227q0 -28 17.5 -46.5t48.5 -18.5q29 0 46.5 20t17.5 48
t-17 48t-47 20q-31 0 -48.5 -21t-17.5 -50z" />
    <glyph glyph-name="tlDDHA" unicode="&#xc22;" horiz-adv-x="752" 
d="M362 104q-6 -50 -43 -81.5t-95 -31.5q-84 0 -134.5 58.5t-50.5 158.5q0 115 69.5 209t184.5 123l-88 109h95l77 -97l160 214h91l-166 -221q65 -11 140 -46v-77q-111 64 -217 64q-82 0 -145 -44t-92.5 -106.5t-29.5 -128.5q0 -71 29.5 -111t80.5 -40q45 0 69 32.5t24 85.5
v43h79v-30q0 -61 35.5 -100.5t96.5 -39.5q41 0 72 24t43 61q-29 -26 -70 -26q-52 0 -86.5 34t-34.5 85q0 54 36 93t93 39q62 0 98.5 -45t36.5 -110q0 -91 -50.5 -151t-139.5 -60q-66 0 -112 31.5t-56 81.5zM413 -177h-98v14l28 167h42l28 -167v-14zM521 227
q0 -28 17.5 -46.5t48.5 -18.5q29 0 46.5 20t17.5 48t-17 48t-47 20q-31 0 -48.5 -21t-17.5 -50z" />
    <glyph glyph-name="tlNNA" unicode="&#xc23;" horiz-adv-x="767" 
d="M326 10q-47 -20 -109 -20q-80 0 -129 39.5t-49 110.5q0 56 37 92t93 41q-54 8 -85 44.5t-31 92.5q0 64 48 108t125 44q58 0 99.5 -32t52.5 -81q8 50 45.5 81.5t97.5 31.5q98 0 150 -83.5t52 -217.5q0 -115 -48.5 -192.5t-138.5 -77.5q-68 0 -107 42.5t-39 99.5
q0 60 40 102.5t101 42.5q40 0 71 -19t46 -49q2 36 2 60q0 93 -34.5 159.5t-96.5 66.5q-48 0 -75 -32.5t-27 -85.5v-40h-79v39q0 53 -30 86t-79 33q-42 0 -69 -26t-27 -66q0 -43 26.5 -70t72.5 -27h30v-68h-31q-49 0 -81 -24.5t-32 -66.5q0 -92 115 -92q44 0 93 22v-68z
M465 134q0 -32 21 -55.5t57 -23.5q33 0 55 24.5t22 57.5q0 34 -22 57t-57 23t-55.5 -24t-20.5 -59z" />
    <glyph glyph-name="tlTA" unicode="&#xc24;" horiz-adv-x="757" 
d="M685 253q0 -111 -87.5 -186.5t-240.5 -75.5q-154 0 -241.5 75t-87.5 187q0 65 40 108t106 43q57 0 94 -36t37 -89q0 -57 -36 -92t-93 -35q-35 0 -61 16q30 -53 93 -83t149 -30q84 0 147.5 30.5t93.5 82.5q-23 -16 -60 -16q-57 0 -93.5 35t-36.5 91q0 53 37 89t95 36
q67 0 107 -45q2 16 2 24q0 48 -32.5 76.5t-100.5 28.5h-184l-130 162h95l76 -97l161 214h91l-164 -217h64q96 0 145 -45.5t49 -119.5q0 -63 -34 -121v-10zM99 273q0 -29 17 -46.5t48 -17.5q30 0 48 18t18 47q0 32 -17.5 51t-46.5 19q-31 0 -49 -19.5t-18 -51.5zM482 274
q0 -29 18.5 -47t48.5 -18q31 0 47.5 17.5t16.5 46.5q0 32 -17.5 51.5t-48.5 19.5q-29 0 -47 -19.5t-18 -50.5z" />
    <glyph glyph-name="tlTHA" unicode="&#xc25;" horiz-adv-x="735" 
d="M368 106q-8 -54 -43.5 -84.5t-97.5 -30.5q-86 0 -137 61t-51 164q0 118 68 209t179 118l-88 106h95l76 -97l163 214h89l-171 -224q111 -27 179 -117.5t68 -208.5q0 -103 -51 -164t-137 -61q-61 0 -97 30.5t-44 84.5zM418 -177h-98v14l28 167h42l28 -167v-14zM118 217
q0 -72 31 -116.5t83 -44.5q46 0 71 35t25 91v34h79v-34q0 -56 25.5 -91t73.5 -35q51 0 81.5 44.5t30.5 116.5q0 111 -71.5 190.5t-179.5 79.5t-178.5 -79.5t-70.5 -190.5zM421 350q0 -22 -15 -37.5t-38 -15.5q-22 0 -37 15.5t-15 37.5q0 23 15 38.5t37 15.5q23 0 38 -15.5
t15 -38.5z" />
    <glyph glyph-name="tlDA" unicode="&#xc26;" horiz-adv-x="735" 
d="M368 106q-8 -54 -43.5 -84.5t-97.5 -30.5q-86 0 -137 61t-51 164q0 118 68 209t179 118l-88 106h95l76 -97l163 214h89l-171 -224q111 -27 179 -117.5t68 -208.5q0 -103 -51 -164t-137 -61q-61 0 -97 30.5t-44 84.5zM118 217q0 -72 31 -116.5t83 -44.5q46 0 71 35t25 91
v34h79v-34q0 -56 25.5 -91t73.5 -35q51 0 81.5 44.5t30.5 116.5q0 111 -71.5 190.5t-179.5 79.5t-178.5 -79.5t-70.5 -190.5z" />
    <glyph glyph-name="tlDHA" unicode="&#xc27;" horiz-adv-x="735" 
d="M368 106q-8 -54 -43.5 -84.5t-97.5 -30.5q-86 0 -137 61t-51 164q0 118 68 209t179 118l-88 106h95l76 -97l163 214h89l-171 -224q111 -27 179 -117.5t68 -208.5q0 -103 -51 -164t-137 -61q-61 0 -97 30.5t-44 84.5zM417 -177h-97v14l28 167h41l28 -167v-14zM118 217
q0 -72 31 -116.5t83 -44.5q46 0 71 35t25 91v34h79v-34q0 -56 25.5 -91t73.5 -35q51 0 81.5 44.5t30.5 116.5q0 111 -71.5 190.5t-179.5 79.5t-178.5 -79.5t-70.5 -190.5z" />
    <glyph glyph-name="tlNA" unicode="&#xc28;" horiz-adv-x="721" 
d="M245 0q-23 -9 -58 -9q-64 0 -106 46.5t-42 121.5q0 79 46 127t123 48q55 0 95 -28.5t62 -69.5t40.5 -82t44 -69.5t60.5 -28.5q45 0 69.5 42.5t24.5 116.5q0 117 -70 194.5t-195 77.5h-22l-132 162h96l76 -97l161 214h91l-174 -231q109 -15 178 -103.5t69 -203.5
q0 -111 -46 -174t-132 -63q-51 0 -88.5 28.5t-59 69.5t-40.5 81.5t-45.5 69t-61.5 28.5q-42 0 -66.5 -28t-24.5 -78q0 -49 21.5 -77.5t59.5 -28.5q25 0 46 7v-63z" />
    <glyph glyph-name="tlPA" unicode="&#xc2a;" horiz-adv-x="724" 
d="M485 -9q-100 0 -157 103q-12 -48 -48 -76t-89 -28q-67 0 -109 40t-42 104q0 63 44 105t107 42q47 0 83.5 -23t60 -56t44.5 -66.5t47.5 -56.5t57.5 -23q55 0 86 53.5t31 140.5q0 102 -54 169.5t-146 67.5q-39 0 -79 -10v68q43 10 81 10q132 0 204.5 -83.5t72.5 -220.5
q0 -121 -52 -190.5t-143 -69.5zM117 136q0 -37 20.5 -60t56.5 -23q38 0 59 23.5t21 59.5q0 35 -21.5 58.5t-59.5 23.5q-34 0 -55 -24t-21 -58zM211 487h-82l-131 162h95l76 -97l161 214h91z" />
    <glyph glyph-name="tlPHA" unicode="&#xc2b;" horiz-adv-x="724" 
d="M485 -9q-100 0 -157 103q-12 -48 -48 -76t-89 -28q-67 0 -109 40t-42 104q0 63 44 105t107 42q47 0 83.5 -23t60 -56t44.5 -66.5t47.5 -56.5t57.5 -23q55 0 86 53.5t31 140.5q0 102 -54 169.5t-146 67.5q-39 0 -79 -10v68q43 10 81 10q132 0 204.5 -83.5t72.5 -220.5
q0 -121 -52 -190.5t-143 -69.5zM381 -177h-99v14l29 167h41l29 -167v-14zM117 136q0 -37 20.5 -60t56.5 -23q38 0 59 23.5t21 59.5q0 35 -21.5 58.5t-59.5 23.5q-34 0 -55 -24t-21 -58zM211 487h-82l-131 162h95l76 -97l161 214h91z" />
    <glyph glyph-name="tlBA" unicode="&#xc2c;" horiz-adv-x="734" 
d="M359 102q-13 -54 -54.5 -82.5t-104.5 -28.5q-74 0 -120 40t-46 106q0 45 23.5 80.5t57 58.5l66.5 44t56.5 46.5t23.5 55.5q0 34 -17 54.5t-48 20.5q-32 0 -51 -20t-19 -57q0 -17 5 -40h-75q-6 22 -6 44q0 62 39 100.5t107 38.5q65 0 103.5 -40.5t38.5 -98.5
q0 -41 -23 -74.5t-56 -56.5l-66.5 -44.5t-56.5 -49.5t-23 -61q0 -38 25 -60t68 -22q52 0 83 33t31 85v44h79v-44q0 -53 27 -85.5t73 -32.5q57 0 85 56.5t28 143.5q0 105 -42.5 169t-121.5 64q-11 0 -33 -4v70q22 4 37 4q112 0 175 -86t63 -218q0 -121 -49.5 -192.5
t-138.5 -71.5q-59 0 -97 29.5t-46 81.5z" />
    <glyph glyph-name="tlBHA" unicode="&#xc2d;" horiz-adv-x="715" 
d="M359 102q-13 -54 -54.5 -82.5t-104.5 -28.5q-74 0 -120 40t-46 106q0 45 23.5 80.5t57 58.5l66.5 44t56.5 46.5t23.5 55.5q0 34 -17 54.5t-48 20.5q-32 0 -51 -20t-19 -57q0 -17 5 -40h-75q-6 22 -6 44q0 62 39 100.5t107 38.5q65 0 103.5 -40.5t38.5 -98.5
q0 -41 -23 -74.5t-56 -56.5l-66.5 -44.5t-56.5 -49.5t-23 -61q0 -38 25 -60t68 -22q52 0 83 33t31 85v44h79v-44q0 -53 27 -85.5t73 -32.5q55 0 83.5 50.5t28.5 130.5q0 97 -51.5 172t-135.5 78l-131 162h95l76 -97l161 214h91l-188 -248q73 -28 117 -106t44 -175
q0 -114 -49.5 -180t-137.5 -66q-59 0 -97 29.5t-46 81.5zM408 -177h-97v14l28 167h40l29 -167v-14z" />
    <glyph glyph-name="tlMA" unicode="&#xc2e;" horiz-adv-x="1051" 
d="M95 136q0 -36 21 -59.5t58 -23.5t58.5 23.5t21.5 59.5q0 35 -21.5 58.5t-59.5 23.5q-34 0 -56 -24t-22 -58zM1007 264q0 -131 -61 -202.5t-158 -71.5q-116 0 -158 91q-47 -90 -155 -90q-107 0 -168 106q-11 -49 -47 -78t-89 -29q-68 0 -109.5 40t-41.5 104q0 63 43.5 105
t106.5 42q47 0 84.5 -23t62 -56t47 -66.5t51 -56.5t61.5 -23q49 0 77 41.5t28 110.5q0 119 -86.5 199t-230.5 80h-22l-131 162h95l76 -97l161 214h91l-172 -229q123 -12 208.5 -101t88.5 -216q0 -77 34 -121t90 -44q62 0 103.5 53.5t41.5 150.5t-53 161.5t-140 64.5v67
q128 0 200 -83t72 -205z" />
    <glyph glyph-name="tlYA" unicode="&#xc2f;" horiz-adv-x="1267" 
d="M533 275v-7q0 -98 35.5 -155t99.5 -57q57 0 94.5 53.5t37.5 150.5t-53.5 162t-140.5 65l-130 162h95l75 -97l162 214h91l-192 -254q83 -26 127 -93.5t44 -157.5q0 -98 35.5 -151.5t100.5 -53.5q57 0 94 53.5t37 150.5t-53.5 161t-140.5 64v68q129 0 201 -83t72 -205
q0 -133 -56.5 -203.5t-150.5 -70.5q-121 0 -168 113q-52 -113 -177 -113q-126 0 -172 129q-31 -62 -85.5 -95.5t-126.5 -33.5q-111 0 -178.5 76.5t-67.5 205.5q0 125 67 202.5t179 77.5q113 0 179 -76.5t66 -201.5zM124 273q0 -98 45.5 -157.5t118.5 -59.5t118.5 59.5
t45.5 156.5t-45.5 157t-118.5 60q-72 0 -118 -60t-46 -156z" />
    <glyph glyph-name="tlRA" unicode="&#xc30;" horiz-adv-x="544" 
d="M533 274q0 -129 -67 -206t-178 -77t-178.5 76.5t-67.5 204.5q0 100 45 171.5t122 96.5l-91 109h95l77 -97l163 214h89l-174 -226q77 -25 121 -96t44 -170zM124 273q0 -98 45.5 -157.5t118.5 -59.5t118.5 59.5t45.5 156.5q0 96 -45.5 156.5t-118.5 60.5q-72 0 -118 -60.5
t-46 -155.5z" />
    <glyph glyph-name="tlRRA" unicode="&#xc31;" horiz-adv-x="825" 
d="M405 104q-13 -53 -51.5 -83t-97.5 -30q-99 0 -156.5 78t-57.5 206q0 119 53 203t143 84q64 0 104.5 -42t40.5 -101q0 -61 -40 -103t-102 -42q-42 0 -73 20t-45 55q-8 -42 -8 -73q0 -93 38 -156.5t106 -63.5q48 0 77.5 32t29.5 84v32h79v-32q0 -52 32.5 -84t85.5 -32
q64 0 101.5 67.5t37.5 170.5q0 94 -28 150t-76 56q-32 0 -51.5 -22t-19.5 -57q0 -34 23 -61t65 -33v-66h-190v66h86q-56 35 -56 102q0 56 38.5 94.5t100.5 38.5q88 0 137.5 -74.5t49.5 -197.5q0 -130 -57 -214.5t-159 -84.5q-62 0 -106.5 31t-53.5 82zM153 414
q0 -33 22 -55.5t58 -22.5q34 0 53.5 23.5t19.5 57.5q0 35 -20.5 57.5t-55.5 22.5q-33 0 -55 -24.5t-22 -58.5z" />
    <glyph glyph-name="tlLA" unicode="&#xc32;" horiz-adv-x="721" 
d="M677 297q0 -132 -88.5 -220.5t-227.5 -88.5q-143 0 -231 89t-88 236q0 104 50 176.5t135 72.5q67 0 106 -43t39 -104t-40.5 -101t-98.5 -40q-42 0 -73.5 18.5t-45.5 51.5q-1 -7 -1 -22q0 -122 66 -195.5t185 -73.5q106 0 169.5 69t63.5 178q0 80 -42 135.5t-109 59.5v67
q106 1 168.5 -77t62.5 -188zM143 416q0 -39 22 -59.5t58 -20.5q33 0 53.5 21.5t20.5 57.5q0 34 -20 58t-56 24t-57 -24.5t-21 -56.5z" />
    <glyph glyph-name="tlLLA" unicode="&#xc33;" horiz-adv-x="642" 
d="M494 115q0 -57 -44 -90.5t-115 -33.5q-70 0 -111.5 34t-41.5 88q0 83 85 118q-73 25 -96 34q-132 51 -132 148q0 55 38 91t103 36q62 0 100 -35.5t38 -86.5q0 -42 -27 -70.5t-68 -39.5q107 -36 130 -45q72 19 116 49.5t44 83.5q0 37 -31 64t-86 27l-132 162h96l76 -97
l175 214h91l-208 -258q46 -12 72 -43t26 -75q0 -59 -43.5 -103t-119.5 -63q65 -45 65 -109zM336 54q37 0 59.5 18t22.5 49q0 48 -76 82q-42 -10 -64 -32t-22 -52q0 -28 21 -46.5t59 -18.5zM112 410q0 -28 19 -45.5t48 -17.5q26 0 45 18t19 47q0 28 -18 46.5t-47 18.5
q-30 0 -48 -18.5t-18 -48.5z" />
    <glyph glyph-name="tlLLLA" unicode="&#xc34;" horiz-adv-x="813" 
d="M405 102q-8 -52 -48 -81.5t-100 -29.5q-110 0 -162.5 79.5t-52.5 212.5q0 114 50.5 196.5t144.5 82.5q64 0 104 -42.5t40 -100.5q0 -61 -40 -103t-101 -42q-41 0 -72 19t-45 53q-6 -36 -6 -69q0 -99 34.5 -160t105.5 -61q49 0 79 31.5t30 84.5v34h79v-34
q0 -53 29.5 -84.5t78.5 -31.5q71 0 105.5 61t34.5 160q0 28 -5 68q-15 -33 -46 -52t-72 -19q-62 0 -101.5 42t-39.5 103q0 58 40 100.5t105 42.5q93 0 144 -83t51 -196q0 -133 -53 -212.5t-162 -79.5q-61 0 -100.5 29.5t-48.5 81.5zM151 414q0 -33 22 -55.5t59 -22.5
q33 0 53 23.5t20 57.5q0 35 -20.5 57.5t-55.5 22.5q-33 0 -55.5 -24.5t-22.5 -58.5zM505 417q0 -34 20.5 -57.5t53.5 -23.5q36 0 58 22.5t22 55.5q0 34 -22.5 58.5t-55.5 24.5q-35 0 -55.5 -22.5t-20.5 -57.5z" />
    <glyph glyph-name="tlVA" unicode="&#xc35;" horiz-adv-x="698" 
d="M95 136q0 -36 21 -59.5t58 -23.5t58.5 23.5t21.5 59.5q0 35 -21.5 58.5t-59.5 23.5q-34 0 -56 -24t-22 -58zM111 649h95l76 -97l161 214h91l-172 -229q125 -12 211 -103.5t86 -221.5q0 -104 -50 -162.5t-134 -58.5q-107 0 -168 106q-11 -49 -47 -78t-89 -29
q-68 0 -109.5 40t-41.5 104q0 63 43.5 105t106.5 42q47 0 84.5 -23t62 -56t47 -66.5t51 -56.5t61.5 -23q49 0 77 41.5t28 110.5q0 119 -86.5 199t-230.5 80h-22z" />
    <glyph glyph-name="tlSHA" unicode="&#xc36;" horiz-adv-x="570" 
d="M310 487h-34l-132 162h96l76 -97l161 214h91l-176 -234q60 -9 95.5 -44.5t35.5 -83.5q0 -61 -52 -106q51 -62 51 -136q0 -77 -48.5 -124t-122.5 -47q-70 0 -113 36.5t-43 98.5q0 19 4.5 36t10.5 30t19 26l21.5 21t27 19l27.5 16t29.5 15t27.5 14q-42 24 -93 24
q-78 0 -126 -47t-48 -118q0 -18 5 -41h-76q-4 21 -4 45q0 96 71.5 158.5t175.5 62.5q88 0 154 -45q28 26 28 60q0 40 -36.5 62.5t-102.5 22.5zM353 53q42 0 68.5 30t26.5 78q0 53 -35 99q-9 -5 -33.5 -17.5t-34.5 -18.5t-28 -18t-26 -22t-14.5 -24t-6.5 -30q0 -36 22 -56.5
t61 -20.5z" />
    <glyph glyph-name="tlSSA" unicode="&#xc37;" horiz-adv-x="708" 
d="M101 136q0 -37 20.5 -60t57.5 -23t58 23.5t21 59.5q0 35 -21.5 58.5t-59.5 23.5q-34 0 -55 -24t-21 -58zM633 -155h-98q-13 26 -13 72q0 48 18 87q-34 -13 -71 -13q-99 0 -157 103q-12 -48 -48 -76t-89 -28q-67 0 -108.5 40t-41.5 104q0 63 43.5 105t106.5 42
q47 0 83.5 -23t60 -56t44.5 -66.5t47.5 -56.5t58.5 -23q54 0 85 53.5t31 140.5q0 102 -54 169.5t-146 67.5q-39 0 -79 -10v68q43 10 81 10q132 0 204.5 -83.5t72.5 -220.5q0 -89 -29 -152q-36 -73 -36 -143q0 -57 34 -111zM211 487h-82l-131 162h95l76 -97l161 214h91z" />
    <glyph glyph-name="tlSA" unicode="&#xc38;" horiz-adv-x="720" 
d="M228 0q-22 -9 -58 -9q-64 0 -106 46.5t-42 121.5q0 79 46 127t124 48q55 0 94 -28.5t61 -69.5t40 -82t43.5 -69.5t59.5 -28.5q49 0 78 52.5t29 141.5q0 101 -57.5 169t-150.5 68q-39 0 -79 -10v68q43 10 81 10q133 0 209 -84t76 -220q0 -120 -50 -190t-136 -70
q-54 0 -92.5 28.5t-60 69.5t-40 81.5t-44 69t-60.5 28.5q-42 0 -67 -28t-25 -78q0 -49 21.5 -77.5t59.5 -28.5q25 0 46 7v-63zM231 487h-82l-131 162h96l76 -97l161 214h91z" />
    <glyph glyph-name="tlHA" unicode="&#xc39;" horiz-adv-x="1006" 
d="M109 136q0 -37 20.5 -60t57.5 -23t58 23.5t21 59.5q0 35 -21.5 58.5t-59.5 23.5q-34 0 -55 -24t-21 -58zM211 487h-82l-131 162h95l77 -97l161 214h90zM989 402q0 -55 -37.5 -93.5t-97.5 -38.5q-62 0 -99.5 34.5t-37.5 88.5q0 61 36 93h-211q62 -35 96 -98.5t34 -145.5
q0 -114 -52 -182.5t-143 -68.5q-100 0 -157 103q-12 -48 -48 -76t-89 -28q-67 0 -109 40t-42 104q0 62 44 104.5t107 42.5q47 0 83.5 -23t60 -56t44.5 -66.5t47.5 -56.5t57.5 -23q55 0 86 52t31 133q0 109 -71 177t-205 68v66h495q88 0 132.5 -42.5t44.5 -107.5zM789 404
q0 -32 16.5 -51t46.5 -19q29 0 46 19.5t17 49.5q0 32 -16.5 53t-46.5 21t-46.5 -21.5t-16.5 -51.5z" />
    <glyph glyph-name="tlAvagraha" unicode="&#xc3d;" horiz-adv-x="621" 
d="M603 0h-403q-75 0 -120.5 35.5t-45.5 101.5q0 43 24.5 78t59 58l69 44.5t59 48t24.5 57.5q0 34 -16.5 54t-47.5 20q-32 0 -51 -20t-19 -57q0 -17 5 -40h-75q-6 22 -6 44q0 62 39 100.5t107 38.5q65 0 103 -40t38 -99q0 -43 -24 -77.5t-58.5 -57.5l-69 -44.5t-58.5 -48.5
t-24 -59q0 -72 92 -72h398v-65z" />
    <glyph glyph-name="tlmAA" unicode="&#xc3e;" horiz-adv-x="576" 
d="M606 402q0 -56 -37 -94t-98 -38t-98.5 34.5t-37.5 88.5q0 61 36 93h-314v66h373q88 0 132 -42t44 -108zM407 404q0 -32 16 -51t47 -19q29 0 46 19.5t17 49.5q0 32 -16.5 53t-46.5 21q-31 0 -47 -21.5t-16 -51.5z" />
    <glyph glyph-name="tlmI" unicode="&#xc3f;" horiz-adv-x="457" 
d="M256 681q27 0 45 14.5t18 37.5q0 22 -17 37t-46 15q-26 0 -43 -15t-17 -37q0 -23 17 -37.5t43 -14.5zM72 563q65 -30 129 -30q66 0 103 37t37 98q-30 -45 -97 -45q-48 0 -84.5 30.5t-36.5 78.5t34 80.5t91 32.5q74 0 117.5 -49.5t43.5 -125.5q0 -84 -56 -143t-147 -59
q-77 0 -134 31v64z" />
    <glyph glyph-name="tlmII" unicode="&#xc40;" horiz-adv-x="576" 
d="M467 980v-64h-58q-50 0 -50 -40q0 -27 34 -59q68 -48 68 -147q0 -84 -55.5 -143t-147.5 -59q-75 0 -134 31v64q66 -30 129 -30q67 0 103.5 37t36.5 98q-29 -45 -97 -45q-48 0 -84.5 30.5t-36.5 78.5t34 80.5t92 32.5h5q-19 26 -19 57q0 34 25.5 56t71.5 22h83zM308 681
q27 0 45 14.5t18 37.5q0 21 -16.5 36.5t-45.5 15.5q-26 0 -43.5 -15t-17.5 -37q0 -23 17 -37.5t43 -14.5z" />
    <glyph glyph-name="tlmU" unicode="&#xc41;" horiz-adv-x="301" 
d="M-85 163h53q0 -51 33.5 -79.5t86.5 -28.5q65 0 107 53t42 151q0 97 -53 161.5t-140 64.5v67q128 0 200 -83t72 -205q0 -132 -61 -203t-162 -71q-87 0 -132.5 46t-45.5 127z" />
    <glyph glyph-name="tlmUU" unicode="&#xc42;" horiz-adv-x="582" 
d="M316 264q0 -132 -61 -203t-162 -71q-87 0 -132.5 46t-45.5 127h53q0 -51 33.5 -79.5t86.5 -28.5q65 0 107 53t42 151q0 97 -53 161.5t-140 64.5v67h414q88 0 132 -42t44 -108q0 -55 -37.5 -93.5t-96.5 -38.5q-63 0 -101 35t-38 90q0 60 36 91h-176q95 -78 95 -222z
M434 404q0 -31 17 -50.5t46 -19.5t46.5 20t17.5 49q0 32 -17 53t-47 21t-46.5 -22t-16.5 -51z" />
    <glyph glyph-name="tlmvR" unicode="&#xc43;" horiz-adv-x="576" 
d="M505 116q0 -156 -69 -241.5t-184 -85.5q-100 0 -161.5 63t-61.5 164q0 80 42 135t111 55q59 0 96.5 -36t37.5 -92q0 -55 -36.5 -90.5t-89.5 -35.5q-65 0 -93 42q9 -68 50.5 -103.5t103.5 -35.5q83 0 129 68t46 186q0 229 -153 443h93q139 -211 139 -436zM117 76
q0 -29 16 -47t48 -18q28 0 44 17.5t16 48.5q0 29 -16 47t-45 18t-46 -18.5t-17 -47.5z" />
    <glyph glyph-name="tlmvRR" unicode="&#xc44;" horiz-adv-x="829" 
d="M505 141q0 -172 -68.5 -262t-184.5 -90q-100 0 -161.5 63t-61.5 164q0 80 42 135t111 55q59 0 96.5 -36t37.5 -92q0 -55 -36.5 -90.5t-89.5 -35.5q-65 0 -93 42q9 -68 50.5 -103.5t103.5 -35.5q84 0 129.5 71.5t45.5 205.5q0 106 -41 207t-115 147v66h371q88 0 132 -42
t44 -108q0 -56 -37 -94t-97 -38q-62 0 -100 34.5t-38 88.5q0 60 37 93h-210q64 -55 98.5 -153t34.5 -192zM117 76q0 -29 16 -47t48 -18q28 0 44 17.5t16 48.5q0 29 -16 47t-45 18t-46 -18.5t-17 -47.5zM618 404q0 -32 16.5 -51t46.5 -19q29 0 46 19.5t17 49.5q0 32 -16.5 53
t-46.5 21t-46.5 -21.5t-16.5 -51.5z" />
    <glyph glyph-name="tlmE" unicode="&#xc46;" horiz-adv-x="576" 
d="M90 729h271q76 0 115 -33t39 -85q0 -55 -36 -86.5t-99 -31.5h-66v59h60q64 0 64 55q0 58 -77 58h-271v64z" />
    <glyph glyph-name="tlmEE" unicode="&#xc47;" horiz-adv-x="576" 
d="M380 493h-66v59h60q31 0 47.5 14.5t16.5 39.5q0 59 -77 59h-271v64h271q-41 29 -41 76q0 36 26 58.5t75 22.5h83v-65h-65q-46 0 -46 -39q0 -41 48 -64q34 -15 54 -45t20 -64q0 -53 -36 -84.5t-99 -31.5z" />
    <glyph glyph-name="tlmAI" unicode="&#xc48;" horiz-adv-x="576" 
d="M531 -316h-373q-88 0 -131.5 42.5t-43.5 108.5q0 55 37 93.5t96 38.5q62 0 100 -35t38 -89q0 -60 -36 -92h313v-67zM55 -166q0 -32 17 -53.5t47 -21.5t46.5 21.5t16.5 51.5q0 31 -16.5 51t-46.5 20q-29 0 -46.5 -20t-17.5 -49zM380 487h-66v64h60q31 0 47.5 14.5
t16.5 39.5q0 28 -17.5 42t-59.5 14h-260v64h260q77 0 115.5 -31.5t38.5 -85.5q0 -55 -36 -88t-99 -33z" />
    <glyph glyph-name="tlmO" unicode="&#xc4a;" horiz-adv-x="765" 
d="M285 552v-59q-97 0 -152.5 54t-55.5 142q0 61 36 107t97 46q48 0 76 -28.5t34 -76.5q14 47 54 76.5t101 29.5q62 0 103.5 -31.5t41.5 -85.5q0 -48 -31 -78t-79 -30q-44 0 -75 26.5t-31 68.5q0 39 23 62q-34 -10 -52 -39.5t-18 -68.5v-16h-76v18q0 46 -15 77t-48 31
q-30 0 -46.5 -26.5t-16.5 -63.5q0 -61 33.5 -97.5t96.5 -37.5zM464 727q0 -22 11.5 -35.5t32.5 -13.5q20 0 32 14t12 36q0 21 -11.5 35.5t-32.5 14.5q-20 0 -32 -15.5t-12 -35.5z" />
    <glyph glyph-name="tlmOO" unicode="&#xc4b;" horiz-adv-x="746" 
d="M285 552v-59q-97 0 -152.5 54t-55.5 142q0 61 36 107t97 46q48 0 76 -28.5t34 -76.5q14 47 54 76.5t101 29.5h9q-30 23 -30 58q0 29 23 48.5t66 19.5h81v-66h-56q-41 0 -41 -31q0 -27 33 -48h-1q61 -31 61 -98q0 -48 -31 -78t-79 -30q-44 0 -75 26.5t-31 68.5q0 39 23 62
q-34 -10 -52 -39.5t-18 -68.5v-16h-76v18q0 46 -15 77t-48 31q-30 0 -46.5 -26.5t-16.5 -63.5q0 -61 33.5 -97.5t96.5 -37.5zM464 727q0 -22 11.5 -35.5t32.5 -13.5q20 0 32 14t12 36q0 21 -11.5 35.5t-32.5 14.5q-20 0 -32 -15.5t-12 -35.5z" />
    <glyph glyph-name="tlmAU" unicode="&#xc4c;" horiz-adv-x="696" 
d="M672 574q0 -55 -37 -93.5t-96 -38.5q-63 0 -100.5 34.5t-37.5 88.5q0 61 36 93h-135q30 -24 30 -65q0 -46 -32.5 -72.5t-91.5 -26.5h-134v66h122q60 0 60 47q0 51 -68 51h-201v66h509q88 0 132 -42t44 -108zM473 577q0 -32 16.5 -51.5t46.5 -19.5q29 0 46 20t17 50
q0 31 -16.5 52t-46.5 21t-46.5 -21.5t-16.5 -50.5z" />
    <glyph glyph-name="tlVirama" unicode="&#xc4d;" horiz-adv-x="512" 
d="M527 808h-323q-70 0 -70 -52q0 -50 76 -50h154v-65h-163q-27 0 -44 -12.5t-17 -33.5q0 -49 68 -49h24v-41h-54q-52 0 -82.5 26t-30.5 71q0 30 16 55.5t45 37.5q-31 7 -50 28t-19 53q0 45 35.5 71.5t108.5 26.5h326v-66z" />
    <glyph glyph-name="tlLengthmark" unicode="&#xc55;" horiz-adv-x="576" 
d="M391 871v-64q-33 17 -67 17q-38 0 -59.5 -23.5t-21.5 -68.5q0 -67 66 -140h-72q-73 63 -73 152q0 65 41 104.5t105 39.5q47 0 81 -17z" />
    <glyph glyph-name="tlAIlengthmark" unicode="&#xc56;" 
d="M280 -301h-384q-88 0 -132 42.5t-44 108.5q0 55 37 93.5t97 38.5q62 0 100 -35t38 -88q0 -60 -35 -93h323v-67zM-207 -151q0 -32 16.5 -53t46.5 -21t46.5 21.5t16.5 50.5q0 32 -16.5 51.5t-46.5 19.5q-29 0 -46 -19.5t-17 -49.5z" />
    <glyph glyph-name="tlTSA" unicode="&#xc58;" horiz-adv-x="709" 
d="M357 102q-7 -48 -46.5 -79.5t-98.5 -31.5q-75 0 -121.5 40t-46.5 107q0 83 68 124h-97v67h220v-67q-55 -1 -83.5 -33.5t-28.5 -79.5q0 -42 25.5 -67.5t68.5 -25.5q45 0 73 33t28 85v43h78v-43q0 -52 25 -85t70 -33q48 0 74.5 42.5t26.5 106.5q0 116 -77.5 199t-203.5 83
h-6l-124 152h95l70 -87l153 185h91l-169 -208q117 -28 183 -114t66 -202q0 -99 -48 -160.5t-125 -61.5q-62 0 -98.5 31t-41.5 80zM493 763h-449v66h389q-36 33 -36 93q0 53 38.5 88t99.5 35q60 0 97 -38.5t37 -94.5q0 -65 -44 -107t-132 -42zM469 910q0 -29 17 -50.5
t47 -21.5t46.5 21t16.5 53q0 30 -17 49.5t-46 19.5q-30 0 -47 -19.5t-17 -51.5z" />
    <glyph glyph-name="tlDZA" unicode="&#xc59;" horiz-adv-x="702" 
d="M359 102q-12 -55 -55 -83t-106 -28q-74 0 -119 40t-45 106q0 44 23.5 80t57 59.5l66.5 45t56.5 47t23.5 54.5q0 34 -17 54t-47 20t-49 -20t-19 -56q0 -19 6 -39h-76q-6 23 -6 46q0 59 39 97t105 38q34 0 64.5 -15t54 -37l46.5 -44t51.5 -37t60.5 -15q38 0 58.5 21.5
t20.5 55.5q0 32 -12 60h73q16 -32 16 -73q0 -58 -41 -94.5t-107 -36.5q-87 0 -149 64q-3 -37 -27 -68.5t-55.5 -53.5l-62.5 -43.5t-52.5 -49.5t-21.5 -60q0 -37 24 -59t64 -22q52 0 85 32t33 86v39h79v-39q0 -51 27.5 -84.5t72.5 -33.5q42 0 64.5 28t22.5 72q0 47 -23 97h78
q21 -53 21 -102q0 -69 -42 -114.5t-115 -45.5q-59 0 -99 29.5t-47 81.5zM487 615h-447v66h389q-37 33 -37 93q0 54 37.5 88.5t99.5 34.5q60 0 97 -38t37 -94q0 -66 -43.5 -108t-132.5 -42zM464 763q0 -30 16 -51.5t47 -21.5q30 0 46.5 21t16.5 53q0 29 -17 49t-45 20
q-31 0 -47.5 -19t-16.5 -51z" />
    <glyph glyph-name="tlvRR" unicode="&#xc60;" horiz-adv-x="1708" 
d="M359 102q-13 -54 -54.5 -82.5t-104.5 -28.5q-74 0 -120 40t-46 106q0 45 23.5 80.5t57 58.5l66.5 44t56.5 46.5t23.5 55.5q0 34 -17 54.5t-48 20.5q-32 0 -51 -20t-19 -57q0 -17 5 -40h-75q-6 22 -6 44q0 62 39 100.5t107 38.5q65 0 103.5 -40.5t38.5 -98.5
q0 -41 -23 -74.5t-56 -56.5l-66.5 -44.5t-56.5 -49.5t-23 -61q0 -38 25 -60t68 -22q52 0 83 33t31 85v44h79v-44q0 -53 27 -85.5t73 -32.5q57 0 85 56.5t28 143.5q0 105 -42.5 169t-121.5 64q-11 0 -33 -4v70q22 4 37 4q109 0 172 -82t66 -209h2q0 -98 35.5 -155t99.5 -57
q58 0 95 53.5t37 150.5t-53 161t-140 64v68q128 0 199.5 -83t71.5 -205v-4q0 -98 35.5 -151.5t100.5 -53.5q57 0 94 53.5t37 150.5t-53 161.5t-140 64.5v66h405q88 0 131 -42t43 -108q0 -56 -37 -94t-98 -38q-62 0 -99.5 34.5t-37.5 88.5q0 61 36 93h-174q103 -69 103 -221
q0 -133 -56.5 -203.5t-150.5 -70.5q-122 0 -168 115q-52 -115 -177 -115q-118 0 -167 116q-48 -116 -162 -116q-59 0 -97 29.5t-46 81.5zM1491 404q0 -32 16 -51t46 -19t46.5 19.5t16.5 49.5q0 32 -16 53t-47 21q-30 0 -46 -21.5t-16 -51.5z" />
    <glyph glyph-name="tlvLL" unicode="&#xc61;" horiz-adv-x="1265" 
d="M926 248q0 -167 -101 -269t-244 -102q-107 0 -175 49t-68 134q0 51 26 90t63.5 64l75 48t63.5 56t26 75q0 45 -27.5 74t-74.5 29q-53 0 -80 -36.5t-27 -87.5v-39h-78v39q0 53 -26.5 88.5t-80.5 35.5q-46 0 -72 -33.5t-26 -77.5q0 -45 23 -95h-78q-23 46 -23 102
q0 69 47 120t124 51q68 0 107.5 -35.5t44.5 -85.5q3 48 44 84.5t106 36.5q81 0 128 -49t47 -120q0 -47 -18.5 -84.5t-47 -60t-61 -44.5l-61 -40t-47 -45.5t-18.5 -61.5q0 -56 45.5 -86.5t120.5 -30.5q111 0 188 88t77 218q0 53 -13.5 105t-47 93t-81.5 41v66h368
q88 0 130.5 -42t42.5 -108q0 -56 -37 -94t-97 -38q-62 0 -100 34.5t-38 88.5q0 60 37 93h-173q87 -69 87 -238zM1048 404q0 -32 16.5 -51t47.5 -19q29 0 46 20t17 49q0 32 -17 53t-47 21t-46.5 -21.5t-16.5 -51.5z" />
    <glyph glyph-name="tlmvL" unicode="&#xc62;" 
d="M109 -102v58q69 1 110 -53t41 -146q0 -106 -65 -174t-160 -68q-72 0 -117 33t-45 88q0 34 17 60t40.5 42l47.5 31t41 35t17 46q0 27 -16.5 44t-42.5 17q-30 0 -47 -20.5t-17 -55.5v-29h-60v29q0 36 -17 56t-47 20q-25 0 -41 -19t-16 -48q0 -31 17 -65h-59q-18 34 -18 70
q0 49 32.5 81t82.5 32q35 0 60.5 -16t36.5 -43q9 26 35.5 42.5t61.5 16.5q51 0 83 -31t32 -81q0 -37 -16.5 -64.5t-40 -44t-47.5 -30.5t-40.5 -33t-16.5 -43q0 -33 27 -51.5t75 -18.5q68 0 116 55.5t48 135.5q0 62 -23.5 103.5t-68.5 38.5z" />
    <glyph glyph-name="tlmvLL" unicode="&#xc63;" 
d="M260 -246q0 -104 -65 -171.5t-160 -67.5q-72 0 -117 33t-45 88q0 34 17 60t40.5 42l47.5 31t41 35t17 46q0 27 -16.5 44t-42.5 17q-30 0 -47 -20.5t-17 -55.5v-29h-60v29q0 36 -17 56t-47 20q-25 0 -41 -19t-16 -48q0 -31 17 -65h-59q-18 34 -18 70q0 49 32.5 81t82.5 32
q35 0 60.5 -16t36.5 -43q9 26 35.5 42.5t61.5 16.5q51 0 83 -31t32 -81q0 -37 -16.5 -64.5t-40 -44t-47.5 -30.5t-40.5 -33t-16.5 -43q0 -33 27 -51.5t75 -18.5q68 0 116 55.5t48 135.5q0 62 -23.5 105.5t-68.5 43.5v51h280q68 0 101 -32.5t33 -83.5q0 -43 -28.5 -72.5
t-75.5 -29.5q-48 0 -77.5 26t-29.5 68q0 47 29 73h-131q50 -45 50 -151zM369 -158q0 -25 12.5 -40.5t35.5 -15.5t36 16t13 38q0 25 -12.5 41.5t-36.5 16.5q-23 0 -35.5 -17t-12.5 -39z" />
    <glyph glyph-name="zerowidthnonjoiner" unicode="&#x200c;" 
d="M24 -230h-47v1041h47v-1041z" />
    <glyph glyph-name="zerowidthjoiner" unicode="&#x200d;" 
d="M24 -230h-47v865l-69 -73l-33 33l93 93l-95 95l33 33l95 -95l96 95l32 -32l-96 -96l96 -95l-33 -33l-72 75v-865z" />
    <glyph glyph-name="endash" unicode="&#x2013;" horiz-adv-x="540" 
d="M483 237h-426v66h426v-66z" />
    <glyph glyph-name="emdash" unicode="&#x2014;" horiz-adv-x="823" 
d="M766 239h-709v66h709v-66z" />
    <glyph glyph-name="quoteleft" unicode="&#x2018;" horiz-adv-x="180" 
d="M109 471h-98l120 224h62z" />
    <glyph glyph-name="quoteright" unicode="&#x2019;" horiz-adv-x="181" 
d="M74 471h-62l84 224h98z" />
    <glyph glyph-name="quotesinglbase" unicode="&#x201a;" horiz-adv-x="181" 
d="M64 -123h-62l83 224h98z" />
    <glyph glyph-name="quotedblleft" unicode="&#x201c;" horiz-adv-x="324" 
d="M109 471h-97l120 224h61zM254 471h-95l117 224h61z" />
    <glyph glyph-name="quotedblright" unicode="&#x201d;" horiz-adv-x="323" 
d="M73 471h-61l83 224h94zM216 471h-61l85 224h97z" />
    <glyph glyph-name="quotedblbase" unicode="&#x201e;" horiz-adv-x="323" 
d="M64 -123h-61l82 224h95zM207 -123h-61l84 224h97z" />
    <glyph glyph-name="dagger" unicode="&#x2020;" horiz-adv-x="523" 
d="M482 434h-188v-434h-72v434h-180v69h180v171h72v-171h188v-69z" />
    <glyph glyph-name="daggerdbl" unicode="&#x2021;" horiz-adv-x="530" 
d="M485 181h-188v-181h-72v181h-180v69h180v184h-180v69h180v171h72v-171h188v-69h-188v-184h188v-69z" />
    <glyph glyph-name="bullet" unicode="&#x2022;" horiz-adv-x="449" 
d="M357 356q0 -56 -38 -94.5t-94 -38.5q-57 0 -95 38t-38 95t37.5 95t94.5 38q56 0 94.5 -38.5t38.5 -94.5z" />
    <glyph glyph-name="ellipsis" unicode="&#x2026;" horiz-adv-x="720" 
d="M154 51q0 -25 -17 -42t-42 -17t-42 17t-17 42t17 42t42 17t42 -17t17 -42zM419 51q0 -25 -17 -42t-42 -17t-42 17t-17 42t17 42t42 17t42 -17t17 -42zM684 51q0 -25 -17 -42t-42 -17t-42 17t-17 42t17 42t42 17t42 -17t17 -42z" />
    <glyph glyph-name="perthousand" unicode="&#x2030;" horiz-adv-x="1212" 
d="M277 -1h-75l357 666h77zM362 515q0 -66 -47 -112.5t-112 -46.5t-111.5 46.5t-46.5 112.5q0 65 46.5 111.5t111.5 46.5t112 -46.5t47 -111.5zM114 515q0 -37 26 -63.5t63 -26.5t63.5 26.5t26.5 63.5t-26.5 63t-63.5 26t-63 -26t-26 -63zM794 151q0 -65 -46.5 -111.5
t-111.5 -46.5q-66 0 -112 46.5t-46 111.5q0 66 46 112.5t112 46.5q65 0 111.5 -47t46.5 -112zM547 151q0 -37 26 -63t63 -26t63.5 26t26.5 63t-26 63.5t-64 26.5q-37 0 -63 -26.5t-26 -63.5zM1183 151q0 -65 -46.5 -111.5t-111.5 -46.5q-66 0 -112.5 46.5t-46.5 111.5
t46.5 112t112.5 47q65 0 111.5 -47t46.5 -112zM935 151q0 -37 26.5 -63t63.5 -26t63 26t26 63t-26 63.5t-63 26.5t-63.5 -26.5t-26.5 -63.5z" />
    <glyph glyph-name="guilsinglleft" unicode="&#x2039;" horiz-adv-x="299" 
d="M120 253l147 -162h-87l-151 162l151 162h87z" />
    <glyph glyph-name="guilsinglright" unicode="&#x203a;" horiz-adv-x="297" 
d="M270 253l-150 -162h-88l147 162l-147 162h88z" />
    <glyph glyph-name="fraction" unicode="&#x2044;" horiz-adv-x="311" 
d="M-21 0h-71l450 712h72z" />
    <glyph glyph-name="Euro" unicode="&#x20ac;" horiz-adv-x="590" 
d="M550 16q-45 -24 -125 -24q-99 0 -172.5 61.5t-98.5 167.5h-102v57h92q-2 30 -2 46q0 28 3 55h-93v57h103q27 106 101 165t174 59q77 0 120 -23v-78q-40 25 -111 25t-123 -38.5t-75 -109.5h199v-57h-212q-3 -25 -3 -55q0 -24 3 -46h212v-57h-201q23 -74 75 -114t120 -40
q72 0 116 27v-78z" />
    <glyph glyph-name="indianrupee" unicode="&#x20b9;" horiz-adv-x="541" 
d="M167 255h-9l204 -255h-100l-198 255v67h98q142 0 155 113h-253v67h249q-25 104 -152 104h-97v68h429v-68h-162q49 -38 63 -104h99v-67h-96q-7 -83 -68 -131.5t-162 -48.5z" />
    <glyph glyph-name="uni20BA" unicode="&#x20ba;" horiz-adv-x="580" 
d="M208 0h-55v278l-90 -47v72l90 47v85l-90 -47v71l90 47v149h79v-108l110 58v-72l-110 -57v-85l110 57v-71l-110 -58v-249q102 12 165 96.5t63 196.5h76q0 -158 -92 -260.5t-236 -102.5z" />
    <glyph glyph-name="uni20BD" unicode="&#x20bd;" horiz-adv-x="584" 
d="M292 587h-79v-270h86q78 0 120 33.5t42 96.5q0 67 -43.5 103.5t-125.5 36.5zM418 88h-205v-88h-81v88h-104v65h104v99h-104v65h104v338h159q119 0 184.5 -55.5t65.5 -149.5q0 -92 -64 -145t-178 -53h-86v-99h205v-65z" />
    <glyph glyph-name="uni2113" unicode="&#x2113;" horiz-adv-x="501" 
d="M237 474v-183q66 29 100.5 85t34.5 127q0 46 -17.5 75.5t-49.5 29.5q-68 0 -68 -134zM455 27q-51 -32 -120 -32q-82 0 -129.5 48t-47.5 139v18q-30 -2 -45 -2q-42 0 -71 10v71q37 -11 70 -11q24 0 46 3v207q0 91 34.5 146t107.5 55t109 -49.5t36 -126.5q0 -96 -55 -174.5
t-153 -111.5v-7q0 -74 25 -110.5t84 -36.5q58 0 109 31v-67z" />
    <glyph glyph-name="trademark" unicode="&#x2122;" horiz-adv-x="694" 
d="M326 331h-60l27 343h78l57 -162l34 -106l37 106l61 162h79l25 -343h-60l-10 155l-4 116q-10 -32 -41 -116l-56 -148h-61l-52 148l-39 116q0 -34 -6 -116zM149 330h-60v290h-87v54h232v-54h-85v-290z" />
    <glyph glyph-name="uni2126" unicode="&#x2126;" horiz-adv-x="781" 
d="M345 0h-292v71h157q-123 83 -123 274q0 154 81 248t219 94q140 0 220 -93.5t80 -248.5q0 -193 -118 -274h159v-71h-293v71q84 15 125.5 89t41.5 185q0 122 -56 194t-159 72q-101 0 -158 -72t-57 -194q0 -107 46 -183t127 -91v-71z" />
    <glyph glyph-name="partialdiff" unicode="&#x2202;" horiz-adv-x="516" 
d="M470 286q0 -133 -59.5 -213.5t-170.5 -80.5q-94 0 -147.5 63.5t-53.5 153.5q0 96 62 154t145 58t137 -56q-25 94 -95 178.5t-147 130.5h112q83 -54 150 -166t67 -222zM246 65q71 0 108 59t39 155q-55 72 -143 72q-57 0 -93 -39t-36 -105q0 -62 33.5 -102t91.5 -40z" />
    <glyph glyph-name="uni2206" unicode="&#x2206;" horiz-adv-x="618" 
d="M31 0v66l224 608h112l220 -608v-66h-556zM186 262l-68 -193h382l-67 193l-122 350z" />
    <glyph glyph-name="product" unicode="&#x220f;" horiz-adv-x="594" 
d="M178 -4q0 -180 -153 -180q-37 0 -64 11v75q26 -12 54 -12q82 0 82 97v687h423v-854h-81v781h-261v-605z" />
    <glyph glyph-name="summation" unicode="&#x2211;" horiz-adv-x="441" 
d="M121 -129h358v-71h-449v71l179 373l-179 359v71h449v-71h-358l178 -359z" />
    <glyph glyph-name="minus" unicode="&#x2212;" horiz-adv-x="553" 
d="M497 304h-440v72h440v-72z" />
    <glyph glyph-name="uni2215" unicode="&#x2215;" horiz-adv-x="358" 
d="M11 0h-71l451 712h71z" />
    <glyph glyph-name="uni2219" unicode="&#x2219;" horiz-adv-x="242" 
d="M180 337q0 -25 -17 -42t-42 -17t-42 17t-17 42t17 42t42 17t42 -17t17 -42z" />
    <glyph glyph-name="radical" unicode="&#x221a;" horiz-adv-x="755" 
d="M469 -198h-111l-202 552h-123l15 68h171l107 -299q87 -239 87 -255q0 1 7.5 33.5t25 97.5t37.5 130l235 769h83z" />
    <glyph glyph-name="infinity" unicode="&#x221e;" horiz-adv-x="835" 
d="M416 297q-44 -54 -90 -85t-107 -31q-81 0 -125.5 44.5t-44.5 118.5t47.5 120.5t128.5 46.5q59 0 104 -30.5t89 -87.5q91 119 196 119q81 0 126.5 -44t45.5 -117q0 -74 -48 -122t-128 -48q-61 0 -105 30t-89 86zM123 348q0 -43 28 -72.5t76 -29.5q71 0 142 100
q-23 30 -40 48.5t-45.5 35t-57.5 16.5q-49 0 -76 -27.5t-27 -70.5zM466 345q37 -48 68.5 -72.5t74.5 -24.5q49 0 75.5 27t26.5 72q0 42 -28 71t-76 29q-72 0 -141 -102z" />
    <glyph glyph-name="integral" unicode="&#x222b;" horiz-adv-x="314" 
d="M196 -6q0 -74 -39 -117t-110 -43q-27 0 -48 6v73q21 -9 45 -9q31 0 52 22t21 68v552q0 74 39.5 117t109.5 43q29 0 49 -7v-72q-23 9 -46 9q-31 0 -52 -22.5t-21 -68.5v-551z" />
    <glyph glyph-name="approxequal" unicode="&#x2248;" horiz-adv-x="617" 
d="M215 441q-67 0 -114 -68l-51 45q68 93 153 93q53 0 119.5 -36.5t97.5 -36.5q55 0 89 59l57 -41q-56 -88 -140 -88q-46 0 -115 36.5t-96 36.5zM215 241q-67 0 -114 -68l-51 45q68 93 153 93q53 0 119.5 -36.5t97.5 -36.5q56 0 89 59l57 -41q-56 -88 -140 -88
q-46 0 -115 36.5t-96 36.5z" />
    <glyph glyph-name="notequal" unicode="&#x2260;" horiz-adv-x="553" 
d="M497 205h-253l-39 -88h-56l39 88h-131v68h162l59 134h-221v68h252l39 88h56l-39 -88h132v-68h-163l-59 -134h222v-68z" />
    <glyph glyph-name="lessequal" unicode="&#x2264;" horiz-adv-x="548" 
d="M492 485l-407 -81l407 -82v-73l-440 97v115l440 98v-74zM492 120h-440v68h440v-68z" />
    <glyph glyph-name="greaterequal" unicode="&#x2265;" horiz-adv-x="548" 
d="M497 461v-115l-440 -97v73l408 82l-408 81v74zM497 120h-440v68h440v-68z" />
    <glyph glyph-name="lozenge" unicode="&#x25ca;" horiz-adv-x="564" 
d="M140 337l44 -84l97 -187q31 63 99 187l44 84l-44 84l-99 187l-97 -187zM328 0h-96l-180 337l180 337h96l184 -337z" />
    <glyph glyph-name="dottedcircle" unicode="&#x25cc;" horiz-adv-x="660" 
d="M286 90q0 -20 -12.5 -33t-31.5 -13t-32 13t-13 33q0 18 13 31t32 13t31.5 -13t12.5 -31zM184 165q0 -19 -12.5 -31.5t-31.5 -12.5q-20 0 -32 12.5t-12 31.5t12.5 31.5t31.5 12.5t31.5 -12.5t12.5 -31.5zM132 281q0 -19 -12.5 -31t-31.5 -12t-31.5 12t-12.5 31t12.5 32
t31.5 13t31.5 -12.5t12.5 -32.5zM413 74q0 -19 -12.5 -31.5t-32.5 -12.5t-32 12t-12 32t12 32t32 12t32.5 -12.5t12.5 -31.5zM147 407q0 -19 -13 -31.5t-31 -12.5q-20 0 -33 12.5t-13 31.5t13 31.5t33 12.5q18 0 31 -12.5t13 -31.5zM534 127q0 -19 -13 -31.5t-32 -12.5
t-31.5 12.5t-12.5 31.5t12.5 31.5t31.5 12.5t32 -12.5t13 -31.5zM227 517q0 -20 -12.5 -32.5t-31.5 -12.5t-31.5 12.5t-12.5 32.5q0 19 12.5 31.5t31.5 12.5t31.5 -12.5t12.5 -31.5zM606 225q0 -19 -12.5 -31.5t-30.5 -12.5q-19 0 -32 12.5t-13 31.5t13 32t32 13
q18 0 30.5 -13t12.5 -32zM345 560q0 -20 -12.5 -32t-31.5 -12t-31.5 12t-12.5 32t12.5 32t31.5 12t31.5 -12t12.5 -32zM616 359q0 -19 -12.5 -31.5t-31.5 -12.5q-20 0 -32 12.5t-12 31.5t12 31.5t32 12.5q19 0 31.5 -12.5t12.5 -31.5zM471 545q0 -18 -12.5 -31t-30.5 -13
q-19 0 -32 13t-13 31q0 19 12.5 32t32.5 13q19 0 31 -12.5t12 -32.5zM566 477q0 -19 -12.5 -31.5t-31.5 -12.5t-31.5 12.5t-12.5 31.5t12.5 32t31.5 13t31.5 -12.5t12.5 -32.5z" />
    <glyph glyph-name="fi" unicode="&#xfb01;" horiz-adv-x="514" 
d="M196 0h-79v443h-87v64h87v47q0 74 40 117t113 43q71 0 139 -34v-73q-70 36 -136 36q-77 0 -77 -90v-46h249v-507h-79v443h-170v-443z" />
    <glyph glyph-name="fl" unicode="&#xfb02;" horiz-adv-x="510" 
d="M308 443h-112v-443h-79v443h-87v64h87v47q0 74 39.5 117t112.5 43q85 0 168 -49v-665h-78v627q-42 16 -81 16q-82 0 -82 -90v-46h112v-64z" />
    <glyph glyph-name="tlKAc2" horiz-adv-x="342" 
d="M368 -272q0 -82 -57.5 -135.5t-147.5 -53.5q-101 0 -162.5 56t-61.5 157q0 56 20.5 116t49.5 113.5l58 107t49.5 114.5t20.5 118q0 113 -78 231h83q68 -109 68 -232q0 -74 -31 -157t-67.5 -144t-67.5 -135t-31 -133q0 -67 40 -109t109 -42q58 0 96 38.5t38 96.5
q0 52 -34 93t-96 50v16q11 2 31 2l-31 22l166 23l57 -39l-125 -18q48 -18 76 -60t28 -96z" />
    <glyph glyph-name="tlKHAc2" 
d="M-170 -469q57 0 102 31l-48 36t-39.5 22t-46.5 12q-26 0 -42 -13t-16 -34q0 -25 24 -39.5t66 -14.5zM93 -246q0 -108 -65 -187q54 -33 97 -33q59 0 96 47.5t37 122.5q0 77 -33.5 123t-94.5 51v61q91 -2 144 -66.5t53 -164.5q0 -104 -56 -169t-144 -65q-69 0 -144 50
q-67 -51 -155 -51q-71 0 -113 30.5t-42 82.5q0 46 32.5 75.5t83.5 29.5q34 0 71 -15.5t56 -28.5t60 -44q49 65 49 153q0 55 -25 94t-63 39q-24 0 -38 -13t-14 -35q0 -44 50 -44q20 0 49 11v-53q-29 -13 -60 -13q-47 0 -76.5 27t-29.5 70q0 47 33.5 77.5t84.5 30.5
q70 0 113.5 -56t43.5 -137zM28 -667h-86v14l24 139h37l25 -139v-14z" />
    <glyph glyph-name="tlGAc2" 
d="M158 -505h-72q26 81 26 180q0 89 -28 147.5t-83 58.5q-56 0 -84.5 -58.5t-28.5 -147.5q0 -100 25 -180h-70q-22 75 -22 175q0 117 45.5 194t134.5 77q88 0 133 -77t45 -194q0 -99 -21 -175z" />
    <glyph glyph-name="tlGHAc2" 
d="M-87 -647h-86v14l24 140h38l24 -140v-14zM-296 -383q0 -29 15.5 -45.5t42.5 -16.5t43 17t16 45q0 27 -16.5 44t-43.5 17q-24 0 -40.5 -17.5t-16.5 -43.5zM358 -285q0 -100 -37.5 -156.5t-103.5 -56.5q-78 0 -105 76q-40 -76 -127 -76q-75 0 -121 78q-10 -36 -38 -57.5
t-67 -21.5q-52 0 -84.5 32t-32.5 83q0 49 34 82t83 33q44 0 78 -27t51.5 -59.5t42 -59.5t53.5 -27q43 0 66.5 39.5t23.5 110.5q0 77 -32 126.5t-90 49.5q-22 0 -38 -6v58q23 5 45 5q85 0 132.5 -64t47.5 -169q0 -150 77 -150t77 153q0 78 -28 125.5t-75 46.5v56
q82 1 125 -61.5t43 -162.5z" />
    <glyph glyph-name="tlNGAc2" 
d="M1 -426q-11 -36 -44 -57.5t-78 -21.5q-58 0 -95 32.5t-37 83.5q0 35 18 63.5t44 47t52 34.5t44 35.5t18 41.5q0 25 -12 40t-35 15q-24 0 -38 -16t-14 -43q0 -16 6 -32l-64 -1q-7 18 -7 38q0 50 32.5 80.5t84.5 30.5q40 0 67.5 -20t39.5 -52h81v74h66v-74h103v-54h-245
q-4 -28 -23 -52t-44 -41l-49 -33t-40.5 -36.5t-16.5 -44.5q0 -28 18.5 -43.5t50.5 -15.5q38 0 62 24t24 64v37h66v-37q0 -41 20.5 -64.5t57.5 -23.5q34 0 52.5 21t18.5 57t-18 56t-50 20q-15 0 -27 -3l1 57q12 4 32 4q59 0 94.5 -37t35.5 -98q0 -59 -39 -97t-97 -38
q-45 0 -75.5 21.5t-40.5 57.5z" />
    <glyph glyph-name="tlCAc2" horiz-adv-x="300" 
d="M12 -402q-11 -37 -43 -60.5t-75 -23.5q-62 0 -100 33t-38 88q0 63 49 98h-70v55h181v-55q-44 -1 -67 -26.5t-23 -63.5q0 -32 19.5 -51.5t53.5 -19.5q35 0 56.5 26t21.5 67v36h68v-37q0 -43 19 -67.5t53 -24.5q86 0 86 214q0 155 -44 365t-119 401h75q73 -195 114.5 -396
t41.5 -369q0 -129 -37.5 -201t-114.5 -72q-43 0 -72 23.5t-35 60.5z" />
    <glyph glyph-name="tlCHAc2" horiz-adv-x="300" 
d="M12 -402q-11 -37 -43 -60.5t-75 -23.5q-62 0 -100 33t-38 88q0 63 49 98h-70v55h181v-55q-44 -1 -67 -26.5t-23 -63.5q0 -32 19.5 -51.5t53.5 -19.5q35 0 56.5 26t21.5 67v36h68v-37q0 -43 19 -67.5t53 -24.5q86 0 86 214q0 155 -44 365t-119 401h75q73 -195 114.5 -396
t41.5 -369q0 -129 -37.5 -201t-114.5 -72q-43 0 -72 23.5t-35 60.5zM53 -634h-86v13l24 140h38l24 -140v-13z" />
    <glyph glyph-name="tlJAc2" 
d="M8 -410q-19 -85 -125 -85q-56 0 -91.5 31.5t-35.5 82.5q0 34 18 62t43.5 46l51 34.5t43.5 36t18 41.5q0 53 -47 53q-22 0 -35.5 -14.5t-13.5 -39.5q0 -11 4 -33h-62q-5 18 -5 37q0 47 30.5 76.5t80.5 29.5q32 0 61.5 -17.5t49 -39t47.5 -39t57 -17.5q27 0 42.5 15.5
t15.5 41.5q0 23 -11 48h62q12 -27 12 -58q0 -46 -31.5 -74.5t-83.5 -28.5q-66 0 -114 46q-4 -33 -31.5 -62t-57 -46.5t-54 -43t-24.5 -54.5q0 -28 17.5 -43t49.5 -15q39 0 63 23.5t24 63.5v31h65v-31q0 -40 20.5 -63.5t54.5 -23.5q64 0 64 73q0 39 -17 76h64q17 -42 17 -80
q0 -55 -34.5 -90t-87.5 -35q-47 0 -77 22.5t-37 62.5z" />
    <glyph glyph-name="tlJHAc2" 
d="M-42 -269q0 -17 -1 -26q3 -142 80 -142q76 0 76 154q0 82 -27.5 129t-74.5 46v57q84 0 126.5 -62.5t42.5 -164.5v-5q0 -154 78 -154q76 0 76 154q0 82 -28 129t-75 46v57q83 0 126.5 -63t43.5 -164q0 -99 -36.5 -157t-103.5 -58q-79 0 -108 76q-36 -76 -114 -76
q-86 0 -112 89q-48 -89 -148 -89q-81 0 -130.5 60t-49.5 162q0 99 49.5 160.5t130.5 61.5q82 0 130.5 -61t48.5 -159zM-333 -270q0 -76 31.5 -121.5t80.5 -45.5t80 45t31 121q0 77 -31 122t-80 45q-50 0 -81 -45t-31 -121zM187 -634h-85v14l24 139h37l24 -139v-14z" />
    <glyph glyph-name="tlNYAc2" 
d="M146 -534h-63q-6 52 -28 98q-66 -64 -153 -64q-66 0 -105 29.5t-39 80.5q0 45 40 77.5t103 32.5q88 0 153 -60q26 55 26 116q0 51 -16 83t-50 32q-29 0 -45.5 -23.5t-16.5 -60.5v-29h-65v32q0 35 -17.5 58t-46.5 23q-30 0 -45 -20t-15 -53t13 -59h-66q-12 28 -12 61
q0 55 33.5 91t86.5 36q39 0 66 -21.5t35 -56.5q8 35 35.5 56.5t64.5 21.5q73 0 108 -78h48v80h63v-80h64v-53h-161q3 -18 3 -37q0 -88 -49 -165q45 -67 51 -148zM-98 -446q72 0 121 57q-48 56 -120 56q-37 0 -58.5 -16t-21.5 -42t20.5 -40.5t58.5 -14.5z" />
    <glyph glyph-name="tlTTAc2" 
d="M271 -275q0 -100 -40 -158.5t-113 -58.5q-43 0 -74 22t-42 59q-24 -81 -115 -81q-73 0 -115.5 59.5t-42.5 156.5q0 93 42.5 159.5t115.5 66.5q51 0 85.5 -33.5t34.5 -82.5q0 -51 -33.5 -85t-84.5 -34q-68 0 -95 55q-3 -21 -3 -41q0 -75 26 -121t72 -46q37 0 59 24t22 65
v28h66v-27q0 -40 20 -64.5t58 -24.5q44 0 67.5 42t23.5 119q0 76 -33 121t-91 45q-21 0 -33 -2v57q12 3 40 3q83 0 133 -61t50 -162zM-180 -168q0 -30 16.5 -47.5t46.5 -17.5q27 0 43 18.5t16 48.5q0 27 -17.5 45t-43.5 18t-43.5 -19t-17.5 -46z" />
    <glyph glyph-name="tlTTHAc2" 
d="M179 -275q0 -100 -49 -159t-129 -59q-81 0 -130.5 58t-49.5 158q0 96 49.5 156t130.5 60q80 0 129 -59.5t49 -154.5zM-112 -277q0 -72 31 -117.5t82 -45.5q49 0 80 44.5t31 118.5t-31 118t-80 44q-51 0 -82 -45t-31 -117zM47 -276q0 -20 -12.5 -33t-32.5 -13t-33 13
t-13 33q0 18 13 31.5t33 13.5q19 0 32 -13.5t13 -31.5z" />
    <glyph glyph-name="tlDDAc2" 
d="M262 -335q0 -72 -40 -115.5t-107 -43.5q-47 0 -82.5 22t-46.5 57q-8 -36 -36 -57.5t-69 -21.5q-65 0 -104 45.5t-39 122.5q0 106 75 185.5t192 79.5q83 0 167 -41v-61q-91 48 -167 48q-92 0 -147 -66t-55 -145q0 -52 22 -82t60 -30q32 0 50 23t18 64v34h65v-24
q0 -47 27 -75.5t71 -28.5q61 0 82 46q-22 -17 -53 -17q-43 0 -70.5 28t-27.5 72q0 45 30 75t75 30q49 0 79.5 -34t30.5 -90zM99 -316q0 -25 14.5 -40t40.5 -15q23 0 38 16t15 39q0 26 -15 41.5t-40 15.5q-23 0 -38 -16t-15 -41z" />
    <glyph glyph-name="tlDDHAc2" 
d="M262 -335q0 -72 -40 -115.5t-107 -43.5q-47 0 -82.5 22t-46.5 57q-8 -36 -36 -57.5t-69 -21.5q-65 0 -104 45.5t-39 122.5q0 106 75 185.5t192 79.5q83 0 167 -41v-61q-91 48 -167 48q-92 0 -147 -66t-55 -145q0 -52 22 -82t60 -30q32 0 50 23t18 64v34h65v-24
q0 -47 27 -75.5t71 -28.5q61 0 82 46q-22 -17 -53 -17q-43 0 -70.5 28t-27.5 72q0 45 30 75t75 30q49 0 79.5 -34t30.5 -90zM34 -641h-87v14l24 141h39l24 -141v-14zM99 -316q0 -25 14.5 -40t40.5 -15q23 0 38 16t15 39q0 26 -15 41.5t-40 15.5q-23 0 -38 -16t-15 -41z" />
    <glyph glyph-name="tlNNAc2" 
d="M-39 -472q-40 -18 -87 -18q-63 0 -100.5 32t-37.5 85q0 41 25.5 68t64.5 34q-37 9 -57.5 36.5t-20.5 67.5q0 52 37.5 85.5t95.5 33.5q41 0 73 -22t43 -57q11 37 40 58t71 21q75 0 115.5 -65t40.5 -174q0 -85 -39 -143.5t-111 -58.5q-54 0 -87.5 34.5t-33.5 81.5
q0 51 33.5 85t83.5 34q63 0 93 -48v18q0 78 -25 129.5t-72 51.5q-35 0 -55 -24t-20 -64v-33h-67v32q0 40 -22 64.5t-59 24.5q-32 0 -51.5 -19t-19.5 -50q0 -32 20.5 -51.5t54.5 -19.5h24v-56h-26q-37 0 -60 -19t-23 -49q0 -32 22 -50t62 -18q32 0 75 18v-55zM57 -372
q0 -27 17 -45t44 -18t44.5 18.5t17.5 47.5q0 28 -17 45.5t-45 17.5t-44.5 -18t-16.5 -48z" />
    <glyph glyph-name="tlTAc2" 
d="M97 -342h-368v62h314q-39 31 -39 90q0 54 37.5 90t97.5 36q59 0 95.5 -37.5t36.5 -92.5q0 -65 -44 -106.5t-130 -41.5zM72 -197q0 -33 17 -54t48 -21q32 0 49 20.5t17 55.5q0 32 -17 52.5t-49 20.5q-31 0 -48 -21t-17 -53z" />
    <glyph glyph-name="tlTHAc2" 
d="M0 -413q-18 -80 -108 -80q-67 0 -107 47.5t-40 127.5q0 109 72.5 185t183.5 76t182.5 -76t71.5 -185q0 -80 -40 -127.5t-107 -47.5q-90 0 -108 80zM44 -633h-86v13l24 140h38l24 -140v-13zM-190 -317q0 -54 23.5 -87t62.5 -33q32 0 51 25t19 68v28h67v-28q0 -43 19.5 -68
t53.5 -25q38 0 61 33t23 87q0 85 -54.5 145.5t-136.5 60.5q-81 0 -135 -60.5t-54 -145.5zM43 -214q0 -18 -12 -30.5t-30 -12.5q-19 0 -31 12.5t-12 30.5t12 30.5t31 12.5q18 0 30 -12.5t12 -30.5z" />
    <glyph glyph-name="tlDAc2" 
d="M0 -413q-18 -80 -108 -80q-67 0 -107 47.5t-40 127.5q0 109 72.5 185t183.5 76t182.5 -76t71.5 -185q0 -80 -40 -127.5t-107 -47.5q-90 0 -108 80zM-190 -317q0 -54 23.5 -87t62.5 -33q32 0 51 25t19 68v28h67v-28q0 -43 19.5 -68t53.5 -25q38 0 61 33t23 87
q0 85 -54.5 145.5t-136.5 60.5q-81 0 -135 -60.5t-54 -145.5z" />
    <glyph glyph-name="tlDHAc2" 
d="M0 -413q-18 -80 -108 -80q-67 0 -107 47.5t-40 127.5q0 109 72.5 185t183.5 76t182.5 -76t71.5 -185q0 -80 -40 -127.5t-107 -47.5q-90 0 -108 80zM44 -633h-86v13l24 140h38l24 -140v-13zM-190 -317q0 -54 23.5 -87t62.5 -33q32 0 51 25t19 68v28h67v-28q0 -43 19.5 -68
t53.5 -25q38 0 61 33t23 87q0 85 -54.5 145.5t-136.5 60.5q-81 0 -135 -60.5t-54 -145.5z" />
    <glyph glyph-name="tlNAc2" horiz-adv-x="286" 
d="M257 -466h-72q-25 75 -67 134q-78 -102 -197 -102q-79 0 -126 36.5t-47 98.5t49.5 100t129.5 38q97 0 178 -64q32 88 32 203q0 247 -126 574h79q66 -178 92.5 -312t26.5 -262q0 -144 -54 -252q64 -74 102 -192zM-78 -374q94 0 153 91q-66 63 -145 63q-52 0 -82 -22.5
t-30 -59.5q0 -33 28 -52.5t76 -19.5z" />
    <glyph glyph-name="tlPAc2" horiz-adv-x="298" 
d="M102 -408q-82 0 -132 85q-11 -39 -42.5 -62.5t-74.5 -23.5q-57 0 -93.5 35t-36.5 89t37 90.5t92 36.5q40 0 71.5 -19.5t51.5 -48l38.5 -56.5t41.5 -47.5t51 -19.5q94 0 94 194q0 296 -163 707h75q80 -207 118.5 -373t38.5 -333q0 -254 -167 -254zM-208 -283
q0 -31 17.5 -49.5t46.5 -18.5q30 0 47.5 19t17.5 50q0 29 -18 47.5t-48 18.5q-28 0 -45.5 -19t-17.5 -48z" />
    <glyph glyph-name="tlPHAc2" horiz-adv-x="298" 
d="M102 -408q-82 0 -132 85q-11 -39 -42.5 -62.5t-74.5 -23.5q-57 0 -93.5 35t-36.5 89t37 90.5t92 36.5q40 0 71.5 -19.5t51.5 -48l38.5 -56.5t41.5 -47.5t51 -19.5q94 0 94 194q0 296 -163 707h75q80 -207 118.5 -373t38.5 -333q0 -254 -167 -254zM16 -553h-86v14l24 141
h38l24 -141v-14zM-208 -283q0 -31 17.5 -49.5t46.5 -18.5q30 0 47.5 19t17.5 50q0 29 -18 47.5t-48 18.5q-28 0 -45.5 -19t-17.5 -48z" />
    <glyph glyph-name="tlBAc2" horiz-adv-x="295" 
d="M3 -423q-12 -38 -44.5 -59t-79.5 -21q-58 0 -94.5 32t-36.5 84q0 30 13 55t32.5 41t42.5 31.5l42.5 28t32.5 30t13 36.5q0 26 -12.5 40.5t-35.5 14.5q-52 0 -52 -58q0 -16 4 -32h-61q-6 16 -6 38q0 48 31.5 78t83.5 30t82 -31.5t30 -77.5q0 -32 -18 -58.5t-43.5 -44.5
l-51 -35t-43.5 -38.5t-18 -46.5q0 -29 19 -45t51 -16q39 0 62.5 24.5t23.5 64.5v37h66v-36q0 -41 20.5 -65.5t54.5 -24.5q47 0 67 47t20 144q0 164 -46 385t-125 423h75q164 -447 164 -808q0 -247 -153 -247q-44 0 -73 21t-37 59z" />
    <glyph glyph-name="tlBHAc2" horiz-adv-x="295" 
d="M3 -423q-12 -38 -44.5 -59t-79.5 -21q-58 0 -94.5 32t-36.5 84q0 30 13 55t32.5 41t42.5 31.5l42.5 28t32.5 30t13 36.5q0 26 -12.5 40.5t-35.5 14.5q-52 0 -52 -58q0 -16 4 -32h-61q-6 16 -6 38q0 48 31.5 78t83.5 30t82 -31.5t30 -77.5q0 -32 -18 -58.5t-43.5 -44.5
l-51 -35t-43.5 -38.5t-18 -46.5q0 -29 19 -45t51 -16q39 0 62.5 24.5t23.5 64.5v37h66v-36q0 -41 20.5 -65.5t54.5 -24.5q47 0 67 47t20 144q0 164 -46 385t-125 423h75q164 -447 164 -808q0 -247 -153 -247q-44 0 -73 21t-37 59zM44 -654h-86v14l24 140h38l24 -140v-14z
" />
    <glyph glyph-name="tlMAc2" horiz-adv-x="254" 
d="M57 -248q20 0 32 14.5t12 35.5q0 23 -15.5 38.5t-43.5 15.5q-26 -27 -26 -59q0 -20 10.5 -32.5t30.5 -12.5zM225 -419q-72 -42 -160 -42q-92 0 -150.5 54.5t-58.5 141.5q0 67 41 116.5t110 58.5q80 167 80 319q0 162 -84 323h82q71 -162 71 -324q0 -165 -77 -322
q41 -10 64.5 -38.5t23.5 -64.5q0 -47 -30.5 -76t-77.5 -29q-44 0 -71 26.5t-27 64.5q0 25 12 50q-53 -33 -53 -104q0 -62 41.5 -99.5t109.5 -37.5q77 0 154 45v-62z" />
    <glyph glyph-name="tlYAc2" horiz-adv-x="280" 
d="M350 -235q0 -66 -24 -118.5t-64 -84.5t-88 -48.5t-100 -16.5q-72 0 -115.5 32t-43.5 85q0 42 27.5 75.5t60 51t60 42.5t27.5 52q0 26 -13 40.5t-35 14.5q-52 0 -52 -58q0 -8 4 -32h-62q-5 16 -5 38q0 48 31.5 78t83.5 30q51 0 81.5 -31.5t30.5 -77.5q0 -33 -17.5 -59.5
t-43 -44.5l-50.5 -34.5t-42.5 -38t-17.5 -46.5q0 -28 25 -44.5t68 -16.5q80 0 143.5 56t63.5 155q0 61 -22.5 130t-55 130.5l-65 121.5t-55 125t-22.5 120q0 67 36 112t100 46q66 0 98 -46.5t32 -125.5h-72q0 110 -58 110q-31 0 -48 -26.5t-17 -69.5q0 -59 34 -139
t74 -148.5t74 -162t34 -176.5z" />
    <glyph glyph-name="tlRAc2" 
d="M0 -288q-162 0 -243.5 61t-81.5 158h62q0 -65 65 -112.5t198 -47.5q134 0 199.5 47.5t65.5 112.5h61q0 -96 -82.5 -157.5t-243.5 -61.5z" />
    <glyph glyph-name="tlLAc2" 
d="M-143 -298h-70q-18 42 -18 83q0 58 34 96.5t90 38.5q41 0 70 -23.5t37 -62.5q7 39 36 62.5t70 23.5q57 0 91 -38.5t34 -96.5q0 -41 -18 -83h-70q19 41 19 81q0 36 -16 56.5t-46 20.5t-47.5 -24.5t-17.5 -59.5v-35h-70v35q0 35 -17.5 59.5t-47.5 24.5t-46 -20.5t-16 -56.5
q0 -40 19 -81z" />
    <glyph glyph-name="tlVAc2" horiz-adv-x="276" 
d="M92 -408q-82 0 -124 78q-13 -36 -43.5 -57.5t-71.5 -21.5q-57 0 -93.5 35t-36.5 89t37 90.5t92 36.5q40 0 71 -19.5t50 -48t35.5 -56.5t37.5 -47.5t46 -19.5q41 0 61 36t20 91q0 70 -34.5 155.5t-75.5 153.5t-75.5 152.5t-34.5 151.5t36.5 112t99.5 46q66 0 97.5 -46
t31.5 -126h-71q0 110 -58 110q-31 0 -48.5 -27t-17.5 -69q0 -59 34 -139t74.5 -147t74.5 -157.5t34 -168.5q0 -82 -36.5 -134.5t-111.5 -52.5zM-208 -283q0 -31 17.5 -49.5t46.5 -18.5q30 0 47.5 19t17.5 50q0 29 -18 47.5t-48 18.5q-28 0 -45.5 -19t-17.5 -48z" />
    <glyph glyph-name="tlSHAc2" horiz-adv-x="211" 
d="M45 552h73q59 -142 59 -292q0 -65 -10.5 -124t-35.5 -120.5t-38.5 -89l-46.5 -90.5q60 -21 95.5 -68t35.5 -103q0 -63 -37 -103t-97 -40q-57 0 -92.5 37t-34.5 99q1 57 40 136q-56 -4 -93 -42t-37 -94q0 -25 7 -43h-69q-4 26 -4 42q0 84 59 138t147 54q11 0 17 -1
q70 137 93 206q34 102 34 205q0 160 -65 293zM46 -421q30 0 47.5 22.5t17.5 59.5q0 41 -24.5 76t-65.5 49q-39 -80 -39 -133q0 -36 17.5 -55t46.5 -19z" />
    <glyph glyph-name="tlSSAc2" 
d="M-184 -373q0 -28 15 -44t41 -16q27 0 43 16.5t16 43.5t-16.5 43.5t-42.5 16.5q-25 0 -40.5 -16.5t-15.5 -43.5zM226 -598h-83q-10 24 -10 56q0 33 12 63q-24 -8 -49 -8q-76 0 -121 76q-11 -35 -39 -56t-66 -21q-52 0 -84.5 31.5t-32.5 81.5q0 49 33.5 82.5t83.5 33.5
q36 0 64.5 -17.5t46.5 -43t34 -51t36 -43t44 -17.5q40 0 63 39.5t23 108.5q0 75 -30 125t-88 50q-20 0 -38 -5v57q19 6 44 6q83 0 130.5 -64t47.5 -169q0 -70 -23 -119h1q-28 -57 -28 -109q0 -46 29 -87z" />
    <glyph glyph-name="tlSAc2" horiz-adv-x="288" 
d="M-94 -470q-21 -8 -49 -8q-54 0 -88 39t-34 100q0 67 37.5 110.5t100.5 43.5q43 0 74.5 -23t49.5 -55.5t33.5 -64.5t36 -55t46.5 -23q78 0 78 189q0 159 -43.5 367.5t-120.5 401.5h76q156 -430 156 -769q0 -118 -36.5 -182.5t-111.5 -64.5q-42 0 -73 23t-49 55.5t-33 64.5
t-35.5 55t-46.5 23q-34 0 -52 -26t-18 -68q0 -38 16.5 -60.5t46.5 -22.5q23 0 39 6v-56z" />
    <glyph glyph-name="tlHAc2" 
d="M-304 -375q0 -27 16 -43.5t42 -16.5t42 17t16 44q0 26 -16.5 42.5t-43.5 16.5q-24 0 -40 -17t-16 -43zM366 -173q0 -44 -29.5 -73.5t-74.5 -29.5q-48 0 -78 27t-30 70t25 68h-133q79 -55 79 -179q0 -94 -39.5 -146t-111.5 -52t-119 75q-11 -35 -38.5 -55.5t-65.5 -20.5
q-52 0 -84.5 31t-32.5 81q0 49 33.5 82t83.5 33q35 0 63.5 -17.5t46 -43l33.5 -50.5t36 -42.5t43 -17.5q41 0 64 37.5t23 105.5q0 81 -42 130.5t-115 48.5v55h326q68 0 102.5 -32.5t34.5 -84.5zM215 -172q0 -23 12 -36.5t33 -13.5q20 0 33 14t13 37q0 22 -12 37.5t-34 15.5
t-33.5 -15.5t-11.5 -38.5z" />
    <glyph glyph-name="tlRRAc2" 
d="M-199 -177q0 -29 17 -47t46 -18q27 0 43.5 18.5t16.5 48.5q0 27 -17.5 45t-44.5 18q-26 0 -43.5 -18.5t-17.5 -46.5zM157 -293h-149v55h62q-38 27 -38 76q0 44 30.5 73.5t76.5 29.5q69 0 107 -57t38 -152q0 -101 -44.5 -166t-122.5 -65q-45 0 -78.5 21.5t-44.5 57.5
q-11 -37 -41 -58t-72 -21q-75 0 -120 61.5t-45 158.5q0 95 39.5 157.5t112.5 62.5q52 0 85.5 -33.5t33.5 -81.5q0 -52 -33 -86t-84 -34q-65 0 -92 51q-1 -14 -1 -38q0 -69 28.5 -116t78.5 -47q35 0 57 23.5t22 61.5v27h66v-26q0 -39 24 -62.5t64 -23.5q48 0 75.5 50.5
t27.5 128.5q0 71 -21 113t-56 42q-23 0 -37.5 -16t-14.5 -42q0 -27 17.5 -46.5t46.5 -23.5h2v-55z" />
    <glyph glyph-name="tlKSSAc2" 
d="M132 -389q0 -61 -45.5 -97.5t-116.5 -36.5q-78 0 -139 32v64q73 -39 135 -39q93 0 93 74q0 29 -23.5 48.5t-56.5 32l-66.5 26.5t-57 41.5t-23.5 68.5q0 54 44 89t117 35q55 0 104 -17v-63q-47 22 -99 22q-45 0 -70 -17.5t-25 -48.5q0 -29 36 -50.5t78.5 -35t78.5 -46.5
t36 -82zM242 -682q-75 0 -105 56q-21 -56 -86 -56t-89 49q-24 -49 -89 -49q-53 0 -84 37.5t-31 103.5h63q0 -85 55 -85q28 0 41 21.5t13 52.5h64q0 -74 55 -74t55 85h62q0 -34 19 -59.5t57 -25.5v-56z" />
    <glyph glyph-name="tlTAc2_RAc2" 
d="M97 -342h-368v62h314q-39 31 -39 90q0 54 37.5 90t97.5 36q59 0 95.5 -37.5t36.5 -92.5q0 -65 -44 -106.5t-130 -41.5zM72 -197q0 -33 17 -54t48 -21q32 0 49 20.5t17 55.5q0 32 -17 52.5t-49 20.5q-31 0 -48 -21t-17 -53zM181 -412h62q0 -84 -64 -132t-174 -48
q-112 0 -174 47t-62 133h62q0 -52 45.5 -86.5t128.5 -34.5q84 0 130 34.5t46 86.5z" />
    <glyph glyph-name="tlRAc2.spacing" horiz-adv-x="453" 
d="M225 -258h-94v6q83 78 148.5 218t65.5 264q0 52 -6 92q-55 -53 -140 -53q-66 0 -112.5 43t-46.5 111q0 65 43 109t110 44q105 0 163.5 -93t58.5 -254q0 -131 -54 -259t-136 -228zM201 338q69 0 119 58q-41 109 -125 109q-36 0 -58.5 -23.5t-22.5 -58.5q0 -40 23.5 -62.5
t63.5 -22.5z" />
    <glyph glyph-name="tlK" horiz-adv-x="468" 
d="M367 155q0 -71 -53 -115t-135 -44q-90 0 -160 36v74q83 -45 157 -45q55 0 82.5 24.5t27.5 66.5q0 31 -20 52.5t-49.5 32t-64 24t-64 28t-49.5 44.5t-20 72q0 78 74 121q-37 26 -37 76q0 30 16 55.5t45 37.5q-31 7 -50 28t-19 53q0 45 35.5 71.5t108.5 26.5h326v-66h-323
q-70 0 -70 -52q0 -50 76 -50h154v-65h-163q-27 0 -44 -12.5t-17 -33.5q0 -36 34 -45q19 3 42 3q71 0 121 -19v-72q-54 25 -114 25q-53 0 -83.5 -22.5t-30.5 -59.5q0 -31 27.5 -51.5t67 -33.5t78.5 -29.5t66.5 -50.5t27.5 -85z" />
    <glyph glyph-name="tlKH" horiz-adv-x="888" 
d="M519 330q0 -133 -77 -227q69 -43 125 -43q73 0 118 54.5t45 140.5q0 53 -20.5 95t-49 68.5l-57.5 51t-49.5 56.5t-20.5 71q0 33 16.5 59.5t45.5 38.5q-31 8 -50 29t-19 53q0 97 144 97h326v-66h-323q-71 0 -71 -51q0 -50 76 -50h154v-66h-159q-60 0 -60 -47q0 -23 20 -46
t49 -46.5t58 -53t49 -78.5t20 -110q0 -119 -67 -194t-173 -75q-84 0 -176 63q-81 -63 -187 -63q-86 0 -136 36t-50 98q0 53 39.5 89t98.5 36q32 0 61 -7.5t62.5 -28t48.5 -31l54 -39.5q58 78 58 189q0 67 -30 115.5t-78 48.5q-33 0 -50 -17.5t-17 -44.5q0 -25 17 -40t47 -15
q37 0 63 15v-60q-34 -17 -76 -17q-53 0 -89.5 31.5t-36.5 84.5q0 54 39.5 91t100.5 37q83 0 135 -67t52 -165zM208 55q73 0 128 41q-39 31 -58 45t-50.5 28.5t-57.5 14.5q-34 0 -53.5 -17.5t-19.5 -43.5q0 -32 30 -50t81 -18zM445 -180h-98v14l29 168h40l29 -168v-14z" />
    <glyph glyph-name="tlG" horiz-adv-x="511" 
d="M420 0h-83q32 98 32 224q0 113 -36 189t-105 76q-70 0 -106.5 -76t-36.5 -189q0 -125 32 -223h-84q-27 95 -27 217q0 110 33.5 194t99.5 119q-31 26 -31 71q0 30 16.5 55.5t45.5 37.5q-31 7 -50 28t-19 53q0 45 35.5 71.5t107.5 26.5h251v-66h-247q-71 0 -71 -52
q0 -50 77 -50h105v-65h-113q-28 0 -44.5 -12.5t-16.5 -33.5q0 -34 28 -44q5 1 15 1q74 0 124.5 -47t73 -120.5t22.5 -166.5q0 -118 -28 -218z" />
    <glyph glyph-name="tlGH" horiz-adv-x="1052" 
d="M360 -181h-98v14l29 167h40l29 -167v-14zM96 136q0 -37 20.5 -60t57.5 -23t58.5 23.5t21.5 59.5q0 35 -21.5 58.5t-59.5 23.5q-34 0 -55.5 -24t-21.5 -58zM1008 264q0 -131 -61 -202.5t-158 -71.5q-120 0 -160 105q-52 -104 -164 -104q-100 0 -158 103q-12 -47 -48 -75.5
t-88 -28.5q-68 0 -109.5 40t-41.5 104q0 63 43.5 105t106.5 42q40 0 73 -16.5t53.5 -41.5t41 -54.5l37 -54.5t39.5 -41.5t50 -16.5q55 0 85.5 53t30.5 141q0 102 -53.5 169.5t-146.5 67.5q-37 0 -79 -10v68q45 10 81 10q132 0 205 -83t73 -220q0 -92 32 -144.5t92 -52.5
q62 0 103.5 53.5t41.5 150.5t-53 161.5t-140 64.5v67q128 0 200 -83t72 -205zM515 808h-323q-70 0 -70 -52q0 -50 76 -50h154v-65h-163q-27 0 -44 -12.5t-17 -33.5q0 -49 68 -49h24v-41h-54q-52 0 -82.5 26t-30.5 71q0 30 16 55.5t45 37.5q-31 7 -50 28t-19 53
q0 45 35.5 71.5t108.5 26.5h326v-66z" />
    <glyph glyph-name="tlNG" horiz-adv-x="715" 
d="M359 102q-11 -53 -53.5 -82t-105.5 -29q-74 0 -120 40t-46 106q0 45 23.5 80.5t57 58.5l66.5 44t56.5 46.5t23.5 55.5q0 34 -17 54.5t-48 20.5q-32 0 -51 -20t-19 -57q0 -17 5 -40h-75q-6 22 -6 44q0 62 39 100.5t107 38.5q62 0 100 -36.5t42 -91.5h105v71
q-46 4 -72 29.5t-26 66.5q0 30 16.5 55.5t45.5 37.5q-30 7 -49 28t-19 53q0 45 35 71.5t108 26.5h256v-66h-252q-72 0 -72 -52q0 -50 76 -50h106v-65h-113q-28 0 -44.5 -12.5t-16.5 -33.5q0 -49 67 -49h31v-111h131v-64h-324q-15 -33 -52 -64.5t-72 -51.5t-62.5 -51
t-27.5 -66q0 -38 25 -60t68 -22q52 0 83 33t31 85v44h79v-44q0 -53 27.5 -85.5t77.5 -32.5q44 0 70 30t26 78q0 46 -24.5 72t-71.5 26q-14 0 -28 -3v66q16 4 37 4q76 0 120.5 -45.5t44.5 -120.5q0 -73 -47 -122.5t-125 -49.5q-61 0 -100 29t-47 82z" />
    <glyph glyph-name="tlC" horiz-adv-x="710" 
d="M357 102q-7 -48 -46.5 -79.5t-98.5 -31.5q-75 0 -121.5 40t-46.5 107q0 83 68 124h-97v67h220v-67q-55 -1 -83.5 -33.5t-28.5 -79.5q0 -42 25.5 -67.5t68.5 -25.5q45 0 73 33t28 85v43h78v-43q0 -52 25 -85t70 -33q48 0 74.5 39.5t26.5 103.5q0 54 -22.5 93t-58.5 62
t-80 40.5t-87.5 33t-79.5 34t-58.5 49.5t-22.5 74q0 35 18.5 65.5t50.5 44.5q-68 16 -68 81q0 45 34.5 71.5t106.5 26.5h292v-66h-287q-71 0 -71 -52q0 -50 77 -50h118v-65h-126q-30 0 -47.5 -15.5t-17.5 -39.5q0 -27 22.5 -47.5t58.5 -35t79.5 -29t87 -36t79.5 -50
t58.5 -77t22.5 -111.5q0 -93 -49 -151t-125 -58q-62 0 -98.5 31t-41.5 80z" />
    <glyph glyph-name="tlCH" horiz-adv-x="710" 
d="M357 102q-7 -48 -46.5 -79.5t-98.5 -31.5q-75 0 -121.5 40t-46.5 107q0 83 68 124h-97v67h220v-67q-55 -1 -83.5 -33.5t-28.5 -79.5q0 -42 25.5 -67.5t68.5 -25.5q45 0 73 33t28 85v43h78v-43q0 -52 25 -85t70 -33q48 0 74.5 39.5t26.5 103.5q0 54 -22.5 93t-58.5 62
t-80 40.5t-87.5 33t-79.5 34t-58.5 49.5t-22.5 74q0 35 18.5 65.5t50.5 44.5q-68 16 -68 81q0 45 34.5 71.5t106.5 26.5h292v-66h-287q-71 0 -71 -52q0 -50 77 -50h118v-65h-126q-30 0 -47.5 -15.5t-17.5 -39.5q0 -27 22.5 -47.5t58.5 -35t79.5 -29t87 -36t79.5 -50
t58.5 -77t22.5 -111.5q0 -93 -49 -151t-125 -58q-62 0 -98.5 31t-41.5 80zM405 -177h-98v14l29 167h40l29 -167v-14z" />
    <glyph glyph-name="tlJ" horiz-adv-x="724" 
d="M359 102q-12 -55 -55 -83t-106 -28q-74 0 -119 40t-45 106q0 44 23.5 80t57 59.5l66.5 45t56.5 47t23.5 54.5q0 34 -17 54t-47 20t-49 -20t-19 -56q0 -19 6 -39h-76q-6 23 -6 46q0 59 39 97t105 38q37 0 70.5 -17.5t59 -42.5l51 -50.5t59.5 -43t72 -17.5q25 0 40.5 11.5
t15.5 31.5t-27.5 39t-60 34t-60 43.5t-27.5 64.5q0 59 58 81q-66 18 -66 81q0 45 36 71.5t108 26.5h251v-65h-247q-71 0 -71 -53q0 -49 76 -49h103v-66h-109q-60 0 -60 -37q0 -18 26.5 -36t59 -33t59 -43t26.5 -63q0 -46 -34.5 -75.5t-91.5 -29.5q-50 0 -100.5 24t-81.5 59
q-4 -37 -28 -68t-55 -52.5l-62 -43t-52 -49t-21 -59.5q0 -37 24 -59t64 -22q52 0 85 32t33 86v39h79v-39q0 -51 27.5 -84.5t72.5 -33.5q42 0 64.5 28t22.5 72q0 47 -23 97h78q21 -53 21 -102q0 -69 -42 -114.5t-115 -45.5q-59 0 -99 29.5t-47 81.5z" />
    <glyph glyph-name="tlJH" horiz-adv-x="1268" 
d="M533 274v-6q0 -98 35.5 -155t99.5 -57q58 0 95 53.5t37 150.5t-53 161t-140 64v68q128 0 199.5 -83t71.5 -205v-4q0 -97 35.5 -151t100.5 -54q57 0 94 53.5t37 150.5t-53 161t-140 64v68q128 0 200 -83t72 -205q0 -133 -56.5 -203.5t-150.5 -70.5q-122 0 -168 115
q-52 -115 -177 -115q-126 0 -172 129q-30 -61 -85.5 -95t-126.5 -34q-111 0 -178.5 76.5t-67.5 204.5q0 90 36 156.5t100 98.5q-35 26 -35 75q0 30 16 55.5t45 37.5q-31 7 -50 28t-19 53q0 45 35.5 71.5t108.5 26.5h326v-66h-323q-70 0 -70 -52q0 -50 76 -50h154v-65h-163
q-27 0 -44 -12.5t-17 -33.5q0 -36 35 -45q22 2 35 2q112 0 178.5 -77t66.5 -201zM124 273q0 -98 45.5 -157.5t118.5 -59.5t118.5 59.5t45.5 156.5q0 96 -45.5 156.5t-118.5 60.5q-72 0 -118 -60.5t-46 -155.5zM899 -190h-101v14l33 178h35l33 -178v-14z" />
    <glyph glyph-name="tlNY" horiz-adv-x="833" 
d="M508 -53h-77q0 46 -8 89q-67 -45 -146 -45q-80 0 -130 34.5t-50 99.5q0 59 49.5 98.5t121.5 39.5q118 0 185 -104q59 89 59 193q0 63 -22.5 103.5t-67.5 40.5q-41 0 -62 -31t-21 -80v-34h-78v35q0 47 -23.5 78.5t-64.5 31.5q-40 0 -61 -28t-21 -70q0 -38 13 -73h-78
q-13 36 -13 78q0 67 42 113.5t111 46.5q57 0 92.5 -32t41.5 -82q5 50 39.5 82t88.5 32q62 0 101 -39.5t52 -104.5h54v88q-41 7 -63.5 31.5t-22.5 63.5q0 30 16 55t45 38q-30 7 -49 28t-19 53q0 45 35 71.5t107 26.5h275v-66h-270q-71 0 -71 -52q0 -50 77 -50h99v-65h-108
q-28 0 -44.5 -12.5t-16.5 -33.5q0 -49 67 -49h19v-127h83v-64h-206v-5q0 -68 -27 -137.5t-75 -122.5q22 -68 22 -143zM277 55q70 0 126 48q-42 95 -135 95q-41 0 -66.5 -20.5t-25.5 -54.5q0 -32 26 -50t75 -18z" />
    <glyph glyph-name="tlTT" horiz-adv-x="792" 
d="M394 107q-28 -116 -150 -116q-91 0 -146.5 75t-55.5 200q0 110 45 192t121 97l-3 96h76l-2 -98q47 -13 75.5 -50.5t28.5 -85.5q0 -61 -40.5 -103t-101.5 -42q-41 0 -73 20t-46 55q-7 -47 -7 -74q0 -99 34.5 -158t97.5 -59q52 0 80.5 33.5t28.5 86.5v33h78v-32
q0 -54 27.5 -87.5t79.5 -33.5q58 0 90 50.5t32 136.5q0 54 -22 97t-53.5 71l-63 54t-53.5 58.5t-22 71.5q0 32 16 59.5t46 39.5q-31 8 -50 29t-19 53q0 45 35.5 71.5t108.5 26.5h259v-66h-255q-71 0 -71 -52q0 -50 76 -50h108v-65h-113q-60 0 -60 -50q0 -24 22 -48t53 -49
t62 -56t53 -80.5t22 -110.5q0 -114 -52 -185t-146 -71q-62 0 -102 32t-48 84zM153 412q0 -34 21.5 -56.5t58.5 -22.5q34 0 53.5 23.5t19.5 58.5t-20.5 57.5t-55.5 22.5q-33 0 -55 -24.5t-22 -58.5z" />
    <glyph glyph-name="tlTTH" horiz-adv-x="581" 
d="M533 274q0 -129 -67 -206t-178 -77t-178.5 76.5t-67.5 204.5q0 97 42.5 167.5t115.5 97.5q-24 24 -24 65q0 30 16.5 55.5t45.5 37.5q-31 7 -50 28t-19 53q0 45 35.5 71.5t107.5 26.5h251v-66h-247q-71 0 -71 -52q0 -50 77 -50h96v-65h-104q-28 0 -44.5 -12.5t-16.5 -33.5
q0 -33 27 -43h8q112 0 178.5 -77t66.5 -201zM124 273q0 -98 45.5 -157.5t118.5 -59.5t118.5 59.5t45.5 156.5q0 96 -45.5 156.5t-118.5 60.5q-72 0 -118 -60.5t-46 -155.5zM345 273q0 -25 -16 -41t-40 -16q-25 0 -40.5 16t-15.5 41q0 24 15.5 40t40.5 16q24 0 40 -16t16 -40
z" />
    <glyph glyph-name="tlDD" horiz-adv-x="767" 
d="M362 104q-6 -50 -43 -81.5t-95 -31.5q-84 0 -134.5 58.5t-50.5 158.5q0 116 70 209.5t186 122.5q-21 24 -21 62q0 30 16 55.5t45 37.5q-31 7 -50 28t-19 53q0 45 35.5 71.5t108.5 26.5h326v-66h-323q-70 0 -70 -52q0 -50 76 -50h154v-65h-163q-27 0 -44 -12.5t-17 -33.5
q0 -33 31 -44h5q107 0 217 -52v-77q-111 64 -217 64q-82 0 -145 -44t-92.5 -106.5t-29.5 -128.5q0 -71 29.5 -111t80.5 -40q45 0 69 32.5t24 85.5v43h79v-30q0 -61 35.5 -100.5t96.5 -39.5q41 0 72 24t43 61q-29 -26 -70 -26q-52 0 -86.5 34t-34.5 85q0 54 36 93t93 39
q62 0 98.5 -45t36.5 -110q0 -91 -50.5 -151t-139.5 -60q-66 0 -112 31.5t-56 81.5zM521 227q0 -28 17.5 -46.5t48.5 -18.5q29 0 46.5 20t17.5 48t-17 48t-47 20q-31 0 -48.5 -21t-17.5 -50z" />
    <glyph glyph-name="tlDDH" horiz-adv-x="767" 
d="M362 104q-6 -50 -43 -81.5t-95 -31.5q-84 0 -134.5 58.5t-50.5 158.5q0 116 70 209.5t186 122.5q-21 24 -21 62q0 30 16 55.5t45 37.5q-31 7 -50 28t-19 53q0 45 35.5 71.5t108.5 26.5h326v-66h-323q-70 0 -70 -52q0 -50 76 -50h154v-65h-163q-27 0 -44 -12.5t-17 -33.5
q0 -33 31 -44h5q107 0 217 -52v-77q-111 64 -217 64q-82 0 -145 -44t-92.5 -106.5t-29.5 -128.5q0 -71 29.5 -111t80.5 -40q45 0 69 32.5t24 85.5v43h79v-30q0 -61 35.5 -100.5t96.5 -39.5q41 0 72 24t43 61q-29 -26 -70 -26q-52 0 -86.5 34t-34.5 85q0 54 36 93t93 39
q62 0 98.5 -45t36.5 -110q0 -91 -50.5 -151t-139.5 -60q-66 0 -112 31.5t-56 81.5zM412 -177h-98v14l29 167h41l28 -167v-14zM521 227q0 -28 17.5 -46.5t48.5 -18.5q29 0 46.5 20t17.5 48t-17 48t-47 20q-31 0 -48.5 -21t-17.5 -50z" />
    <glyph glyph-name="tlNN" horiz-adv-x="1043" 
d="M1115 808h-234q-71 0 -71 -52q0 -50 76 -50h84v-65h-91q-29 0 -45.5 -16t-16.5 -41q0 -35 26 -85t57 -94.5t57 -106.5t26 -118q0 -82 -48 -135.5t-125 -53.5q-87 0 -144 65q-50 -65 -130 -65q-68 0 -107 42.5t-39 99.5q0 60 40 102.5t101 42.5q40 0 71 -19t46 -49
q2 36 2 60q0 93 -34.5 159.5t-96.5 66.5q-48 0 -75 -32.5t-27 -85.5v-40h-79v39q0 53 -30 86t-79 33q-42 0 -69 -26t-27 -66q0 -43 26.5 -70t72.5 -27h30v-68h-31q-49 0 -81 -24.5t-32 -66.5q0 -92 115 -92q44 0 93 22v-68q-47 -20 -109 -20q-80 0 -129 39.5t-49 110.5
q0 56 37 92t93 41q-54 8 -85 44.5t-31 92.5q0 64 48 108t125 44q58 0 99.5 -32t52.5 -81q8 50 45.5 81.5t97.5 31.5q98 0 150 -83.5t52 -217.5q0 -76 -21 -136q42 -65 102 -65q47 0 74.5 33.5t27.5 87.5q0 50 -26 107.5t-56.5 100.5t-56.5 98t-26 102q0 35 16 63.5t46 42.5
q-31 7 -50 28t-19 53q0 45 35.5 71.5t107.5 26.5h238v-66zM465 134q0 -32 21 -55.5t57 -23.5q33 0 55 24.5t22 57.5q0 34 -22 57t-57 23t-55.5 -24t-20.5 -59z" />
    <glyph glyph-name="tlT" horiz-adv-x="737" 
d="M685 253q0 -111 -87.5 -186.5t-240.5 -75.5q-154 0 -241.5 75t-87.5 187q0 65 40 108t106 43q57 0 94 -36t37 -89q0 -57 -36 -92t-93 -35q-35 0 -61 16q30 -53 93 -83t149 -30q84 0 147.5 30.5t93.5 82.5q-23 -16 -60 -16q-57 0 -93.5 35t-36.5 91q0 53 37 89t95 36
q70 0 109 -47q2 16 2 26q0 46 -26.5 72.5t-76.5 26.5q-51 0 -81.5 31.5t-30.5 80.5q0 33 16.5 60.5t46.5 40.5q-31 7 -51 28.5t-20 53.5q0 45 35.5 71.5t108.5 26.5h254v-66h-250q-71 0 -71 -52q0 -50 76 -50h101v-65h-109q-28 0 -44.5 -13t-16.5 -36q0 -50 61 -50
q70 0 109 -43.5t39 -114.5q0 -66 -36 -124v-7zM99 273q0 -29 17 -46.5t48 -17.5q30 0 48 18t18 47q0 32 -17.5 51t-46.5 19q-31 0 -49 -19.5t-18 -51.5zM482 274q0 -29 18.5 -47t48.5 -18q31 0 47.5 17.5t16.5 46.5q0 32 -17.5 51.5t-48.5 19.5q-29 0 -47 -19.5t-18 -50.5z
" />
    <glyph glyph-name="tlTH" horiz-adv-x="759" 
d="M368 106q-8 -54 -43.5 -84.5t-97.5 -30.5q-86 0 -137 61t-51 164q0 116 65.5 206t174.5 119q-21 23 -21 61q0 30 16 55.5t45 37.5q-31 7 -50 28t-19 53q0 45 35.5 71.5t108.5 26.5h326v-66h-323q-70 0 -70 -52q0 -50 76 -50h154v-65h-163q-27 0 -44 -12.5t-17 -33.5
q0 -32 28 -43h7q143 0 236 -98t93 -238q0 -103 -51 -164t-137 -61q-61 0 -97 30.5t-44 84.5zM418 -177h-98v14l28 167h42l28 -167v-14zM118 217q0 -72 31 -116.5t83 -44.5q46 0 71 35t25 91v34h79v-34q0 -56 25.5 -91t73.5 -35q51 0 81.5 44.5t30.5 116.5q0 111 -71.5 190.5
t-179.5 79.5t-178.5 -79.5t-70.5 -190.5zM421 350q0 -22 -15 -37.5t-38 -15.5q-22 0 -37 15.5t-15 37.5q0 23 15 38.5t37 15.5q23 0 38 -15.5t15 -38.5z" />
    <glyph glyph-name="tlD" horiz-adv-x="759" 
d="M368 106q-8 -54 -43.5 -84.5t-97.5 -30.5q-86 0 -137 61t-51 164q0 116 65.5 206t174.5 119q-21 23 -21 61q0 30 16 55.5t45 37.5q-31 7 -50 28t-19 53q0 45 35.5 71.5t108.5 26.5h326v-66h-323q-70 0 -70 -52q0 -50 76 -50h154v-65h-163q-27 0 -44 -12.5t-17 -33.5
q0 -32 28 -43h7q143 0 236 -98t93 -238q0 -103 -51 -164t-137 -61q-61 0 -97 30.5t-44 84.5zM118 217q0 -72 31 -116.5t83 -44.5q46 0 71 35t25 91v34h79v-34q0 -56 25.5 -91t73.5 -35q51 0 81.5 44.5t30.5 116.5q0 111 -71.5 190.5t-179.5 79.5t-178.5 -79.5t-70.5 -190.5z
" />
    <glyph glyph-name="tlDH" horiz-adv-x="759" 
d="M368 106q-8 -54 -43.5 -84.5t-97.5 -30.5q-86 0 -137 61t-51 164q0 116 65.5 206t174.5 119q-21 23 -21 61q0 30 16 55.5t45 37.5q-31 7 -50 28t-19 53q0 45 35.5 71.5t108.5 26.5h326v-66h-323q-70 0 -70 -52q0 -50 76 -50h154v-65h-163q-27 0 -44 -12.5t-17 -33.5
q0 -32 28 -43h7q143 0 236 -98t93 -238q0 -103 -51 -164t-137 -61q-61 0 -97 30.5t-44 84.5zM418 -177h-98v14l28 167h42l28 -167v-14zM118 217q0 -72 31 -116.5t83 -44.5q46 0 71 35t25 91v34h79v-34q0 -56 25.5 -91t73.5 -35q51 0 81.5 44.5t30.5 116.5q0 111 -71.5 190.5
t-179.5 79.5t-178.5 -79.5t-70.5 -190.5z" />
    <glyph glyph-name="tlN" horiz-adv-x="748" 
d="M245 0q-23 -9 -58 -9q-64 0 -106 46.5t-42 121.5q0 79 46 127t123 48q55 0 95 -28.5t62 -69.5t40.5 -82t44 -69.5t60.5 -28.5q44 0 69 41t25 112q0 57 -16.5 100t-43 68t-58.5 44t-64 34.5t-58.5 33t-43 45.5t-16.5 66q0 31 16.5 56.5t45.5 38.5q-68 16 -68 81
q0 45 35 71.5t107 26.5h272v-66h-268q-70 0 -70 -52q0 -50 77 -50h117v-65h-124q-27 0 -44 -12.5t-17 -33.5t16.5 -38t43 -31l58 -29.5t63.5 -39t58.5 -54t43 -79.5t16.5 -111q0 -100 -46.5 -161t-131.5 -61q-51 0 -88.5 28.5t-59 69.5t-40.5 81.5t-45.5 69t-61.5 28.5
q-42 0 -66.5 -28t-24.5 -78q0 -49 21.5 -77.5t59.5 -28.5q25 0 46 7v-63z" />
    <glyph glyph-name="tlP" horiz-adv-x="719" 
d="M480 -9q-99 0 -157 103q-12 -47 -48 -75.5t-88 -28.5q-68 0 -109.5 40t-41.5 104q0 63 43.5 105t106.5 42q40 0 72.5 -16.5t53 -41.5t41.5 -54.5l37.5 -54.5t39.5 -41.5t50 -16.5q54 0 85 53.5t31 140.5q0 102 -53.5 169.5t-146.5 67.5q-37 0 -79 -10v68q43 10 81 10
q132 0 204.5 -83.5t72.5 -220.5q0 -121 -52 -190.5t-143 -69.5zM112 136q0 -37 20.5 -60t57.5 -23t58.5 23.5t21.5 59.5q0 35 -21.5 58.5t-60.5 23.5q-34 0 -55 -24t-21 -58zM515 808h-323q-70 0 -70 -52q0 -50 76 -50h154v-65h-163q-27 0 -44 -12.5t-17 -33.5q0 -49 68 -49
h24v-41h-54q-52 0 -82.5 26t-30.5 71q0 30 16 55.5t45 37.5q-31 7 -50 28t-19 53q0 45 35.5 71.5t108.5 26.5h326v-66z" />
    <glyph glyph-name="tlPH" horiz-adv-x="719" 
d="M480 -9q-99 0 -157 103q-12 -47 -48 -75.5t-88 -28.5q-68 0 -109.5 40t-41.5 104q0 63 43.5 105t106.5 42q40 0 72.5 -16.5t53 -41.5t41.5 -54.5l37.5 -54.5t39.5 -41.5t50 -16.5q54 0 85 53.5t31 140.5q0 102 -53.5 169.5t-146.5 67.5q-37 0 -79 -10v68q43 10 81 10
q132 0 204.5 -83.5t72.5 -220.5q0 -121 -52 -190.5t-143 -69.5zM376 -177h-99v14l29 167h41l29 -167v-14zM112 136q0 -37 20.5 -60t57.5 -23t58.5 23.5t21.5 59.5q0 35 -21.5 58.5t-60.5 23.5q-34 0 -55 -24t-21 -58zM515 808h-323q-70 0 -70 -52q0 -50 76 -50h154v-65h-163
q-27 0 -44 -12.5t-17 -33.5q0 -49 68 -49h24v-41h-54q-52 0 -82.5 26t-30.5 71q0 30 16 55.5t45 37.5q-31 7 -50 28t-19 53q0 45 35.5 71.5t108.5 26.5h326v-66z" />
    <glyph glyph-name="tlB" horiz-adv-x="744" 
d="M359 102q-13 -54 -54.5 -82.5t-104.5 -28.5q-74 0 -120 40t-46 106q0 45 23.5 80.5t57 58.5l66.5 44t56.5 46.5t23.5 55.5q0 34 -17 54.5t-48 20.5q-32 0 -51 -20t-19 -57q0 -17 5 -40h-75q-6 22 -6 44q0 62 39 100.5t107 38.5q65 0 103.5 -40.5t38.5 -98.5
q0 -41 -23 -74.5t-56 -56.5l-66.5 -44.5t-56.5 -49.5t-23 -61q0 -38 25 -60t68 -22q52 0 83 33t31 85v44h79v-44q0 -53 27.5 -85.5t74.5 -32.5q53 0 82.5 38.5t29.5 102.5q0 48 -23.5 91.5t-57.5 77.5l-68 68t-57.5 75t-23.5 85q0 73 62 101q-30 7 -49 28t-19 53
q0 45 35 71.5t107 26.5h253v-66h-248q-72 0 -72 -52q0 -50 77 -50h106v-65h-111q-60 0 -60 -55q0 -29 23.5 -60.5t56.5 -63t66 -67t56.5 -86.5t23.5 -108q0 -94 -51 -152t-136 -58q-59 0 -97.5 29.5t-46.5 81.5z" />
    <glyph glyph-name="tlBH" horiz-adv-x="744" 
d="M359 102q-13 -54 -54.5 -82.5t-104.5 -28.5q-74 0 -120 40t-46 106q0 45 23.5 80.5t57 58.5l66.5 44t56.5 46.5t23.5 55.5q0 34 -17 54.5t-48 20.5q-32 0 -51 -20t-19 -57q0 -17 5 -40h-75q-6 22 -6 44q0 62 39 100.5t107 38.5q65 0 103.5 -40.5t38.5 -98.5
q0 -41 -23 -74.5t-56 -56.5l-66.5 -44.5t-56.5 -49.5t-23 -61q0 -38 25 -60t68 -22q52 0 83 33t31 85v44h79v-44q0 -53 27.5 -85.5t74.5 -32.5q53 0 82.5 38.5t29.5 102.5q0 48 -23.5 91.5t-57.5 77.5l-68 68t-57.5 75t-23.5 85q0 73 62 101q-30 7 -49 28t-19 53
q0 45 35 71.5t107 26.5h253v-66h-248q-72 0 -72 -52q0 -50 77 -50h106v-65h-111q-60 0 -60 -55q0 -29 23.5 -60.5t56.5 -63t66 -67t56.5 -86.5t23.5 -108q0 -94 -51 -152t-136 -58q-59 0 -97.5 29.5t-46.5 81.5zM408 -177h-97v14l28 167h40l29 -167v-14z" />
    <glyph glyph-name="tlM" horiz-adv-x="1051" 
d="M95 136q0 -36 21 -59.5t58 -23.5t58.5 23.5t21.5 59.5q0 35 -21.5 58.5t-59.5 23.5q-34 0 -56 -24t-22 -58zM1007 264q0 -131 -61 -202.5t-158 -71.5q-115 0 -158 90q-48 -89 -155 -89t-168 106q-11 -49 -47 -78t-89 -29q-68 0 -109.5 40t-41.5 104q0 63 43.5 105
t106.5 42q47 0 84.5 -23t62 -56t47 -66.5t51 -56.5t61.5 -23q48 0 76.5 39.5t28.5 106.5q0 64 -34 112t-82 77l-96.5 56t-82.5 64.5t-34 86.5q0 32 16.5 58t46.5 38q-31 8 -50 29t-19 53q0 45 35.5 71.5t108.5 26.5h264v-66h-261q-70 0 -70 -52q0 -50 76 -50h106v-65h-111
q-28 0 -44 -13t-16 -34q0 -22 17.5 -41.5t45.5 -36.5t62.5 -35.5t69 -43t63 -53.5t47.5 -72.5t20 -95.5q0 -74 34.5 -117.5t91.5 -43.5q61 0 102 53.5t41 150.5t-53 161.5t-140 64.5v67q128 0 200 -83t72 -205z" />
    <glyph glyph-name="tlY" horiz-adv-x="1268" 
d="M533 275v-7q0 -98 35.5 -155t99.5 -57q58 0 95 47.5t37 139.5q-1 47 -20 88t-45.5 70l-52.5 57t-44 64t-18 76q0 31 16.5 57.5t45.5 38.5q-31 8 -50 29t-19 53q0 45 35 71.5t108 26.5h272v-66h-268q-70 0 -70 -52q0 -50 76 -50h113v-65h-118q-28 0 -44.5 -14t-16.5 -39
q0 -28 27 -63.5t59.5 -67t61 -84.5t30.5 -112q0 -96 35 -150.5t101 -54.5q57 0 94 53.5t37 150.5t-53 161t-140 64v68q128 0 200 -83t72 -205q0 -133 -56.5 -203.5t-150.5 -70.5q-121 0 -168 112q-52 -112 -177 -112q-126 0 -172 129q-31 -62 -85.5 -95.5t-126.5 -33.5
q-111 0 -178.5 76.5t-67.5 205.5q0 125 67 202.5t179 77.5q113 0 179 -76.5t66 -201.5zM124 273q0 -98 45.5 -157.5t118.5 -59.5t118.5 59.5t45.5 156.5t-45.5 157t-118.5 60q-72 0 -118 -60t-46 -156z" />
    <glyph glyph-name="tlR" horiz-adv-x="572" 
d="M533 274q0 -129 -67 -206t-178 -77t-178.5 76.5t-67.5 204.5q0 98 43 169t118 97q-23 25 -23 64q0 30 16.5 55t45.5 37q-69 18 -69 82q0 45 35 71.5t108 26.5h250v-66h-247q-69 0 -69 -52q0 -50 76 -50h99v-65h-108q-28 0 -44.5 -12.5t-16.5 -33.5q0 -32 28 -43h4
q112 0 178.5 -77t66.5 -201zM124 273q0 -98 45.5 -157.5t118.5 -59.5t118.5 59.5t45.5 156.5q0 96 -45.5 156.5t-118.5 60.5q-72 0 -118 -60.5t-46 -155.5z" />
    <glyph glyph-name="tlL" horiz-adv-x="742" 
d="M677 285q0 -129 -88 -213t-228 -84q-145 0 -232 89t-87 238q0 105 50 176t135 71q67 0 106 -43t39 -104t-40.5 -101t-98.5 -40q-42 0 -73.5 18.5t-45.5 51.5q-1 -7 -1 -22q0 -122 66 -195.5t185 -73.5q104 0 169 65t65 162q0 45 -19.5 82t-47 62l-55 49t-47 56.5
t-19.5 71.5q0 30 16.5 56t45.5 38q-30 7 -49 28t-19 53q0 45 35.5 71.5t107.5 26.5h257v-66h-253q-71 0 -71 -52q0 -50 77 -50h105v-65h-110q-28 0 -44.5 -12.5t-16.5 -33.5q0 -25 19 -49.5t46.5 -47.5t55 -50.5t46.5 -69.5t19 -93zM143 416q0 -39 22 -59.5t58 -20.5
q33 0 53.5 21.5t20.5 57.5q0 34 -20 58t-56 24t-57 -24.5t-21 -56.5z" />
    <glyph glyph-name="tlV" horiz-adv-x="704" 
d="M475 -9q-107 0 -168 106q-11 -49 -47 -78t-89 -29q-68 0 -109.5 40t-41.5 104q0 63 43.5 105t106.5 42q47 0 84.5 -23t62 -56t47 -66.5t51 -56.5t61.5 -23q48 0 76.5 39.5t28.5 106.5q0 64 -34 112t-82 77l-96.5 56t-82.5 64.5t-34 86.5q0 32 16.5 58t46.5 38
q-31 8 -50 29t-19 53q0 45 35.5 71.5t108.5 26.5h264v-66h-261q-70 0 -70 -52q0 -50 76 -50h106v-65h-111q-28 0 -44 -13t-16 -34q0 -25 24 -48.5t60 -42t78.5 -45.5t78.5 -57.5t60 -80.5t24 -112q0 -101 -50 -159t-134 -58zM95 136q0 -36 21 -59.5t58 -23.5t58.5 23.5
t21.5 59.5q0 35 -21.5 58.5t-59.5 23.5q-34 0 -56 -24t-22 -58z" />
    <glyph glyph-name="tlSH" horiz-adv-x="585" 
d="M523 162q0 -77 -49 -124t-123 -47q-70 0 -112.5 36.5t-42.5 98.5q0 19 4.5 36t10.5 29.5t19 26t21 21t27 19t27 16l29.5 16t27.5 14.5q-43 23 -92 23q-79 0 -127 -46.5t-48 -115.5q0 -19 5 -44h-75q-5 27 -5 45q0 96 71 158.5t177 62.5q86 0 154 -45q27 24 27 56
q0 22 -19 36.5t-47.5 20t-62 15t-62 21.5t-47.5 39.5t-19 67.5q0 32 16.5 57.5t46.5 38.5q-31 7 -50.5 28.5t-19.5 53.5q0 45 35 71.5t108 26.5h269v-66h-265q-71 0 -71 -52q0 -50 76 -50h118v-65h-125q-28 0 -44.5 -12.5t-16.5 -33.5q0 -27 26.5 -42.5t63.5 -23.5
t74.5 -18.5t64 -37.5t26.5 -71q0 -60 -53 -104q52 -60 52 -136zM354 53q42 0 68 30t26 78q0 54 -35 99l-29 -15l-30 -16t-25.5 -15t-24.5 -18t-17 -18.5t-13 -22.5t-4 -25q0 -36 22.5 -56.5t61.5 -20.5z" />
    <glyph glyph-name="tlSS" horiz-adv-x="719" 
d="M112 136q0 -37 20.5 -60t57.5 -23t58.5 23.5t21.5 59.5q0 35 -21.5 58.5t-60.5 23.5q-34 0 -55 -24t-21 -58zM645 -155h-99q-13 29 -13 72q0 48 18 87q-34 -13 -71 -13q-99 0 -157 103q-12 -47 -48 -75.5t-88 -28.5q-68 0 -109.5 40t-41.5 104q0 63 43.5 105t106.5 42
q40 0 72.5 -16.5t53 -41.5t41.5 -54.5l37.5 -54.5t39.5 -41.5t50 -16.5q54 0 85 53.5t31 140.5q0 102 -53.5 169.5t-146.5 67.5q-37 0 -79 -10v68q43 10 81 10q132 0 204.5 -83.5t72.5 -220.5q0 -89 -29 -152q-36 -76 -36 -143q0 -58 35 -111zM511 808h-323q-70 0 -70 -52
q0 -50 76 -50h154v-65h-163q-27 0 -44 -12.5t-17 -33.5q0 -49 68 -49h24v-41h-54q-52 0 -82.5 26t-30.5 71q0 30 16 55.5t45 37.5q-31 7 -50 28t-19 53q0 45 35.5 71.5t108.5 26.5h326v-66z" />
    <glyph glyph-name="tlS" horiz-adv-x="736" 
d="M244 0q-22 -9 -58 -9q-64 0 -106 46.5t-42 121.5q0 79 46 127t124 48q55 0 94 -28.5t61 -69.5t40.5 -82t44 -69.5t59.5 -28.5q49 0 77.5 52.5t28.5 141.5q0 101 -57.5 169t-150.5 68q-39 0 -79 -10v68q43 10 81 10q133 0 209 -84t76 -220q0 -120 -50 -190t-135 -70
q-54 0 -93 28.5t-60.5 69.5t-40 81.5t-44 69t-60.5 28.5q-42 0 -67 -28t-25 -78q0 -49 21.5 -77.5t59.5 -28.5q25 0 46 7v-63zM517 808h-323q-70 0 -70 -52q0 -50 76 -50h154v-65h-163q-27 0 -44 -12.5t-17 -33.5q0 -49 68 -49h24v-41h-54q-52 0 -82.5 26t-30.5 71
q0 30 16 55.5t45 37.5q-31 7 -50 28t-19 53q0 45 35.5 71.5t108.5 26.5h326v-66z" />
    <glyph glyph-name="tlH" horiz-adv-x="1010" 
d="M112 136q0 -37 20.5 -60t57.5 -23t58.5 23.5t21.5 59.5q0 35 -21.5 58.5t-60.5 23.5q-34 0 -55 -24t-21 -58zM992 402q0 -56 -37 -94t-97 -38q-62 0 -100 34.5t-38 88.5q0 61 36 93h-211q62 -35 96 -98.5t34 -145.5q0 -115 -52 -183t-143 -68q-99 0 -157 103
q-12 -47 -48 -75.5t-88 -28.5q-68 0 -109.5 40t-41.5 104q0 63 43.5 105t106.5 42q40 0 72.5 -16.5t53 -41.5t41.5 -54.5l37.5 -54.5t39.5 -41.5t50 -16.5q54 0 85 52t31 133q0 109 -71 177t-205 68v66h495q89 0 133 -42t44 -108zM792 404q0 -31 17 -50.5t46 -19.5
q30 0 46.5 19.5t16.5 49.5q0 32 -16 53t-47 21q-30 0 -46.5 -22t-16.5 -51zM529 808h-323q-70 0 -70 -52q0 -50 76 -50h154v-65h-163q-27 0 -44 -12.5t-17 -33.5q0 -49 68 -49h24v-41h-54q-52 0 -82.5 26t-30.5 71q0 30 16 55.5t45 37.5q-31 7 -50 28t-19 53q0 45 35.5 71.5
t108.5 26.5h326v-66z" />
    <glyph glyph-name="tlRR" horiz-adv-x="827" 
d="M888 816h-246q-71 0 -71 -53q0 -50 76 -50h97v-65h-105q-28 0 -44 -12.5t-16 -33.5q0 -28 20 -40q86 -2 134 -76t48 -196q0 -130 -57 -214.5t-159 -84.5q-62 0 -106.5 31t-53.5 82q-13 -53 -51.5 -83t-97.5 -30q-99 0 -156.5 78t-57.5 206q0 119 53 203t143 84
q64 0 104.5 -42t40.5 -101q0 -61 -40 -103t-102 -42q-42 0 -73 20t-45 55q-8 -42 -8 -73q0 -93 38 -156.5t106 -63.5q48 0 77.5 32t29.5 84v32h79v-32q0 -52 32.5 -84t85.5 -32q64 0 101.5 67.5t37.5 170.5q0 94 -28 150t-76 56q-32 0 -51.5 -22t-19.5 -57q0 -34 23 -61
t65 -33v-66h-190v66h86q-56 35 -56 102q0 80 70 117q-23 25 -23 64q0 30 16.5 54.5t46.5 36.5q-31 7 -50.5 28t-19.5 54q0 97 143 97h250v-64zM153 414q0 -33 22 -55.5t58 -22.5q34 0 53.5 23.5t19.5 57.5q0 35 -20.5 57.5t-55.5 22.5q-33 0 -55 -24.5t-22 -58.5z" />
    <glyph glyph-name="tlLL" horiz-adv-x="673" 
d="M494 115q0 -57 -44 -90.5t-115 -33.5q-70 0 -111.5 34t-41.5 88q0 83 85 118q-73 25 -96 34q-132 51 -132 148q0 55 38 91t103 36q62 0 100 -35.5t38 -86.5q0 -42 -27 -70.5t-68 -39.5q107 -36 130 -45q162 45 162 131q0 22 -16.5 41.5t-40.5 35.5l-47.5 33t-40 42.5
t-16.5 55.5t16.5 55.5t45.5 37.5q-31 7 -50 28t-19 53q0 45 35.5 71.5t107.5 26.5h243v-66h-239q-71 0 -71 -52q0 -50 76 -50h100v-65h-104q-27 0 -44 -12.5t-17 -33.5q0 -17 16.5 -33t39.5 -30.5t46 -32t39.5 -45t16.5 -61.5q0 -55 -44 -101.5t-119 -67.5q65 -43 65 -109z
M336 54q37 0 59.5 18t22.5 49q0 48 -76 82q-42 -10 -64 -32t-22 -52q0 -28 21 -46.5t59 -18.5zM112 410q0 -28 19 -45.5t48 -17.5q26 0 45 18t19 47q0 28 -18 46.5t-47 18.5q-30 0 -48 -18.5t-18 -48.5z" />
    <glyph glyph-name="tlLLL" horiz-adv-x="835" 
d="M883 808h-234q-71 0 -71 -52q0 -50 76 -50h97v-65h-105q-28 0 -44.5 -12.5t-16.5 -33.5q0 -22 13 -35q27 -3 51 -16h2l3 -2q55 -32 85 -103.5t30 -155.5q0 -133 -53 -212.5t-162 -79.5q-61 0 -100.5 29.5t-48.5 81.5q-8 -52 -48 -81.5t-100 -29.5q-110 0 -162.5 79.5
t-52.5 212.5q0 114 50.5 196.5t144.5 82.5q64 0 104 -42.5t40 -100.5q0 -61 -40 -103t-101 -42q-41 0 -72 19t-45 53q-6 -36 -6 -69q0 -99 34.5 -160t105.5 -61q49 0 79 31.5t30 84.5v34h79v-34q0 -53 29.5 -84.5t78.5 -31.5q71 0 105.5 61t34.5 160q0 28 -5 68
q-15 -33 -46 -52t-72 -19q-62 0 -101.5 42t-39.5 103q0 45 24.5 82t67.5 52q-12 21 -12 49q0 30 16.5 55.5t45.5 37.5q-31 7 -50 28t-19 53q0 45 35 71.5t108 26.5h238v-66zM151 414q0 -33 22 -55.5t59 -22.5q33 0 53 23.5t20 57.5q0 35 -20.5 57.5t-55.5 22.5
q-33 0 -55.5 -24.5t-22.5 -58.5zM505 417q0 -34 20.5 -57.5t53.5 -23.5q36 0 58 22.5t22 55.5q0 34 -22.5 58.5t-55.5 24.5q-35 0 -55.5 -22.5t-20.5 -57.5z" />
    <glyph glyph-name="tlKAA" horiz-adv-x="703" 
d="M406 155q0 -71 -53 -115t-135 -44q-91 0 -161 36v74q83 -45 157 -45q55 0 82.5 24.5t27.5 66.5q0 36 -27.5 59t-67 36t-78.5 28t-66.5 47t-27.5 82q0 48 34 82h-72v66h490q88 0 132 -42t44 -108q0 -56 -37 -94t-97 -38q-62 0 -100 34.5t-38 88.5q0 60 37 93h-83v-36
q-63 36 -120 36q-50 0 -79 -22.5t-29 -58.5q0 -31 27.5 -51.5t66.5 -33.5t78.5 -29.5t67 -50.5t27.5 -85zM486 404q0 -32 16 -51t47 -19q29 0 46 19.5t17 49.5q0 32 -16.5 53t-46.5 21t-46.5 -21.5t-16.5 -51.5z" />
    <glyph glyph-name="tlKHAA" horiz-adv-x="1170" 
d="M1152 402q0 -56 -37 -94t-97 -38q-63 0 -100 35t-37 90q0 60 36 91h-184q76 -78 76 -214q0 -123 -66 -202t-174 -79q-83 0 -175 63q-82 -63 -188 -63q-86 0 -136 36t-50 98q0 53 39.5 89t98.5 36q30 0 57 -6.5t60 -25.5t45.5 -27.5t51.5 -37.5q9 -7 14 -10q61 78 61 190
q0 67 -30 115.5t-78 48.5q-33 0 -50 -17.5t-17 -44.5q0 -25 17 -40t47 -15q37 0 63 15v-60q-34 -17 -76 -17q-53 0 -89.5 31.5t-36.5 84.5q0 54 39.5 91t100.5 37q83 0 135 -67t52 -165q0 -132 -80 -228q68 -42 123 -42q74 0 118.5 59t44.5 150q0 90 -40 149t-115 66v2h-1
v66h401q89 0 133 -42t44 -108zM953 404q0 -32 16.5 -51t46.5 -19q29 0 45.5 19.5t16.5 49.5q0 32 -16 53t-46 21t-46.5 -21.5t-16.5 -51.5zM208 55q72 0 129 41l-59 45.5t-49 27.5t-59 15q-34 0 -53.5 -17.5t-19.5 -43.5q0 -32 30 -50t81 -18zM445 -180h-98v14l29 168h40
l29 -168v-14z" />
    <glyph glyph-name="tlGAA" horiz-adv-x="820" 
d="M458 0h-82q31 104 31 224q0 101 -29.5 174.5t-87.5 87.5h-50q-57 -14 -86.5 -87.5t-29.5 -174.5q0 -122 30 -223h-82q-27 95 -27 217q0 178 77 268h-86v66h590q88 0 132 -42t44 -108q0 -55 -37.5 -93.5t-97.5 -38.5q-62 0 -99.5 34.5t-37.5 88.5q0 61 36 93h-157
q78 -91 78 -268q0 -120 -29 -218zM602 404q0 -32 16.5 -51t47.5 -19q29 0 46 19.5t17 49.5q0 32 -16.5 53t-46.5 21q-31 0 -47.5 -21.5t-16.5 -51.5z" />
    <glyph glyph-name="tlGHAA" horiz-adv-x="1358" 
d="M1340 402q0 -55 -37 -93.5t-97 -38.5q-62 0 -100 35t-38 90q0 60 36 91h-165q89 -81 89 -222q0 -131 -60.5 -202.5t-158.5 -71.5q-118 0 -160 106q-50 -105 -164 -105q-100 0 -157 103q-12 -48 -48 -76t-89 -28q-67 0 -109 40t-42 104q0 63 44 105t107 42q47 0 83.5 -23
t60 -56t44.5 -66.5t47.5 -56.5t57.5 -23q55 0 86 53.5t31 140.5q0 102 -54 169.5t-146 67.5q-39 0 -79 -10v68q43 10 81 10q132 0 204.5 -83.5t72.5 -219.5q0 -91 32.5 -144t91.5 -53q62 0 103.5 53.5t41.5 150.5t-53 161.5t-140 64.5v67h408q88 0 132 -42t44 -108z
M1140 404q0 -31 17 -50.5t47 -19.5q29 0 46 19.5t17 49.5q0 32 -16.5 53t-47.5 21q-30 0 -46.5 -22t-16.5 -51zM380 -181h-97v14l28 167h40l29 -167v-14zM117 136q0 -37 20.5 -60t56.5 -23q38 0 59 23.5t21 59.5q0 35 -21.5 58.5t-59.5 23.5q-34 0 -55 -24t-21 -58zM211 487
h-82l-131 162h95l76 -97l161 214h91z" />
    <glyph glyph-name="tlNGAA" horiz-adv-x="995" 
d="M359 102q-11 -53 -53.5 -82t-105.5 -29q-74 0 -120 40t-46 106q0 45 23.5 80.5t57 58.5l66.5 44t56.5 46.5t23.5 55.5q0 34 -17 54.5t-48 20.5q-32 0 -51 -20t-19 -57q0 -17 5 -40h-75q-6 22 -6 44q0 62 39 100.5t107 38.5q59 0 96.5 -33.5t44.5 -85.5h106v88h-98v67h456
q88 0 132 -42.5t44 -108.5q0 -55 -37 -93.5t-97 -38.5q-62 0 -99.5 34.5t-37.5 87.5q0 62 35 94h-221v-88h131v-64h-320q-13 -36 -50.5 -68.5t-73.5 -53.5t-65 -52.5t-29 -67.5q0 -38 25 -60t68 -22q52 0 83 33t31 85v44h79v-44q0 -53 27.5 -85.5t75.5 -32.5q46 0 72 30.5
t26 78.5q0 99 -98 99q-12 0 -26 -3v67q18 3 36 3q77 0 121.5 -46t44.5 -121q0 -72 -47.5 -122.5t-125.5 -50.5q-61 0 -99.5 29.5t-46.5 81.5zM778 451q0 -32 16.5 -51.5t46.5 -19.5q29 0 46 19.5t17 49.5q0 31 -16.5 52.5t-46.5 21.5t-46.5 -21.5t-16.5 -50.5z" />
    <glyph glyph-name="tlCAA" horiz-adv-x="1005" 
d="M357 102q-7 -48 -46.5 -79.5t-98.5 -31.5q-75 0 -121.5 40t-46.5 107q0 83 68 124h-97v67h220v-67q-55 -1 -83.5 -33.5t-28.5 -79.5q0 -42 25.5 -67.5t68.5 -25.5q45 0 73 33t28 85v43h78v-43q0 -52 25 -85t70 -33q48 0 74.5 42.5t26.5 106.5q0 116 -77.5 198.5
t-203.5 82.5v66h500q89 0 133 -42t44 -108q0 -55 -37.5 -93.5t-97.5 -38.5q-62 0 -99.5 34.5t-37.5 88.5q0 60 37 93h-229q70 -43 108 -114.5t38 -158.5q0 -99 -48 -160.5t-125 -61.5q-62 0 -98.5 31t-41.5 80zM788 404q0 -32 16.5 -51t47.5 -19q28 0 45 20t17 49
q0 32 -16.5 53t-46.5 21t-46.5 -21.5t-16.5 -51.5z" />
    <glyph glyph-name="tlCHAA" horiz-adv-x="1005" 
d="M357 102q-7 -48 -46.5 -79.5t-98.5 -31.5q-75 0 -121.5 40t-46.5 107q0 83 68 124h-97v67h220v-67q-55 -1 -83.5 -33.5t-28.5 -79.5q0 -42 25.5 -67.5t68.5 -25.5q45 0 73 33t28 85v43h78v-43q0 -52 25 -85t70 -33q48 0 74.5 42.5t26.5 106.5q0 116 -77.5 198.5
t-203.5 82.5v66h500q89 0 133 -42t44 -108q0 -55 -37.5 -93.5t-97.5 -38.5q-62 0 -99.5 34.5t-37.5 88.5q0 60 37 93h-229q70 -43 108 -114.5t38 -158.5q0 -99 -48 -160.5t-125 -61.5q-62 0 -98.5 31t-41.5 80zM405 -177h-98v14l28 167h41l29 -167v-14zM788 404
q0 -32 16.5 -51t47.5 -19q28 0 45 20t17 49q0 32 -16.5 53t-46.5 21t-46.5 -21.5t-16.5 -51.5z" />
    <glyph glyph-name="tlJAA" horiz-adv-x="969" 
d="M359 102q-12 -55 -55 -83t-106 -28q-74 0 -119 40t-45 106q0 44 23.5 80t57 59.5l66.5 45t56.5 47t23.5 54.5q0 34 -17 54t-47 20t-49 -20t-19 -56q0 -19 6 -39h-76q-6 23 -6 46q0 59 39 97t105 38q40 0 71.5 -19t52.5 -46.5l41.5 -54.5t50.5 -46t68 -19q25 0 41.5 15
t16.5 37q0 56 -82 56v66h318q88 0 132.5 -42.5t44.5 -107.5q0 -55 -37.5 -93.5t-97.5 -38.5q-62 0 -99.5 34.5t-37.5 88.5q0 61 36 93h-127q24 -25 24 -64q0 -46 -35 -77.5t-92 -31.5q-100 0 -157 78q-8 -32 -33.5 -60t-55 -48.5l-58.5 -41t-48.5 -47t-19.5 -57.5
q0 -37 24 -59t64 -22q52 0 85 32t33 86v39h79v-39q0 -51 27.5 -84.5t72.5 -33.5q42 0 64.5 28t22.5 72q0 45 -23 95h79q20 -49 20 -100q0 -69 -42 -114.5t-115 -45.5q-59 0 -99 29.5t-47 81.5zM752 404q0 -32 16.5 -51t46.5 -19q29 0 46 19.5t17 49.5q0 32 -16.5 53
t-46.5 21t-46.5 -21.5t-16.5 -51.5z" />
    <glyph glyph-name="tlJHAA" horiz-adv-x="1558" 
d="M1540 402q0 -56 -37 -94t-97 -38q-62 0 -100 34.5t-38 88.5q0 61 36 93h-168q88 -82 88 -221q0 -133 -56.5 -203.5t-150.5 -70.5q-122 0 -168 115q-52 -115 -177 -115q-126 0 -172 129q-30 -61 -85.5 -95t-126.5 -34q-111 0 -178.5 76.5t-67.5 204.5q0 100 44.5 171
t121.5 97l-91 109h96l76 -97l163 214h89l-173 -226q77 -25 121 -95.5t44 -170.5v-6q0 -98 35.5 -155t99.5 -57q58 0 95 53.5t37 150.5t-53 161t-140 64v68q128 0 199.5 -83t71.5 -205v-4q0 -97 35.5 -151t100.5 -54q57 0 94 53.5t37 150.5t-53 161t-140 64v68q18 0 26 -1
h385q89 0 133 -42t44 -108zM1341 404q0 -32 16.5 -51t46.5 -19q29 0 45.5 19.5t16.5 49.5q0 32 -16 53t-46 21t-46.5 -21.5t-16.5 -51.5zM124 273q0 -98 45.5 -157.5t118.5 -59.5t118.5 59.5t45.5 156.5q0 96 -45.5 156.5t-118.5 60.5q-72 0 -118 -60.5t-46 -155.5z
M899 -190h-101v14l33 178h35l33 -178v-14z" />
    <glyph glyph-name="tlNYAA" horiz-adv-x="1182" 
d="M508 -53h-77q0 46 -8 89q-67 -45 -146 -45q-80 0 -130 34.5t-50 99.5q0 59 49.5 98.5t121.5 39.5q118 0 185 -104q59 89 59 193q0 63 -22.5 103.5t-67.5 40.5q-41 0 -62 -31t-21 -80v-34h-78v35q0 47 -23.5 78.5t-64.5 31.5q-40 0 -61 -28t-21 -70q0 -38 13 -73h-78
q-13 36 -13 78q0 67 42 113.5t111 46.5q57 0 92.5 -32t41.5 -82q5 50 39.5 82t88.5 32q71 0 112 -52t47 -133h88v110h-75v64h388q88 0 132 -42t44 -108q0 -56 -37 -94t-97 -38q-62 0 -100 34.5t-38 88.5q0 62 39 95h-179v-110h82v-64h-248q-13 -129 -100 -224
q22 -68 22 -143zM277 55q70 0 126 48q-42 95 -135 95q-41 0 -66.5 -20.5t-25.5 -54.5q0 -32 26 -50t75 -18zM964 404q0 -31 17 -50.5t47 -19.5q29 0 46 19.5t17 49.5q0 32 -16.5 53t-46.5 21t-47 -22t-17 -51z" />
    <glyph glyph-name="tlTTAA" horiz-adv-x="1091" 
d="M394 107q-28 -116 -150 -116q-91 0 -146.5 75t-55.5 200q0 110 45 192t121 97l-3 96h76l-2 -98q47 -13 75.5 -50.5t28.5 -85.5q0 -61 -40.5 -103t-101.5 -42q-41 0 -73 20t-46 55q-7 -47 -7 -74q0 -99 34.5 -158t97.5 -59q52 0 80.5 33.5t28.5 86.5v33h78v-32
q0 -53 27.5 -87t78.5 -34q59 0 90.5 57t31.5 158q0 98 -43.5 155t-122.5 57q-20 0 -39 -4v69q21 4 49 4l390 1q88 0 132.5 -42.5t44.5 -108.5q0 -55 -37.5 -93t-96.5 -38q-63 0 -100.5 34.5t-37.5 88.5q0 60 37 93l-170 -1q73 -75 73 -214q0 -130 -51 -205.5t-146 -75.5
q-62 0 -102 32t-48 84zM153 412q0 -34 21.5 -56.5t58.5 -22.5q34 0 53.5 23.5t19.5 58.5t-20.5 57.5t-55.5 22.5q-33 0 -55 -24.5t-22 -58.5zM873 404q0 -31 17 -50t46 -19t46 19.5t17 49.5q0 32 -16.5 53t-46.5 21t-46.5 -22t-16.5 -52z" />
    <glyph glyph-name="tlTTHAA" horiz-adv-x="906" 
d="M569 274q0 -128 -67.5 -205.5t-177.5 -77.5q-112 0 -179.5 76.5t-67.5 204.5q0 140 84 214h-119v66h670q88 0 132 -42t44 -108q0 -56 -36.5 -94t-97.5 -38q-62 0 -99.5 34.5t-37.5 88.5q0 61 36 93h-167q83 -74 83 -212zM159 273q0 -98 46 -157.5t119 -59.5
q72 0 117.5 59.5t45.5 156.5q0 89 -40 147.5t-106 66.5h-36q-65 -8 -105.5 -66.5t-40.5 -146.5zM380 273q0 -25 -16 -41t-40 -16t-40.5 16t-16.5 41q0 24 16.5 40t40.5 16t40 -16t16 -40zM689 404q0 -32 16.5 -51t46.5 -19t46.5 19.5t16.5 49.5q0 32 -16.5 53t-47.5 21
q-30 0 -46 -21.5t-16 -51.5z" />
    <glyph glyph-name="tlDDAA" horiz-adv-x="1030" 
d="M378 104q-6 -50 -42.5 -81.5t-94.5 -31.5q-85 0 -136 58t-51 159q0 82 37.5 156t103.5 122h-156v66h798q88 0 131.5 -42t43.5 -108q0 -56 -37 -94t-96 -38q-62 0 -100.5 34.5t-38.5 88.5q0 60 37 93h-159v-56q-101 54 -217 54q-122 0 -194.5 -86t-72.5 -191
q0 -71 29.5 -111t80.5 -40q44 0 69 32.5t25 85.5v43h78v-30q0 -61 35.5 -100.5t95.5 -39.5q42 0 72.5 24t43.5 62q-29 -27 -70 -27q-52 0 -86.5 34t-34.5 85q0 54 36 93t93 39q61 0 97.5 -45t36.5 -110q0 -91 -50 -151t-139 -60q-67 0 -113 31.5t-55 81.5zM538 227
q0 -28 17.5 -46.5t47.5 -18.5q29 0 47 20.5t18 47.5q0 28 -17.5 48t-47.5 20q-31 0 -48 -20.5t-17 -50.5zM813 404q0 -32 16.5 -51t46.5 -19q29 0 46.5 20t17.5 49q0 32 -17 53t-47 21t-46.5 -21.5t-16.5 -51.5z" />
    <glyph glyph-name="tlDDHAA" horiz-adv-x="1030" 
d="M378 104q-6 -50 -42.5 -81.5t-94.5 -31.5q-85 0 -136 58t-51 159q0 82 37.5 156t103.5 122h-156v66h798q88 0 131.5 -42t43.5 -108q0 -56 -37 -94t-96 -38q-62 0 -100.5 34.5t-38.5 88.5q0 60 37 93h-159v-56q-101 54 -217 54q-122 0 -194.5 -86t-72.5 -191
q0 -71 29.5 -111t80.5 -40q44 0 69 32.5t25 85.5v43h78v-30q0 -61 35.5 -100.5t95.5 -39.5q42 0 72.5 24t43.5 62q-29 -27 -70 -27q-52 0 -86.5 34t-34.5 85q0 54 36 93t93 39q61 0 97.5 -45t36.5 -110q0 -91 -50 -151t-139 -60q-67 0 -113 31.5t-55 81.5zM429 -177h-99v14
l29 167h41l29 -167v-14zM538 227q0 -28 17.5 -46.5t47.5 -18.5q29 0 47 20.5t18 47.5q0 28 -17.5 48t-47.5 20q-31 0 -48 -20.5t-17 -50.5zM813 404q0 -32 16.5 -51t46.5 -19q29 0 46.5 20t17.5 49q0 32 -17 53t-47 21t-46.5 -21.5t-16.5 -51.5z" />
    <glyph glyph-name="tlNNAA" horiz-adv-x="1098" 
d="M414 449q3 20 12 37h-27q11 -17 15 -37zM362 10q-46 -20 -109 -20q-80 0 -129 39.5t-49 110.5q0 56 37.5 92t93.5 41q-55 8 -86 44.5t-31 92.5q0 42 24 76h-74v66h866q88 0 131.5 -42t43.5 -108q0 -56 -36.5 -94t-97.5 -38q-62 0 -99.5 34.5t-37.5 88.5q0 61 36 93h-150
q64 -74 64 -225q0 -115 -48.5 -192.5t-138.5 -77.5q-67 0 -106.5 42.5t-39.5 99.5q0 61 39.5 103t101.5 42q81 0 117 -68q2 36 2 60q0 89 -34.5 152.5t-96.5 63.5q-49 0 -75.5 -28.5t-26.5 -79.5v-40h-78v39q0 52 -30 80.5t-80 28.5q-43 0 -69.5 -22.5t-26.5 -62.5
q0 -42 27 -68t72 -26h30v-68h-31q-49 0 -80.5 -24.5t-31.5 -66.5q0 -92 114 -92q46 0 93 22v-68zM502 134q0 -32 20 -55.5t56 -23.5q34 0 56 24.5t22 57.5q0 34 -22 57t-57 23t-55 -24t-20 -59zM882 404q0 -32 16 -51t46 -19t47 19.5t17 49.5q0 32 -16.5 53t-47.5 21
q-30 0 -46 -21.5t-16 -51.5z" />
    <glyph glyph-name="tlTAA" horiz-adv-x="1086" 
d="M100 273q0 -29 17 -46.5t48 -17.5q30 0 48 18t18 47q0 32 -17.5 51t-47.5 19t-48 -19.5t-18 -51.5zM686 253q0 -111 -88 -186.5t-241 -75.5t-240.5 75t-87.5 187q0 65 40 108t106 43q57 0 94.5 -36.5t37.5 -88.5q0 -57 -36.5 -92t-93.5 -35q-35 0 -62 16q30 -53 93.5 -83
t148.5 -30q86 0 149 30t92 83q-23 -16 -60 -16q-57 0 -93 35t-36 91q0 53 37 89t94 36q68 0 109 -46q2 16 2 25q0 94 -110 104h-505v66h836q89 0 132.5 -42t43.5 -108q0 -56 -36.5 -94t-97.5 -38q-62 0 -99.5 34.5t-37.5 88.5q0 61 36 93h-128q36 -39 36 -102
q0 -64 -35 -122v-9zM483 274q0 -29 18.5 -47t48.5 -18q31 0 48 17.5t17 46.5q0 32 -18 51.5t-49 19.5q-29 0 -47 -19.5t-18 -50.5zM849 404q0 -32 16.5 -51t46.5 -19t46.5 19.5t16.5 49.5q0 32 -16.5 53t-47.5 21q-30 0 -46 -21.5t-16 -51.5z" />
    <glyph glyph-name="tlTHAA" horiz-adv-x="1041" 
d="M391 106q-8 -54 -44 -84.5t-97 -30.5q-86 0 -137 61t-51 164q0 82 34.5 153t95.5 117h-153v66h808q88 0 132 -42t44 -108q0 -55 -37.5 -93.5t-96.5 -38.5q-62 0 -100 34.5t-38 88.5q0 60 37 93h-197q61 -46 95 -117t34 -153q0 -103 -51 -164t-137 -61q-61 0 -97 30.5
t-44 84.5zM442 -177h-99v14l29 167h41l29 -167v-14zM141 217q0 -73 31 -117t84 -44q46 0 71 35t25 91v34h78v-34q0 -56 25.5 -91t72.5 -35q51 0 82 44.5t31 116.5q0 111 -71 190t-180 79q-107 0 -178 -79t-71 -190zM444 350q0 -22 -15 -37.5t-37 -15.5t-37 15.5t-15 37.5
q0 23 15 38.5t37 15.5t37 -15.5t15 -38.5zM823 404q0 -31 17 -50.5t47 -19.5q29 0 46 20t17 49q0 32 -16.5 53t-46.5 21t-47 -22t-17 -51z" />
    <glyph glyph-name="tlDAA" horiz-adv-x="1041" 
d="M391 106q-8 -54 -44 -84.5t-97 -30.5q-86 0 -137 61t-51 164q0 82 34.5 153t95.5 117h-153v66h808q88 0 132 -42t44 -108q0 -55 -37.5 -93.5t-96.5 -38.5q-62 0 -100 34.5t-38 88.5q0 60 37 93h-197q61 -46 95 -117t34 -153q0 -103 -51 -164t-137 -61q-61 0 -97 30.5
t-44 84.5zM141 217q0 -73 31 -117t84 -44q46 0 71 35t25 91v34h78v-34q0 -56 25.5 -91t72.5 -35q51 0 82 44.5t31 116.5q0 111 -71 190t-180 79q-107 0 -178 -79t-71 -190zM823 404q0 -31 17 -50.5t47 -19.5q29 0 46 20t17 49q0 32 -16.5 53t-46.5 21t-47 -22t-17 -51z" />
    <glyph glyph-name="tlDHAA" horiz-adv-x="1041" 
d="M391 106q-8 -54 -44 -84.5t-97 -30.5q-86 0 -137 61t-51 164q0 82 34.5 153t95.5 117h-153v66h808q88 0 132 -42t44 -108q0 -55 -37.5 -93.5t-96.5 -38.5q-62 0 -100 34.5t-38 88.5q0 60 37 93h-197q61 -46 95 -117t34 -153q0 -103 -51 -164t-137 -61q-61 0 -97 30.5
t-44 84.5zM441 -177h-99v14l29 167h41l29 -167v-14zM141 217q0 -73 31 -117t84 -44q46 0 71 35t25 91v34h78v-34q0 -56 25.5 -91t72.5 -35q51 0 82 44.5t31 116.5q0 111 -71 190t-180 79q-107 0 -178 -79t-71 -190zM823 404q0 -31 17 -50.5t47 -19.5q29 0 46 20t17 49
q0 32 -16.5 53t-46.5 21t-47 -22t-17 -51z" />
    <glyph glyph-name="tlNAA" horiz-adv-x="1020" 
d="M245 0q-23 -9 -58 -9q-64 0 -106 46.5t-42 121.5q0 79 46 127t123 48q55 0 95 -28.5t62 -69.5t40.5 -82t44 -69.5t60.5 -28.5q45 0 69.5 42.5t24.5 116.5q0 117 -68 194t-193 77h-304v66h787q88 0 132 -42t44 -108q0 -56 -37 -94t-97 -38q-62 0 -100 34.5t-38 88.5
q0 60 37 93h-211q62 -39 94 -107.5t32 -150.5q0 -111 -46 -174t-132 -63q-51 0 -88.5 28.5t-59 69.5t-40.5 81.5t-45.5 69t-61.5 28.5q-42 0 -66.5 -28t-24.5 -78q0 -49 21.5 -77.5t59.5 -28.5q25 0 46 7v-63zM802 404q0 -31 17 -50.5t47 -19.5q29 0 46 19.5t17 49.5
q0 32 -16.5 53t-46.5 21t-47 -22t-17 -51z" />
    <glyph glyph-name="tlPAA" horiz-adv-x="1037" 
d="M113 136q0 -36 21 -59.5t58 -23.5t58.5 23.5t21.5 59.5q0 35 -22 58.5t-60 23.5q-34 0 -55.5 -24t-21.5 -58zM1019 402q0 -56 -37 -94t-96 -38q-63 0 -101 34.5t-38 88.5q0 60 37 93h-127q25 -87 25 -182q0 -155 -53 -234t-147 -79q-99 0 -158 103q-11 -47 -47 -75.5
t-88 -28.5q-68 0 -109.5 40t-41.5 104q0 63 43.5 105t106.5 42q47 0 83.5 -23t60 -56t44.5 -66.5t47 -56.5t57 -23q58 0 90.5 63.5t32.5 184.5q0 95 -31 182h-534v66h503q-74 122 -204 122q-29 0 -55 -7v67q29 8 64 8q200 0 286 -190h211q88 0 132 -42t44 -108zM820 404
q0 -32 16.5 -51t46.5 -19q29 0 46 19.5t17 49.5q0 32 -16.5 53t-46.5 21t-46.5 -22t-16.5 -51z" />
    <glyph glyph-name="tlPHAA" horiz-adv-x="1037" 
d="M377 -177h-98v14l29 167h40l29 -167v-14zM113 136q0 -36 21 -59.5t58 -23.5t58.5 23.5t21.5 59.5q0 35 -22 58.5t-60 23.5q-34 0 -55.5 -24t-21.5 -58zM1019 402q0 -56 -37 -94t-96 -38q-63 0 -101 34.5t-38 88.5q0 60 37 93h-127q25 -87 25 -182q0 -155 -53 -234
t-147 -79q-99 0 -158 103q-11 -47 -47 -75.5t-88 -28.5q-68 0 -109.5 40t-41.5 104q0 63 43.5 105t106.5 42q47 0 83.5 -23t60 -56t44.5 -66.5t47 -56.5t57 -23q58 0 90.5 63.5t32.5 184.5q0 95 -31 182h-534v66h503q-74 122 -204 122q-29 0 -55 -7v67q29 8 64 8
q200 0 286 -190h211q88 0 132 -42t44 -108zM820 404q0 -32 16.5 -51t46.5 -19q29 0 46 19.5t17 49.5q0 32 -16.5 53t-46.5 21t-46.5 -22t-16.5 -51z" />
    <glyph glyph-name="tlBAA" horiz-adv-x="1036" 
d="M359 102q-13 -54 -54.5 -82.5t-104.5 -28.5q-74 0 -120 40t-46 106q0 45 23.5 80.5t57 58.5l66.5 44t56.5 46.5t23.5 55.5q0 34 -17 54.5t-48 20.5q-32 0 -51 -20t-19 -57q0 -17 5 -40h-75q-6 22 -6 44q0 62 39 100.5t107 38.5q65 0 103.5 -40.5t38.5 -98.5
q0 -41 -23 -74.5t-56 -56.5l-66.5 -44.5t-56.5 -49.5t-23 -61q0 -38 25 -60t68 -22q52 0 83 33t31 85v44h79v-44q0 -53 27 -85.5t73 -32.5q57 0 85 56.5t28 143.5q0 104 -43 167t-123 63h-31v66h426q89 0 133 -42t44 -108q0 -56 -37 -94t-97 -38q-62 0 -100.5 34.5
t-38.5 88.5q0 60 37 93h-170q78 -75 78 -231q0 -121 -49.5 -192.5t-138.5 -71.5q-59 0 -97 29.5t-46 81.5zM818 404q0 -31 17 -50.5t46 -19.5q30 0 46.5 19.5t16.5 49.5q0 32 -16.5 53t-46.5 21t-46.5 -22t-16.5 -51z" />
    <glyph glyph-name="tlBHAA" horiz-adv-x="1036" 
d="M359 102q-13 -54 -54.5 -82.5t-104.5 -28.5q-74 0 -120 40t-46 106q0 45 23.5 80.5t57 58.5l66.5 44t56.5 46.5t23.5 55.5q0 34 -17 54.5t-48 20.5q-32 0 -51 -20t-19 -57q0 -17 5 -40h-75q-6 22 -6 44q0 62 39 100.5t107 38.5q65 0 103.5 -40.5t38.5 -98.5
q0 -41 -23 -74.5t-56 -56.5l-66.5 -44.5t-56.5 -49.5t-23 -61q0 -38 25 -60t68 -22q52 0 83 33t31 85v44h79v-44q0 -53 27 -85.5t73 -32.5q57 0 85 56.5t28 143.5q0 99 -46 164.5t-120 65.5h-31v66h426q89 0 133 -42t44 -108q0 -56 -37 -94t-97 -38q-62 0 -100.5 34.5
t-38.5 88.5q0 60 37 93h-176q84 -79 84 -231q0 -121 -49.5 -192.5t-138.5 -71.5q-59 0 -97 29.5t-46 81.5zM406 -177h-98v14l28 167h41l29 -167v-14zM818 404q0 -31 17 -50.5t46 -19.5q30 0 46.5 19.5t16.5 49.5q0 32 -16.5 53t-46.5 21t-46.5 -22t-16.5 -51z" />
    <glyph glyph-name="tlMAA" horiz-adv-x="1343" 
d="M1325 402q0 -56 -36.5 -94t-97.5 -38q-62 0 -99.5 34.5t-37.5 88.5q0 60 37 93h-173q89 -81 89 -222q0 -131 -61 -202.5t-158 -71.5q-116 0 -158 91q-47 -90 -155 -90q-107 0 -168 106q-11 -49 -47 -78t-89 -29q-68 0 -109.5 40t-41.5 104q0 63 43.5 105t106.5 42
q47 0 84.5 -23t62 -56t47 -66.5t51 -56.5t61.5 -23q49 0 77 41.5t28 110.5q0 119 -86.5 199t-230.5 80h-22l-131 162h95l76 -97l161 214h91l-172 -229q123 -12 208.5 -101t88.5 -216q0 -77 34 -121t90 -44q62 0 103.5 53.5t41.5 150.5t-53 161.5t-140 64.5v67h414
q89 0 132.5 -42t43.5 -108zM1126 404q0 -32 16.5 -51t47.5 -19q29 0 45.5 19.5t16.5 49.5q0 32 -16 53t-47 21q-30 0 -46.5 -21.5t-16.5 -51.5zM95 136q0 -36 21 -59.5t58 -23.5t58.5 23.5t21.5 59.5q0 35 -21.5 58.5t-59.5 23.5q-34 0 -56 -24t-22 -58z" />
    <glyph glyph-name="tlYAA" horiz-adv-x="1558" 
d="M1540 402q0 -56 -37 -94t-97 -38q-62 0 -100 34.5t-38 88.5q0 61 36 93h-168q88 -82 88 -221q0 -133 -56.5 -203.5t-150.5 -70.5q-121 0 -168 113q-52 -113 -177 -113q-126 0 -172 129q-31 -62 -85.5 -95.5t-126.5 -33.5q-111 0 -178.5 76.5t-67.5 205.5q0 125 67 202.5
t179 77.5q113 0 179 -76.5t66 -201.5v-7q0 -98 35.5 -155t99.5 -57q57 0 94.5 53.5t37.5 150.5t-53.5 162t-140.5 65l-130 162h95l75 -97l162 214h91l-192 -254q83 -26 127 -93.5t44 -157.5q0 -98 35.5 -151.5t100.5 -53.5q57 0 94 53.5t37 150.5t-53.5 161t-140.5 64v68
q18 0 26 -1h386q89 0 133 -42t44 -108zM1341 404q0 -32 16.5 -51t46.5 -19q29 0 45.5 19.5t16.5 49.5q0 32 -16 53t-46 21t-46.5 -21.5t-16.5 -51.5zM124 273q0 -98 45.5 -157.5t118.5 -59.5t118.5 59.5t45.5 156.5t-45.5 157t-118.5 60q-72 0 -118 -60t-46 -156z" />
    <glyph glyph-name="tlRAA" horiz-adv-x="907" 
d="M573 274q0 -129 -67 -206t-178 -77t-179 76.5t-68 204.5q0 136 81 214h-120v66h671q89 0 132.5 -42t43.5 -108q0 -56 -37 -94t-97 -38q-62 0 -100 34.5t-38 88.5q0 60 37 93h-160q79 -74 79 -212zM164 273q0 -98 45.5 -157.5t118.5 -59.5t118 59t45 157q0 89 -40 147.5
t-106 66.5h-36q-65 -8 -105 -66.5t-40 -146.5zM690 404q0 -32 16.5 -51t46.5 -19q29 0 46 19.5t17 49.5q0 32 -16.5 53t-46.5 21t-46.5 -21.5t-16.5 -51.5z" />
    <glyph glyph-name="tlLAA" horiz-adv-x="1022" 
d="M677 296q0 -132 -88.5 -220t-227.5 -88q-143 0 -231 89t-88 236q0 104 50 176.5t135 72.5q67 0 106 -43t39 -104t-40.5 -101t-98.5 -40q-42 0 -73.5 18.5t-45.5 51.5q-1 -7 -1 -22q0 -122 66 -195.5t185 -73.5q106 0 169.5 69t63.5 176q0 80 -41.5 131t-109.5 55v68h382
q88 0 132 -42t44 -108q0 -56 -37 -94t-97 -38q-62 0 -100 34.5t-38 88.5q0 61 36 93h-170q79 -65 79 -190zM143 416q0 -39 22 -59.5t58 -20.5q33 0 53.5 21.5t20.5 57.5q0 34 -20 58t-56 24t-57 -24.5t-21 -56.5zM805 404q0 -32 16.5 -51t46.5 -19q29 0 46 19.5t17 49.5
q0 32 -16.5 53t-46.5 21t-46.5 -21.5t-16.5 -51.5z" />
    <glyph glyph-name="tlVAA" horiz-adv-x="984" 
d="M95 136q0 -36 21 -59.5t58 -23.5t58.5 23.5t21.5 59.5q0 35 -21.5 58.5t-59.5 23.5q-34 0 -56 -24t-22 -58zM966 402q0 -56 -37 -94t-97 -38q-62 0 -99.5 34.5t-37.5 88.5q0 60 37 93h-220q68 -43 107.5 -114t39.5 -160q0 -104 -50 -162.5t-134 -58.5q-107 0 -168 106
q-11 -49 -47 -78t-89 -29q-68 0 -109.5 40t-41.5 104q0 63 43.5 105t106.5 42q47 0 84.5 -23t62 -56t47 -66.5t51 -56.5t61.5 -23q49 0 77 41.5t28 110.5q0 120 -86 199t-231 79h-244v66h771q88 0 131.5 -42t43.5 -108zM767 404q0 -32 16.5 -51t47.5 -19q29 0 46 20t17 49
q0 32 -17 53t-47 21t-46.5 -21.5t-16.5 -51.5z" />
    <glyph glyph-name="tlSHAA" horiz-adv-x="872" 
d="M522 162q0 -77 -48.5 -124t-123.5 -47q-69 0 -112 36.5t-43 98.5q0 19 4.5 36t10.5 30t19 26l21.5 21t27 19l27.5 16t29.5 15t27.5 14q-42 24 -93 24q-78 0 -126 -47t-48 -118q0 -24 5 -41h-76q-4 21 -4 45q0 96 71.5 158.5t175.5 62.5q88 0 154 -45q28 26 28 60
q0 40 -36.5 62t-102.5 22h-286v66h653q89 0 133 -42t44 -108q0 -56 -37 -94t-97 -38q-62 0 -100 34.5t-38 88.5q0 61 36 93h-129q34 -34 34 -82q0 -61 -52 -106q51 -62 51 -136zM353 53q42 0 68.5 30t26.5 78q0 53 -35 99q-9 -5 -33.5 -17.5t-34.5 -18.5t-28 -18t-26 -22
t-14.5 -24t-6.5 -30q0 -36 22 -56.5t61 -20.5zM654 404q0 -31 17 -50.5t46 -19.5q30 0 46.5 19.5t16.5 49.5q0 32 -16 53t-47 21q-30 0 -46.5 -22t-16.5 -51z" />
    <glyph glyph-name="tlSSAA" horiz-adv-x="1037" 
d="M643 -155h-98q-14 28 -14 72q0 45 19 86q-32 -12 -68 -12q-99 0 -158 103q-11 -47 -47 -75.5t-88 -28.5q-68 0 -109.5 40t-41.5 104q0 63 43.5 105t106.5 42q47 0 83.5 -23t60 -56t44.5 -66.5t47 -56.5t57 -23q58 0 90.5 63.5t32.5 184.5q0 95 -31 182h-534v66h503
q-74 122 -204 122q-29 0 -55 -7v67q29 8 64 8q200 0 286 -190h211q88 0 132 -42t44 -108q0 -56 -37 -94t-96 -38q-63 0 -101 34.5t-38 88.5q0 60 37 93h-127q25 -87 25 -182q0 -130 -39 -208h1q-35 -76 -35 -137q0 -62 34 -114zM113 136q0 -36 21 -59.5t58 -23.5t58.5 23.5
t21.5 59.5q0 35 -22 58.5t-60 23.5q-34 0 -55.5 -24t-21.5 -58zM820 404q0 -32 16.5 -51t46.5 -19q29 0 46 19.5t17 49.5q0 32 -16.5 53t-46.5 21t-46.5 -22t-16.5 -51z" />
    <glyph glyph-name="tlSAA" horiz-adv-x="1042" 
d="M244 0q-23 -9 -58 -9q-64 0 -106 46.5t-42 121.5q0 79 46 127t123 48q40 0 72 -15.5t52 -40t36.5 -54t30.5 -59t28.5 -54t34.5 -40t46 -15.5q98 0 98 250q0 97 -31 180h-536v66h505q-72 122 -204 122q-29 0 -55 -7v67q29 8 64 8q199 0 287 -190h213q88 0 132 -42t44 -108
q0 -56 -37 -94t-97 -38q-62 0 -100 34.5t-38 88.5q0 60 37 93h-130q25 -87 25 -180q0 -155 -46.5 -235t-130.5 -80q-46 0 -81.5 20.5t-55 51.5t-38.5 66.5t-33 66.5t-37.5 51.5t-53.5 20.5q-42 0 -66.5 -28t-24.5 -78q0 -49 21.5 -77.5t59.5 -28.5q25 0 46 7v-63zM824 404
q0 -31 17 -50.5t47 -19.5q29 0 46 19.5t17 49.5q0 32 -16.5 53t-47.5 21q-30 0 -46.5 -22t-16.5 -51z" />
    <glyph glyph-name="tlHAA" horiz-adv-x="1006" 
d="M854 549q67 -10 101 -50t34 -97q0 -55 -37.5 -93.5t-97.5 -38.5q-62 0 -99.5 34.5t-37.5 88.5q0 61 36 93h-211q62 -35 96 -98.5t34 -145.5q0 -114 -52 -182.5t-143 -68.5q-100 0 -157 103q-12 -48 -48 -76t-89 -28q-67 0 -109 40t-42 104q0 62 44 104.5t107 42.5
q47 0 83.5 -23t60 -56t44.5 -66.5t47.5 -56.5t57.5 -23q55 0 86 52t31 133q0 109 -71 177t-205 68v66h462q-51 32 -51 86q0 37 26 60.5t74 23.5h89v-65h-70q-47 0 -47 -43q0 -45 54 -65zM109 136q0 -37 20.5 -60t57.5 -23t58 23.5t21 59.5q0 35 -21.5 58.5t-59.5 23.5
q-34 0 -55 -24t-21 -58zM211 487h-82l-131 162h95l77 -97l161 214h90zM789 404q0 -32 16.5 -51t46.5 -19q29 0 46 19.5t17 49.5q0 32 -16.5 53t-46.5 21t-46.5 -21.5t-16.5 -51.5z" />
    <glyph glyph-name="tlRRAA" horiz-adv-x="1141" 
d="M428 104q-13 -53 -51.5 -83t-98.5 -30q-100 0 -157 74t-57 202q0 135 67 219h-89v66h905q89 0 132.5 -42t43.5 -108q0 -56 -37 -94t-96 -38q-63 0 -101 34.5t-38 88.5q0 60 37 93h-140q55 -69 55 -196q0 -130 -56.5 -214.5t-158.5 -84.5q-63 0 -107.5 31t-52.5 82z
M175 403q0 -33 22 -55.5t58 -22.5q34 0 53.5 23.5t19.5 57.5q0 35 -20.5 57.5t-55.5 22.5q-33 0 -55 -24.5t-22 -58.5zM637 261h-189v66h85q-56 35 -56 102q0 32 14 57h-108q23 -35 23 -78q0 -61 -40.5 -103.5t-102.5 -42.5q-41 0 -72.5 20.5t-45.5 55.5q-7 -46 -7 -73
q0 -91 37.5 -150t105.5 -59q48 0 77.5 32t29.5 84v32h79v-32q0 -52 32.5 -84t86.5 -32q64 0 101 67.5t37 170.5q0 93 -27 142.5t-77 49.5q-33 0 -52 -17.5t-19 -50.5q0 -34 23.5 -60t64.5 -31v-66zM924 404q0 -32 16.5 -51t46.5 -19q29 0 46 19.5t17 49.5q0 32 -16.5 53
t-46.5 21t-46.5 -22t-16.5 -51z" />
    <glyph glyph-name="tlLLAA" horiz-adv-x="960" 
d="M494 115q0 -57 -44 -90.5t-115 -33.5q-70 0 -111.5 34t-41.5 88q0 83 85 118q-73 25 -96 34q-132 51 -132 148q0 55 38 91t103 36q62 0 100 -35.5t38 -86.5q0 -42 -27 -70.5t-68 -39.5q107 -36 130 -45q72 19 116 49.5t44 83.5q0 37 -30.5 63.5t-85.5 26.5v66h369
q88 0 132 -42t44 -108q0 -56 -37 -94t-97 -38q-62 0 -100 35t-38 91q0 57 37 90h-164q49 -35 49 -96q0 -59 -43.5 -103t-119.5 -63q65 -45 65 -109zM336 54q37 0 59.5 18t22.5 49q0 48 -76 82q-42 -10 -64 -32t-22 -52q0 -28 21 -46.5t59 -18.5zM112 410q0 -28 19 -45.5
t48 -17.5q26 0 45 18t19 47q0 28 -18 46.5t-47 18.5q-30 0 -48 -18.5t-18 -48.5zM742 404q0 -31 17 -50.5t47 -19.5q29 0 46 19.5t17 49.5q0 32 -16.5 53t-47.5 21q-30 0 -46.5 -22t-16.5 -51z" />
    <glyph glyph-name="tlLLLAA" horiz-adv-x="1114" 
d="M418 102q-9 -52 -49 -81.5t-101 -29.5q-109 0 -161.5 79.5t-52.5 212.5q0 125 63 203h-75v66h878q88 0 132 -42t44 -108q0 -56 -37 -94t-97 -38q-62 0 -100 34.5t-38 88.5q0 60 37 93h-143q63 -79 63 -212q0 -132 -52 -207.5t-163 -75.5q-60 0 -100 29.5t-48 81.5z
M565 56q71 0 106 57t35 153q0 20 -6 68q-32 -72 -118 -72q-62 0 -101.5 41t-39.5 102q0 44 23 81h-93q23 -37 23 -81q0 -61 -40 -102t-102 -41q-85 0 -117 72q-5 -40 -5 -68q0 -97 34 -153.5t105 -56.5q50 0 79.5 31.5t29.5 84.5v34h78v-34q0 -53 30 -84.5t79 -31.5z
M164 403q0 -34 21 -56t58 -22q34 0 54.5 22.5t20.5 57.5t-20.5 58t-56.5 23q-33 0 -55 -24.5t-22 -58.5zM518 405q0 -35 20 -57.5t55 -22.5q36 0 57.5 22t21.5 56t-22.5 58.5t-55.5 24.5q-36 0 -56 -23t-20 -58zM897 404q0 -32 16 -51t47 -19q29 0 46 19.5t17 49.5
q0 32 -16.5 53t-46.5 21t-46.5 -21.5t-16.5 -51.5z" />
    <glyph glyph-name="tlKI" horiz-adv-x="417" 
d="M368 155q0 -71 -53 -115t-135 -44q-91 0 -161 36v74q83 -45 157 -45q55 0 82.5 24.5t27.5 66.5q0 31 -20 52.5t-49.5 32t-64 24t-64 28t-49.5 44.5t-20 72q0 60 48 100q-11 4 -31 14v64q65 -30 129 -30q66 0 103 37t37 98q-30 -45 -97 -45q-48 0 -84.5 30.5t-36.5 78.5
t34 80.5t91 32.5q74 0 117.5 -49.5t43.5 -125.5q0 -94 -66 -152q14 -4 21 -7v-69q-54 25 -114 25q-53 0 -83.5 -22.5t-30.5 -59.5q0 -31 27.5 -51.5t67 -33.5t79 -29.5t67 -50.5t27.5 -85zM220 701q27 0 45 14.5t18 37.5q0 22 -17 37t-46 15q-26 0 -43 -15t-17 -37
q0 -23 17 -37.5t43 -14.5z" />
    <glyph glyph-name="tlKHI" horiz-adv-x="841" 
d="M524 330q0 -135 -83 -232q60 -38 115 -38q80 0 121.5 85t41.5 210q0 98 -23.5 189t-63.5 151q-4 -38 -38 -62t-79 -24q-48 0 -86.5 31.5t-38.5 79.5t35.5 81t95.5 33q82 0 146.5 -69.5t97 -178.5t32.5 -235q0 -100 -24 -179t-79.5 -130t-135.5 -51q-83 0 -168 60
q-79 -60 -184 -60q-86 0 -136 36t-50 98q0 54 39 89.5t99 35.5q15 0 29.5 -1.5t29.5 -6.5l25.5 -8.5t26.5 -13l23 -13.5t24.5 -16.5t22 -16l23 -18.5t21.5 -17q65 79 65 194q0 72 -33.5 118t-86.5 46q-33 0 -51.5 -15.5t-18.5 -40.5q0 -52 64 -52q32 0 69 17v-61
q-36 -18 -87 -18t-86 31t-35 81q0 54 40 88.5t106 34.5q85 0 140 -65t55 -167zM208 55q71 0 126 39q-41 34 -57.5 46.5t-48 28t-58.5 15.5q-34 0 -53.5 -17.5t-19.5 -43.5q0 -32 30 -50t81 -18zM446 -180h-98v14l29 168h40l29 -168v-14zM463 722q0 -23 17 -37.5t43 -14.5
q27 0 45 14t18 37q0 22 -17 37t-45 15q-26 0 -43.5 -14.5t-17.5 -36.5z" />
    <glyph glyph-name="tlGI" horiz-adv-x="516" 
d="M478 218q0 -118 -28 -218h-83q32 98 32 224q0 72 -14.5 130t-47 95.5t-79.5 37.5q-70 0 -106.5 -75.5t-36.5 -187.5q0 -126 32 -224h-84q-27 96 -27 218q0 103 29.5 184t87.5 119q-36 9 -57 33.5t-21 61.5q0 55 47 91t120 36q90 0 148 -59t58 -146q0 -56 -19 -93
q49 -86 49 -227zM258 551q68 0 116 -39q3 15 3 32q0 59 -37.5 96.5t-96.5 37.5q-40 0 -65.5 -18t-25.5 -47q0 -62 105 -62h1z" />
    <glyph glyph-name="tlGHI" horiz-adv-x="1034" 
d="M342 -181h-97v14l28 167h40l29 -167v-14zM79 136q0 -37 20.5 -60t57.5 -23t58 23.5t21 59.5q0 35 -21.5 58.5t-59.5 23.5q-34 0 -55 -24t-21 -58zM990 264q0 -131 -60.5 -202.5t-158.5 -71.5q-118 0 -160 106q-50 -105 -164 -105q-99 0 -157 103q-12 -48 -48 -76t-89 -28
q-67 0 -108.5 40t-41.5 104q0 63 43.5 105t106.5 42q47 0 83.5 -23t60 -56t44.5 -66.5t47.5 -56.5t58.5 -23q54 0 85 53.5t31 140.5q0 102 -54 169.5t-146 67.5q-15 0 -28 -3l-1 68q15 3 31 3q132 0 204.5 -83.5t72.5 -219.5q0 -91 32.5 -144t92.5 -53q62 0 103.5 53.5
t41.5 150.5t-53.5 161.5t-140.5 64.5v67q128 0 200 -83t72 -205zM182 681q27 0 45 14.5t18 37.5q0 22 -17 37t-46 15q-26 0 -43 -15t-17 -37q0 -23 17 -37.5t43 -14.5zM-2 563q65 -30 129 -30q66 0 103 37t37 98q-30 -45 -97 -45q-48 0 -84.5 30.5t-36.5 78.5t34 80.5
t91 32.5q74 0 117.5 -49.5t43.5 -125.5q0 -84 -56 -143t-147 -59q-77 0 -134 31v64z" />
    <glyph glyph-name="tlNGI" horiz-adv-x="722" 
d="M359 102q-11 -53 -53.5 -82t-105.5 -29q-74 0 -120 40t-46 106q0 45 23.5 80.5t57 58.5l66.5 44t56.5 46.5t23.5 55.5q0 34 -17 54.5t-48 20.5q-32 0 -51 -20t-19 -57q0 -17 5 -40h-75q-6 22 -6 44q0 62 39 100.5t107 38.5q63 0 101.5 -38t40.5 -95h105v64q-35 3 -66 12
v64q46 -12 85 -12q67 0 103.5 37t36.5 98q-28 -45 -97 -45q-48 0 -84.5 30.5t-36.5 78.5t34 80.5t92 32.5q73 0 116.5 -50t43.5 -126q0 -70 -40.5 -124.5t-109.5 -70.5v-69h145v-65h-341q-16 -32 -53.5 -62t-71 -50t-60 -50t-26.5 -65q0 -38 25 -60t68 -22q52 0 83 33t31 85
v44h79v-44q0 -53 27.5 -85.5t77.5 -32.5q44 0 70 27t26 70q0 42 -26.5 67t-68.5 25q-11 0 -29 -4v67q16 4 37 4q74 0 119.5 -44t45.5 -114t-47 -116.5t-123 -46.5q-63 0 -102 29t-47 82zM517 706q27 0 45 14t18 37q0 22 -16.5 37t-45.5 15q-26 0 -43.5 -14.5t-17.5 -36.5
q0 -23 17 -37.5t43 -14.5z" />
    <glyph glyph-name="tlCI" horiz-adv-x="709" 
d="M235 262q-55 -1 -83.5 -33.5t-28.5 -79.5q0 -42 25.5 -67.5t68.5 -25.5q45 0 73 33t28 85v43h78v-43q0 -52 25 -85t70 -33q100 0 100 194q0 97 -38 190.5t-100 139.5q5 -13 5 -27q0 -42 -31.5 -70t-84.5 -28t-90.5 31.5t-37.5 82.5q0 47 35.5 79.5t94.5 32.5
q92 0 168 -61t117 -160t41 -212q0 -122 -46.5 -189.5t-126.5 -67.5q-62 0 -98.5 31t-41.5 80q-7 -48 -46.5 -79.5t-98.5 -31.5q-75 0 -121.5 40t-46.5 107q0 83 68 124h-97v67h220v-67zM347 517q28 0 45.5 13.5t17.5 36.5q0 22 -17 37t-46 15q-27 0 -44 -13.5t-17 -37.5
q0 -25 16.5 -38t44.5 -13z" />
    <glyph glyph-name="tlCHI" horiz-adv-x="709" 
d="M403 -177h-98v14l29 167h40l29 -167v-14zM235 262q-55 -1 -83.5 -33.5t-28.5 -79.5q0 -42 25.5 -67.5t68.5 -25.5q45 0 73 33t28 85v43h78v-43q0 -52 25 -85t70 -33q100 0 100 194q0 97 -38 190.5t-100 139.5q5 -13 5 -27q0 -42 -31.5 -70t-84.5 -28t-90.5 31.5
t-37.5 82.5q0 47 35.5 79.5t94.5 32.5q92 0 168 -61t117 -160t41 -212q0 -122 -46.5 -189.5t-126.5 -67.5q-62 0 -98.5 31t-41.5 80q-7 -48 -46.5 -79.5t-98.5 -31.5q-75 0 -121.5 40t-46.5 107q0 83 68 124h-97v67h220v-67zM347 517q28 0 45.5 13.5t17.5 36.5q0 22 -17 37
t-46 15q-27 0 -44 -13.5t-17 -37.5q0 -25 16.5 -38t44.5 -13z" />
    <glyph glyph-name="tlJI" horiz-adv-x="704" 
d="M359 102q-12 -55 -55 -83t-106 -28q-74 0 -119 40t-45 106q0 44 23.5 80t57 59.5l66.5 45t56.5 47t23.5 54.5q0 34 -17 54t-47 20t-49 -20t-19 -56q0 -19 6 -39h-76q-6 23 -6 46q0 59 38.5 97t104.5 38q36 0 67 -16.5t54.5 -39.5l47 -46t55 -39.5t68.5 -16.5
q55 0 86 39.5t31 95.5q-29 -44 -96 -44q-48 0 -84.5 30.5t-36.5 78.5q0 49 33.5 81.5t91.5 32.5q74 0 117.5 -50t43.5 -126q0 -84 -52 -144t-135 -60q-91 0 -155 66q-5 -35 -29.5 -65.5t-55.5 -52l-61.5 -43t-51 -48.5t-20.5 -59q0 -37 24 -59t64 -22q52 0 85 32t33 86v39
h79v-39q0 -51 27.5 -84.5t72.5 -33.5q42 0 64.5 28t22.5 72q0 47 -23 97h78q21 -53 21 -102q0 -69 -42 -114.5t-115 -45.5q-59 0 -99 29.5t-47 81.5zM460 606q0 -23 17 -37t43 -14q28 0 46 14t18 37q0 21 -17 36.5t-46 15.5q-26 0 -43.5 -15t-17.5 -37z" />
    <glyph glyph-name="tlJHI" horiz-adv-x="1268" 
d="M533 274v-6q0 -98 35.5 -155t99.5 -57q58 0 95 53.5t37 150.5t-53 161t-140 64v68q128 0 199.5 -83t71.5 -205v-4q0 -97 35.5 -151t100.5 -54q57 0 94 53.5t37 150.5t-53 161t-140 64v68q128 0 200 -83t72 -205q0 -133 -56.5 -203.5t-150.5 -70.5q-122 0 -168 115
q-52 -115 -177 -115q-126 0 -172 129q-30 -61 -85.5 -95t-126.5 -34q-111 0 -178.5 76.5t-67.5 204.5q0 87 34 153.5t95 99.5q-70 23 -70 93q0 55 47.5 91t120.5 36q90 0 148 -59t58 -146q0 -36 -9 -67q67 -76 67 -199zM124 273q0 -98 45.5 -157.5t118.5 -59.5t118.5 59.5
t45.5 156.5q0 96 -45.5 156.5t-118.5 60.5q-72 0 -118 -60.5t-46 -155.5zM899 -190h-101v14l33 178h35l33 -178v-14zM283 552q66 0 120 -28q0 3 0.5 10.5t0.5 11.5q0 58 -38 96t-96 38q-40 0 -65.5 -18.5t-25.5 -47.5q0 -62 104 -62z" />
    <glyph glyph-name="tlNYI" horiz-adv-x="916" 
d="M508 -53h-77q0 46 -8 89q-67 -45 -146 -45q-80 0 -130 34.5t-50 99.5q0 59 49.5 98.5t121.5 39.5q118 0 185 -104q59 89 59 193q0 63 -22.5 103.5t-67.5 40.5q-41 0 -62 -31t-21 -80v-34h-78v35q0 47 -23.5 78.5t-64.5 31.5q-40 0 -61 -28t-21 -70q0 -38 13 -73h-78
q-13 36 -13 78q0 67 42 113.5t111 46.5q57 0 92.5 -32t41.5 -82q5 50 39.5 82t88.5 32q66 0 106 -45t50 -118h101v72q-36 1 -78 13v64q46 -12 85 -12q66 0 103 37t37 98q-30 -45 -97 -45q-48 0 -84.5 30t-36.5 79q0 48 34 80.5t91 32.5q74 0 117.5 -50t43.5 -126
q0 -66 -37 -119t-101 -73v-81h119v-64h-293q-7 -141 -102 -246q22 -68 22 -143zM277 55q70 0 126 48q-42 95 -135 95q-41 0 -66.5 -20.5t-25.5 -54.5q0 -32 26 -50t75 -18zM687 737q0 -23 17 -37.5t43 -14.5q27 0 45 14t18 37q0 22 -16.5 37t-46.5 15q-26 0 -43 -14.5
t-17 -36.5z" />
    </font>
</defs>
</svg>
