<svg version="1.2" baseProfile="tiny-ps" xmlns="http://www.w3.org/2000/svg" viewBox="0 0 63 46" width="63" height="46">
	<title>6dashboard3</title>
	<style>
		tspan { white-space:pre }
		.shp0 { fill: #ffffff } 
	</style>
	<g id="6dashboard3">
		<g id="Group 1">
			<path id="Shape 699" class="shp0" d="M56.39 0.23L5.69 0.23C2.58 0.23 0.05 2.76 0.05 5.87L0.05 39.67C0.05 42.78 2.58 45.31 5.69 45.31L56.39 45.31C59.5 45.31 62.03 42.78 62.03 39.67L62.03 5.87C62.03 2.76 59.5 0.23 56.39 0.23M5.69 3.05L56.39 3.05C56.72 3.05 57.04 3.12 57.33 3.22L32.95 27.61C32.44 28.12 31.76 28.4 31.04 28.4C30.32 28.4 29.64 28.12 29.13 27.61L4.75 3.22C5.04 3.12 5.36 3.05 5.69 3.05M2.87 39.67L2.87 5.87C2.87 5.7 2.89 5.54 2.92 5.38L20.31 22.77L2.92 40.16C2.89 40 2.87 39.84 2.87 39.67M56.39 42.49L5.69 42.49C5.36 42.49 5.04 42.42 4.75 42.32L22.3 24.76L27.14 29.6C28.22 30.68 29.63 31.22 31.04 31.22C32.45 31.22 33.86 30.68 34.94 29.6L39.78 24.76L57.33 42.32C57.04 42.42 56.72 42.49 56.39 42.49M59.21 39.67C59.21 39.84 59.19 40 59.16 40.16L41.77 22.77L59.16 5.38C59.19 5.54 59.21 5.7 59.21 5.87L59.21 39.67Z" />
		</g>
	</g>
</svg>