<svg version="1.2" baseProfile="tiny-ps" xmlns="http://www.w3.org/2000/svg" viewBox="0 0 62 51" width="62" height="51">
	<title>6dashboard3</title>
	<style>
		tspan { white-space:pre }
		.shp0 { fill: #ffffff } 
	</style>
	<g id="6dashboard3">
		<path id="Shape 700" class="shp0" d="M42.77 16.82C42.77 13.51 42.77 10.59 42.77 7.67C42.77 7.08 42.73 6.49 42.78 5.9C42.84 5.04 42.57 4.65 41.61 4.65C29.44 4.67 17.26 4.67 5.09 4.68C4.88 4.68 4.68 4.76 4.4 4.83C4.4 18.53 4.4 32.19 4.4 46.16C6.51 44.54 8.45 43.13 10.29 41.6C11.52 40.58 12.84 40.2 14.44 40.21C23.22 40.26 32 40.23 40.78 40.23C41.37 40.23 41.95 40.23 42.73 40.23C42.04 36.9 45.31 36.2 46.75 34.15C46.75 36.58 46.86 39.02 46.71 41.44C46.61 43.1 45.08 44.22 43.14 44.28C41.25 44.34 39.37 44.3 37.48 44.3C29.89 44.3 22.29 44.27 14.7 44.34C13.86 44.34 12.91 44.7 12.23 45.19C10.18 46.66 8.24 48.28 6.26 49.85C5.03 50.83 3.71 51.24 2.22 50.52C0.76 49.81 0.2 48.57 0.2 46.98C0.21 32.84 0.2 18.7 0.21 4.57C0.22 1.99 1.51 0.67 4.08 0.67C17.06 0.65 30.04 0.65 43.02 0.67C45.47 0.67 46.76 2.01 46.79 4.49C46.81 5.93 46.56 7.43 46.84 8.81C47.58 12.44 45.14 14.33 42.77 16.82ZM45.02 30.82C43.02 29.03 41.18 27.39 39.25 25.66C43.31 21.16 47.31 16.72 51.37 12.22C53.3 13.94 55.13 15.58 57.14 17.36C53.11 21.83 49.12 26.26 45.02 30.82ZM23.45 10.34C27.06 10.34 30.66 10.34 34.26 10.35C35.95 10.35 36.95 11.17 36.92 12.45C36.89 13.7 35.95 14.47 34.33 14.47C27.12 14.49 19.92 14.49 12.71 14.48C11.04 14.47 10.03 13.63 10.05 12.35C10.07 11.08 11.06 10.35 12.81 10.35C16.36 10.34 19.9 10.34 23.45 10.34ZM23.49 24.2C19.89 24.2 16.29 24.21 12.68 24.2C11 24.19 10.1 23.51 10.04 22.27C9.99 20.95 10.95 20.1 12.65 20.1C19.86 20.08 27.07 20.08 34.27 20.1C35.99 20.1 36.95 20.92 36.91 22.24C36.88 23.49 35.97 24.19 34.3 24.2C30.7 24.21 27.1 24.2 23.49 24.2ZM32.54 29.95C32.27 31.4 32.04 32.65 31.79 34.02C29.66 34.02 27.63 34.02 25.59 34.02C21.34 34.02 17.09 34.03 12.85 34.01C11.03 34 10.15 33.31 10.14 31.97C10.13 30.64 11.02 29.95 12.83 29.95C19.33 29.94 25.83 29.95 32.54 29.95ZM37.59 27.82C39.39 29.44 41.22 31.07 43.4 33.03C42.25 33.76 41.32 34.5 40.27 34.96C39.16 35.45 37.94 35.8 36.73 35.95C36.18 36.02 35.01 35.37 35.04 35.2C35.45 32.7 34.9 29.88 37.24 27.98C37.32 27.91 37.43 27.89 37.59 27.82ZM58.92 15.36C57.01 13.66 55.18 12.02 53.27 10.32C53.44 10.09 53.53 9.92 53.66 9.78C56.67 6.47 55.93 6.35 59.34 9.41C62.38 12.13 62.32 11.61 59.54 14.78C59.4 14.94 59.23 15.07 58.92 15.36Z" />
	</g>
</svg>