<svg version="1.2" baseProfile="tiny-ps" xmlns="http://www.w3.org/2000/svg" viewBox="0 0 64 50" width="64" height="50">
	<title>6dashboard3</title>
	<style>
		tspan { white-space:pre }
		.shp0 { fill: #ffffff } 
	</style>
	<g id="6dashboard3">
		<path id="Shape 12 copy 5" class="shp0" d="M2.62 41.53C2.16 40.56 2.28 39.54 2.33 38.54C2.41 37.12 3.22 36.18 4.56 35.67C4.11 34.28 4.22 32.89 4.52 31.43C4.22 31.43 3.95 31.45 3.69 31.42C3.21 31.36 2.71 31.34 2.27 31.17C1.16 30.76 0.49 29.93 0.37 28.74C0.3 28.04 0.3 27.32 0.37 26.63C0.5 25.38 1.2 24.51 2.35 24C2.43 23.97 2.51 23.93 2.57 23.9C2.18 22.48 2.18 21.1 2.58 19.69C1.91 19.44 1.33 19.05 0.91 18.45C0.05 17.22 0.08 14.5 0.97 13.29C1.32 12.81 1.63 12.59 2.56 12.12C2.17 10.74 2.18 9.35 2.56 7.93C2.49 7.9 2.41 7.85 2.31 7.81C1.04 7.22 0.36 6.23 0.33 4.82C0.32 4.22 0.3 3.61 0.36 3.02C0.54 1.47 1.85 0.03 3.79 0.04C12.91 0.06 22.03 0.05 31.15 0.05C32.51 0.05 33.88 0.08 35.24 0.04C37.43 -0.02 38.7 1.87 38.67 3.39C38.66 3.87 38.7 4.36 38.66 4.84C38.63 5.3 38.52 5.76 38.44 6.27C40.24 6.93 40.8 8.38 40.64 10.24C41.31 10.18 41.92 10.1 42.53 10.06C46.12 9.82 49.53 10.53 52.69 12.24C58.82 15.58 62.38 20.73 63.14 27.67C64.22 37.52 57.38 46.75 47.65 48.71C46.52 48.93 45.37 49 44.22 49.12C43.86 49.15 43.5 49.06 43.13 49.06C30.03 49.06 16.92 49.06 3.82 49.06C2.98 49.07 2.2 48.93 1.52 48.42C0.82 47.9 0.42 47.19 0.36 46.32C0.33 45.67 0.31 45.01 0.37 44.36C0.48 43.07 1.17 42.18 2.35 41.65C2.43 41.62 2.51 41.58 2.62 41.53ZM43.62 47.33C44.51 47.24 45.4 47.19 46.28 47.06C54.14 45.92 60.43 39.36 61.19 31.47C61.66 26.63 60.35 22.29 57.29 18.51C52.95 13.16 45.76 10.79 39.25 12.59C37.89 12.96 36.48 13.31 35.25 13.95C28.47 17.5 24.81 25.18 26.19 32.73C27.74 41.15 35.06 47.26 43.62 47.33ZM19.49 5.92C24.69 5.92 29.9 5.92 35.1 5.92C35.31 5.92 35.52 5.92 35.73 5.9C36.32 5.83 36.68 5.45 36.69 4.86C36.71 4.38 36.71 3.89 36.69 3.41C36.66 2.53 36.1 2 35.24 2C24.75 2 14.27 2 3.78 2C2.88 2 2.32 2.56 2.3 3.47C2.29 3.93 2.29 4.38 2.3 4.84C2.31 5.43 2.66 5.82 3.25 5.9C3.46 5.92 3.67 5.92 3.88 5.92C9.08 5.92 14.29 5.92 19.49 5.92ZM21.49 7.89C16.25 7.89 11 7.89 5.76 7.89C4.87 7.89 4.29 8.44 4.27 9.34C4.26 9.76 4.27 10.18 4.27 10.6C4.27 11.37 4.65 11.76 5.41 11.8C5.59 11.81 5.78 11.81 5.96 11.81C15.22 11.81 24.49 11.79 33.75 11.82C35.11 11.83 36.38 11.66 37.59 11.05C37.94 10.88 38.44 10.83 38.61 10.56C38.79 10.28 38.67 9.8 38.67 9.41C38.65 8.42 38.12 7.89 37.13 7.89C31.92 7.89 26.7 7.89 21.49 7.89ZM34.87 47.08C34.87 47.06 34.88 47.04 34.88 47.01C34.71 46.93 34.54 46.84 34.36 46.75C32.61 45.9 30.98 44.87 29.7 43.36C29.6 43.24 29.38 43.19 29.22 43.19C20.71 43.18 12.21 43.18 3.71 43.19C2.92 43.19 2.34 43.73 2.31 44.52C2.29 45.03 2.29 45.54 2.3 46.05C2.31 46.59 2.63 46.96 3.17 47.05C3.39 47.09 3.61 47.1 3.84 47.1C14.06 47.1 24.27 47.1 34.5 47.1C34.62 47.1 34.74 47.09 34.87 47.08ZM31.63 13.77C31.59 13.77 31.5 13.77 31.4 13.77C22.17 13.77 12.95 13.76 3.72 13.77C2.94 13.77 2.35 14.3 2.31 15.09C2.28 15.62 2.29 16.16 2.31 16.7C2.32 17.14 2.56 17.44 2.97 17.58C3.2 17.65 3.46 17.68 3.7 17.68C11.65 17.69 19.61 17.69 27.56 17.68C27.76 17.68 28 17.58 28.14 17.44C29.31 16.23 30.47 14.99 31.63 13.77ZM27.79 41.23C27.79 41.15 27.79 41.12 27.78 41.1C27.71 41.02 27.65 40.94 27.58 40.86C26.73 39.93 26.1 38.86 25.71 37.66C25.62 37.37 25.47 37.29 25.18 37.29C18.68 37.3 12.18 37.3 5.68 37.3C4.86 37.3 4.29 37.87 4.27 38.7C4.26 39.15 4.27 39.59 4.27 40.04C4.27 40.74 4.59 41.1 5.28 41.2C5.45 41.22 5.62 41.22 5.79 41.22C12.99 41.23 20.18 41.23 27.38 41.23C27.51 41.23 27.64 41.23 27.79 41.23ZM24.24 25.55C24.14 25.55 24.04 25.54 23.94 25.54C17.19 25.54 10.44 25.54 3.69 25.54C2.93 25.54 2.35 26.08 2.31 26.85C2.28 27.39 2.29 27.92 2.31 28.46C2.32 28.92 2.57 29.22 3 29.36C3.23 29.43 3.49 29.46 3.73 29.46C10.31 29.46 16.89 29.46 23.46 29.46C23.6 29.46 23.74 29.46 23.86 29.46C23.99 28.14 24.11 26.87 24.24 25.55ZM26.45 19.65C26.35 19.65 26.22 19.65 26.09 19.65C19.31 19.65 12.52 19.65 5.74 19.65C4.85 19.65 4.28 20.21 4.27 21.12C4.26 21.51 4.26 21.9 4.26 22.29C4.27 23.17 4.65 23.57 5.53 23.57C11.87 23.58 18.21 23.57 24.55 23.58C24.77 23.58 24.87 23.51 24.95 23.31C25.43 22.1 25.94 20.9 26.45 19.65ZM23.93 31.44C23.87 31.44 23.76 31.43 23.66 31.43C18.32 31.43 12.97 31.43 7.63 31.43C6.85 31.43 6.27 31.98 6.24 32.77C6.22 33.3 6.23 33.82 6.24 34.34C6.25 34.78 6.5 35.12 6.93 35.24C7.17 35.32 7.44 35.34 7.7 35.34C13.25 35.35 18.81 35.35 24.36 35.35C24.5 35.35 24.63 35.35 24.71 35.35C24.45 34.04 24.2 32.76 23.93 31.44ZM29.83 29.62C29.83 22.06 36.05 15.87 43.61 15.9C51.22 15.94 57.38 22.1 57.35 29.67C57.33 37.24 51.15 43.38 43.55 43.36C35.99 43.35 29.82 37.17 29.83 29.62ZM55.38 29.62C55.37 23.13 50.08 17.87 43.57 17.87C37.08 17.87 31.78 23.17 31.79 29.65C31.8 36.13 37.12 41.42 43.6 41.39C50.12 41.37 55.39 36.1 55.38 29.62Z" />
	</g>
</svg>